<svg viewBox="0 0 1259.2 471.1" fill="none" stroke-linecap="square" stroke-miterlimit="10" xmlns="http://www.w3.org/2000/svg">
  <path fill="none" d="M0 0h1259.2v471.1H0z"/>
  <path fill="#fff" d="M574.5 121h90.7v75.5h-90.7z" fill-rule="evenodd"/>
  <path stroke="#000" stroke-linejoin="round" stroke-linecap="butt" d="M574.5 121h90.7v75.5h-90.7z"/>
  <path fill="#fff" d="M567 113.4h90.6V189H567z" fill-rule="evenodd"/>
  <path stroke="#000" stroke-linejoin="round" stroke-linecap="butt" d="M567 113.4h90.6V189H567z"/>
  <path fill="#fff" d="M559.4 105.8H650v75.6h-90.7z" fill-rule="evenodd"/>
  <path stroke="#000" stroke-linejoin="round" stroke-linecap="butt" d="M559.4 105.8H650v75.6h-90.7z"/>
  <path fill="#fff" d="M294.8 226.8h90.7v75.6h-90.7z" fill-rule="evenodd"/>
  <path stroke="#000" stroke-linejoin="round" stroke-linecap="butt" d="M294.8 226.8h90.7v75.6h-90.7z"/>
  <path fill="#000" d="M336 239.4v8.7h-1.3v-7.4l-2.1 1.3v-1.2l2.1-1.4h1.3zm2.5 8.7v-8.7h1.3v3.2l.4-.5.5-.4q.4-.2 1-.2.8 0 1.4.4.7.4 1 1.1.4.8.4 1.8t-.4 1.8q-.3.8-1 1.2-.6.4-1.4.4l-1-.2-.5-.4-.3-.5h-.2v1h-1.2zm1.2-3.3q0 .7.2 1.2l.6.8q.4.3 1 .3.5 0 .9-.3t.6-.8q.2-.5.2-1.2l-.2-1.2q-.2-.5-.6-.8-.4-.3-1-.3-.5 0-.9.3t-.6.8q-.2.5-.2 1.2zm7 3.4q-.3 0-.6-.3-.2-.2-.2-.6l.2-.6q.3-.2.7-.2.3 0 .5.2.3.3.3.6l-.1.4-.3.4h-.4zM325.7 253.4h1.3v5.7q0 1-.4 1.6-.4.7-1.2 1.1-.8.4-1.8.4t-1.9-.4q-.7-.4-1.2-1-.4-.8-.4-1.7v-5.7h1.3v5.6q0 .6.3 1 .2.5.7.8.5.2 1.2.2.6 0 1.1-.2.5-.3.8-.7.2-.5.2-1.1v-5.6zm3.1 11.1v-9h1.3v1.1l.4-.5.6-.4q.4-.2 1-.2.8 0 1.4.4.6.4 1 1.1.3.8.3 1.8t-.3 1.8q-.4.8-1 1.2-.6.4-1.4.4-.6 0-1-.2l-.6-.4-.3-.5v3.4h-1.4zm1.3-5.7q0 .7.2 1.2t.6.8q.4.3.9.3.6 0 1-.3l.5-.8q.2-.5.2-1.2l-.2-1.2-.5-.8q-.4-.3-1-.3-.5 0-1 .3l-.5.8q-.2.5-.2 1.2zm8.6 3.4q-.8 0-1.4-.4-.6-.4-1-1.2-.3-.7-.3-1.8 0-1 .3-1.8.4-.7 1-1.1.6-.4 1.4-.4.6 0 1 .2l.6.4.3.5v-3.2h1.3v8.7h-1.2v-1h-.1l-.3.5-.6.4q-.4.2-1 .2zm.3-1q.5 0 1-.4l.5-.8q.2-.5.2-1.2t-.2-1.2q-.2-.5-.6-.8-.4-.3-1-.3-.5 0-.9.3t-.6.8l-.1 1.2.1 1.2q.2.5.6.8.4.3 1 .3zm6.7 1q-.7 0-1.2-.2t-.8-.7q-.2-.4-.2-1t.2-1l.5-.5.8-.4 1-.1.9-.1q.4 0 .6-.2l.1-.3q0-.6-.3-.9-.3-.3-1-.3-.6 0-1 .3l-.4.6-1.2-.3q.2-.6.6-1l1-.5 1-.1h.9l.8.4q.4.2.6.7.3.4.3 1.1v4.4h-1.2v-.9l-.5.5-.6.4-1 .1zm.2-1q.6 0 1-.2l.5-.5.2-.8v-.8l-.2.1-.5.1h-.5l-.4.1-.6.2q-.3 0-.5.3-.2.2-.2.6 0 .4.3.7.4.2 1 .2zm7.7-5.7v1h-3.5v-1h3.5zM351 254h1.3v6.2l.1.5.3.3h.8l.3 1-.3.1h-.6l-.9-.1q-.4-.2-.7-.6-.3-.4-.3-1V254zm6.8 8.2q-1 0-1.7-.4t-1-1.2q-.4-.7-.4-1.7t.4-1.8q.3-.8 1-1.2.7-.4 1.6-.4l1 .1q.6.2 1 .6l.7 1q.2.7.2 1.5v.5h-5.2v-1h4q0-.5-.2-.8-.2-.4-.6-.7-.4-.2-.9-.2t-1 .3q-.3.2-.5.7-.2.4-.2.9v.7q0 .7.2 1.1.2.5.6.7.5.3 1 .3l.7-.1.5-.3.3-.6 1.2.2q-.1.6-.5 1t-1 .6q-.5.2-1.2.2zM324.1 276.2q-1 0-1.6-.4-.7-.4-1-1.2-.4-.8-.4-1.8t.4-1.7q.3-.8 1-1.2.7-.4 1.6-.4.8 0 1.3.2.6.3 1 .8t.4 1.1h-1.2q-.1-.4-.5-.7-.3-.4-1-.4-.5 0-.9.3t-.6.8q-.2.5-.2 1.2t.2 1.3q.2.5.6.8.4.2 1 .2h.6l.5-.5.3-.6h1.2q0 .6-.4 1.1-.3.5-1 .8-.5.3-1.3.3zm6.8 0q-.9 0-1.6-.4-.6-.4-1-1.2-.4-.7-.4-1.8 0-1 .4-1.7.4-.8 1-1.2.7-.4 1.6-.4 1 0 1.7.4.6.4 1 1.2.4.7.4 1.7t-.4 1.8q-.4.8-1 1.2-.7.4-1.7.4zm0-1q.7 0 1-.4.4-.3.6-.8.2-.5.2-1.2 0-.6-.2-1.1-.2-.5-.6-.8-.3-.4-1-.4-.5 0-1 .4l-.5.8q-.2.5-.2 1.1 0 .7.2 1.2t.6.8q.4.3 1 .3zm8.7-1.8v-3.9h1.2v6.6h-1.2v-1.2q-.3.6-.8 1-.5.3-1.2.3t-1.1-.3q-.5-.3-.8-.8-.3-.6-.3-1.4v-4.2h1.3v4q0 .7.4 1.1.3.4 1 .4l.6-.2q.4-.2.6-.5.3-.4.3-1zm3 2.7v-6.6h1.2v1q.2-.4.7-.7.5-.4 1-.4h.6v1.3h-.7l-.8.1q-.4.2-.6.5l-.2.8v4h-1.2zm9.5-5l-1.2.2-.2-.4-.4-.3-.7-.1q-.5 0-.9.2t-.4.6q0 .3.3.6.2.2.8.3l1 .2q1 .2 1.3.7.5.4.5 1.1 0 .6-.3 1-.4.5-1 .8-.6.2-1.4.2-1 0-1.8-.5-.7-.4-.8-1.3l1.2-.2q.1.5.5.7.3.3 1 .3.5 0 1-.3.3-.2.3-.6 0-.3-.2-.5l-.7-.3-1.1-.3q-1-.2-1.4-.6-.4-.5-.4-1.2 0-.6.3-1 .3-.5.9-.7.6-.2 1.3-.2 1 0 1.7.4.6.5.8 1.2zm4.3 5.1q-1 0-1.7-.4-.6-.4-1-1.2-.4-.7-.4-1.7t.4-1.8q.4-.8 1-1.2.7-.4 1.6-.4l1.1.1 1 .6q.4.4.6 1 .2.7.2 1.5v.5H354v-1h4q0-.5-.2-.8-.2-.4-.6-.7-.4-.2-.9-.2t-.9.3q-.4.2-.6.7-.2.4-.2.9v.7q0 .7.2 1.1.2.5.6.7.5.3 1 .3l.7-.1.5-.3.3-.6 1.2.2q0 .6-.5 1-.3.4-1 .6-.5.2-1.2.2zM324.7 290.2q-1 0-1.6-.4-.7-.4-1-1.2-.4-.8-.4-1.8t.3-1.7q.4-.8 1-1.2.8-.4 1.7-.4.7 0 1.3.2.6.3 1 .8.3.5.4 1.1h-1.2q-.1-.4-.5-.7-.4-.4-1-.4-.5 0-1 .3l-.5.8q-.3.5-.3 1.2t.3 1.3q.2.5.6.8.4.2 1 .2h.6l.5-.5.3-.6h1.2q0 .6-.4 1.1-.4.5-1 .8-.5.3-1.3.3zm5.3-4v3.9h-1.2v-8.7h1.2v3.2h.1q.2-.5.7-.8.5-.3 1.3-.3.6 0 1.1.2.5.3.8.9.3.5.3 1.3v4.2H333v-4q0-.7-.4-1.1-.3-.4-1-.4l-.8.2q-.4.1-.6.5-.2.4-.2.9zm8.7 4q-.9 0-1.6-.4-.6-.4-1-1.2-.4-.7-.4-1.8 0-1 .4-1.7.4-.8 1-1.2.7-.4 1.6-.4 1 0 1.7.4.6.4 1 1.2.4.7.4 1.7t-.4 1.8q-.4.8-1 1.2-.7.4-1.7.4zm0-1q.7 0 1-.4.4-.3.6-.8.2-.5.2-1.2 0-.6-.2-1.1-.2-.5-.6-.8-.3-.4-1-.4-.5 0-1 .4l-.5.8q-.2.5-.2 1.1 0 .7.2 1.2t.6.8q.4.3 1 .3zm4.5.9v-6.6h1.3v6.6h-1.3zm.7-7.6l-.6-.2q-.2-.2-.2-.5l.2-.6.6-.2.6.2.2.6q0 .3-.2.5l-.6.2zm5 7.7q-.9 0-1.6-.4-.7-.4-1-1.2-.4-.8-.4-1.8t.4-1.7q.4-.8 1-1.2.7-.4 1.6-.4.8 0 1.4.2.6.3 1 .8.3.5.3 1.1h-1.2q0-.4-.5-.7-.3-.4-1-.4-.5 0-.9.3t-.6.8q-.2.5-.2 1.2t.2 1.3q.2.5.6.8.4.2 1 .2h.6l.5-.5.3-.6h1.2q0 .6-.4 1.1-.3.5-.9.8-.6.3-1.3.3zm7 0q-1 0-1.7-.4t-1.1-1.2q-.4-.7-.4-1.7t.4-1.8q.4-.8 1-1.2.7-.4 1.7-.4l1 .1q.6.2 1 .6.4.4.6 1 .3.7.3 1.5v.5h-5.3v-1h4q0-.5-.2-.8-.2-.4-.6-.7-.3-.2-.8-.2-.6 0-1 .3-.4.2-.6.7-.2.4-.2.9v.7q0 .7.2 1.1.3.5.7.7.4.3 1 .3l.6-.1.5-.3.4-.6 1.2.2-.5 1q-.4.4-1 .6-.5.2-1.3.2z"/>
  <path fill="#fff" d="M551.8 98.3h90.7v75.6h-90.7z" fill-rule="evenodd"/>
  <path stroke="#000" stroke-linejoin="round" stroke-linecap="butt" d="M551.8 98.3h90.7v75.6h-90.7z"/>
  <path fill="#000" d="M576.3 126.3h-1.5q0-.5-.3-.8-.2-.4-.6-.6-.3-.3-.7-.4l-.9-.1q-.8 0-1.5.4-.6.4-1 1.2-.4.8-.4 2t.4 2q.4.8 1 1.3.7.4 1.5.4.5 0 .9-.2.4 0 .7-.3l.6-.6.3-.9h1.5q-.1.8-.5 1.4-.3.6-.8 1l-1.2.7q-.7.2-1.5.2-1.3 0-2.2-.6-1-.6-1.6-1.7-.6-1.1-.6-2.7 0-1.5.6-2.7.6-1 1.6-1.7 1-.6 2.2-.6.8 0 1.4.3.7.2 1.2.6.6.4 1 1 .3.6.4 1.4zm3 2.3v4.3H578v-9.7h1.4v3.6h.1q.3-.6.8-1 .5-.3 1.4-.3.7 0 1.3.3.5.3.8 1 .4.5.4 1.4v4.7h-1.4v-4.5q0-.8-.5-1.2-.4-.5-1.1-.5l-1 .2q-.3.2-.5.7-.3.4-.3 1zm9.7 4.4q-1 0-1.8-.5-.7-.4-1.1-1.3-.5-.8-.5-2 0-1 .5-2 .4-.8 1.1-1.2.8-.5 1.8-.5t1.8.5q.8.4 1.2 1.3.4.8.4 2 0 1-.4 2-.4.8-1.2 1.2-.8.5-1.8.5zm0-1.2q.7 0 1.1-.3.5-.4.7-1 .2-.5.2-1.2t-.2-1.3q-.2-.6-.7-1-.4-.3-1-.3-.8 0-1.2.3-.4.4-.6 1-.2.6-.2 1.3 0 .7.2 1.3.2.5.6.9.4.3 1.1.3zm8 1.2q-1 0-1.7-.5-.8-.4-1.2-1.3-.4-.8-.4-2 0-1 .4-2 .4-.8 1.2-1.2.7-.5 1.7-.5t1.8.5q.8.4 1.2 1.3.4.8.4 2 0 1-.4 2-.4.8-1.2 1.2-.7.5-1.8.5zm0-1.2q.7 0 1.1-.3.5-.4.7-1 .2-.5.2-1.2t-.2-1.3q-.2-.6-.7-1-.4-.3-1-.3-.7 0-1.2.3-.4.4-.6 1-.2.6-.2 1.3 0 .7.2 1.3.2.5.6.9.5.3 1.1.3zm10.5-4.4l-1.3.2-.3-.5-.4-.3q-.3-.2-.8-.2-.6 0-1 .3t-.4.7q0 .3.3.6l.9.3 1.1.3q1 .2 1.5.7.5.5.5 1.3 0 .6-.4 1.1-.4.5-1 .8-.7.3-1.6.3-1.2 0-2-.5-.7-.5-1-1.5l1.5-.2q0 .5.5.8.4.3 1 .3.7 0 1.1-.3.5-.3.5-.7 0-.4-.3-.6l-.8-.4-1.2-.2q-1-.3-1.5-.8t-.5-1.3q0-.6.4-1 .3-.6 1-.8.6-.3 1.4-.3 1.2 0 1.9.5.6.5.9 1.4zm4.8 5.6q-1 0-1.9-.4-.7-.5-1.2-1.3-.4-.9-.4-2t.4-2q.5-.8 1.2-1.3.8-.5 1.8-.5l1.2.2q.6.2 1 .6.5.5.7 1.2.3.7.3 1.7v.5h-5.8v-1.1h4.4q0-.6-.2-1t-.6-.7l-1-.2q-.6 0-1 .3-.5.3-.7.7-.3.5-.3 1v.9q0 .7.3 1.2.2.5.7.8.5.2 1.1.2h.7l.6-.4.4-.6 1.3.3q-.1.5-.6 1l-1 .7q-.6.2-1.4.2zm10.3 0q-.7 0-1.2-.2-.6-.3-.9-.8-.3-.5-.3-1.2 0-.6.2-1t.6-.6l1-.4 1-.2h1l.6-.3q.2 0 .2-.3 0-.7-.4-1-.3-.4-1-.4t-1.1.4q-.4.3-.6.7l-1.3-.4q.2-.6.7-1 .4-.4 1-.6.6-.2 1.3-.2l1 .1.8.4q.5.2.7.7.3.5.3 1.3v4.9h-1.4v-1l-.4.5q-.3.3-.7.4l-1 .2zm.3-1.1q.6 0 1-.2l.7-.6q.2-.4.2-.9v-.9l-.3.1-.5.2h-1l-.7.3q-.3 0-.5.3l-.2.6q0 .5.4.8.3.3 1 .3zM579.4 149q-1 0-1.9-.5-.7-.4-1.1-1.3-.4-.9-.4-2 0-1 .4-1.9.4-.8 1.2-1.3.7-.5 1.8-.5.8 0 1.4.3.7.3 1 .9.5.5.6 1.2H581q-.1-.5-.5-.8-.4-.4-1.1-.4-.6 0-1 .3-.5.3-.7.9-.3.6-.3 1.3 0 .8.2 1.4.3.6.7.9.5.3 1 .3l.8-.1.6-.5.3-.6h1.4q-.1.7-.5 1.2-.4.6-1 .9-.7.3-1.5.3zm7.5 0q-1 0-1.8-.5-.7-.4-1.1-1.3-.4-.8-.4-2 0-1 .4-2 .4-.8 1.1-1.2.8-.5 1.8-.5t1.8.5q.8.4 1.2 1.3.4.8.4 2 0 1-.4 2-.4.8-1.2 1.2-.7.5-1.8.5zm0-1.2q.7 0 1.1-.3.5-.4.7-1 .2-.5.2-1.2t-.2-1.3q-.2-.6-.7-1-.4-.3-1-.3-.7 0-1.2.3-.4.4-.6 1-.2.6-.2 1.3 0 .7.2 1.3.2.5.6.9.5.3 1.1.3zm9.6-2v-4.2h1.4v7.3h-1.4v-1.3q-.3.6-.8 1-.6.4-1.4.4-.7 0-1.3-.4-.5-.3-.8-.9-.3-.6-.3-1.5v-4.6h1.4v4.5q0 .7.4 1.1.4.5 1.1.5l.8-.2q.4-.2.7-.6.2-.4.2-1zm3.3 3v-7.2h1.4v1.2q.3-.6.8-1 .5-.3 1.1-.3h.6v1.4h-.3l-.4-.1q-.5 0-.9.2t-.6.6q-.3.4-.3.8v4.5h-1.4zm10.6-5.4l-1.3.2q0-.3-.2-.5l-.5-.3q-.3-.2-.7-.2-.6 0-1 .3-.5.3-.5.7 0 .3.3.6l.9.3 1.1.3q1 .2 1.5.7.5.5.5 1.3 0 .6-.3 1.1-.4.5-1 .8-.7.3-1.6.3-1.3 0-2-.5-.8-.5-1-1.5l1.4-.2q.1.5.5.8.4.3 1 .3.7 0 1.2-.3.4-.3.4-.7 0-.4-.3-.6l-.7-.4-1.3-.2q-1-.3-1.5-.8t-.5-1.3q0-.6.4-1 .4-.6 1-.8.6-.3 1.5-.3 1.1 0 1.8.5t1 1.4zm4.8 5.6q-1 0-1.8-.4-.8-.5-1.2-1.3-.4-.9-.4-2t.4-2q.4-.8 1.2-1.3.7-.5 1.7-.5l1.2.2q.6.2 1 .6.5.5.8 1.2.2.7.2 1.7v.5h-5.7v-1.1h4.4q0-.6-.3-1-.2-.4-.6-.7-.4-.2-1-.2t-1 .3l-.7.7-.2 1v.9q0 .7.2 1.2.3.5.8.8.4.2 1 .2h.8l.5-.4.4-.6 1.4.3-.6 1-1 .7q-.7.2-1.5.2z"/>
  <path fill="#fff" d="M559.4 234.3H650V310h-90.7z" fill-rule="evenodd"/>
  <path stroke="#000" stroke-linejoin="round" stroke-linecap="butt" d="M559.4 234.3H650V310h-90.7z"/>
  <path fill="#fff" d="M551.8 226.8h90.7v75.6h-90.7z" fill-rule="evenodd"/>
  <path stroke="#000" stroke-linejoin="round" stroke-linecap="butt" d="M551.8 226.8h90.7v75.6h-90.7z"/>
  <path fill="#000" d="M562.3 269.4v-9.7h6.1v1.2h-4.6v3h4.3v1.2h-4.3v3h4.7v1.3h-6.2zm10.7.1q-.9 0-1.6-.4-.7-.5-1-1.3-.5-.9-.5-2 0-1.2.4-2 .4-.9 1.1-1.3.7-.5 1.6-.5.7 0 1 .2.5.2.7.6l.4.5v-3.6h1.5v9.7h-1.4v-1.2h-.1l-.4.6q-.2.3-.6.5-.5.2-1.1.2zm.3-1.2q.6 0 1-.3l.7-1q.2-.5.2-1.3 0-.7-.2-1.3-.2-.6-.7-.9-.4-.3-1-.3t-1 .3q-.5.4-.7 1-.2.5-.2 1.2 0 .8.2 1.4.2.5.6.9.5.3 1 .3zm5.3 1v-7.2h1.4v7.3h-1.4zm.7-8.3q-.3 0-.6-.3-.2-.2-.2-.6l.2-.6.6-.2q.4 0 .7.2.3.3.3.6 0 .4-.3.6-.3.3-.7.3zm6 1.1v1.1h-4v-1.1h4zm-2.9-1.7h1.4v6.8l.1.7.4.2.4.1h.5l.2 1.1-.3.1h-.6l-1-.1q-.5-.2-.8-.7-.3-.4-.3-1v-7.2zm11 9.1q-1 0-1.8-.5-.7-.4-1.1-1.3-.4-.8-.4-2 0-1 .4-1.9.4-.8 1.2-1.3.7-.5 1.8-.5.8 0 1.4.3.7.3 1 .9.5.5.6 1.2H595q-.1-.5-.5-.8-.4-.4-1.1-.4-.6 0-1 .3-.5.3-.8.9-.2.6-.2 1.3 0 .8.2 1.4l.7 1 1 .2.8-.1.5-.5q.3-.2.4-.6h1.4q-.1.7-.5 1.2-.4.6-1 .9-.7.3-1.5.3zm7.6 0q-1 0-1.8-.5-.7-.4-1.1-1.3-.5-.8-.5-2 0-1 .5-2 .4-.8 1.1-1.2.8-.5 1.8-.5t1.8.5q.8.4 1.2 1.3.4.8.4 2 0 1.1-.4 2-.4.8-1.2 1.2-.8.5-1.8.5zm0-1.2q.7 0 1.1-.3.5-.4.7-1 .2-.5.2-1.2t-.2-1.3q-.2-.6-.7-1-.4-.3-1-.3-.7 0-1.2.3-.4.4-.6 1-.2.6-.2 1.3 0 .7.2 1.3.2.5.6.9.5.3 1.1.3zm9.6-2v-4.2h1.4v7.3h-1.4V268q-.3.6-.9 1-.5.4-1.3.4-.7 0-1.3-.4-.5-.3-.8-.9-.3-.6-.3-1.5v-4.6h1.4v4.5q0 .7.4 1.1.4.5 1 .5.5 0 .9-.2t.6-.6q.3-.4.3-1zm3.3 3v-7.2h1.4v1.2q.3-.6.8-1 .5-.3 1.1-.3h.6v1.4h-.3l-.4-.1-1 .2q-.3.2-.5.6-.3.4-.3.8v4.5H614zm10.6-5.4l-1.3.2q0-.2-.3-.5-.1-.2-.4-.3-.3-.2-.8-.2t-1 .3q-.4.3-.4.7 0 .3.3.6l.9.3 1.1.3q1 .2 1.5.7.5.5.5 1.3 0 .6-.4 1.1-.3.5-1 .8-.7.3-1.5.3-1.3 0-2-.5-.8-.5-1-1.5l1.4-.2q.1.5.5.8.4.3 1 .3.7 0 1.2-.3.4-.3.4-.7 0-.4-.3-.6l-.7-.4-1.3-.2q-1-.3-1.5-.8t-.5-1.3q0-.6.4-1 .4-.6 1-.8.6-.3 1.4-.3 1.2 0 1.9.5t.9 1.4zm4.8 5.6q-1 0-1.8-.4-.8-.5-1.2-1.3-.4-.9-.4-2t.4-2q.4-.8 1.2-1.3.7-.5 1.7-.5l1.2.2q.6.2 1 .7.5.4.8 1 .2.8.2 1.8v.5h-5.7V265h4.3q0-.6-.2-1t-.6-.7q-.4-.2-1-.2t-1 .3q-.5.3-.7.7l-.2 1v.9q0 .7.2 1.2.3.5.7.8.5.3 1.1.3l.8-.2q.3 0 .5-.3l.4-.6 1.3.3q-.1.5-.5 1l-1 .7q-.7.2-1.5.2z"/>
  <path fill="#fff" d="M982.7 226.8h90.7v75.6h-90.7z" fill-rule="evenodd"/>
  <path stroke="#000" stroke-linejoin="round" stroke-linecap="butt" d="M982.7 226.8h90.7v75.6h-90.7z"/>
  <path fill="#000" d="M1026.5 255.2q-.9 0-1.6-.3-.7-.3-1-.8-.5-.6-.5-1.3h1.3q0 .4.3.7.2.3.6.4.4.2.9.2t.9-.2q.4-.2.6-.5.2-.3.2-.8 0-.4-.2-.7-.2-.4-.6-.5l-1-.2h-.8V250h.7q.5 0 .9-.2t.6-.5q.2-.3.2-.7 0-.4-.2-.7l-.5-.5-.8-.2-.8.2q-.4.1-.6.4-.2.3-.2.7h-1.3q0-.7.4-1.2t1-.8q.7-.4 1.5-.4.9 0 1.5.4.6.3.9.8.3.6.3 1.2 0 .8-.4 1.3t-1 .7q.8.1 1.3.7t.5 1.4q0 .7-.4 1.3-.4.6-1.1.9-.7.3-1.6.3zm5.3 0q-.4 0-.6-.3-.3-.2-.3-.6 0-.3.3-.6.2-.2.6-.2l.6.2.2.6-.1.4-.3.4h-.4zM1013.5 262.6q0-.6-.5-.9-.5-.3-1.3-.3-.5 0-.9.2-.4.1-.6.4-.2.3-.2.7l.1.5.4.4.5.2.6.2.8.2.9.3.8.5q.4.2.6.7.2.4.2 1 0 .7-.4 1.3-.3.6-1 .9-.8.3-1.8.3t-1.7-.3q-.7-.3-1.1-.9-.4-.5-.5-1.3h1.4q0 .4.3.8.2.3.7.4.4.2.9.2l1-.2.7-.5q.2-.3.2-.7 0-.4-.2-.7l-.6-.4-.8-.3-1-.2q-1.1-.3-1.7-.9-.6-.5-.6-1.5 0-.7.4-1.3.4-.5 1-.8.8-.4 1.7-.4.9 0 1.5.4.7.3 1.1.8.4.5.4 1.2h-1.3zm7 3.8v-3.9h1.3v6.6h-1.2v-1.2h-.1q-.2.6-.7 1-.5.3-1.3.3-.6 0-1-.3-.5-.3-.8-.8-.3-.6-.3-1.4v-4.2h1.3v4q0 .7.3 1.1.4.4 1 .4.4 0 .7-.2.4-.2.6-.5.2-.4.2-1zm3.1 2.7v-8.7h1.3v3.2l.4-.5.6-.4q.4-.2 1-.2.8 0 1.4.4.6.4 1 1.1.3.8.3 1.8t-.3 1.8q-.4.8-1 1.2-.6.4-1.4.4-.6 0-1-.2l-.6-.4-.3-.5h-.1v1h-1.3zm1.3-3.3q0 .7.2 1.2t.6.8q.3.3.9.3.6 0 1-.3l.5-.8q.2-.5.2-1.2l-.2-1.2-.5-.8q-.4-.3-1-.3t-1 .3l-.5.8q-.2.5-.2 1.2zm6.1 3.3v-6.6h1.3v1.1q.2-.5.7-.8.5-.3 1.1-.3.7 0 1.1.3.5.3.7.8.3-.5.8-.8.5-.3 1.2-.3 1 0 1.5.5.5.6.5 1.7v4.4h-1.2v-4.3q0-.7-.4-1-.4-.2-.9-.2-.6 0-1 .3-.3.4-.3 1v4.2h-1.2v-4.4q0-.5-.4-.8-.3-.3-.8-.3l-.7.1q-.3.2-.5.6-.2.3-.2.8v4h-1.3zm10.6 0v-6.6h1.3v6.6h-1.3zm.7-7.6q-.3 0-.5-.2-.3-.2-.3-.5t.3-.6q.2-.2.5-.2.4 0 .6.2l.2.6q0 .3-.2.5t-.6.2zm5.4 1v1h-3.6v-1h3.6zm-2.6-1.5h1.2v6.2l.1.5.3.3H1047.6l.2 1-.3.1h-.5l-1-.1q-.4-.2-.7-.6-.2-.4-.2-1V261zM1007.2 283.2q-1 0-1.7-.4-.6-.4-1-1.2-.4-.8-.4-1.8t.4-1.7q.4-.8 1-1.2.7-.4 1.7-.4.7 0 1.3.2.6.3 1 .8.3.5.4 1.1h-1.3q0-.4-.4-.7-.4-.4-1-.4-.5 0-1 .3l-.6.8q-.2.5-.2 1.2t.2 1.3l.6.8 1 .2h.7l.5-.5q.2-.2.2-.6h1.3q0 .6-.4 1.1-.4.5-1 .8-.5.3-1.3.3zm5.3-4v3.9h-1.3v-8.7h1.3v3.2q.3-.5.8-.8.5-.3 1.2-.3t1.2.2q.5.3.8.9.3.5.3 1.3v4.2h-1.3v-4q0-.7-.4-1.1-.4-.4-1-.4-.5 0-.8.2-.4.1-.6.5-.2.4-.2.9zm7.9 4q-.7 0-1.2-.2t-.7-.7q-.3-.4-.3-1t.2-1l.5-.5.8-.4 1-.1 1-.1q.3 0 .5-.2l.1-.3q0-.6-.3-.9-.3-.3-1-.3-.6 0-1 .3l-.4.6-1.2-.3q.2-.6.6-1l1-.5 1-.1h.9l.8.4q.4.2.6.7.3.4.3 1.1v4.4h-1.2v-.9l-.5.5-.6.4-1 .1zm.2-1q.6 0 1-.2l.5-.5.2-.8v-.8l-.2.1-.5.1h-.5l-.4.1-.6.2q-.3 0-.5.3-.2.2-.2.6 0 .4.3.7.4.2 1 .2zm6-3v3.9h-1.3v-6.6h1.2v1.1h.1q.2-.5.7-.8.5-.3 1.2-.3t1.2.2q.5.3.8.9.3.5.3 1.3v4.2h-1.3v-4q0-.7-.4-1.1-.4-.4-1-.4l-.8.2q-.3.1-.5.5t-.2.9zm8.6 6.5q-.8 0-1.3-.2-.6-.2-1-.6l-.5-.7 1.1-.5.3.4.6.4.8.1q.8 0 1.2-.3.5-.4.5-1.1v-1.3l-.4.5-.6.4q-.4.2-1 .2-.8 0-1.4-.4-.6-.3-1-1-.3-.8-.3-1.8t.3-1.8q.4-.7 1-1.1.6-.4 1.4-.4.6 0 1 .2l.6.4.3.5h.1v-1h1.3v6.6q0 .9-.4 1.4-.4.5-1.1.8-.7.3-1.5.3zm0-3.8l1-.2.5-.8q.2-.5.2-1.1 0-.7-.2-1.2t-.6-.8q-.4-.3-.9-.3-.6 0-1 .3l-.5.8q-.2.5-.2 1.2 0 .6.2 1.1l.5.8q.4.2 1 .2zm7.5 1.3q-1 0-1.7-.4t-1-1.2q-.4-.7-.4-1.7t.4-1.8q.3-.8 1-1.2.7-.4 1.6-.4l1 .1q.6.2 1 .6l.7 1q.2.7.2 1.5v.5h-5.2v-1h4q0-.5-.3-.8l-.5-.7q-.4-.2-.9-.2t-1 .3q-.3.2-.5.7-.3.4-.3.9v.7q0 .7.3 1.1.2.5.6.7.4.3 1 .3l.7-.1.5-.3.3-.6 1.2.2q-.1.6-.5 1t-1 .6q-.5.2-1.2.2zm9.1-5l-1.1.1-.3-.4q-.1-.2-.4-.3l-.6-.1q-.6 0-1 .2-.3.2-.3.6l.2.6.8.3 1 .2q1 .2 1.4.7.5.4.5 1.1 0 .6-.4 1-.3.5-1 .8-.5.2-1.3.2-1.1 0-1.8-.5-.7-.4-.9-1.3l1.3-.2q0 .5.4.7.4.3 1 .3t1-.3q.3-.2.3-.6 0-.3-.2-.5t-.7-.3l-1-.3q-1-.2-1.5-.6-.4-.5-.4-1.2 0-.6.3-1 .4-.5 1-.7.5-.2 1.2-.2 1.1 0 1.7.4.6.5.8 1.2z"/>
  <path fill="#fff" d="M1126.3 226.8h90.7v75.6h-90.7z" fill-rule="evenodd"/>
  <path stroke="#000" stroke-linejoin="round" stroke-linecap="butt" d="M1126.3 226.8h90.7v75.6h-90.7z"/>
  <path fill="#000" d="M1141 262h-1.4l3.2-8.6h1.5l3.1 8.7h-1.4l-2.4-7.2h-.1l-2.5 7.2zm.3-3.3h4.5v1h-4.5v-1zm7.3 5.8v-9h1.2v1.1h.1l.3-.5.6-.4q.4-.2 1-.2.8 0 1.4.4.6.4 1 1.1.3.8.3 1.8t-.3 1.8q-.4.8-1 1.2-.6.4-1.4.4-.6 0-1-.2l-.6-.4-.3-.5v3.4h-1.3zm1.2-5.7q0 .7.2 1.2t.6.8q.4.3 1 .3.5 0 .9-.3t.6-.8q.2-.5.2-1.2l-.2-1.2q-.2-.5-.6-.8-.4-.3-1-.3-.5 0-1 .3l-.5.8q-.2.5-.2 1.2zm6.2 5.7v-9h1.2v1.1h.1l.3-.5.6-.4q.4-.2 1-.2.8 0 1.4.4.6.4 1 1.1.4.8.4 1.8t-.4 1.8q-.4.8-1 1.2-.6.4-1.4.4-.6 0-1-.2l-.5-.4-.4-.5v3.4h-1.3zm1.2-5.7q0 .7.2 1.2t.6.8q.4.3 1 .3.5 0 .9-.3t.6-.8q.2-.5.2-1.2l-.2-1.2q-.2-.5-.6-.8-.4-.3-1-.3-.5 0-.9.3t-.6.8q-.2.5-.2 1.2zm7.5-5.4v8.7h-1.3v-8.7h1.3zm1.7 8.7v-6.6h1.2v6.6h-1.2zm.6-7.6q-.3 0-.5-.2-.3-.2-.3-.5t.3-.6q.2-.2.5-.2.4 0 .6.2.3.3.3.6t-.3.5q-.2.2-.6.2zm5.1 7.7q-1 0-1.6-.4-.7-.4-1-1.2-.4-.8-.4-1.8t.3-1.7q.4-.8 1-1.2.8-.4 1.7-.4.7 0 1.3.2.6.3 1 .8.3.5.4 1.1h-1.2q-.1-.4-.5-.7-.4-.4-1-.4-.5 0-1 .3l-.5.8q-.3.5-.3 1.2t.3 1.3q.2.5.6.8.4.2 1 .2h.6l.5-.5.3-.6h1.2q0 .6-.4 1.1-.4.5-1 .8-.5.3-1.3.3zm6 0q-.6 0-1.1-.2-.5-.2-.8-.7-.3-.4-.3-1t.2-1l.5-.5.9-.4.9-.1 1-.1q.3 0 .5-.2l.1-.3q0-.6-.3-.9-.3-.3-1-.3-.6 0-1 .3l-.4.6-1.2-.3q.2-.6.6-1l1-.5 1-.1h.9l.8.4q.4.2.7.7.2.4.2 1.1v4.4h-1.2v-.9l-.5.5-.6.4-1 .1zm.2-1q.6 0 1-.2l.5-.5.2-.8v-.8l-.2.1-.5.1h-.5l-.3.1q-.4 0-.7.2-.3 0-.5.3-.2.2-.2.6 0 .4.4.7.3.2.8.2zm7.8-5.7v1h-3.6v-1h3.6zm-2.7-1.5h1.3v6.2l.1.5.3.3H1186l.3 1-.3.1h-.6l-.9-.1q-.4-.2-.7-.6-.3-.4-.3-1V254zm4 8v-6.5h1.3v6.6h-1.2zm.7-7.5q-.3 0-.5-.2-.3-.2-.3-.5t.3-.6q.2-.2.5-.2.4 0 .6.2.3.3.3.6t-.3.5q-.2.2-.6.2zm5.1 7.7q-1 0-1.6-.4-.7-.4-1-1.2-.4-.7-.4-1.8 0-1 .3-1.7.4-.8 1.1-1.2.7-.4 1.6-.4 1 0 1.6.4.7.4 1 1.2.5.7.5 1.7t-.4 1.8q-.4.8-1 1.2-.8.4-1.7.4zm0-1q.6 0 1-.4.4-.3.6-.8.2-.5.2-1.2 0-.6-.2-1.1-.2-.5-.6-.8-.4-.4-1-.4t-1 .4q-.4.3-.6.8-.2.5-.2 1.1 0 .7.2 1.2t.6.8q.4.3 1 .3zm5.7-3v3.9h-1.2v-6.6h1.2v1.1q.3-.5.8-.8.5-.3 1.2-.3t1.2.2q.5.3.8.9.2.5.2 1.3v4.2h-1.2v-4q0-.7-.4-1.1-.4-.4-1-.4-.5 0-.8.2-.3.1-.5.5-.3.4-.3.9zM1144.2 276.2q-.8 0-1.4-.4-.6-.4-1-1.2-.3-.7-.3-1.8 0-1 .4-1.8.3-.7 1-1.1.6-.4 1.3-.4.7 0 1 .2l.6.4.3.5h.1v-3.2h1.3v8.7h-1.3v-1l-.4.5-.6.4q-.4.2-1 .2zm.3-1q.6 0 1-.4l.5-.8q.2-.5.2-1.2t-.2-1.2q-.2-.5-.6-.8-.3-.3-.9-.3-.6 0-1 .3l-.5.8-.2 1.2q0 .7.2 1.2t.6.8q.3.3 1 .3zm6.7 1q-.6 0-1.1-.2-.5-.2-.8-.7-.3-.4-.3-1t.2-1q.2-.3.6-.5l.8-.4 1-.1.8-.1q.4 0 .6-.2.2 0 .2-.3 0-.6-.4-.9-.3-.3-.9-.3-.6 0-1 .3t-.5.6l-1.2-.3q.2-.6.6-1l1-.5 1.1-.1h.8q.5.1.9.4l.6.7q.2.4.2 1.1v4.4h-1.2v-.9l-.4.5-.7.4-.9.1zm.3-1q.5 0 .9-.2t.6-.5l.2-.8v-.8l-.3.1-.4.1h-.5l-.4.1q-.4 0-.7.2-.3 0-.5.3-.2.2-.2.6 0 .4.4.7.3.2.9.2zm9.5-4l-1.1.1-.3-.4q-.1-.2-.4-.3l-.6-.1q-.6 0-1 .2-.3.2-.3.6l.2.6.8.3 1 .2q1 .2 1.4.7.5.4.5 1.1 0 .6-.4 1-.3.5-1 .8-.5.2-1.3.2-1.1 0-1.8-.5-.7-.4-.9-1.3l1.3-.2q0 .5.4.7.4.3 1 .3t1-.3q.4-.2.4-.6 0-.3-.3-.5-.2-.2-.7-.3l-1-.3q-1-.2-1.4-.6-.5-.5-.5-1.2 0-.6.4-1 .3-.5.8-.7.6-.2 1.4-.2 1 0 1.6.4.6.5.8 1.2zm2.8 1v3.9h-1.2v-8.7h1.2v3.2q.3-.5.8-.8.5-.3 1.2-.3t1.2.2q.5.3.8.9.3.5.3 1.3v4.2h-1.3v-4q0-.7-.4-1.1-.3-.4-1-.4l-.8.2q-.4.1-.6.5-.2.4-.2.9zm6 3.9v-8.7h1.4v3.2l.4-.5.5-.4q.4-.2 1-.2.8 0 1.4.4.6.4 1 1.1.4.8.4 1.8t-.4 1.8q-.3.8-1 1.2-.6.4-1.4.4-.6 0-1-.2l-.5-.4-.4-.5v1h-1.3zm1.3-3.3q0 .7.2 1.2t.6.8q.4.3 1 .3.5 0 .9-.3t.6-.8q.2-.5.2-1.2l-.2-1.2q-.2-.5-.6-.8-.4-.3-1-.3-.5 0-.9.3t-.6.8q-.2.5-.2 1.2zm9 3.4q-1 0-1.7-.4-.6-.4-1-1.2-.4-.7-.4-1.8 0-1 .4-1.7.4-.8 1-1.2.7-.4 1.6-.4 1 0 1.7.4.6.4 1 1.2.4.7.4 1.7t-.4 1.8q-.4.8-1 1.2-.7.4-1.7.4zm0-1q.6 0 1-.4l.5-.8q.2-.5.2-1.2 0-.6-.2-1.1-.2-.5-.6-.8-.3-.4-1-.4-.5 0-1 .4l-.5.8q-.2.5-.2 1.1 0 .7.2 1.2t.6.8q.4.3 1 .3zm6.3 1q-.6 0-1.1-.2-.5-.2-.8-.7-.3-.4-.3-1t.2-1q.2-.3.6-.5l.8-.4 1-.1.9-.1q.3 0 .5-.2.2 0 .2-.3 0-.6-.3-.9-.3-.3-1-.3-.6 0-1 .3l-.5.6-1.2-.3q.2-.6.6-1l1-.5 1.1-.1h.8q.5.1.9.4.4.2.6.7.2.4.2 1.1v4.4h-1.2v-.9l-.4.5-.7.4-.9.1zm.3-1q.5 0 .9-.2t.6-.5l.2-.8v-.8l-.3.1-.4.1h-.5l-.4.1q-.4 0-.7.2-.3 0-.5.3l-.1.6q0 .4.3.7.4.2.9.2zm4.7.9v-6.6h1.2v1q.2-.4.7-.7.4-.4 1-.4h.6v1.3h-.7l-.8.1q-.4.2-.6.5l-.2.8v4h-1.2zm6.8.1q-.8 0-1.4-.4-.7-.4-1-1.2-.4-.7-.4-1.8 0-1 .4-1.8.3-.7 1-1.1.6-.4 1.4-.4.6 0 1 .2l.5.4.4.5v-3.2h1.3v8.7h-1.2v-1h-.1l-.4.5-.6.4q-.3.2-1 .2zm.3-1q.5 0 .9-.4.4-.3.6-.8.2-.5.2-1.2t-.2-1.2q-.2-.5-.6-.8-.4-.3-1-.3-.5 0-1 .3l-.5.8-.2 1.2q0 .7.2 1.2t.6.8q.4.3 1 .3z"/>
  <path fill="#fff" d="M695.4 226.8h90.7v75.6h-90.7z" fill-rule="evenodd"/>
  <path stroke="#000" stroke-linejoin="round" stroke-linecap="butt" d="M695.4 226.8h90.7v75.6h-90.7z"/>
  <path fill="#000" d="M736.3 262v-.9l3-3 .7-.9.4-.7.2-.7q0-.5-.2-.8-.2-.3-.6-.5-.3-.2-.8-.2l-.8.2q-.3.2-.5.6-.2.3-.2.8h-1.3q0-.8.4-1.4.4-.6 1-1 .7-.3 1.5-.3t1.4.4q.6.3 1 .9.3.5.3 1.2l-.1 1-.7 1-1.2 1.4-1.7 1.8h3.9v1.2h-5.7zm8.2.2q-.4 0-.6-.3-.3-.2-.3-.6 0-.3.3-.6.2-.2.6-.2l.6.2.2.6-.1.4-.3.4h-.4zM711.7 270.2h-1.3q0-.4-.3-.8l-.5-.5-.7-.3q-.3-.2-.8-.2-.7 0-1.3.4-.6.4-1 1.1-.3.8-.3 1.8t.4 1.8q.3.8.9 1.1.6.4 1.3.4l.8-.1.7-.3.5-.6.3-.7h1.3q0 .6-.4 1.2-.3.5-.8.9-.4.4-1 .6-.6.2-1.4.2-1.1 0-2-.5-.9-.6-1.4-1.6-.5-1-.5-2.4t.5-2.4q.5-1 1.4-1.5.9-.6 2-.6.7 0 1.3.2.6.2 1.1.6.5.4.8 1 .3.5.4 1.2zm4.3 6q-1 0-1.6-.4-.7-.4-1.1-1.2-.4-.7-.4-1.8 0-1 .4-1.7.4-.8 1-1.2.7-.4 1.7-.4.9 0 1.6.4.7.4 1 1.2.4.7.4 1.7t-.4 1.8q-.3.8-1 1.2-.7.4-1.6.4zm0-1q.6 0 1-.4.4-.3.5-.8.2-.5.2-1.2 0-.6-.2-1.1-.1-.5-.5-.8-.4-.4-1-.4t-1 .4q-.4.3-.6.8-.2.5-.2 1.1 0 .7.2 1.2t.6.8q.4.3 1 .3zm5.7-3v3.9h-1.3v-6.6h1.3v1.1q.3-.5.8-.8.4-.3 1.2-.3.6 0 1.1.2.5.3.8.9.3.5.3 1.3v4.2h-1.3v-4q0-.7-.3-1.1-.4-.4-1-.4-.5 0-.8.2-.4.1-.6.5-.2.4-.2.9zm9-2.7v1H727v-1h3.7zm-2.7 6.6v-7.3q0-.6.3-1l.7-.7q.4-.2 1-.2l.6.1.4.1-.3 1h-.5q-.5 0-.7.2-.2.2-.2.6v7.2H728zm4 0v-6.6h1.3v6.6H732zm.7-7.6l-.6-.2q-.2-.2-.2-.5l.2-.6.6-.2.6.2.2.6q0 .3-.2.5l-.6.2zm2.3 7.6v-6.6h1.3v1q.2-.4.6-.7.5-.4 1-.4H738.6v1.3h-.7l-.7.1q-.4.2-.6.5l-.2.8v4H735zm4.6 0v-6.6h1.2v1.1h.1q.2-.5.7-.8.5-.3 1.1-.3.7 0 1.1.3.5.3.7.8.3-.5.8-.8.5-.3 1.2-.3.9 0 1.5.5.5.6.5 1.7v4.4h-1.2v-4.3q0-.7-.4-1-.4-.2-.9-.2-.6 0-1 .3-.3.4-.3 1v4.2h-1.3v-4.4q0-.5-.3-.8-.3-.3-.9-.3l-.6.1q-.3.2-.5.6-.2.3-.2.8v4h-1.3zm12.5.1q-.6 0-1-.2-.6-.2-.9-.7-.3-.4-.3-1t.2-1q.2-.3.6-.5l.8-.4 1-.1.9-.1q.3 0 .5-.2.2 0 .2-.3 0-.6-.3-.9-.3-.3-1-.3-.6 0-1 .3l-.5.6-1.2-.3q.2-.6.6-1l1-.5 1.1-.1h.9l.8.4q.4.2.6.7.3.4.3 1.1v4.4H754v-.9l-.4.5-.6.4-1 .1zm.3-1l1-.2.5-.5.2-.8v-.8l-.3.1-.4.1h-.5l-.4.1q-.4 0-.7.2-.3 0-.5.3l-.1.6q0 .4.3.7.4.2 1 .2zm7.7-5.7v1h-3.6v-1h3.6zm-2.6-1.5h1.3v6.7l.4.3h.8l.2 1-.3.1h-.5l-1-.1q-.4-.2-.6-.6-.3-.4-.3-1V268zm4 8v-6.5h1.3v6.6h-1.3zm.7-7.5l-.6-.2q-.2-.2-.2-.5l.2-.6.6-.2.6.2.2.6q0 .3-.2.5l-.6.2zm5 7.7q-.9 0-1.5-.4-.7-.4-1.1-1.2-.4-.7-.4-1.8 0-1 .4-1.7.4-.8 1-1.2.7-.4 1.7-.4.9 0 1.6.4.7.4 1 1.2.4.7.4 1.7t-.4 1.8q-.3.8-1 1.2-.7.4-1.6.4zm0-1q.7 0 1-.4.5-.3.6-.8.2-.5.2-1.2 0-.6-.2-1.1-.1-.5-.5-.8-.4-.4-1-.4t-1 .4q-.4.3-.6.8-.2.5-.2 1.1 0 .7.2 1.2t.6.8q.4.3 1 .3zm5.8-3v3.9h-1.3v-6.6h1.3v1.1q.3-.5.8-.8.4-.3 1.2-.3.6 0 1.1.2.5.3.8.9.3.5.3 1.3v4.2h-1.3v-4q0-.7-.3-1.1-.4-.4-1-.4-.5 0-.8.2-.4.1-.6.5-.2.4-.2.9z"/>
  <path fill="#efefef" d="M423.3 264.6l45.4-37.8 45.3 37.8-45.3 37.8z" fill-rule="evenodd"/>
  <path fill="none" d="M423.3 226.8H514v75.6h-90.7z"/>
  <path fill="#000" d="M445.1 269h-2.6v-8.6h2.8q1.2 0 2.1.5 1 .5 1.4 1.5.5 1 .5 2.3 0 1.4-.5 2.4t-1.4 1.5q-1 .5-2.3.5zm-1.6-.9h1.6q1 0 1.8-.4.7-.4 1-1.1.4-.8.4-1.9 0-1-.4-1.8-.3-.8-1-1.2-.7-.4-1.7-.4h-1.7v6.8zm10.2 1.1q-1 0-1.7-.4-.6-.4-1-1.2-.4-.7-.4-1.7t.4-1.8q.4-.8 1-1.2.7-.4 1.6-.4l1 .1q.5.2.9.6.4.4.6 1 .3.6.3 1.5v.4h-5v-.8h4q0-.6-.3-1-.2-.4-.6-.7-.4-.2-1-.2l-1 .2q-.4.3-.6.8-.3.5-.3 1v.6q0 .8.3 1.3t.7.8l1 .2h.8l.6-.4.3-.6 1 .3-.5.8q-.4.4-1 .6-.5.2-1.1.2zm6.9 0q-1 0-1.6-.4-.7-.4-1-1.2-.4-.8-.4-1.7 0-1 .4-1.8.3-.8 1-1.2.7-.4 1.6-.4.7 0 1.2.2l1 .7q.3.5.4 1.1h-1l-.6-.8q-.3-.3-1-.3-.6 0-1 .3-.5.3-.7.8-.3.6-.3 1.3 0 .8.3 1.3.2.6.6 1l1 .2.8-.1.5-.4.3-.6h1q0 .6-.4 1-.3.5-.9.8-.5.2-1.2.2zm4-.1v-6.6h1v6.6h-1zm.5-7.7l-.5-.1q-.2-.2-.2-.5t.2-.5q.2-.2.5-.2t.5.2q.2.2.2.5t-.2.5l-.5.1zm7 2.6l-.9.3q0-.3-.3-.5-.1-.2-.4-.3-.3-.2-.7-.2-.6 0-1 .3t-.4.7q0 .4.3.6l.8.4 1 .2q.9.2 1.3.6.4.5.4 1.2 0 .5-.3 1-.3.4-.9.7-.6.2-1.3.2-1 0-1.7-.4-.6-.4-.8-1.3l1-.2q0 .5.4.8.4.2 1 .2.8 0 1.2-.3.4-.3.4-.7 0-.3-.3-.6-.2-.2-.7-.3l-1-.3q-1-.2-1.4-.6-.4-.5-.4-1.1 0-.6.3-1 .3-.5.8-.7.6-.2 1.3-.2 1 0 1.5.4.6.4.8 1.1zm1.6 5v-6.5h1v6.6h-1zm.6-7.6l-.6-.1q-.2-.2-.2-.5t.2-.5l.6-.2.4.2q.3.2.3.5t-.3.5l-.4.1zm5 7.8q-1 0-1.6-.4-.7-.4-1-1.2-.4-.7-.4-1.7t.4-1.8q.3-.8 1-1.2.7-.4 1.5-.4 1 0 1.6.4.7.4 1 1.2.4.7.4 1.8 0 1-.4 1.7-.3.8-1 1.2-.7.4-1.6.4zm0-.9q.6 0 1-.3.5-.4.7-1 .2-.5.2-1.1 0-.7-.2-1.3-.2-.5-.6-.9-.5-.3-1.2-.3-.6 0-1 .3-.5.4-.7 1-.2.5-.2 1.2l.2 1.2q.2.5.6.9.5.3 1.1.3zm5.4-3.2v4h-1v-6.6h1v1h.1q.2-.4.7-.7.5-.3 1.2-.3t1.2.2q.5.3.8.8.2.6.2 1.4v4.2h-1V265q0-.8-.4-1.2-.4-.4-1-.4t-1 .2q-.3.2-.5.6-.3.4-.3 1zm7.4 1.5l.1-1.3.5-.8.7-.5.5-.4.3-.5.1-.6q0-.4-.2-.7l-.5-.5q-.3-.2-.7-.2-.4 0-.7.2l-.6.4q-.2.3-.2.8h-1q0-.7.3-1.2.4-.5 1-.8.5-.3 1.2-.3t1.3.3q.5.3.8.9.3.5.3 1.1l-.1.9q-.1.4-.4.7l-.7.5-.6.5-.3.6-.1.9h-1zm.5 2.5q-.3 0-.5-.2t-.2-.5q0-.3.2-.5.2-.3.5-.3t.6.3q.2.2.2.5l-.1.4-.3.3h-.4z"/>
  <path fill="#efefef" d="M839 264.6l45.4-37.8 45.4 37.8-45.4 37.8z" fill-rule="evenodd"/>
  <path fill="none" d="M839 226.8h90.8v75.6H839z"/>
  <path fill="#000" d="M863.2 255H862l3.2-8.6h1l3.3 8.7h-1.2l-2.6-7.4-2.6 7.4zm.4-3.3h4.4v1h-4.4v-1zm8.2-.6v4h-1v-6.6h1v1l.7-.7q.5-.3 1.2-.3t1.2.2q.5.3.8.8.3.6.3 1.4v4.2h-1V251q0-.8-.5-1.2-.4-.4-1-.4l-1 .2q-.3.2-.5.6-.2.4-.2 1zm8.7 4.1q-1 0-1.6-.4-.7-.4-1-1.2-.4-.7-.4-1.7t.4-1.8q.3-.8 1-1.2.7-.4 1.6-.4.8 0 1.5.4t1 1.2q.4.7.4 1.8 0 1-.4 1.7-.3.8-1 1.2-.7.4-1.5.4zm0-.9q.6 0 1-.3.5-.4.7-1 .2-.5.2-1.1 0-.7-.2-1.3-.2-.5-.6-.9-.5-.3-1.1-.3-.7 0-1.2.3-.4.4-.6 1-.2.5-.2 1.2l.2 1.2q.2.5.6.9.5.3 1.2.3zm7.3-5.8v.9h-3.4v-.9h3.4zm-2.4-1.5h1v6.2l.1.7.3.2.5.1h.4l.2.9h-.7l-.9-.1q-.4-.2-.6-.6-.3-.3-.3-1V247zm5 4.1v4h-1v-8.7h1v3.2h.1q.3-.5.7-.8.5-.3 1.3-.3.6 0 1.1.2.5.3.8.8.3.6.3 1.4v4.2h-1V251q0-.8-.4-1.2-.4-.4-1.1-.4-.5 0-.9.2t-.6.6q-.2.4-.2 1zm8.9 4.1q-1 0-1.6-.4-.7-.4-1.1-1.2-.4-.7-.4-1.7t.4-1.8q.4-.8 1-1.2.7-.4 1.6-.4l1 .1 1 .6.5 1q.3.6.3 1.5v.4h-5v-.8h4q0-.6-.3-1-.2-.4-.6-.7-.4-.2-1-.2l-1 .2q-.4.3-.6.8-.3.5-.3 1v.6q0 .8.3 1.3t.7.8q.5.2 1.1.2h.7l.6-.4.3-.6 1 .3-.5.8q-.4.4-1 .6-.4.2-1.1.2zm4.2-.1v-6.6h1v1q.3-.5.7-.8.5-.3 1-.3h.6v1H906.2q-.5 0-.9.2-.3.2-.5.6-.3.3-.3.7v4.2h-1zM868.7 269.2q-1 0-1.6-.4-.6-.4-1-1.2-.4-.8-.4-1.7 0-1 .4-1.8t1-1.2q.7-.4 1.6-.4.7 0 1.2.2l1 .7q.3.5.4 1.1h-1q-.1-.4-.5-.8-.4-.3-1-.3-.7 0-1.1.3-.5.3-.7.8-.2.6-.2 1.3 0 .8.2 1.3.2.6.7 1 .4.2 1 .2l.7-.1.6-.4.3-.6h1q-.1.6-.4 1-.4.5-1 .8-.5.2-1.2.2zm6.7 0q-.9 0-1.6-.4-.6-.4-1-1.2-.4-.7-.4-1.7t.4-1.8q.4-.8 1-1.2.7-.4 1.6-.4.9 0 1.6.4.6.4 1 1.2.4.7.4 1.8 0 1-.4 1.7-.4.8-1 1.2-.7.4-1.6.4zm0-.9q.7 0 1.1-.3.5-.4.7-1 .2-.5.2-1.1 0-.7-.2-1.3-.2-.5-.7-.9-.4-.3-1-.3-.8 0-1.2.3-.4.4-.6 1-.2.5-.2 1.2l.2 1.2q.2.5.6.9.4.3 1.1.3zm8.6-1.9v-3.9h1v6.6h-1V268q-.3.5-.7.8-.5.4-1.3.4-.6 0-1-.3-.5-.3-.8-.8-.3-.6-.3-1.4v-4.2h1v4.1q0 .8.4 1.2.4.4 1 .4l.8-.2q.4-.2.7-.6.2-.4.2-1zm2.9 2.7v-6.6h1v1q.2-.5.7-.8.4-.3 1-.3h.5v1H889.5l-.8.2q-.4.2-.6.6-.2.3-.2.7v4.2h-1zm9-5l-.8.2-.3-.5q-.1-.2-.4-.3-.3-.2-.7-.2-.6 0-1 .3t-.4.7q0 .4.2.6l.9.4 1 .2q.8.2 1.3.6.4.5.4 1.2 0 .5-.3 1-.3.4-1 .7-.5.2-1.2.2-1 0-1.7-.4t-.8-1.3l.9-.2q.1.5.5.8.4.2 1 .2.7 0 1.1-.3.5-.3.5-.7 0-.3-.3-.6-.2-.2-.7-.3l-1.1-.3q-.9-.2-1.3-.6-.4-.5-.4-1.1 0-.6.3-1 .3-.5.8-.7.6-.2 1.3-.2 1 0 1.5.4.6.4.8 1.1zm4.5 5.1q-1 0-1.7-.4t-1-1.2q-.4-.7-.4-1.7t.4-1.8q.3-.8 1-1.2.7-.4 1.6-.4l1 .1q.5.2.9.6.4.4.6 1 .3.6.3 1.5v.4h-5v-.8h4q0-.6-.3-1-.2-.4-.6-.7-.4-.2-1-.2l-1 .2q-.4.3-.6.8-.3.5-.3 1v.6q0 .8.3 1.3.2.5.7.8l1 .2h.8l.5-.4.4-.6 1 .3q-.2.5-.6.8-.3.4-.8.6l-1.2.2zM864 283.2q-1 0-1.6-.4-.6-.4-1-1.2-.4-.8-.4-1.7 0-1 .4-1.8t1-1.2q.7-.4 1.6-.4.7 0 1.2.2l1 .7q.3.5.4 1.1h-1q-.1-.4-.5-.8-.4-.3-1.1-.3-.6 0-1 .3-.5.3-.7.8-.2.6-.2 1.3 0 .8.2 1.3.2.6.7 1 .4.2 1 .2l.7-.1.6-.4.3-.6h1q-.1.6-.4 1-.4.5-1 .8-.5.2-1.2.2zm5-4v3.9h-1v-8.7h1v3.2h.1q.3-.5.7-.8.5-.3 1.3-.3.6 0 1.1.2.5.3.8.8.3.6.3 1.4v4.2h-1V279q0-.8-.4-1.2-.4-.4-1.1-.4l-1 .2q-.3.2-.5.6-.3.4-.3 1zm8 4q-.6 0-1-.2-.6-.2-.9-.7-.3-.4-.3-1t.2-1l.6-.5.9-.3.9-.2 1-.1.5-.1.2-.4q0-.7-.4-1-.3-.4-1-.4-.8 0-1.2.4-.4.3-.5.6l-1-.3.7-1q.4-.3 1-.4l1-.1h.7l.8.3.6.7q.3.5.3 1.3v4.3h-1v-.9l-.4.5-.7.4-1 .1zm.2-.9q.6 0 1-.2t.6-.6q.3-.4.3-.8v-1q-.1.2-.3.2l-.5.1-.6.1h-.4l-.7.2q-.4.1-.6.4-.2.2-.2.6 0 .5.4.8.4.2 1 .2zm5.7-3.2v4h-1v-6.6h1v1q.3-.4.8-.7.4-.3 1.2-.3.6 0 1.1.2.5.3.8.8.3.6.3 1.4v4.2h-1V279q0-.8-.4-1.2-.4-.4-1.1-.4-.5 0-.9.2t-.6.6q-.2.4-.2 1zm8.7 6.6q-.8 0-1.3-.2l-.9-.5-.5-.6.8-.6.3.4.6.4q.4.2 1 .2.8 0 1.3-.4t.5-1.2V282h-.1l-.3.4q-.2.3-.6.5-.4.2-1 .2-.8 0-1.4-.4-.7-.4-1-1-.4-.8-.4-1.8t.4-1.8q.3-.7 1-1.1.6-.4 1.4-.4.7 0 1 .2l.6.4.3.5h.1v-1h1v6.7q0 .8-.4 1.3-.4.6-1 .8-.7.3-1.4.3zm0-3.6q.5 0 1-.3.4-.3.6-.8.2-.5.2-1.2t-.2-1.3q-.2-.5-.6-.8-.5-.3-1-.3-.7 0-1.1.3-.4.3-.7.9-.2.5-.2 1.2l.2 1.2q.3.5.7.8.4.3 1 .3zm7.4 1.1q-1 0-1.7-.4-.6-.4-1-1.2-.4-.7-.4-1.7t.4-1.8q.4-.8 1-1.2.7-.4 1.6-.4l1 .1q.5.2.9.6.4.4.6 1 .3.6.3 1.5v.4h-5v-.8h4q0-.6-.3-1-.2-.4-.6-.7-.4-.2-1-.2l-1 .2q-.4.3-.6.8-.3.5-.3 1v.6q0 .8.3 1.3t.7.8l1 .2h.8l.6-.4.3-.6 1 .3-.5.8q-.4.4-1 .6-.5.2-1.1.2zm5.5-2.6q0-.8.2-1.3l.5-.8.7-.5.4-.4.3-.5.2-.6q0-.4-.2-.7l-.5-.5-.8-.2-.7.2q-.3.1-.5.4-.2.3-.2.8h-1.1q0-.7.4-1.2.3-.5.9-.8.5-.3 1.2-.3.8 0 1.3.3.6.3.9.9.3.5.3 1.1 0 .5-.2.9 0 .4-.4.7-.2.3-.6.5-.4.2-.6.5l-.3.6-.1.9h-1zm.6 2.5l-.6-.2q-.2-.2-.2-.5t.2-.5q.3-.3.6-.3t.5.3q.3.2.3.5l-.2.4-.2.3h-.4z"/>
  <path fill="none" d="M884.4 226.8v-171H340.2v171"/>
  <path stroke="#000" stroke-linejoin="round" stroke-linecap="butt" d="M884.4 226.8v-171H340.2v165"/>
  <path fill="#000" stroke="#000" stroke-linecap="butt" d="M338.5 220.8l1.7 4.6 1.6-4.6z" fill-rule="evenodd"/>
  <path fill="none" d="M929.8 264.6h52.9"/>
  <path stroke="#000" stroke-linejoin="round" stroke-linecap="butt" d="M929.8 264.6h46.9"/>
  <path fill="#000" stroke="#000" stroke-linecap="butt" d="M976.7 266.2l4.5-1.6-4.5-1.7z" fill-rule="evenodd"/>
  <path fill="none" d="M1073.4 264.6h52.9"/>
  <path stroke="#000" stroke-linejoin="round" stroke-linecap="butt" d="M1073.4 264.6h46.9"/>
  <path fill="#000" stroke="#000" stroke-linecap="butt" d="M1120.3 266.2l4.5-1.6-4.5-1.7z" fill-rule="evenodd"/>
  <path fill="none" d="M642.5 136h98.3v90.8"/>
  <path stroke="#000" stroke-linejoin="round" stroke-linecap="butt" d="M642.5 136h98.3v84.8"/>
  <path fill="#000" stroke="#000" stroke-linecap="butt" d="M739.1 220.8l1.7 4.5 1.6-4.5z" fill-rule="evenodd"/>
  <path fill="none" d="M642.5 264.6h52.9"/>
  <path stroke="#000" stroke-linejoin="round" stroke-linecap="butt" d="M642.5 264.6h46.9"/>
  <path fill="#000" stroke="#000" stroke-linecap="butt" d="M689.4 266.3l4.6-1.7-4.6-1.6z" fill-rule="evenodd"/>
  <path fill="none" d="M514 264.6h37.8"/>
  <path stroke="#000" stroke-linejoin="round" stroke-linecap="butt" d="M514 264.6h31.8"/>
  <path fill="#000" stroke="#000" stroke-linecap="butt" d="M545.8 266.3l4.5-1.7-4.5-1.6z" fill-rule="evenodd"/>
  <path fill="none" d="M468.7 226.8V136h83.1"/>
  <path stroke="#000" stroke-linejoin="round" stroke-linecap="butt" d="M468.7 226.8V136h77.1"/>
  <path fill="#000" stroke="#000" stroke-linecap="butt" d="M545.8 137.7l4.5-1.6-4.5-1.7z" fill-rule="evenodd"/>
  <path fill="none" d="M786.1 264.6h53"/>
  <path stroke="#000" stroke-linejoin="round" stroke-linecap="butt" d="M786.1 264.6h47"/>
  <path fill="#000" stroke="#000" stroke-linecap="butt" d="M833 266.2l4.6-1.6-4.5-1.7z" fill-rule="evenodd"/>
  <path fill="none" d="M385.5 264.6h37.8"/>
  <path stroke="#000" stroke-linejoin="round" stroke-linecap="butt" d="M385.5 264.6h31.8"/>
  <path fill="#000" stroke="#000" stroke-linecap="butt" d="M417.3 266.2l4.5-1.6-4.5-1.7z" fill-rule="evenodd"/>
  <path fill="none" d="M468.7 302.4v56h272v-56"/>
  <path stroke="#000" stroke-linejoin="round" stroke-linecap="butt" d="M468.7 302.4v56h272v-50"/>
  <path fill="#000" stroke="#000" stroke-linecap="butt" d="M742.4 308.4l-1.6-4.5-1.7 4.5z" fill-rule="evenodd"/>
  <path fill="none" d="M468.7 302.4v113.5h415.7V302.4"/>
  <path stroke="#000" stroke-linejoin="round" stroke-linecap="butt" d="M468.7 302.4v113.5h415.7V308.4"/>
  <path fill="#000" stroke="#000" stroke-linecap="butt" d="M886 308.4l-1.6-4.5-1.6 4.5z" fill-rule="evenodd"/>
  <path fill="#efefef" d="M166.3 264.6l45.4-37.8 45.3 37.8-45.3 37.8z" fill-rule="evenodd"/>
  <path fill="none" d="M166.3 226.8H257v75.6h-90.7z"/>
  <path fill="#000" d="M190.3 246.4h1.2l3 7.2h.1l3-7.2h1.2v8.7h-1v-6.6L195 255h-1l-2.6-6.6h-.1v6.6h-1v-8.7zm14.6 6v-3.9h1v6.6h-1V254q-.3.5-.7.8-.5.4-1.3.4-.6 0-1-.3-.5-.3-.8-.8-.3-.6-.3-1.4v-4.2h1v4.1q0 .8.4 1.2.4.4 1 .4l.8-.2q.4-.2.7-.6.2-.4.2-1zm3.9-6v8.7h-1v-8.7h1zm4.7 2.1v.9H210v-.9h3.4zM211 247h1v6.2l.1.7q.1.2.3.2l.5.1h.4l.2.9h-.7l-.9-.1q-.4-.2-.7-.6-.2-.3-.2-1V247zm3.9 8v-6.5h1v6.6h-1zm.5-7.6l-.5-.1q-.2-.2-.2-.5t.2-.5q.2-.2.5-.2t.5.2q.2.2.2.5t-.2.5l-.5.1zm2.3 10.1v-9h1v1h.1q.2 0 .3-.4l.6-.4q.4-.2 1-.2.9 0 1.5.4t1 1.2q.3.7.3 1.7t-.3 1.8q-.4.8-1 1.2-.6.4-1.5.4-.6 0-1-.2l-.5-.5-.4-.4v3.4h-1zm1-5.7q0 .8.3 1.3.2.6.6 1 .4.2 1 .2t1-.3q.5-.4.7-1 .2-.5.2-1.2t-.2-1.2q-.2-.6-.6-1l-1-.2q-.7 0-1.1.3-.4.3-.7.8-.2.6-.2 1.3zm7.4-5.4v8.7h-1v-8.7h1zm4.6 8.8q-1 0-1.7-.4t-1-1.2q-.4-.7-.4-1.7t.4-1.8q.3-.8 1-1.2.7-.4 1.5-.4l1 .1q.6.2 1 .6.4.4.6 1 .3.6.3 1.5v.4h-5v-.8h4q0-.6-.3-1-.2-.4-.6-.7-.4-.2-1-.2l-1 .2q-.4.3-.7.8l-.2 1v.6q0 .8.3 1.3.2.5.7.8.4.2 1 .2h.8l.5-.4.4-.6 1 .3q-.2.5-.6.8-.3.4-.9.6-.5.2-1.1.2zM196 269.2q-1 0-1.6-.4-.7-.4-1-1.2-.4-.8-.4-1.7 0-1 .3-1.8.4-.8 1-1.2.7-.4 1.6-.4.7 0 1.3.2l.9.7q.3.5.4 1.1h-1q0-.4-.5-.8-.4-.3-1-.3t-1 .3q-.5.3-.8.8-.2.6-.2 1.3 0 .8.2 1.3l.7 1 1 .2.8-.1.5-.4.3-.6h1q0 .6-.4 1-.3.5-.9.8-.5.2-1.2.2zm6.7 0q-1 0-1.6-.4-.7-.4-1-1.2-.4-.7-.4-1.7t.4-1.8q.3-.8 1-1.2.7-.4 1.6-.4.8 0 1.5.4t1 1.2q.4.7.4 1.8 0 1-.4 1.7-.3.8-1 1.2-.7.4-1.5.4zm0-.9q.6 0 1-.3.5-.4.7-1 .2-.5.2-1.1 0-.7-.2-1.3-.2-.5-.6-.9-.5-.3-1.1-.3-.7 0-1.2.3-.4.4-.6 1-.2.5-.2 1.2l.2 1.2q.2.5.6.9.5.3 1.2.3zm8.6-1.9v-3.9h1v6.6h-1V268q-.3.5-.8.8-.5.4-1.2.4-.6 0-1.1-.3-.5-.3-.8-.8-.2-.6-.2-1.4v-4.2h1v4.1q0 .8.4 1.2.4.4 1 .4l.8-.2.6-.6q.3-.4.3-1zm2.8 2.7v-6.6h1v1q.2-.5.7-.8.5-.3 1-.3h.6v1H216.8q-.5 0-.9.2l-.6.6q-.2.3-.2.7v4.2h-1zm9.1-5l-.9.2q0-.3-.2-.5l-.5-.3q-.3-.2-.7-.2-.6 0-1 .3t-.4.7q0 .4.3.6l.8.4 1 .2q.9.2 1.3.6.4.5.4 1.2 0 .5-.3 1-.3.4-.9.7-.6.2-1.3.2-1 0-1.7-.4-.6-.4-.8-1.3l1-.2q0 .5.5.8.4.2 1 .2.7 0 1-.3.5-.3.5-.7l-.2-.6-.8-.3-1-.3q-1-.2-1.4-.6-.4-.5-.4-1.1 0-.6.3-1 .3-.5.9-.7.5-.2 1.2-.2 1 0 1.5.4.6.4.8 1.1zm4.4 5.1q-1 0-1.6-.4-.7-.4-1-1.2-.4-.7-.4-1.7t.3-1.8q.4-.8 1-1.2.7-.4 1.6-.4l1 .1 1 .6.6 1q.2.6.2 1.5v.4h-5v-.8h4q0-.6-.2-1l-.7-.7q-.3-.2-.9-.2-.6 0-1 .2-.5.3-.7.8l-.2 1v.6q0 .8.2 1.3.3.5.7.8.5.2 1.1.2h.7l.6-.4.3-.6 1 .3q-.1.5-.5.8-.4.4-.9.6-.5.2-1.2.2zM188.1 283.2q-1 0-1.6-.4-.6-.4-1-1.2-.4-.8-.4-1.7 0-1 .4-1.8t1-1.2q.7-.4 1.6-.4.7 0 1.2.2l1 .7q.3.5.4 1.1h-1q-.1-.4-.5-.8-.4-.3-1-.3-.7 0-1.1.3-.5.3-.7.8-.2.6-.2 1.3 0 .8.2 1.3.2.6.7 1 .4.2 1 .2l.7-.1.6-.4.3-.6h1q-.1.6-.4 1-.4.5-1 .8-.5.2-1.2.2zm5-4v3.9h-1v-8.7h1v3.2h.1q.3-.5.7-.8.5-.3 1.3-.3.6 0 1.1.2.5.3.8.8.3.6.3 1.4v4.2h-1V279q0-.8-.4-1.2-.4-.4-1.1-.4-.5 0-.9.2t-.6.6q-.2.4-.2 1zm8 4q-.6 0-1-.2-.6-.2-.9-.7-.3-.4-.3-1t.3-1l.5-.5.9-.3.9-.2 1-.1.5-.1.2-.4q0-.7-.4-1-.3-.4-1-.4t-1.1.4q-.5.3-.6.6l-1-.3.7-1q.4-.3 1-.4l1-.1h.7l.8.3q.4.3.6.7.3.5.3 1.3v4.3h-1v-.9l-.4.5-.7.4-1 .1zm.2-.9q.6 0 1-.2t.6-.6q.3-.4.3-.8v-1q-.1.2-.3.2l-.5.1-.6.1h-.4l-.7.2q-.3.1-.5.4-.3.2-.3.6 0 .5.4.8.4.2 1 .2zm5.7-3.2v4h-1v-6.6h1v1q.3-.4.8-.7.4-.3 1.2-.3.6 0 1.1.2.5.3.8.8.3.6.3 1.4v4.2h-1V279q0-.8-.4-1.2-.4-.4-1.1-.4-.5 0-.9.2t-.6.6q-.2.4-.2 1zm8.7 6.6q-.8 0-1.3-.2l-.9-.5-.5-.6.8-.6.3.4.6.4q.4.2 1 .2.8 0 1.3-.4t.5-1.2V282l-.4.4q-.2.3-.6.5-.4.2-1 .2-.8 0-1.4-.4-.6-.4-1-1-.4-.8-.4-1.8t.4-1.8q.3-.7 1-1.1.6-.4 1.4-.4.7 0 1 .2l.6.4.3.5h.1v-1h1v6.7q0 .8-.4 1.3-.4.6-1 .8-.6.3-1.4.3zm0-3.6q.6 0 1-.3t.6-.8q.2-.5.2-1.2t-.2-1.3q-.2-.5-.6-.8-.4-.3-1-.3-.7 0-1.1.3-.4.3-.7.9-.2.5-.2 1.2l.2 1.2q.3.5.7.8.4.3 1 .3zm7.4 1.1q-1 0-1.6-.4-.7-.4-1.1-1.2-.4-.7-.4-1.7t.4-1.8q.4-.8 1-1.2.7-.4 1.6-.4l1 .1 1 .6.5 1q.3.6.3 1.5v.4h-5v-.8h4q0-.6-.3-1-.2-.4-.6-.7-.4-.2-1-.2l-1 .2q-.4.3-.6.8-.3.5-.3 1v.6q0 .8.3 1.3t.7.8q.5.2 1.1.2h.7l.6-.4.3-.6 1 .3-.5.8q-.4.4-1 .6-.4.2-1.1.2zm8.9-5.2l-1 .3q0-.3-.2-.5l-.4-.3q-.3-.2-.8-.2t-1 .3q-.3.3-.3.7 0 .4.2.6l.9.4 1 .2q.8.2 1.2.6.5.5.5 1.2 0 .5-.3 1l-1 .7q-.5.2-1.3.2-1 0-1.6-.4-.7-.4-.9-1.3l1-.2q.1.5.5.8.4.2 1 .2.7 0 1.1-.3.5-.3.5-.7 0-.3-.3-.6-.2-.2-.7-.3l-1.1-.3q-1-.2-1.3-.6-.5-.5-.5-1.1 0-.6.4-1 .3-.5.8-.7l1.2-.2q1 0 1.6.4.5.4.8 1.1zm3 2.6v-1.3l.5-.8.8-.5.4-.4.3-.5.2-.6q0-.4-.2-.7-.2-.3-.6-.5-.3-.2-.7-.2l-.7.2q-.3.1-.5.4l-.3.8h-1q0-.7.3-1.2.4-.5 1-.8.5-.3 1.2-.3.8 0 1.3.3.6.3.9.9.3.5.3 1.1 0 .5-.2.9-.1.4-.4.7-.2.3-.6.5-.4.2-.6.5l-.4.6v.9h-1zm.5 2.5l-.6-.2q-.2-.2-.2-.5t.2-.5q.3-.3.6-.3t.5.3q.2.2.2.5v.4l-.4.3h-.3z"/>
  <path fill="#fff" d="M294.8 339.8h90.7v75.6h-90.7z" fill-rule="evenodd"/>
  <path stroke="#000" stroke-linejoin="round" stroke-linecap="butt" d="M294.8 339.8h90.7v75.6h-90.7z"/>
  <path fill="#000" d="M336.4 352.4v8.7H335v-7.4l-2.1 1.4v-1.3l2.2-1.4h1.3zm4.2 8.9q-.6 0-1-.3-.6-.2-.9-.6-.3-.5-.3-1.1 0-.6.2-1 .2-.3.6-.5l.8-.3 1-.2.9-.1.5-.1q.2-.1.2-.4 0-.6-.3-.9-.3-.3-1-.3-.6 0-1 .3l-.5.6-1.2-.2q.2-.6.7-1 .4-.4.9-.5.5-.2 1.1-.2l.9.1q.4 0 .8.3t.6.7q.3.5.3 1.2v4.3h-1.3v-.9q-.1.3-.4.5-.2.3-.6.4-.4.2-1 .2zm.3-1q.5 0 1-.3l.5-.5q.2-.3.2-.7v-.9l-.3.1-.4.2h-.9l-.7.2q-.3.1-.5.4l-.1.5q0 .5.3.7.4.3 1 .3zm5.5.9l-.6-.2-.2-.6q0-.4.2-.6.3-.3.6-.3.4 0 .6.3.3.2.3.6l-.2.4q0 .2-.3.3l-.4.1zM325.7 366.4h1.3v5.7q0 1-.4 1.7t-1.2 1q-.8.5-1.8.5t-1.9-.4q-.7-.4-1.2-1.1-.4-.8-.4-1.7v-5.7h1.3v5.6q0 .6.3 1.1.2.4.7.7.5.3 1.2.3.6 0 1.1-.3.5-.3.8-.7l.2-1v-5.7zm3.1 11.2v-9h1.3v1l.4-.4q.2-.3.6-.5.4-.2 1-.2.8 0 1.4.4.6.4 1 1.1.3.8.3 1.9 0 1-.3 1.8-.4.7-1 1.1-.6.5-1.4.5-.6 0-1-.2t-.6-.5l-.3-.5v3.5h-1.4zm1.3-5.7l.2 1.2q.2.5.6.8.4.3.9.3.6 0 1-.3.3-.3.5-.9.2-.5.2-1.1 0-.7-.2-1.2l-.5-.8q-.4-.3-1-.3-.5 0-1 .3-.3.2-.5.8-.2.5-.2 1.2zm8.6 3.4q-.8 0-1.4-.5-.6-.4-1-1.1-.3-.8-.3-1.8 0-1.1.3-1.9.4-.7 1-1 .6-.5 1.4-.5.6 0 1 .2t.6.5l.3.4v-3.2h1.3v8.7h-1.2v-1h-.1l-.3.5q-.2.3-.6.5-.4.2-1 .2zm.3-1.1q.5 0 1-.3l.5-.8.2-1.2q0-.7-.2-1.2-.2-.6-.6-.8-.4-.3-1-.3-.5 0-.9.3t-.6.8l-.1 1.2.1 1.1q.2.6.6.9.4.3 1 .3zm6.7 1q-.7 0-1.2-.2t-.8-.6q-.2-.5-.2-1.1 0-.6.2-1l.5-.5.8-.3 1-.2.9-.1.6-.1.1-.4q0-.6-.3-.9-.3-.3-1-.3-.6 0-1 .3l-.4.6-1.2-.2q.2-.6.6-1 .4-.4 1-.5l1-.2.9.1q.4 0 .8.3t.6.7q.3.5.3 1.2v4.3h-1.2v-.9l-.5.5q-.2.3-.6.4-.4.2-1 .2zm.2-1q.6 0 1-.2l.5-.5q.2-.3.2-.7v-.9l-.2.1-.5.2h-.9l-.6.2q-.3.1-.5.4-.2.2-.2.5 0 .5.3.7.4.3 1 .3zm7.7-5.6v1h-3.5v-1h3.5zM351 367h1.3v6.2l.1.6.3.2h.8l.3 1-.3.2h-.6q-.5 0-.9-.2l-.7-.5q-.3-.4-.3-1V367zm6.8 8.3q-1 0-1.7-.5-.7-.4-1-1.1-.4-.8-.4-1.8t.4-1.8q.3-.7 1-1.2.7-.4 1.6-.4.6 0 1 .2.6.2 1 .6.4.3.7 1 .2.6.2 1.5v.4h-5.2v-1h4l-.2-.8q-.2-.4-.6-.6-.4-.3-.9-.3t-1 .3l-.5.7q-.2.4-.2 1v.6q0 .7.2 1.2.2.4.6.7l1 .2h.7l.5-.4.3-.5 1.2.2q-.1.5-.5 1l-1 .5q-.5.3-1.2.3zM324.1 389.3q-1 0-1.6-.5-.7-.4-1-1.2-.4-.7-.4-1.7t.4-1.8q.3-.7 1-1.2.7-.4 1.6-.4.8 0 1.3.3.6.2 1 .7.4.5.4 1.2h-1.2q-.1-.5-.5-.8-.3-.3-1-.3-.5 0-.9.2-.4.3-.6.8-.2.6-.2 1.3 0 .7.2 1.2t.6.8q.4.3 1 .3l.6-.2q.3 0 .5-.3l.3-.7h1.2q0 .7-.4 1.2-.3.5-1 .8-.5.3-1.3.3zm6.8 0q-.9 0-1.6-.5-.6-.4-1-1.1-.4-.8-.4-1.8t.4-1.8q.4-.8 1-1.2.7-.4 1.6-.4 1 0 1.7.4.6.4 1 1.2.4.8.4 1.8t-.4 1.8q-.4.7-1 1.1-.7.5-1.7.5zm0-1.1q.7 0 1-.3.4-.3.6-.9.2-.5.2-1.1l-.2-1.2q-.2-.5-.6-.8-.3-.3-1-.3-.5 0-1 .3l-.5.8-.2 1.2q0 .6.2 1.1.2.6.6.9.4.3 1 .3zm8.7-1.8v-3.8h1.2v6.5h-1.2V388q-.3.5-.8.9-.5.3-1.2.3t-1.1-.3q-.5-.2-.8-.8-.3-.6-.3-1.3v-4.2h1.3v4q0 .7.4 1 .3.4 1 .4l.6-.1q.4-.2.6-.6.3-.3.3-.9zm3 2.7v-6.5h1.2v1q.2-.5.7-.8.5-.3 1-.3h.6v1.2h-.7l-.8.1q-.4.2-.6.6-.2.3-.2.7v4h-1.2zm9.5-5l-1.2.3-.2-.4-.4-.4-.7-.1q-.5 0-.9.3-.4.2-.4.6 0 .3.3.5.2.2.8.3l1 .3q1 .2 1.3.6.5.4.5 1.1 0 .6-.3 1-.4.5-1 .8-.6.3-1.4.3-1 0-1.8-.5-.7-.5-.8-1.3l1.2-.2q.1.4.5.7.3.2 1 .2l1-.2q.3-.3.3-.7 0-.3-.2-.5l-.7-.3-1.1-.2q-1-.3-1.4-.7-.4-.5-.4-1.2 0-.5.3-1 .3-.4.9-.6.6-.3 1.3-.3 1 0 1.7.5.6.4.8 1.2zm4.3 5.2q-1 0-1.7-.5-.6-.4-1-1.1-.4-.8-.4-1.8t.4-1.8q.4-.7 1-1.2.7-.4 1.6-.4.6 0 1.1.2l1 .6q.4.3.6 1 .2.6.2 1.5v.4H354v-1h4l-.2-.8q-.2-.4-.6-.6-.4-.3-.9-.3t-.9.3q-.4.3-.6.7-.2.4-.2 1v.6q0 .7.2 1.2.2.4.6.7l1 .2h.7l.5-.4.3-.5 1.2.2q0 .5-.5 1-.3.3-1 .5-.5.3-1.2.3zM321.5 403.3q-1 0-1.6-.5-.7-.4-1-1.2-.5-.7-.5-1.7t.4-1.8q.4-.7 1-1.2.8-.4 1.7-.4.7 0 1.3.3.6.2 1 .7.3.5.4 1.2h-1.3q0-.5-.4-.8-.4-.3-1-.3l-1 .2-.6.8q-.2.6-.2 1.3 0 .7.2 1.2.3.5.7.8.4.3 1 .3l.6-.2q.3 0 .5-.3t.2-.7h1.3q0 .7-.4 1.2t-1 .8q-.5.3-1.3.3zm5.3-4v3.8h-1.2v-8.7h1.2v3.2q.3-.5.8-.8.5-.3 1.2-.3t1.2.3q.5.2.8.8.3.5.3 1.4v4.1h-1.3v-4q0-.7-.4-1.1-.3-.4-1-.4-.5 0-.8.2-.4.2-.6.6-.2.3-.2.8zm8.7 4q-.9 0-1.6-.5-.6-.4-1-1.1-.4-.8-.4-1.8t.4-1.8q.4-.8 1-1.2.7-.4 1.6-.4 1 0 1.6.4.7.4 1.1 1.2.4.8.4 1.8t-.4 1.8q-.4.7-1 1.1-.7.5-1.7.5zm0-1.1q.6 0 1-.3t.6-.9q.2-.5.2-1.1l-.2-1.2q-.2-.5-.6-.8-.4-.3-1-.3t-1 .3l-.5.8-.2 1.2q0 .6.2 1.1.2.6.5.9.4.3 1 .3zm4.5 1v-6.6h1.3v6.5H340zm.7-7.6q-.3 0-.6-.3-.2-.2-.2-.5t.2-.5q.3-.3.6-.3t.6.3q.2.2.2.5t-.2.5q-.3.3-.6.3zm5 7.7q-1 0-1.6-.5-.7-.4-1-1.2-.4-.7-.4-1.7t.4-1.8q.3-.7 1-1.2.7-.4 1.6-.4.8 0 1.4.3.6.2 1 .7.3.5.3 1.2h-1.2q-.1-.5-.5-.8-.3-.3-1-.3-.5 0-.9.2-.4.3-.6.8-.2.6-.2 1.3 0 .7.2 1.2t.6.8q.4.3 1 .3l.6-.2q.3 0 .5-.3l.3-.7h1.2q0 .7-.4 1.2-.3.5-.9.8-.6.3-1.4.3zm7 0q-1 0-1.7-.5-.7-.4-1.1-1.1-.4-.8-.4-1.8t.4-1.8q.4-.7 1-1.2.7-.4 1.6-.4.6 0 1.1.2l1 .6q.4.3.6 1 .2.6.2 1.5v.4h-5.2v-1h4l-.2-.8q-.2-.4-.6-.6-.4-.3-.9-.3t-.9.3q-.4.3-.6.7-.2.4-.2 1v.6q0 .7.2 1.2.2.4.7.7.4.2 1 .2h.6l.5-.4.4-.5 1.2.2-.6 1q-.3.3-.9.5-.6.3-1.3.3zm9-5.1l-1 .2-.3-.4-.4-.4-.7-.1q-.6 0-1 .3-.3.2-.3.6 0 .3.3.5.2.2.8.3l1 .3q.9.2 1.3.6.5.4.5 1.1 0 .6-.4 1-.3.5-.9.8-.6.3-1.4.3-1 0-1.8-.5-.7-.5-.8-1.3l1.2-.2q.1.4.5.7.3.2.9.2.6 0 1-.2.4-.3.4-.7 0-.3-.3-.5l-.6-.3-1.2-.2q-.9-.3-1.3-.7-.4-.5-.4-1.2 0-.5.3-1 .3-.4.9-.6.5-.3 1.3-.3 1 0 1.7.5.6.4.8 1.2z"/>
  <path fill="none" d="M211.7 302.4v75.2h83.1"/>
  <path stroke="#000" stroke-linejoin="round" stroke-linecap="butt" d="M211.7 302.4v75.2h77.1"/>
  <path fill="#000" stroke="#000" stroke-linecap="butt" d="M288.8 379.3l4.5-1.7-4.5-1.6z" fill-rule="evenodd"/>
  <path fill="none" d="M340.2 339.8v-37.4"/>
  <path stroke="#000" stroke-linejoin="round" stroke-linecap="butt" d="M340.2 339.8v-31.4"/>
  <path fill="#000" stroke="#000" stroke-linecap="butt" d="M341.8 308.4l-1.6-4.6-1.7 4.6z" fill-rule="evenodd"/>
  <path fill="none" d="M257 264.6h37.8"/>
  <path stroke="#000" stroke-linejoin="round" stroke-linecap="butt" d="M257 264.6h31.8"/>
  <path fill="#000" stroke="#000" stroke-linecap="butt" d="M288.8 266.2l4.5-1.6-4.5-1.7z" fill-rule="evenodd"/>
  <path fill="none" d="M468.7 396.2h415.7V415H468.7z"/>
  <path fill="#000" d="M606.6 401.1q-.1-.6-.7-1-.5-.3-1.3-.3-.6 0-1 .2-.5.1-.7.5-.2.3-.2.7l.1.6q.2.3.5.4l.5.3.6.2.8.2.8.2.8.5q.4.2.6.7.3.4.3 1 0 .7-.4 1.3-.3.6-1 .9-.7.3-1.8.3-.9 0-1.6-.3-.7-.3-1-.8-.4-.6-.5-1.3h1q.1.5.4.9.3.3.8.4.4.2 1 .2l1-.2q.5-.2.8-.6.3-.3.3-.8t-.3-.7q-.2-.3-.6-.5l-.9-.3-1-.3q-1-.3-1.7-.8-.6-.6-.6-1.4 0-.8.4-1.3.4-.6 1.1-.9.7-.3 1.5-.3.9 0 1.5.3.7.3 1 .9.5.5.5 1.1h-1zm6.8 3.9v-3.9h1v6.6h-1v-1.1q-.3.5-.8.8-.4.4-1.2.4-.6 0-1-.3-.6-.3-.8-.8-.3-.6-.3-1.4V401h1v4.1q0 .7.4 1.2.4.4 1 .4l.8-.2q.4-.2.7-.6.2-.4.2-1zm3 2.7v-8.8h1v3.3l.4-.5.6-.4q.4-.3 1-.3.8 0 1.4.5.7.4 1 1.1.4.8.4 1.8t-.4 1.8q-.3.8-1 1.2-.6.4-1.4.4-.6 0-1-.2t-.6-.5l-.3-.4h-.1v1h-1zm1-3.3q0 .7.2 1.3.2.6.6.9.5.3 1 .3.7 0 1.1-.3.5-.4.7-1 .2-.5.2-1.2t-.2-1.2q-.2-.6-.7-1-.4-.3-1-.3t-1 .4q-.5.3-.7.8-.2.6-.2 1.3zm6.3 3.3V401h1v1q.3-.5.7-.8.5-.3 1.1-.3.7 0 1.1.3.5.3.7.9.3-.6.8-.9.5-.3 1.2-.3.9 0 1.5.6.5.5.5 1.7v4.4h-1v-4.4q0-.7-.4-1-.4-.4-1-.4t-1 .5q-.4.4-.4 1v4.3h-1v-4.5q0-.6-.4-1-.3-.3-.9-.3-.4 0-.7.3-.4.2-.6.5-.2.4-.2.9v4h-1zm10.5 0V401h1v6.6h-1zm.5-7.7q-.3 0-.5-.2l-.2-.4q0-.3.2-.5t.5-.2q.3 0 .5.2t.2.5l-.2.4q-.2.2-.5.2zm5.1 1.1v.9h-3.3v-.9h3.3zm-2.4-1.5h1v6.2q0 .4.2.6l.3.3H639.8l.2 1h-.8l-.8-.1q-.4-.2-.7-.6-.3-.4-.3-1v-6.4zm9.3 8.2q-.7 0-1.2-.2t-.8-.7q-.3-.4-.3-1t.2-1l.6-.6.9-.3.9-.1 1-.1q.3 0 .5-.2.2 0 .2-.3 0-.7-.4-1-.3-.4-1-.4t-1.2.4q-.4.3-.5.6l-1-.3.7-1q.4-.3 1-.4l1-.2.7.1q.4 0 .8.3l.6.7q.3.5.3 1.3v4.3h-1v-1l-.4.6-.7.4-1 .1zm.1-.9q.6 0 1-.2t.6-.6q.3-.4.3-.8v-1q-.1.2-.3.2l-.5.1-.6.1h-.4l-.7.2q-.4.1-.6.4-.2.2-.2.6 0 .5.4.8.4.2 1 .2zm4.7 3.2v-9h1v1h.1l.3-.4.6-.4q.3-.3 1-.3.8 0 1.4.5.7.4 1 1.1.4.8.4 1.8t-.4 1.8q-.3.8-1 1.2-.6.4-1.4.4-.6 0-1-.2t-.6-.5l-.3-.4v3.4h-1zm1-5.7q0 .7.2 1.3.2.6.6.9.5.3 1 .3.7 0 1.1-.3l.7-1q.2-.5.2-1.2t-.2-1.2l-.7-1q-.4-.3-1-.3t-1 .4q-.5.3-.7.8-.2.6-.2 1.3zm6.3 5.7v-9h1v1h.1l.3-.4.6-.4q.4-.3 1-.3.8 0 1.5.5.6.4 1 1.1.3.8.3 1.8t-.4 1.8q-.3.8-1 1.2-.6.4-1.4.4-.6 0-1-.2t-.6-.5l-.3-.4v3.4h-1zm1-5.7q0 .7.2 1.3.2.6.6.9.5.3 1 .3.7 0 1.1-.3.5-.4.7-1 .2-.5.2-1.2t-.2-1.2q-.2-.6-.7-1-.4-.3-1-.3t-1 .4q-.5.3-.7.8-.2.6-.2 1.3zm7.3-5.5v8.8h-1v-8.8h1zm1.9 8.8V401h1v6.6h-1zm.5-7.7q-.3 0-.5-.2l-.2-.4q0-.3.2-.5t.5-.2q.3 0 .5.2t.2.5l-.2.4q-.2.2-.5.2zm5 7.8q-1 0-1.6-.4-.7-.5-1-1.2-.4-.8-.4-1.8t.4-1.7q.3-.8 1-1.2.7-.5 1.6-.5.7 0 1.2.3.6.2 1 .7.3.5.4 1.1h-1q-.2-.5-.6-.8-.3-.4-1-.4-.6 0-1 .4-.5.2-.7.8-.3.6-.3 1.3 0 .8.3 1.3.2.6.6.9.5.3 1 .3l.8-.1.5-.4.3-.6h1q0 .5-.4 1-.3.5-.9.7-.5.3-1.2.3zm6 0q-.7 0-1.2-.2t-.8-.7q-.3-.4-.3-1t.2-1l.6-.6.9-.3.9-.1 1-.1q.3 0 .5-.2l.1-.3q0-.7-.3-1-.3-.4-1-.4-.8 0-1.2.4-.4.3-.5.6l-1-.3.7-1q.4-.3 1-.4.4-.2 1-.2l.6.1q.5 0 .8.3l.7.7q.2.5.2 1.3v4.3h-1v-1l-.4.6-.6.4-1 .1zm.1-.9q.6 0 1-.2t.6-.6l.2-.8v-1q0 .2-.2.2l-.5.1-.6.1h-.4l-.7.2q-.4.1-.6.4-.2.2-.2.6 0 .5.4.8.4.2 1 .2zm7.5-5.8v.9h-3.4v-.9h3.4zm-2.4-1.5h1v6.2q0 .4.2.6 0 .2.3.3H688l.2 1h-.8l-.8-.1q-.4-.2-.7-.6-.3-.4-.3-1v-6.4zm4 8v-6.5h1v6.6h-1zm.5-7.6q-.3 0-.5-.2-.3-.2-.3-.4 0-.3.3-.5.2-.2.5-.2l.5.2q.2.2.2.5l-.2.4-.5.2zm5 7.8q-1 0-1.6-.4-.7-.4-1-1.2-.4-.7-.4-1.8 0-1 .4-1.7.3-.8 1-1.2.7-.5 1.6-.5.8 0 1.5.5.7.4 1 1.2.4.7.4 1.7t-.4 1.8q-.3.8-1 1.2-.7.4-1.5.4zm0-.9q.6 0 1-.3.5-.4.7-1 .2-.5.2-1.2l-.2-1.2q-.2-.6-.6-.9-.5-.4-1.1-.4-.7 0-1.2.4-.4.3-.6 1-.2.5-.2 1.1 0 .7.2 1.3.2.5.6.9.5.3 1.2.3zm5.5-3.2v4h-1V401h1v1q.2-.4.7-.7.5-.4 1.2-.4t1.2.3q.5.3.8.8.2.6.2 1.4v4.2h-1v-4.1q0-.8-.4-1.2-.4-.5-1-.5t-1 .3q-.3.2-.5.6-.2.4-.2 1zm11.3 4.1l-1.2-.2q-.5-.2-.8-.7-.3-.4-.3-1t.3-1q.2-.4.6-.6l.8-.3.9-.1 1-.1q.3 0 .5-.2.2 0 .2-.3 0-.7-.4-1-.3-.4-1-.4t-1.1.4l-.6.6-1-.3.7-1q.4-.3 1-.4l1-.2.7.1q.4 0 .8.3t.6.7q.3.5.3 1.3v4.3h-1v-1l-.4.6-.7.4-1 .1zm.1-.9q.6 0 1-.2.5-.2.7-.6l.2-.8v-1q0 .2-.3.2l-.5.1-.6.1h-.4l-.7.2q-.3.1-.5.4-.2.2-.2.6 0 .5.3.8.4.2 1 .2zm5.7-3.2v4h-1V401h1v1q.3-.4.8-.7.4-.4 1.2-.4.6 0 1.1.3.5.3.8.8.3.6.3 1.4v4.2h-1v-4.1q0-.8-.4-1.2-.4-.5-1.1-.5-.5 0-.9.3l-.6.6q-.2.4-.2 1zm6.4 6.4h-.4l-.3-.1.3-.9q.5.2.9 0 .4-.1.6-.9l.2-.5-2.4-6.6h1l1.9 5.2 1.9-5.2h1l-2.7 7.5-.5.9-.6.4q-.4.2-.9.2zm7.6-2.4l-2-6.6h1l1.5 5 1.4-5h1.1l1.4 5 1.5-5h1l-2 6.6h-1l-1.4-5h-.1l-1.4 5h-1zm10.2.1q-.7 0-1.2-.2t-.8-.7q-.3-.4-.3-1t.3-1q.2-.4.5-.6l.9-.3.9-.1 1-.1q.3 0 .5-.2.2 0 .2-.3 0-.7-.4-1-.3-.4-1-.4t-1.1.4q-.5.3-.6.6l-1-.3.7-1q.4-.3 1-.4l1-.2.7.1q.4 0 .8.3t.6.7q.3.5.3 1.3v4.3h-1v-1l-.4.6-.7.4-1 .1zm.1-.9q.6 0 1-.2t.6-.6q.3-.4.3-.8v-1q0 .2-.3.2l-.5.1-.6.1h-.4l-.7.2q-.3.1-.5.4-.3.2-.3.6 0 .5.4.8.4.2 1 .2zm5.1 3.2h-.4l-.3-.1.2-.9q.6.2 1 0 .3-.1.6-.9l.2-.5-2.4-6.6h1l1.9 5.2 1.8-5.2h1.1l-2.7 7.5-.5.9q-.3.3-.7.4-.3.2-.8.2z"/>
  <path fill="none" d="M468.7 339.8h272v19h-272z"/>
  <path fill="#000" d="M541.7 351.3v-8.7h3q1 0 1.6.4.7.3 1 1 .3.5.3 1.3 0 .7-.3 1.3-.3.6-1 1-.6.3-1.6.3h-2.4v-1h2.3l1.2-.1q.4-.2.6-.6.2-.4.2-1l-.2-.8q-.2-.4-.6-.6-.5-.3-1.2-.3h-1.8v7.8h-1zm4.1-3.9l2.2 4h-1.3l-2-4h1.1zm6.1 4q-1 0-1.6-.4-.7-.4-1-1.1-.4-.8-.4-1.8t.3-1.8q.4-.7 1-1.2.7-.4 1.6-.4l1 .2q.5.1 1 .5l.6 1q.2.6.2 1.6v.4h-5v-.9h4l-.2-1q-.2-.4-.7-.6-.3-.3-.9-.3-.6 0-1 .3-.5.3-.7.8-.2.4-.2 1v.6q0 .7.2 1.2.3.5.7.8.5.3 1.1.3l.7-.1.6-.4.3-.6 1 .3q-.1.5-.5.9l-.9.6q-.5.2-1.2.2zm4.3 0v-6.6h1v1q.2-.5.7-.8.4-.3 1-.3.7 0 1.1.3.5.3.7.8h.1q.2-.5.7-.8.5-.3 1.2-.3 1 0 1.5.6.5.5.5 1.7v4.3h-1V347q0-.8-.4-1-.3-.4-.9-.4-.7 0-1 .4-.4.4-.4 1v4.3h-1v-4.5q0-.5-.4-.9-.4-.3-1-.3-.4 0-.7.2-.3.2-.5.6l-.2.8v4.1h-1zm13 0q-.8 0-1.5-.4t-1-1.1q-.4-.8-.4-1.8t.4-1.8q.3-.8 1-1.2.7-.4 1.5-.4 1 0 1.6.4.7.4 1 1.2.4.8.4 1.8t-.4 1.8q-.3.7-1 1.1-.7.5-1.6.5zm0-.8q.7 0 1.2-.4.4-.3.6-.9.2-.5.2-1.2t-.2-1.2q-.2-.6-.6-1-.5-.3-1.2-.3-.6 0-1 .4-.5.3-.7.9-.2.5-.2 1.2t.2 1.2q.2.6.6 1 .5.3 1.1.3zm9.7-5.8l-2.5 6.5h-1l-2.4-6.5h1l1.9 5.2 1.9-5.2h1zm3.8 6.7q-1 0-1.6-.5-.7-.4-1.1-1.1-.4-.8-.4-1.8t.4-1.8q.4-.7 1-1.2.7-.4 1.6-.4l1 .2q.5.1 1 .5l.6 1q.2.6.2 1.6v.4h-5v-.9h4l-.2-1q-.3-.4-.7-.6-.4-.3-1-.3-.5 0-1 .3-.4.3-.6.8-.2.4-.2 1v.6q0 .7.2 1.2.3.5.7.8.5.3 1.1.3l.7-.1.6-.4.3-.6 1 .3q-.1.5-.5.9l-1 .6q-.4.2-1.1.2zm10.3 0q-1 0-1.6-.5-.7-.4-1-1.2-.4-.7-.4-1.7t.4-1.8q.3-.7 1-1.2.7-.4 1.6-.4.6 0 1.2.3.6.2.9.7.4.4.4 1h-1q0-.4-.5-.7-.4-.4-1-.4t-1 .3q-.5.3-.7.9-.3.5-.3 1.3 0 .7.3 1.3.2.5.6.9.5.3 1 .3t.8-.2q.3-.1.5-.4l.3-.6h1q0 .6-.4 1-.3.5-.9.8-.5.3-1.2.3zm6.7 0q-1 0-1.6-.5-.6-.4-1-1.1-.4-.8-.4-1.8t.4-1.8q.4-.8 1-1.2.7-.4 1.6-.4.9 0 1.5.4.7.4 1 1.2.4.8.4 1.8t-.3 1.8q-.4.7-1 1.1-.7.5-1.6.5zm0-1q.6 0 1-.3.5-.3.7-.9.2-.5.2-1.2t-.2-1.2q-.2-.6-.6-1-.5-.3-1.1-.3-.7 0-1.1.4-.5.3-.7.9-.2.5-.2 1.2t.2 1.2q.2.6.7 1 .4.3 1 .3zm8.6-1.8v-4h1v6.6h-1v-1l-.8.8q-.5.3-1.2.3-.6 0-1.1-.3-.5-.2-.8-.8-.2-.5-.2-1.4v-4.1h1v4q0 .8.4 1.2.4.4 1 .4l.8-.1q.4-.2.6-.6.3-.4.3-1zm2.8 2.6v-6.5h1v1q.3-.5.7-.8.5-.3 1-.3H614.5v1H613.8q-.5 0-.8.2-.4.1-.6.5-.3.4-.3.8v4.1h-1zm9.1-5l-.9.2-.2-.4q-.2-.3-.5-.4l-.7-.1q-.6 0-1 .2-.4.3-.4.7 0 .4.3.6l.9.4 1 .2q.8.2 1.2.7.5.4.5 1.1 0 .6-.4 1-.3.5-.9.7-.5.3-1.3.3-1 0-1.6-.5-.7-.4-.9-1.2l1-.3q.1.5.5.8.4.3 1 .3.7 0 1.1-.3.4-.3.4-.7 0-.4-.2-.6l-.7-.4-1.1-.2q-1-.2-1.4-.7-.4-.4-.4-1.1 0-.6.3-1 .4-.4.9-.6.5-.3 1.2-.3 1 0 1.6.4.5.4.7 1.2zm4.4 5.2q-1 0-1.6-.5-.7-.4-1-1.1-.4-.8-.4-1.8t.3-1.8q.4-.7 1-1.2.7-.4 1.6-.4l1 .2q.5.1 1 .5.4.4.6 1 .2.6.2 1.6v.4h-5v-.9h4l-.2-1q-.2-.4-.6-.6-.4-.3-1-.3t-1 .3q-.4.3-.7.8-.2.4-.2 1v.6q0 .7.2 1.2.3.5.8.8.4.3 1 .3l.7-.1.6-.4.4-.6 1 .3q-.2.5-.6.9l-.9.6q-.5.2-1.2.2zm10.3 0q-1 0-1.6-.5-.6-.4-1-1.2-.4-.7-.4-1.7t.4-1.8q.4-.7 1-1.2.7-.4 1.6-.4.7 0 1.2.3.6.2 1 .7.3.4.4 1h-1q-.1-.4-.5-.7-.4-.4-1.1-.4-.6 0-1 .3-.5.3-.7.9-.3.5-.3 1.3 0 .7.3 1.3.2.5.7.9.4.3 1 .3.4 0 .7-.2l.6-.4.3-.6h1q-.1.6-.4 1-.4.5-1 .8-.5.3-1.2.3zm5-4.1v4h-1v-8.8h1v3.2h.1q.3-.5.7-.8.5-.3 1.3-.3.6 0 1.1.3.5.2.8.8.3.5.3 1.4v4.1h-1v-4q0-.8-.4-1.3-.4-.4-1.1-.4l-1 .2q-.3.2-.5.6-.3.4-.3 1zm8.8 4q-.9 0-1.6-.4-.6-.4-1-1.1-.4-.8-.4-1.8t.4-1.8q.4-.8 1-1.2.7-.4 1.6-.4.9 0 1.5.4.7.4 1 1.2.5.8.5 1.8t-.4 1.8q-.4.7-1 1.1-.7.5-1.6.5zm0-.8q.7 0 1.1-.4.4-.3.6-.9.3-.5.3-1.2t-.3-1.2q-.2-.6-.6-1-.4-.3-1.1-.3-.7 0-1.1.4-.5.3-.7.9-.2.5-.2 1.2t.2 1.2q.2.6.7 1 .4.3 1 .3zm4.5.7v-6.5h1v6.5h-1zm.5-7.6q-.3 0-.5-.2t-.2-.5q0-.3.2-.5t.5-.2q.3 0 .5.2t.2.5q0 .3-.2.5t-.5.2zm5 7.8q-1 0-1.6-.5-.7-.4-1-1.2-.4-.7-.4-1.7t.4-1.8q.4-.7 1-1.2.7-.4 1.6-.4.7 0 1.2.3.6.2 1 .7.3.4.4 1h-1l-.5-.7q-.4-.4-1.1-.4-.6 0-1 .3-.5.3-.7.9-.3.5-.3 1.3 0 .7.3 1.3.2.5.6.9.5.3 1.1.3.4 0 .7-.2.3-.1.5-.4.3-.2.4-.6h1q-.1.6-.4 1-.4.5-1 .8-.5.3-1.2.3zm6.8 0q-1 0-1.7-.5-.6-.4-1-1.1-.4-.8-.4-1.8t.4-1.8q.4-.7 1-1.2.7-.4 1.6-.4l1 .2q.5.1.9.5t.6 1q.3.6.3 1.6v.4h-5v-.9h4q0-.5-.3-1-.2-.4-.6-.6-.4-.3-1-.3-.5 0-1 .3-.4.3-.6.8-.3.4-.3 1v.6q0 .7.3 1.2t.7.8q.5.3 1 .3l.8-.1.6-.4.3-.6 1 .3-.5.9-1 .6q-.5.2-1.1.2z"/>
  <path fill="none" d="M128.5 264.6h37.8"/>
  <path stroke="#000" stroke-linejoin="round" stroke-linecap="butt" d="M128.5 264.6h31.8"/>
  <path fill="#000" stroke="#000" stroke-linecap="butt" d="M160.3 266.2l4.5-1.6-4.5-1.7z" fill-rule="evenodd"/>
  <path fill="#fff" d="M37.8 226.8h90.7v75.6H37.8z" fill-rule="evenodd"/>
  <path stroke="#000" stroke-linejoin="round" stroke-linecap="butt" d="M37.8 226.8h90.7v75.6H37.8z"/>
  <path fill="#000" d="M52.5 262h-1.4l3.2-8.6h1.5l3.1 8.7h-1.4l-2.5-7.2-2.5 7.2zm.3-3.3h4.5v1h-4.5v-1zm7.3 5.8v-9h1.2v1.1h.1l.3-.5.6-.4q.4-.2 1-.2.8 0 1.4.4.6.4 1 1.1.3.8.3 1.8t-.3 1.8q-.4.8-1 1.2-.6.4-1.4.4-.6 0-1-.2l-.6-.4-.3-.5v3.4H60zm1.2-5.7q0 .7.2 1.2t.6.8q.4.3 1 .3.5 0 .9-.3t.6-.8q.2-.5.2-1.2l-.2-1.2q-.2-.5-.6-.8-.4-.3-1-.3-.5 0-1 .3l-.5.8q-.2.5-.2 1.2zm6.2 5.7v-9h1.2v1.1h.1l.3-.5.6-.4q.4-.2 1-.2.8 0 1.4.4.6.4 1 1.1.3.8.3 1.8t-.3 1.8q-.4.8-1 1.2-.6.4-1.4.4-.6 0-1-.2l-.6-.4-.3-.5v3.4h-1.3zm1.2-5.7q0 .7.2 1.2t.6.8q.4.3 1 .3.5 0 .9-.3t.6-.8q.2-.5.2-1.2l-.2-1.2q-.2-.5-.6-.8-.4-.3-1-.3-.5 0-1 .3l-.5.8q-.2.5-.2 1.2zm7.4-5.4v8.7H75v-8.7H76zM78 262v-6.6H79v6.6H78zm.6-7.6q-.3 0-.5-.2-.3-.2-.3-.5t.3-.6q.2-.2.5-.2.4 0 .6.2.3.3.3.6t-.3.5q-.2.2-.6.2zm5.1 7.7q-1 0-1.6-.4-.7-.4-1-1.2-.4-.8-.4-1.8t.3-1.7q.4-.8 1-1.2.8-.4 1.7-.4.7 0 1.3.2.6.3 1 .8.3.5.4 1.1h-1.2q-.1-.4-.5-.7-.4-.4-1-.4-.5 0-1 .3l-.5.8q-.3.5-.3 1.2t.3 1.3q.2.5.6.8.4.2 1 .2h.6l.5-.5.3-.6h1.2q0 .6-.4 1.1-.4.5-1 .8-.5.3-1.3.3zm6 0q-.6 0-1.1-.2-.5-.2-.8-.7-.3-.4-.3-1t.2-1l.5-.5.9-.4.9-.1 1-.1q.3 0 .5-.2l.1-.3q0-.6-.3-.9-.3-.3-1-.3-.6 0-1 .3l-.4.6-1.2-.3q.2-.6.6-1l1-.5 1-.1h.9l.8.4q.4.2.6.7.3.4.3 1.1v4.4h-1.2v-.9l-.5.5-.6.4-1 .1zm.2-1q.6 0 1-.2l.5-.5.2-.8v-.8l-.2.1-.5.1h-.5l-.3.1q-.4 0-.7.2-.3 0-.5.3-.2.2-.2.6 0 .4.4.7.3.2.8.2zm7.7-5.7v1H94v-1h3.5zM95 254h1.3v6.2l.1.5.3.3H97.4l.3 1-.3.1h-.6l-.9-.1q-.4-.2-.7-.6-.3-.4-.3-1V254zm4 8v-6.5h1.3v6.6H99zm.7-7.5q-.3 0-.5-.2-.3-.2-.3-.5t.3-.6q.2-.2.5-.2.4 0 .6.2l.2.6q0 .3-.2.5t-.6.2zm5.1 7.7q-1 0-1.6-.4-.7-.4-1-1.2-.4-.7-.4-1.8 0-1 .3-1.7.4-.8 1-1.2.8-.4 1.7-.4 1 0 1.6.4.7.4 1 1.2.5.7.5 1.7t-.4 1.8q-.4.8-1 1.2-.8.4-1.7.4zm0-1q.6 0 1-.4.4-.3.6-.8.2-.5.2-1.2 0-.6-.2-1.1-.2-.5-.6-.8-.4-.4-1-.4t-1 .4q-.4.3-.6.8-.2.5-.2 1.1 0 .7.2 1.2t.6.8q.4.3 1 .3zm5.7-3v3.9h-1.2v-6.6h1.2v1.1q.3-.5.8-.8.5-.3 1.2-.3t1.2.2q.5.3.7.9.3.5.3 1.3v4.2h-1.2v-4q0-.7-.4-1.1-.4-.4-1-.4-.5 0-.8.2-.4.1-.6.5-.2.4-.2.9zM55.7 276.2q-.8 0-1.4-.4-.6-.4-1-1.2-.3-.7-.3-1.8 0-1 .4-1.8.3-.7 1-1.1.6-.4 1.3-.4.7 0 1 .2l.6.4.3.5h.1v-3.2H59v8.7h-1.3v-1l-.4.5-.6.4q-.4.2-1 .2zm.3-1q.6 0 1-.4l.5-.8q.2-.5.2-1.2t-.2-1.2q-.2-.5-.6-.8-.3-.3-.9-.3-.6 0-1 .3l-.5.8-.2 1.2q0 .7.2 1.2t.6.8q.3.3 1 .3zm6.7 1q-.6 0-1.1-.2-.5-.2-.8-.7-.3-.4-.3-1t.2-1q.2-.3.6-.5l.8-.4.9-.1 1-.1q.3 0 .5-.2.2 0 .2-.3 0-.6-.4-.9-.3-.3-.9-.3-.6 0-1 .3t-.5.6l-1.2-.3q.2-.6.6-1l1-.5 1-.1h1q.4.1.7.4.4.2.7.7.2.4.2 1.1v4.4h-1.2v-.9l-.4.5-.7.4-.9.1zm.3-1q.5 0 .9-.2t.6-.5l.2-.8v-.8l-.3.1-.4.1h-.5l-.4.1q-.4 0-.7.2-.3 0-.5.3-.2.2-.2.6 0 .4.4.7.3.2.9.2zm9.5-4l-1.1.1-.3-.4q-.1-.2-.4-.3l-.6-.1q-.6 0-1 .2-.3.2-.3.6l.2.6.8.3 1 .2q1 .2 1.4.7.5.4.5 1.1 0 .6-.4 1-.3.5-1 .8-.5.2-1.3.2-1.1 0-1.8-.5-.7-.4-.9-1.3l1.3-.2q0 .5.4.7.4.3 1 .3t1-.3q.3-.2.3-.6 0-.3-.2-.5t-.7-.3l-1-.3q-1-.2-1.4-.6-.5-.5-.5-1.2 0-.6.3-1 .4-.5 1-.7.5-.2 1.3-.2 1 0 1.6.4.6.5.8 1.2zm2.8 1v3.9h-1.2v-8.7h1.2v3.2q.3-.5.8-.8.5-.3 1.2-.3t1.2.2q.5.3.8.9.3.5.3 1.3v4.2h-1.3v-4q0-.7-.4-1.1-.3-.4-1-.4-.5 0-.8.2-.4.1-.6.5-.2.4-.2.9zm6 3.9v-8.7h1.4v3.2l.3-.5.6-.4q.4-.2 1-.2.8 0 1.4.4.6.4 1 1.1.4.8.4 1.8t-.4 1.8q-.3.8-1 1.2-.6.4-1.4.4-.6 0-1-.2l-.6-.4-.3-.5v1h-1.3zm1.3-3.3q0 .7.2 1.2t.6.8q.4.3 1 .3.5 0 .9-.3t.6-.8q.2-.5.2-1.2l-.2-1.2q-.2-.5-.6-.8-.4-.3-1-.3-.5 0-1 .3l-.5.8q-.2.5-.2 1.2zm9 3.4q-1 0-1.7-.4-.6-.4-1-1.2-.4-.7-.4-1.8 0-1 .4-1.7.4-.8 1-1.2.7-.4 1.6-.4 1 0 1.6.4.7.4 1.1 1.2.4.7.4 1.7t-.4 1.8q-.4.8-1 1.2-.7.4-1.7.4zm0-1q.5 0 1-.4l.5-.8q.2-.5.2-1.2 0-.6-.2-1.1-.2-.5-.6-.8-.4-.4-1-.4t-1 .4l-.5.8q-.2.5-.2 1.1 0 .7.2 1.2t.6.8q.3.3 1 .3zm6.3 1q-.6 0-1.1-.2-.5-.2-.8-.7-.3-.4-.3-1t.2-1q.2-.3.6-.5l.8-.4 1-.1.9-.1q.3 0 .5-.2.2 0 .2-.3 0-.6-.3-.9-.3-.3-1-.3-.6 0-1 .3l-.5.6-1.2-.3q.2-.6.6-1l1-.5 1.1-.1h.8q.5.1.9.4.4.2.6.7.2.4.2 1.1v4.4H100v-.9l-.4.5-.7.4-.9.1zm.3-1q.5 0 .9-.2t.6-.5l.2-.8v-.8l-.3.1-.4.1h-.5l-.4.1q-.4 0-.7.2-.3 0-.5.3l-.1.6q0 .4.3.7.4.2.9.2zm4.6.9v-6.6h1.3v1q.2-.4.7-.7.4-.4 1-.4h.5v1.3H105.7l-.8.1q-.4.2-.6.5l-.2.8v4h-1.3zm6.9.1q-.8 0-1.4-.4-.7-.4-1-1.2-.4-.7-.4-1.8 0-1 .4-1.8.3-.7 1-1.1.6-.4 1.4-.4.6 0 1 .2l.5.4.4.5v-3.2h1.3v8.7h-1.2v-1h-.1l-.4.5-.6.4q-.3.2-1 .2zm.3-1q.5 0 .9-.4.4-.3.6-.8.2-.5.2-1.2t-.2-1.2q-.2-.5-.6-.8-.4-.3-1-.3-.5 0-1 .3l-.5.8-.2 1.2q0 .7.2 1.2t.6.8q.4.3 1 .3z"/>
  <path fill="#fff" d="M37.8 98.3h90.7v75.6H37.8z" fill-rule="evenodd"/>
  <path stroke="#000" stroke-linejoin="round" stroke-linecap="butt" d="M37.8 98.3h90.7v75.6H37.8z"/>
  <path fill="#000" d="M68.8 133.6v-8.8h5.5v1.2H70v2.6H74v1.2H70v2.6h4.2v1.2h-5.5zm7.1 0V127h1.2v1.1h.1q.2-.5.7-.8.5-.3 1.1-.3.7 0 1.1.3.4.3.7.8.3-.5.8-.8.5-.3 1.2-.3.9 0 1.5.5.5.6.5 1.7v4.4h-1.3v-4.3q0-.7-.3-1-.4-.2-.9-.2-.6 0-1 .3-.3.4-.3 1v4.2h-1.3v-4.4q0-.5-.3-.8-.3-.3-.9-.3l-.6.1q-.3.2-.5.6-.2.3-.2.8v4h-1.3zm12.5.1q-.6 0-1-.2-.6-.2-.9-.7-.3-.4-.3-1t.2-1q.2-.3.6-.5l.8-.4 1-.1.9-.1q.3 0 .5-.2.2 0 .2-.3 0-.6-.3-.9-.3-.3-1-.3-.6 0-1 .3l-.5.6-1.2-.3q.2-.6.6-1l1-.5 1.1-.1h.8q.5.1.9.4.4.2.6.7.3.4.3 1.1v4.4h-1.3v-1l-.4.6-.6.4-1 .1zm.3-1q.5 0 .9-.2t.6-.5l.2-.8v-.8l-.3.1-.4.1h-.5l-.4.1q-.4 0-.7.2-.3 0-.5.3l-.1.6q0 .4.3.7.4.2.9.2zm4.7.9V127h1.2v6.6h-1.2zm.6-7.6q-.3 0-.5-.2-.3-.2-.3-.5t.3-.6q.2-.2.5-.2.4 0 .6.2l.2.6q0 .3-.2.5t-.6.2zm3.6-1.2v8.8h-1.3v-8.8h1.3zM52.9 143.7v3.9h-1.3V141H53v1.1q.3-.5.8-.8.4-.3 1.2-.3.6 0 1.1.2.5.3.8.9.3.5.3 1.3v4.2h-1.3v-4q0-.7-.4-1.1-.3-.4-1-.4-.4 0-.7.2-.4.1-.6.5-.2.4-.2.9zm8.7 4q-1 0-1.7-.4-.6-.4-1-1.2-.4-.8-.4-1.8t.4-1.7q.4-.8 1-1.2.7-.4 1.7-.4.9 0 1.6.4.7.4 1 1.2.4.7.4 1.7t-.4 1.8q-.3.8-1 1.2-.7.4-1.6.4zm0-1q.6 0 1-.4l.5-.8q.2-.5.2-1.2 0-.6-.2-1.1l-.5-.9q-.4-.3-1-.3t-1 .3q-.4.4-.6.9-.2.5-.2 1.1 0 .7.2 1.2t.6.8q.4.3 1 .3zM69 141v1h-3.6v-1h3.6zm-2.6-1.5h1.2v6.2l.1.5.3.3H69l.2 1-.3.1h-.5l-1-.1q-.4-.2-.7-.6-.2-.4-.2-1v-6.4zm4 8V141h1.3v6.6h-1.3zm.7-7.5q-.4 0-.6-.2-.2-.2-.2-.5l.2-.6q.2-.2.6-.2.3 0 .5.2.3.3.3.6t-.3.5q-.2.2-.5.2zm5.4 1v1h-3.7v-1h3.7zm-2.7 6.6v-7.3q0-.6.3-1 .2-.5.7-.7.4-.2 1-.2l.6.1.4.1-.3 1H76q-.4 0-.6.2-.2.2-.2.6v7.2h-1.3zm4 0V141h1.3v6.6h-1.3zm.7-7.6l-.6-.2q-.2-.2-.2-.5l.2-.6.6-.2.6.2.2.6q0 .3-.2.5l-.6.2zm5 7.7q-1 0-1.6-.4-.7-.5-1-1.2-.4-.8-.4-1.8t.4-1.7q.3-.8 1-1.2.7-.4 1.6-.4.8 0 1.4.2.6.3 1 .8.3.5.3 1.1h-1.2q-.1-.4-.5-.7-.3-.4-1-.4-.5 0-.9.3t-.6.8q-.2.5-.2 1.2t.2 1.3q.2.5.6.7.4.3 1 .3l.6-.1q.3-.1.5-.4l.3-.6h1.2q0 .6-.4 1.1-.3.5-.9.8-.6.3-1.4.3zm6 0q-.6 0-1.1-.2-.5-.2-.8-.7-.3-.4-.3-1t.2-1q.2-.3.6-.5l.8-.4 1-.1.8-.1q.4 0 .6-.2.2 0 .2-.3 0-.6-.3-.9-.4-.3-1-.3t-1 .3q-.4.3-.5.6l-1.2-.3q.2-.6.6-1l1-.5 1.1-.1h.8q.5.1.9.4l.6.7q.2.4.2 1.1v4.4h-1.2v-1l-.4.6-.7.4-.9.1zm.3-1q.5 0 .9-.2t.6-.5l.2-.8v-.8l-.3.1-.4.1h-.5l-.4.1q-.4 0-.7.2-.3 0-.5.3-.2.2-.2.6 0 .4.4.7.3.2.9.2zm7.7-5.7v1H94v-1h3.6zm-2.6-1.5h1.2v6.2q0 .3.2.5 0 .2.2.3H97.5l.2 1-.3.1h-.5l-1-.1q-.4-.2-.7-.6-.2-.4-.2-1v-6.4zm4 8V141h1.3v6.6H99zm.7-7.5q-.4 0-.6-.2-.2-.2-.2-.5l.2-.6q.2-.2.6-.2l.6.2.2.6q0 .3-.2.5l-.6.2zm5 7.7q-.9 0-1.6-.4-.6-.4-1-1.2-.4-.8-.4-1.8t.4-1.7q.4-.8 1-1.2.7-.4 1.6-.4 1 0 1.6.4.7.4 1.1 1.2.4.7.4 1.7t-.4 1.8q-.4.8-1 1.2-.7.4-1.7.4zm0-1q.6 0 1-.4.4-.3.6-.8.2-.5.2-1.2 0-.6-.2-1.1-.2-.5-.6-.9-.4-.3-1-.3t-1 .3l-.5.9q-.2.5-.2 1.1 0 .7.2 1.2t.6.8q.3.3 1 .3zm5.8-3v3.9h-1.3V141h1.2v1.1h.1q.2-.5.7-.8.5-.3 1.2-.3t1.2.2q.5.3.8.9.3.5.3 1.3v4.2h-1.3v-4q0-.7-.4-1.1-.3-.4-1-.4l-.8.2q-.3.1-.5.5t-.2.9z"/>
  <path fill="none" d="M128.5 136h83.2v90.8"/>
  <path stroke="#000" stroke-linejoin="round" stroke-linecap="butt" d="M128.5 136h83.2v84.8"/>
  <path fill="#000" stroke="#000" stroke-linecap="butt" d="M210 220.8l1.7 4.5 1.6-4.5z" fill-rule="evenodd"/>
</svg>
