<svg height="360" viewBox="0 0 1180 360" width="1180" xmlns="http://www.w3.org/2000/svg" xmlns:xlink="http://www.w3.org/1999/xlink"><defs><path id="a" d="m13 5h25v1h-25z" fill="#0b0c0c"/><path id="b" d="m0 0h26v10h-26z"/><filter id="c" height="110%" width="103.8%" x="-2%" y="-5%"><feOffset dy="-1" in="SourceAlpha" result="shadowOffsetInner1"/><feComposite in="shadowOffsetInner1" in2="SourceAlpha" k2="-1" k3="1" operator="arithmetic" result="shadowInnerInner1"/><feColorMatrix in="shadowInnerInner1" values="0 0 0 0 0 0 0 0 0 0.392156863 0 0 0 0 0.207843137 0 0 0 1 0"/></filter><filter id="d" height="110%" width="103.8%" x="-2%" y="-5%"><feOffset dy="-1" in="SourceAlpha" result="shadowOffsetInner1"/><feComposite in="shadowOffsetInner1" in2="SourceAlpha" k2="-1" k3="1" operator="arithmetic" result="shadowInnerInner1"/><feColorMatrix in="shadowInnerInner1" values="0 0 0 0 0 0 0 0 0 0.392156863 0 0 0 0 0.207843137 0 0 0 1 0"/></filter><filter id="e" height="110%" width="103.8%" x="-2%" y="-5%"><feOffset dy="-1" in="SourceAlpha" result="shadowOffsetInner1"/><feComposite in="shadowOffsetInner1" in2="SourceAlpha" k2="-1" k3="1" operator="arithmetic" result="shadowInnerInner1"/><feColorMatrix in="shadowInnerInner1" values="0 0 0 0 0 0 0 0 0 0.392156863 0 0 0 0 0.207843137 0 0 0 1 0"/></filter><use id="f" xlink:href="#b"/><use id="g" xlink:href="#b"/></defs><g fill="none" fill-rule="evenodd"><path d="m578 84 12 6a1 1 0 0 1 0 2l-12 6a1 1 0 0 1 -1-1v-5h-2a1 1 0 0 1 0-2h2v-5zm-317 6a1 1 0 0 1 0 2h-1a1 1 0 0 1 0-2zm5 0a1 1 0 0 1 0 2h-1a1 1 0 0 1 0-2zm5 0a1 1 0 0 1 0 2h-1a1 1 0 0 1 0-2zm5 0a1 1 0 0 1 0 2h-1a1 1 0 0 1 0-2zm5 0a1 1 0 0 1 0 2h-1a1 1 0 0 1 0-2zm5 0a1 1 0 0 1 0 2h-1a1 1 0 0 1 0-2zm5 0a1 1 0 0 1 0 2h-1a1 1 0 0 1 0-2zm5 0a1 1 0 0 1 0 2h-1a1 1 0 0 1 0-2zm5 0a1 1 0 0 1 0 2h-1a1 1 0 0 1 0-2zm5 0a1 1 0 0 1 0 2h-1a1 1 0 0 1 0-2zm5 0a1 1 0 0 1 0 2h-1a1 1 0 0 1 0-2zm5 0a1 1 0 0 1 0 2h-1a1 1 0 0 1 0-2zm5 0a1 1 0 0 1 0 2h-1a1 1 0 0 1 0-2zm5 0a1 1 0 0 1 0 2h-1a1 1 0 0 1 0-2zm5 0a1 1 0 0 1 0 2h-1a1 1 0 0 1 0-2zm5 0a1 1 0 0 1 0 2h-1a1 1 0 0 1 0-2zm5 0a1 1 0 0 1 0 2h-1a1 1 0 0 1 0-2zm5 0a1 1 0 0 1 0 2h-1a1 1 0 0 1 0-2zm5 0a1 1 0 0 1 0 2h-1a1 1 0 0 1 0-2zm5 0a1 1 0 0 1 0 2h-1a1 1 0 0 1 0-2zm5 0a1 1 0 0 1 0 2h-1a1 1 0 0 1 0-2zm5 0a1 1 0 0 1 0 2h-1a1 1 0 0 1 0-2zm5 0a1 1 0 0 1 0 2h-1a1 1 0 0 1 0-2zm5 0a1 1 0 0 1 0 2h-1a1 1 0 0 1 0-2zm5 0a1 1 0 0 1 0 2h-1a1 1 0 0 1 0-2zm5 0a1 1 0 0 1 0 2h-1a1 1 0 0 1 0-2zm5 0a1 1 0 0 1 0 2h-1a1 1 0 0 1 0-2zm5 0a1 1 0 0 1 0 2h-1a1 1 0 0 1 0-2zm5 0a1 1 0 0 1 0 2h-1a1 1 0 0 1 0-2zm5 0a1 1 0 0 1 0 2h-1a1 1 0 0 1 0-2zm5 0a1 1 0 0 1 0 2h-1a1 1 0 0 1 0-2zm5 0a1 1 0 0 1 0 2h-1a1 1 0 0 1 0-2zm5 0a1 1 0 0 1 0 2h-1a1 1 0 0 1 0-2zm5 0a1 1 0 0 1 0 2h-1a1 1 0 0 1 0-2zm5 0a1 1 0 0 1 0 2h-1a1 1 0 0 1 0-2zm5 0a1 1 0 0 1 0 2h-1a1 1 0 0 1 0-2zm5 0a1 1 0 0 1 0 2h-1a1 1 0 0 1 0-2zm5 0a1 1 0 0 1 0 2h-1a1 1 0 0 1 0-2zm5 0a1 1 0 0 1 0 2h-1a1 1 0 0 1 0-2zm5 0a1 1 0 0 1 0 2h-1a1 1 0 0 1 0-2zm5 0a1 1 0 0 1 0 2h-1a1 1 0 0 1 0-2zm5 0a1 1 0 0 1 0 2h-1a1 1 0 0 1 0-2zm5 0a1 1 0 0 1 0 2h-1a1 1 0 0 1 0-2zm5 0a1 1 0 0 1 0 2h-1a1 1 0 0 1 0-2zm5 0a1 1 0 0 1 0 2h-1a1 1 0 0 1 0-2zm5 0a1 1 0 0 1 0 2h-1a1 1 0 0 1 0-2zm5 0a1 1 0 0 1 0 2h-1a1 1 0 0 1 0-2zm5 0a1 1 0 0 1 0 2h-1a1 1 0 0 1 0-2zm5 0a1 1 0 0 1 0 2h-1a1 1 0 0 1 0-2zm5 0a1 1 0 0 1 0 2h-1a1 1 0 0 1 0-2zm5 0a1 1 0 0 1 0 2h-1a1 1 0 0 1 0-2zm5 0a1 1 0 0 1 0 2h-1a1 1 0 0 1 0-2zm5 0a1 1 0 0 1 0 2h-1a1 1 0 0 1 0-2zm5 0a1 1 0 0 1 0 2h-1a1 1 0 0 1 0-2zm5 0a1 1 0 0 1 0 2h-1a1 1 0 0 1 0-2zm5 0a1 1 0 0 1 0 2h-1a1 1 0 0 1 0-2zm5 0a1 1 0 0 1 0 2h-1a1 1 0 0 1 0-2zm5 0a1 1 0 0 1 0 2h-1a1 1 0 0 1 0-2zm5 0a1 1 0 0 1 0 2h-1a1 1 0 0 1 0-2zm5 0a1 1 0 0 1 0 2h-1a1 1 0 0 1 0-2zm5 0a1 1 0 0 1 0 2h-1a1 1 0 0 1 0-2zm5 0a1 1 0 0 1 0 2h-1a1 1 0 0 1 0-2zm5 0a1 1 0 0 1 0 2h-1a1 1 0 0 1 0-2z" fill="#0b0c0c" fill-rule="nonzero"/><path d="m357 237h1l12 6a1 1 0 0 1 0 1l-12 6a1 1 0 0 1 -1 0v-5a1 1 0 0 1 0-2zm-4 6a1 1 0 0 1 0 1v1h-1a1 1 0 0 1 0-2zm-5 0a1 1 0 0 1 0 1v1h-1a1 1 0 0 1 0-2zm-5 0a1 1 0 0 1 0 1v1h-1a1 1 0 0 1 0-2zm-5 0a1 1 0 0 1 0 1v1h-1a1 1 0 0 1 0-2zm-5 0a1 1 0 0 1 0 1v1h-1a1 1 0 0 1 0-2zm-5 0a1 1 0 0 1 0 1v1h-1a1 1 0 0 1 0-2zm-6-1h1a1 1 0 1 1 0 2h-1a1 1 0 0 1 0-2zm-4-2h1a1 1 0 1 1 -1 2l-1-1a1 1 0 0 1 1-1zm-2-4h1a1 1 0 0 1 -2 1l-1-1a1 1 0 1 1 2 0zm-1-6 1 1v1a1 1 0 0 1 -2 0v-1zm0-5 1 1v1a1 1 0 0 1 -2 0v-1zm0-5 1 1v1a1 1 0 0 1 -2 0v-1zm0-5 1 1v1a1 1 0 0 1 -2 0v-1zm0-5 1 1v1a1 1 0 0 1 -2 0v-1zm0-5 1 1v1a1 1 0 0 1 -2 0v-1zm0-5 1 1v1a1 1 0 0 1 -2 0v-1zm0-5 1 1v1a1 1 0 0 1 -2 0v-1zm0-5 1 1v1a1 1 0 0 1 -2 0v-1zm0-5 1 1v1a1 1 0 0 1 -2 0v-1zm0-5 1 1v1a1 1 0 0 1 -2 0v-1zm0-5 1 1v1a1 1 0 0 1 -2 0v-1zm0-5 1 1v1a1 1 0 0 1 -2 0v-1zm0-5 1 1v1a1 1 0 0 1 -2 0v-1zm0-5 1 1v1a1 1 0 0 1 -2 0v-1zm0-5 1 1v1a1 1 0 0 1 -2 0v-1zm0-5 1 1v1a1 1 0 0 1 -2 0v-1zm0-5 1 1v1a1 1 0 0 1 -2 0v-1zm0-5 1 1v1a1 1 0 0 1 -2 0v-1zm0-5 1 1v1a1 1 0 0 1 -2 0v-1zm0-5 1 1v1a1 1 0 0 1 -2 0v-1zm0-5 1 1v1a1 1 0 0 1 -2 0v-1zm0-5 1 1v1a1 1 0 0 1 -2 0v-1zm0-5 1 1v1a1 1 0 0 1 -2 0v-1zm0-5 1 1v1a1 1 0 0 1 -2 0v-1zm0-5 1 1v1a1 1 0 0 1 -2 0v-1zm0-5 1 1v1a1 1 0 0 1 -2 0v-1zm0-5 1 1v1a1 1 0 0 1 -2 0v-1zm0-5 1 1v1a1 1 0 0 1 -2 0v-1z" fill="#0b0c0c" fill-rule="nonzero"/><path d="m591 196h108v94h-108z" fill="#fff" stroke="#0b0c0c" stroke-width="2"/><path d="m590 195h110v10h-110z" fill="#0b0c0c"/><g transform="translate(597 258)"><use fill="#00823b" xlink:href="#b"/><use fill="#000" filter="url(#c)" xlink:href="#b"/></g><path d="m598 239h71v9h-71z" fill="#fff" stroke="#0b0c0c"/><text fill="#231f20" font-family="sans-serif" font-size="10" font-weight="bold" transform="translate(597 210)"><tspan x="0" y="10">Create an </tspan><tspan x="0" y="21">account</tspan></text><path d="m151 42h108v94h-108z" fill="#fff" stroke="#0b0c0c" stroke-width="2"/><path d="m150 41h110v10h-110z" fill="#0b0c0c"/><g transform="translate(157 116)"><use fill="#00823b" xlink:href="#f"/><use fill="#000" filter="url(#d)" xlink:href="#f"/></g><g transform="translate(157 85)"><g transform="translate(0 13)"><use xlink:href="#a"/><circle cx="5" cy="5" fill="#fff" r="4.5" stroke="#0b0c0c"/></g><use xlink:href="#a"/><circle cx="5" cy="5" fill="#fff" r="4.5" stroke="#0b0c0c"/></g><text fill="#231f20" font-family="sans-serif" font-size="10" font-weight="bold" transform="translate(157 56)"><tspan x="0" y="10">Do you already </tspan><tspan x="0" y="21">have an account?</tspan></text><path d="m95 106v211c0 5 4 10 10 10h981c6 0 10-5 10-10v-216c0-7 3-10 10-10" stroke="#0b0c0c" stroke-dasharray="1 4" stroke-linecap="round" stroke-linejoin="round" stroke-width="2"/><text fill="#0b0c0c" font-family="sans-serif" font-size="12" font-weight="bold"><tspan x="333" y="118">No</tspan></text><path d="m811 42h108v94h-108z" fill="#fff" stroke="#0b0c0c" stroke-width="2"/><path d="m810 41h110v10h-110zm7 43h22v1h-22zm0 6h72v1h-72zm0 8h72v1h-72zm0-4h72v1h-72zm0 8h40v1h-40z" fill="#0b0c0c"/><text fill="#231f20" font-family="sans-serif" font-size="10" font-weight="bold" letter-spacing="-.1" transform="translate(817 56)"><tspan x="0" y="10">Check your email</tspan></text><path d="m700 244h45c6 0 10-5 10-10v-133c0-7 3-10 10-10" stroke="#0b0c0c" stroke-dasharray="1 4" stroke-linecap="round" stroke-linejoin="round" stroke-width="2"/><path d="m40 83c4 0 6 3 7 6a1 1 0 0 1 0 2 7 7 0 1 1 -7-8zm98 0 12 6a1 1 0 0 1 0 2l-12 6a1 1 0 0 1 -1-1v-5h-1a1 1 0 0 1 0-2h1v-5zm-86 6a1 1 0 0 1 0 2h-1a1 1 0 0 1 0-2zm5 0a1 1 0 0 1 0 2h-1a1 1 0 0 1 0-2zm5 0a1 1 0 0 1 0 2h-1a1 1 0 0 1 0-2zm5 0a1 1 0 0 1 0 2h-1a1 1 0 0 1 0-2zm5 0a1 1 0 0 1 0 2h-1a1 1 0 0 1 0-2zm5 0a1 1 0 0 1 0 2h-1a1 1 0 0 1 0-2zm5 0a1 1 0 0 1 0 2h-1a1 1 0 0 1 0-2zm5 0a1 1 0 0 1 0 2h-1a1 1 0 0 1 0-2zm5 0a1 1 0 0 1 0 2h-1a1 1 0 0 1 0-2zm5 0a1 1 0 0 1 0 2h-1a1 1 0 0 1 0-2zm5 0a1 1 0 0 1 0 2h-1a1 1 0 0 1 0-2zm5 0a1 1 0 0 1 0 2h-1a1 1 0 0 1 0-2zm5 0a1 1 0 0 1 0 2h-1a1 1 0 0 1 0-2zm5 0a1 1 0 0 1 0 2h-1a1 1 0 0 1 0-2zm5 0a1 1 0 0 1 0 2h-1a1 1 0 0 1 0-2zm5 0a1 1 0 0 1 0 2h-1a1 1 0 0 1 0-2zm5 0a1 1 0 0 1 0 2h-1a1 1 0 0 1 0-2z" fill="#0b0c0c" fill-rule="nonzero"/><path d="m95 74 16 17-16 16-16-16z" fill="#2b8cc4" stroke="#fff" stroke-linecap="round" stroke-linejoin="round" stroke-width="3"/><path d="m591 42h108v94h-108z" fill="#fff" stroke="#0b0c0c" stroke-width="2"/><path d="m590 41h110v10h-110z" fill="#0b0c0c"/><g transform="translate(597 104)"><use fill="#00823b" xlink:href="#g"/><use fill="#000" filter="url(#e)" xlink:href="#g"/></g><path d="m598 85h71v9h-71z" fill="#fff" stroke="#0b0c0c"/><text fill="#231f20" font-family="sans-serif" font-size="10" font-weight="bold" transform="translate(597 56)"><tspan x="0" y="10">Sign in</tspan></text><path d="m314 74 16 17-16 16-16-16z" fill="#2b8cc4" stroke="#fff" stroke-linecap="round" stroke-linejoin="round" stroke-width="3"/><path d="m370 196h110v96h-110z" fill="#fff" stroke="#0b0c0c" stroke-dasharray="1 4" stroke-linecap="square" stroke-width="2"/><text fill="#0b0c0c" font-family="sans-serif" font-size="10" font-weight="bold" letter-spacing="-.1" transform="translate(370 196)"><tspan x="15" y="44">Check you can use </tspan><tspan x="19" y="58">this service flow</tspan></text><path d="m578 237 12 6a1 1 0 0 1 0 1l-12 6a1 1 0 0 1 -1 0v-6h-1v1h-1a1 1 0 0 1 0-2h2v-6zm-97 6a1 1 0 0 1 0 1v1h-1a1 1 0 0 1 0-2zm5 0a1 1 0 0 1 0 1v1h-1a1 1 0 0 1 0-2zm5 0a1 1 0 0 1 0 1v1h-1a1 1 0 0 1 0-2zm5 0a1 1 0 0 1 0 1v1h-1a1 1 0 0 1 0-2zm5 0a1 1 0 0 1 0 1v1h-1a1 1 0 0 1 0-2zm5 0a1 1 0 0 1 0 1v1h-1a1 1 0 0 1 0-2zm5 0a1 1 0 0 1 0 1v1h-1a1 1 0 0 1 0-2zm5 0a1 1 0 0 1 0 1v1h-1a1 1 0 0 1 0-2zm5 0a1 1 0 0 1 0 1v1h-1a1 1 0 0 1 0-2zm5 0a1 1 0 0 1 0 1v1h-1a1 1 0 0 1 0-2zm5 0a1 1 0 0 1 0 1v1h-1a1 1 0 0 1 0-2zm5 0a1 1 0 0 1 0 1v1h-1a1 1 0 0 1 0-2zm5 0a1 1 0 0 1 0 1v1h-1a1 1 0 0 1 0-2zm5 0a1 1 0 0 1 0 1v1h-1a1 1 0 0 1 0-2zm5 0a1 1 0 0 1 0 1v1h-1a1 1 0 0 1 0-2zm5 0a1 1 0 0 1 0 1v1h-1a1 1 0 0 1 0-2zm5 0a1 1 0 0 1 0 1v1h-1a1 1 0 0 1 0-2zm5 0a1 1 0 0 1 0 1v1h-1a1 1 0 0 1 0-2zm5 0a1 1 0 0 1 0 1v1h-1a1 1 0 0 1 0-2zm227-159 12 6a1 1 0 0 1 0 2l-12 6a1 1 0 0 1 -1-1v-5h-2a1 1 0 0 1 0-2h2v-5zm-97 6a1 1 0 0 1 0 2h-1a1 1 0 0 1 0-2zm5 0a1 1 0 0 1 0 2h-1a1 1 0 0 1 0-2zm5 0a1 1 0 0 1 0 2h-1a1 1 0 0 1 0-2zm5 0a1 1 0 0 1 0 2h-1a1 1 0 0 1 0-2zm5 0a1 1 0 0 1 0 2h-1a1 1 0 0 1 0-2zm5 0a1 1 0 0 1 0 2h-1a1 1 0 0 1 0-2zm5 0a1 1 0 0 1 0 2h-1a1 1 0 0 1 0-2zm5 0a1 1 0 0 1 0 2h-1a1 1 0 0 1 0-2zm5 0a1 1 0 0 1 0 2h-1a1 1 0 0 1 0-2zm5 0a1 1 0 0 1 0 2h-1a1 1 0 0 1 0-2zm5 0a1 1 0 0 1 0 2h-1a1 1 0 0 1 0-2zm5 0a1 1 0 0 1 0 2h-1a1 1 0 0 1 0-2zm5 0a1 1 0 0 1 0 2h-1a1 1 0 0 1 0-2zm5 0a1 1 0 0 1 0 2h-1a1 1 0 0 1 0-2zm5 0a1 1 0 0 1 0 2h-1a1 1 0 0 1 0-2zm5 0a1 1 0 0 1 0 2h-1a1 1 0 0 1 0-2zm5 0a1 1 0 0 1 0 2h-1a1 1 0 0 1 0-2zm5 0a1 1 0 0 1 0 2h-1a1 1 0 0 1 0-2zm5 0a1 1 0 0 1 0 2h-1a1 1 0 0 1 0-2zm354-6 2 2v10l-2 2h-10l-2-2v-10l2-2zm-224 6a1 1 0 0 1 0 2h-1a1 1 0 0 1 0-2zm5 0a1 1 0 0 1 0 2h-1a1 1 0 0 1 0-2zm5 0a1 1 0 0 1 0 2h-1a1 1 0 0 1 0-2zm5 0a1 1 0 0 1 0 2h-1a1 1 0 0 1 0-2zm5 0a1 1 0 0 1 0 2h-1a1 1 0 0 1 0-2zm5 0a1 1 0 0 1 0 2h-1a1 1 0 0 1 0-2zm5 0a1 1 0 0 1 0 2h-1a1 1 0 0 1 0-2zm5 0a1 1 0 0 1 0 2h-1a1 1 0 0 1 0-2zm5 0a1 1 0 0 1 0 2h-1a1 1 0 0 1 0-2zm5 0a1 1 0 0 1 0 2h-1a1 1 0 0 1 0-2zm5 0a1 1 0 0 1 0 2h-1a1 1 0 0 1 0-2zm5 0a1 1 0 0 1 0 2h-1a1 1 0 0 1 0-2zm5 0a1 1 0 0 1 0 2h-1a1 1 0 0 1 0-2zm5 0a1 1 0 0 1 0 2h-1a1 1 0 0 1 0-2zm5 0a1 1 0 0 1 0 2h-1a1 1 0 0 1 0-2zm5 0a1 1 0 0 1 0 2h-1a1 1 0 0 1 0-2zm5 0a1 1 0 0 1 0 2h-1a1 1 0 0 1 0-2zm5 0a1 1 0 0 1 0 2h-1a1 1 0 0 1 0-2zm5 0a1 1 0 0 1 0 2h-1a1 1 0 0 1 0-2zm5 0a1 1 0 0 1 0 2h-1a1 1 0 0 1 0-2zm5 0a1 1 0 0 1 0 2h-1a1 1 0 0 1 0-2zm5 0a1 1 0 0 1 0 2h-1a1 1 0 0 1 0-2zm5 0a1 1 0 0 1 0 2h-1a1 1 0 0 1 0-2zm5 0a1 1 0 0 1 0 2h-1a1 1 0 0 1 0-2zm5 0a1 1 0 0 1 0 2h-1a1 1 0 0 1 0-2zm5 0a1 1 0 0 1 0 2h-1a1 1 0 0 1 0-2zm5 0a1 1 0 0 1 0 2h-1a1 1 0 0 1 0-2zm5 0a1 1 0 0 1 0 2h-1a1 1 0 0 1 0-2zm5 0a1 1 0 0 1 0 2h-1a1 1 0 0 1 0-2zm5 0a1 1 0 0 1 0 2h-1a1 1 0 0 1 0-2zm5 0a1 1 0 0 1 0 2h-1a1 1 0 0 1 0-2zm5 0a1 1 0 0 1 0 2h-1a1 1 0 0 1 0-2zm5 0a1 1 0 0 1 0 2h-1a1 1 0 0 1 0-2zm5 0a1 1 0 0 1 0 2h-1a1 1 0 0 1 0-2zm5 0a1 1 0 0 1 0 2h-1a1 1 0 0 1 0-2zm5 0a1 1 0 0 1 0 2h-1a1 1 0 0 1 0-2zm5 0a1 1 0 0 1 0 2h-1a1 1 0 0 1 0-2zm5 0a1 1 0 0 1 0 2h-1a1 1 0 0 1 0-2zm5 0a1 1 0 0 1 0 2h-1a1 1 0 0 1 0-2zm5 0a1 1 0 0 1 0 2h-1a1 1 0 0 1 0-2zm5 0a1 1 0 0 1 0 2h-1a1 1 0 0 1 0-2zm5 0a1 1 0 0 1 0 2h-1a1 1 0 0 1 0-2zm5 0a1 1 0 0 1 0 2h-1a1 1 0 0 1 0-2z" fill="#0b0c0c" fill-rule="nonzero"/><g stroke="#0b0c0c" stroke-width="2"><path d="m1010 77h40v28h-40z" fill="#fff"/><path d="m1010 77 20 15 20-15m-40 28 18-14m23 14-18-14"/></g><g font-family="sans-serif" font-size="12" font-weight="bold"><text fill="#1d70b8"><tspan x="55" y="50">User is already </tspan><tspan x="68" y="61">signed in?</tspan></text><text fill="#1d70b8"><tspan x="287" y="53">Candidate </tspan><tspan x="277" y="64">already has an </tspan><tspan x="289" y="75">account?</tspan></text><text fill="#0b0c0c"><tspan x="966" y="51">An authentication link is </tspan><tspan x="963" y="62">emailed to the candidate</tspan></text></g></g></svg>