<svg height="768" width="2840" xmlns="http://www.w3.org/2000/svg" xmlns:xlink="http://www.w3.org/1999/xlink"><defs><filter id="a" height="110%" width="102.2%" x="-1.1%" y="-5%"><feOffset dy="-1" in="SourceAlpha" result="shadowOffsetInner1"/><feComposite in="shadowOffsetInner1" in2="SourceAlpha" k2="-1" k3="1" operator="arithmetic" result="shadowInnerInner1"/><feColorMatrix in="shadowInnerInner1" values="0 0 0 0 0 0 0 0 0 0.392156863 0 0 0 0 0.207843137 0 0 0 1 0"/></filter><filter id="b" height="110%" width="102.2%" x="-1.1%" y="-5%"><feOffset dy="-1" in="SourceAlpha" result="shadowOffsetInner1"/><feComposite in="shadowOffsetInner1" in2="SourceAlpha" k2="-1" k3="1" operator="arithmetic" result="shadowInnerInner1"/><feColorMatrix in="shadowInnerInner1" values="0 0 0 0 0 0 0 0 0 0.392156863 0 0 0 0 0.207843137 0 0 0 1 0"/></filter><filter id="c" height="110%" width="102.2%" x="-1.1%" y="-5%"><feOffset dy="-1" in="SourceAlpha" result="shadowOffsetInner1"/><feComposite in="shadowOffsetInner1" in2="SourceAlpha" k2="-1" k3="1" operator="arithmetic" result="shadowInnerInner1"/><feColorMatrix in="shadowInnerInner1" values="0 0 0 0 0 0 0 0 0 0.392156863 0 0 0 0 0.207843137 0 0 0 1 0"/></filter><filter id="d" height="110%" width="102.2%" x="-1.1%" y="-5%"><feOffset dy="-1" in="SourceAlpha" result="shadowOffsetInner1"/><feComposite in="shadowOffsetInner1" in2="SourceAlpha" k2="-1" k3="1" operator="arithmetic" result="shadowInnerInner1"/><feColorMatrix in="shadowInnerInner1" values="0 0 0 0 0 0 0 0 0 0.392156863 0 0 0 0 0.207843137 0 0 0 1 0"/></filter><filter id="e" height="110%" width="102.2%" x="-1.1%" y="-5%"><feOffset dy="-1" in="SourceAlpha" result="shadowOffsetInner1"/><feComposite in="shadowOffsetInner1" in2="SourceAlpha" k2="-1" k3="1" operator="arithmetic" result="shadowInnerInner1"/><feColorMatrix in="shadowInnerInner1" values="0 0 0 0 0 0 0 0 0 0.392156863 0 0 0 0 0.207843137 0 0 0 1 0"/></filter><filter id="f" height="110%" width="102.2%" x="-1.1%" y="-5%"><feOffset dy="-1" in="SourceAlpha" result="shadowOffsetInner1"/><feComposite in="shadowOffsetInner1" in2="SourceAlpha" k2="-1" k3="1" operator="arithmetic" result="shadowInnerInner1"/><feColorMatrix in="shadowInnerInner1" values="0 0 0 0 0 0 0 0 0 0.392156863 0 0 0 0 0.207843137 0 0 0 1 0"/></filter><filter id="g" height="110%" width="103.8%" x="-1.9%" y="-5%"><feOffset dy="-1" in="SourceAlpha" result="shadowOffsetInner1"/><feComposite in="shadowOffsetInner1" in2="SourceAlpha" k2="-1" k3="1" operator="arithmetic" result="shadowInnerInner1"/><feColorMatrix in="shadowInnerInner1" values="0 0 0 0 0 0 0 0 0 0.392156863 0 0 0 0 0.207843137 0 0 0 1 0"/></filter><filter id="h" height="110%" width="102.2%" x="-1.1%" y="-5%"><feOffset dy="-1" in="SourceAlpha" result="shadowOffsetInner1"/><feComposite in="shadowOffsetInner1" in2="SourceAlpha" k2="-1" k3="1" operator="arithmetic" result="shadowInnerInner1"/><feColorMatrix in="shadowInnerInner1" values="0 0 0 0 0 0 0 0 0 0.392156863 0 0 0 0 0.207843137 0 0 0 1 0"/></filter><filter id="i" height="110%" width="103.8%" x="-1.9%" y="-5%"><feOffset dy="-1" in="SourceAlpha" result="shadowOffsetInner1"/><feComposite in="shadowOffsetInner1" in2="SourceAlpha" k2="-1" k3="1" operator="arithmetic" result="shadowInnerInner1"/><feColorMatrix in="shadowInnerInner1" values="0 0 0 0 0 0 0 0 0 0.392156863 0 0 0 0 0.207843137 0 0 0 1 0"/></filter><filter id="j" height="110%" width="103.8%" x="-1.9%" y="-5%"><feOffset dy="-1" in="SourceAlpha" result="shadowOffsetInner1"/><feComposite in="shadowOffsetInner1" in2="SourceAlpha" k2="-1" k3="1" operator="arithmetic" result="shadowInnerInner1"/><feColorMatrix in="shadowInnerInner1" values="0 0 0 0 0 0 0 0 0 0.392156863 0 0 0 0 0.207843137 0 0 0 1 0"/></filter><path id="k" d="m0 0h45v10h-45z"/><path id="l" d="m0 0h45v10h-45z"/><path id="m" d="m0 0h45v10h-45z"/><path id="n" d="m0 0h45v10h-45z"/><path id="o" d="m0 0h45v10h-45z"/><path id="p" d="m0 0h45v10h-45z"/><path id="q" d="m0 0h26v10h-26z"/><path id="r" d="m0 0h45v10h-45z"/><path id="s" d="m0 0h26v10h-26z"/><path id="t" d="m0 0h26v10h-26z"/></defs><g fill="none" fill-rule="evenodd"><path d="m1393 371h108v94h-108z" fill="#fff" stroke="#0b0c0c" stroke-width="2"/><path d="m1392 370h110v10h-110z" fill="#0b0c0c"/><g transform="translate(1404 444)"><use fill="#00823b" xlink:href="#k"/><use fill="#000" filter="url(#a)" xlink:href="#k"/></g><path d="m1404 429h86v1h-86zm0-8h86v1h-86zm0-8h86v1h-86z" fill="#bfc1c3"/><path d="m1473 417h17v1h-17zm0 16h17v1h-17zm0-8h17v1h-17z" fill="#005ea5"/><path d="m1404 417h14v1h-14zm22 0h38v1h-38zm-22 16h14v1h-14zm22 0h38v1h-38zm-22-8h14v1h-14zm22 0h38v1h-38z" fill="#0b0c0c"/><text fill="#231f20" font-family="sans-serif" font-size="10" font-weight="bold" transform="translate(1404 385)"><tspan x="0" y="10">Personal details</tspan></text><path d="m1383 361h108v94h-108z" fill="#fff" stroke="#0b0c0c" stroke-width="2"/><path d="m1382 360h110v10h-110z" fill="#0b0c0c"/><g transform="translate(1394 434)"><use fill="#00823b" xlink:href="#l"/><use fill="#000" filter="url(#b)" xlink:href="#l"/></g><path d="m1394 419h86v1h-86zm0-8h86v1h-86zm0-8h86v1h-86z" fill="#bfc1c3"/><path d="m1463 407h17v1h-17zm0 16h17v1h-17zm0-8h17v1h-17z" fill="#005ea5"/><path d="m1394 407h14v1h-14zm22 0h38v1h-38zm-22 16h14v1h-14zm22 0h38v1h-38zm-22-8h14v1h-14zm22 0h38v1h-38z" fill="#0b0c0c"/><text fill="#231f20" font-family="sans-serif" font-size="10" font-weight="bold" transform="translate(1394 375)"><tspan x="0" y="10">Personal details</tspan></text><path d="m1373 351h108v94h-108z" fill="#fff" stroke="#0b0c0c" stroke-width="2"/><path d="m1372 350h110v10h-110z" fill="#0b0c0c"/><g transform="translate(1384 424)"><use fill="#00823b" xlink:href="#m"/><use fill="#000" filter="url(#c)" xlink:href="#m"/></g><path d="m1384 409h86v1h-86zm0-8h86v1h-86zm0-8h86v1h-86z" fill="#bfc1c3"/><path d="m1453 397h17v1h-17zm0 16h17v1h-17zm0-8h17v1h-17z" fill="#005ea5"/><path d="m1384 397h14v1h-14zm22 0h38v1h-38zm-22 16h14v1h-14zm22 0h38v1h-38zm-22-8h14v1h-14zm22 0h38v1h-38z" fill="#0b0c0c"/><text fill="#231f20" font-family="sans-serif" font-size="10" font-weight="bold" transform="translate(1384 365)"><tspan x="0" y="10">Personal details</tspan></text><path d="m647 240h240v80h-240z" fill="#fd0" fill-opacity=".2"/><text fill="#0b0c0c" font-family="sans-serif" font-size="11" font-weight="bold" transform="translate(647 240)"><tspan x="10" y="21">Apply 2 interstitial states:</tspan> <tspan font-size="10" font-weight="300" x="10" y="40">• How process differs (1 choice at a time)</tspan> <tspan font-size="10" font-weight="300" x="10" y="54">• That you can review and edit previous answers</tspan> <tspan font-size="10" font-weight="300" x="10" y="68">• That you can request new references</tspan></text><path d="m1527 456h240v110h-240z" fill="#fd0" fill-opacity=".2"/><text fill="#0b0c0c" font-family="sans-serif" font-size="11" font-weight="bold" transform="translate(1527 456)"><tspan x="10" y="21">Review references</tspan> <tspan font-size="10" font-weight="300" x="10" y="40">• Suggest can replace references, but choosing </tspan><tspan font-size="10" font-weight="300" x="10" y="54">a new referee will delay your application.</tspan> <tspan font-size="10" font-weight="300" x="10" y="68">• Show existing reference status to highlight </tspan><tspan font-size="10" font-weight="300" x="10" y="82">those references are already there</tspan> <tspan font-size="10" font-weight="300" x="10" y="96">• Omit any references who declined</tspan></text><path d="m1307 240h240v80h-240z" fill="#fd0" fill-opacity=".2"/><text fill="#0b0c0c" font-family="sans-serif" font-size="11" font-weight="bold" transform="translate(1307 240)"><tspan x="10" y="21">Review application answers</tspan> <tspan font-size="10" font-weight="300" x="10" y="40">Candidates have to explicitly mark each section </tspan><tspan font-size="10" font-weight="300" x="10" y="54">as having been reviewed. Doing so updates </tspan><tspan font-size="10" font-weight="300" x="10" y="68">status tag on application page.</tspan></text><path d="m1087 456h240v65h-240z" fill="#fd0" fill-opacity=".2"/><text fill="#0b0c0c" font-family="sans-serif" font-size="11" font-weight="bold" transform="translate(1087 456)"><tspan x="10" y="21">Choosing a course</tspan> <tspan font-size="10" font-weight="300" x="10" y="40">• References to 3 choices replaced with 1 choice</tspan> <tspan font-size="10" font-weight="300" x="10" y="54">• ‘Add another course’ references removed</tspan></text><path d="m867 662h240v64h-240z" fill="#fd0" fill-opacity=".2"/><text fill="#0b0c0c" font-family="sans-serif" font-size="11" font-weight="bold" transform="translate(867 662)"><tspan x="10" y="21">Your previous applications</tspan> <tspan font-size="10" font-weight="300" x="10" y="40">We should provide a page that shows all </tspan><tspan font-size="10" font-weight="300" x="10" y="54">previous applications, and their resolution.</tspan></text><path d="m1967 255h240v65h-240z" fill="#fd0" fill-opacity=".2"/><text fill="#0b0c0c" font-family="sans-serif" font-size="11" font-weight="bold" transform="translate(1967 255)"><tspan x="10" y="21">Equality monitoring</tspan> <tspan font-size="10" font-weight="300" x="10" y="40">Do candidates need to confirm their answers from</tspan> <tspan font-size="10" font-weight="300" x="10" y="54">Apply 1? If skipped in Apply 1, skip again?</tspan></text><path d="m2187 456h240v50h-240z" fill="#fd0" fill-opacity=".2"/><text fill="#0b0c0c" font-family="sans-serif" font-size="11" transform="translate(2187 456)"><tspan x="10" y="21">There is no 5-day edit window after </tspan><tspan x="10" y="36">submitting an Apply 2 application.</tspan></text><path d="m205 40h240v50h-240z" fill="#fd0" fill-opacity=".2"/><text fill="#0b0c0c" font-family="sans-serif" font-size="11" transform="translate(205 40)"><tspan x="10" y="21">Apply 2 email sent on same day candidate </tspan><tspan x="10" y="36">becomes eligible for Apply 2.</tspan></text><path d="m261 341h108v94h-108z" fill="#fff" stroke="#0b0c0c" stroke-width="2"/><path d="m260 340h110v10h-110zm7 69h22v1h-22z" fill="#0b0c0c"/><path d="m267 382h96v16h-96z" fill="#fff" stroke="#00703c" stroke-width="2"/><path d="m267 415h72v1h-72zm0 8h72v1h-72zm0-4h72v1h-72zm0 8h40v1h-40z" fill="#0b0c0c"/><text fill="#231f20" font-family="sans-serif" font-size="10" font-weight="bold" transform="translate(267 355)"><tspan x="0" y="10">Application </tspan><tspan x="0" y="21">dashboard</tspan></text><path d="m923 341h108v94h-108z" fill="#fff" stroke="#0b0c0c" stroke-width="2"/><path d="m922 340h110v10h-110z" fill="#0b0c0c"/><path d="m934 399h86v1h-86zm0-8h86v1h-86zm0-8h86v1h-86z" fill="#bfc1c3"/><path d="m1003 387h17v1h-17zm0 16h17v1h-17zm0-8h17v1h-17z" fill="#005ea5"/><path d="m934 387h14v1h-14zm22 0h38v1h-38zm-22 16h14v1h-14zm22 0h38v1h-38zm-22-8h14v1h-14zm22 0h38v1h-38z" fill="#0b0c0c"/><text fill="#231f20" font-family="sans-serif" font-size="10" font-weight="bold" transform="translate(934 355)"><tspan x="0" y="10">Your application</tspan></text><path d="m934 418h30v2h-30z" fill="#1d70b8"/><path d="m1363 341h108v94h-108z" fill="#fff" stroke="#0b0c0c" stroke-width="2"/><path d="m1362 340h110v10h-110z" fill="#0b0c0c"/><g transform="translate(1374 414)"><use fill="#00823b" xlink:href="#n"/><use fill="#000" filter="url(#d)" xlink:href="#n"/></g><path d="m1374 399h86v1h-86zm0-8h86v1h-86zm0-8h86v1h-86z" fill="#bfc1c3"/><path d="m1443 387h17v1h-17zm0 16h17v1h-17zm0-8h17v1h-17z" fill="#005ea5"/><path d="m1374 387h14v1h-14zm22 0h38v1h-38zm-22 16h14v1h-14zm22 0h38v1h-38zm-22-8h14v1h-14zm22 0h38v1h-38z" fill="#0b0c0c"/><text fill="#231f20" font-family="sans-serif" font-size="10" font-weight="bold" transform="translate(1374 355)"><tspan x="0" y="10">Personal details</tspan></text><path d="m1583 341h108v94h-108z" fill="#fff" stroke="#0b0c0c" stroke-width="2"/><path d="m1582 340h110v10h-110z" fill="#0b0c0c"/><g transform="translate(1594 414)"><use fill="#00823b" xlink:href="#o"/><use fill="#000" filter="url(#e)" xlink:href="#o"/></g><path d="m1594 399h86v1h-86zm0-8h86v1h-86zm0-8h86v1h-86z" fill="#bfc1c3"/><path d="m1663 387h17v1h-17zm0 16h17v1h-17zm0-8h17v1h-17z" fill="#005ea5"/><path d="m1594 387h14v1h-14zm22 0h38v1h-38zm-22 16h14v1h-14zm22 0h38v1h-38zm-22-8h14v1h-14zm22 0h38v1h-38z" fill="#0b0c0c"/><text fill="#231f20" font-family="sans-serif" font-size="10" font-weight="bold" transform="translate(1594 355)"><tspan x="0" y="10">References</tspan></text><path d="m1803 341h108v94h-108z" fill="#fff" stroke="#0b0c0c" stroke-width="2"/><path d="m1802 340h110v10h-110z" fill="#0b0c0c"/><g transform="translate(1814 414)"><use fill="#00823b" xlink:href="#p"/><use fill="#000" filter="url(#f)" xlink:href="#p"/></g><path d="m1814 399h86v1h-86zm0-8h86v1h-86zm0-8h86v1h-86z" fill="#bfc1c3"/><path d="m1883 387h17v1h-17zm0 16h17v1h-17zm0-8h17v1h-17z" fill="#005ea5"/><path d="m1814 387h14v1h-14zm22 0h38v1h-38zm-22 16h14v1h-14zm22 0h38v1h-38zm-22-8h14v1h-14zm22 0h38v1h-38z" fill="#0b0c0c"/><text fill="#231f20" font-family="sans-serif" font-size="10" font-weight="bold" transform="translate(1814 355)"><tspan x="0" y="10">Review your </tspan><tspan x="0" y="21">application</tspan></text><path d="m2023 341h108v94h-108z" fill="#fff" stroke="#0b0c0c" stroke-width="2"/><path d="m2022 340h110v10h-110z" fill="#0b0c0c"/><path d="m2029 383h22v1h-22zm0 6h72v1h-72zm0 8h72v1h-72zm0-4h72v1h-72zm0 8h40v1h-40z" fill="#0b0c0c"/><text fill="#231f20" font-family="sans-serif" font-size="10" font-weight="bold" transform="translate(2029 355)"><tspan x="0" y="10">Submit</tspan></text><g transform="translate(2029 414)"><use fill="#00823b" xlink:href="#q"/><use fill="#000" filter="url(#g)" xlink:href="#q"/></g><path d="m2243 341h108v94h-108z" fill="#fff" stroke="#0b0c0c" stroke-width="2"/><path d="m2242 340h110v10h-110zm7 43h22v1h-22zm0 6h72v1h-72zm0 8h72v1h-72zm0-4h72v1h-72zm0 8h40v1h-40z" fill="#0b0c0c"/><path d="m2249 355h72v23h-72z" fill="#00823b"/><text fill="#fff" font-family="sans-serif" font-size="7" font-weight="bold" transform="translate(2249 355)"><tspan x="14.6" y="10.6">Confirmation</tspan></text><path d="m923 547h108v94h-108z" fill="#fff" stroke="#0b0c0c" stroke-width="2"/><path d="m922 546h110v10h-110z" fill="#0b0c0c"/><g transform="translate(934 620)"><use fill="#00823b" xlink:href="#r"/><use fill="#000" filter="url(#h)" xlink:href="#r"/></g><path d="m934 605h86v1h-86zm0-8h86v1h-86zm0-8h86v1h-86z" fill="#bfc1c3"/><path d="m1003 593h17v1h-17zm0 16h17v1h-17zm0-8h17v1h-17z" fill="#005ea5"/><path d="m934 593h14v1h-14zm22 0h38v1h-38zm-22 16h14v1h-14zm22 0h38v1h-38zm-22-8h14v1h-14zm22 0h38v1h-38z" fill="#0b0c0c"/><text fill="#231f20" font-family="sans-serif" font-size="10" font-weight="bold" transform="translate(934 561)"><tspan x="0" y="10">Your previous </tspan><tspan x="0" y="21">applications</tspan></text><path d="m703 341h108v94h-108z" fill="#fff" stroke="#0b0c0c" stroke-width="2"/><path d="m702 340h110v10h-110z" fill="#0b0c0c"/><path d="m709 383h22v1h-22zm0 6h72v1h-72zm0 8h72v1h-72zm0-4h72v1h-72zm0 8h40v1h-40z" fill="#0b0c0c"/><text fill="#231f20" font-family="sans-serif" font-size="10" font-weight="bold" transform="translate(709 355)"><tspan x="0" y="10">Apply again</tspan></text><g transform="translate(709 414)"><use fill="#00823b" xlink:href="#s"/><use fill="#000" filter="url(#i)" xlink:href="#s"/></g><path d="m261 135h108v94h-108z" fill="#fff" stroke="#0b0c0c" stroke-width="2"/><path d="m260 134h110v10h-110zm7 43h22v1h-22zm0 6h72v1h-72zm0 8h72v1h-72zm0-4h72v1h-72zm0 8h40v1h-40z" fill="#0b0c0c"/><text fill="#231f20" font-family="sans-serif" font-size="10" font-weight="bold" transform="translate(267 149)"><tspan x="0" y="10">Do you want to </tspan><tspan x="0" y="21">apply again?</tspan></text><path d="m703 547h108v94h-108z" fill="#fff" stroke="#0b0c0c" stroke-width="2"/><path d="m702 546h110v10h-110zm7 43h22v1h-22zm0 6h72v1h-72zm0 8h72v1h-72zm0-4h72v1h-72zm0 8h40v1h-40z" fill="#0b0c0c"/><text fill="#231f20" font-family="sans-serif" font-size="10" font-weight="bold" transform="translate(709 561)"><tspan x="0" y="10">You can still apply </tspan><tspan x="0" y="21">again</tspan></text><path d="m197 387a1 1 0 0 1 0 2h-2a1 1 0 0 1 0-2zm5-1-1 2h-1a1 1 0 1 1 0-2zm3-4v3a1 1 0 1 1 -2-1l1-1zm1-4 1 1v1a1 1 0 0 1 -2-1zm0-5h1v2a1 1 0 0 1 -2 0v-1zm0-5h1v2a1 1 0 0 1 -2 0v-1zm0-5h1v2a1 1 0 0 1 -2 0v-1zm0-5h1v2a1 1 0 0 1 -2 0v-1zm0-5h1v2a1 1 0 0 1 -2 0v-1zm0-5h1v2a1 1 0 0 1 -2 0v-1zm0-5h1v2a1 1 0 0 1 -2 0v-1zm0-5h1v2a1 1 0 0 1 -2 0v-1zm0-5h1v2a1 1 0 0 1 -2 0v-1zm0-5h1v2a1 1 0 0 1 -2 0v-1zm0-5h1v2a1 1 0 0 1 -2 0v-1zm0-5h1v2a1 1 0 0 1 -2 0v-1zm0-5h1v2a1 1 0 0 1 -2 0v-1zm0-5h1v2a1 1 0 0 1 -2 0v-1zm0-5h1v2a1 1 0 0 1 -2 0v-1zm0-5h1v2a1 1 0 0 1 -2 0v-1zm0-5h1v2a1 1 0 0 1 -2 0v-1zm0-5h1v2a1 1 0 0 1 -2 0v-1zm0-5h1v2a1 1 0 0 1 -2 0v-1zm0-5h1v2a1 1 0 0 1 -2 0v-1zm0-5h1v2a1 1 0 0 1 -2 0v-1zm0-5h1v2a1 1 0 0 1 -2 0v-1zm0-5h1v2a1 1 0 0 1 -2 0v-1zm0-5h1v2a1 1 0 0 1 -2 0v-1zm0-5h1v2a1 1 0 0 1 -2 0v-1zm0-5h1v2a1 1 0 0 1 -2 0v-1zm0-5h1v2a1 1 0 0 1 -2 0v-1zm0-5h1v2a1 1 0 0 1 -2 0v-1zm0-5h1v2a1 1 0 0 1 -2 0v-1zm0-5h1v2a1 1 0 0 1 -2 0v-1zm0-5h1v2a1 1 0 0 1 -2 0v-1zm0-5h1v2a1 1 0 0 1 -2 0v-1zm0-5h1v2a1 1 0 0 1 -2 0v-1zm0-5h1v2a1 1 0 0 1 -2 0v-1zm0-5h1v2a1 1 0 0 1 -2 0v-1zm0-5h1v2a1 1 0 0 1 -2 0v-1zm0-5 1 1v1a1 1 0 0 1 -2 0v-1zm42-16 12 6a1 1 0 0 1 0 2l-12 6a1 1 0 0 1 -1-1v-12zm-41 11 1 1v1a1 1 0 1 1 -2-1v-1zm4-3v1h-1a1 1 0 0 1 -1-1l1-1zm4-2a1 1 0 0 1 0 2h-1a1 1 0 1 1 0-2zm5 0a1 1 0 0 1 0 2h-1a1 1 0 0 1 0-2zm5 0a1 1 0 0 1 0 2h-1a1 1 0 0 1 0-2zm5 0a1 1 0 0 1 0 2h-1a1 1 0 0 1 0-2zm5 0a1 1 0 0 1 0 2h-1a1 1 0 0 1 0-2zm5 0a1 1 0 0 1 0 2h-1a1 1 0 0 1 0-2zm5 0a1 1 0 0 1 0 2h-1a1 1 0 0 1 0-2z" fill="#0b0c0c" fill-rule="nonzero"/><path d="m435 388c-6 0-10-4-10-10v-184c0-7-3-10-10-10h-45" stroke="#0b0c0c" stroke-dasharray="1 4" stroke-linecap="round" stroke-linejoin="round" stroke-width="2"/><path d="m40 340h110v96h-110z" fill="#6f777b"/><text fill="#fff" font-family="sans-serif" font-size="10" font-weight="bold" transform="translate(40 340)"><tspan x="32.7" y="37">Candidate </tspan><tspan x="17.9" y="51">becomes eligible </tspan><tspan x="31.9" y="65">for Apply 2</tspan></text><path d="m690 381 12 6a1 1 0 0 1 0 2l-12 6a1 1 0 0 1 -1-1v-12zm-319 6a1 1 0 0 1 0 2h-1a1 1 0 0 1 0-2zm5 0a1 1 0 0 1 0 2h-1a1 1 0 0 1 0-2zm5 0a1 1 0 0 1 0 2h-1a1 1 0 0 1 0-2zm5 0a1 1 0 0 1 0 2h-1a1 1 0 0 1 0-2zm5 0a1 1 0 0 1 0 2h-1a1 1 0 0 1 0-2zm5 0a1 1 0 0 1 0 2h-1a1 1 0 0 1 0-2zm5 0a1 1 0 0 1 0 2h-1a1 1 0 0 1 0-2zm5 0a1 1 0 0 1 0 2h-1a1 1 0 0 1 0-2zm5 0a1 1 0 0 1 0 2h-1a1 1 0 0 1 0-2zm5 0a1 1 0 0 1 0 2h-1a1 1 0 0 1 0-2zm5 0a1 1 0 0 1 0 2h-1a1 1 0 0 1 0-2zm5 0a1 1 0 0 1 0 2h-1a1 1 0 0 1 0-2zm5 0a1 1 0 0 1 0 2h-1a1 1 0 0 1 0-2zm5 0a1 1 0 0 1 0 2h-1a1 1 0 0 1 0-2zm5 0a1 1 0 0 1 0 2h-1a1 1 0 0 1 0-2zm5 0a1 1 0 0 1 0 2h-1a1 1 0 0 1 0-2zm5 0a1 1 0 0 1 0 2h-1a1 1 0 0 1 0-2zm5 0a1 1 0 0 1 0 2h-1a1 1 0 0 1 0-2zm5 0a1 1 0 0 1 0 2h-1a1 1 0 0 1 0-2zm5 0a1 1 0 0 1 0 2h-1a1 1 0 0 1 0-2zm5 0a1 1 0 0 1 0 2h-1a1 1 0 0 1 0-2zm5 0a1 1 0 0 1 0 2h-1a1 1 0 0 1 0-2zm5 0a1 1 0 0 1 0 2h-1a1 1 0 0 1 0-2zm5 0a1 1 0 0 1 0 2h-1a1 1 0 0 1 0-2zm5 0a1 1 0 0 1 0 2h-1a1 1 0 0 1 0-2zm5 0a1 1 0 0 1 0 2h-1a1 1 0 0 1 0-2zm5 0a1 1 0 0 1 0 2h-1a1 1 0 0 1 0-2zm5 0a1 1 0 0 1 0 2h-1a1 1 0 0 1 0-2zm5 0a1 1 0 0 1 0 2h-1a1 1 0 0 1 0-2zm5 0a1 1 0 0 1 0 2h-1a1 1 0 0 1 0-2zm5 0a1 1 0 0 1 0 2h-1a1 1 0 0 1 0-2zm5 0a1 1 0 0 1 0 2h-1a1 1 0 0 1 0-2zm5 0a1 1 0 0 1 0 2h-1a1 1 0 0 1 0-2zm5 0a1 1 0 0 1 0 2h-1a1 1 0 0 1 0-2zm5 0a1 1 0 0 1 0 2h-1a1 1 0 0 1 0-2zm5 0a1 1 0 0 1 0 2h-1a1 1 0 0 1 0-2zm5 0a1 1 0 0 1 0 2h-1a1 1 0 0 1 0-2zm5 0a1 1 0 0 1 0 2h-1a1 1 0 0 1 0-2zm5 0a1 1 0 0 1 0 2h-1a1 1 0 0 1 0-2zm5 0a1 1 0 0 1 0 2h-1a1 1 0 0 1 0-2zm5 0a1 1 0 0 1 0 2h-1a1 1 0 0 1 0-2zm5 0a1 1 0 0 1 0 2h-1a1 1 0 0 1 0-2zm5 0a1 1 0 0 1 0 2h-1a1 1 0 0 1 0-2zm5 0a1 1 0 0 1 0 2h-1a1 1 0 0 1 0-2zm5 0a1 1 0 0 1 0 2h-1a1 1 0 0 1 0-2zm5 0a1 1 0 0 1 0 2h-1a1 1 0 0 1 0-2zm5 0a1 1 0 0 1 0 2h-1a1 1 0 0 1 0-2zm5 0a1 1 0 0 1 0 2h-1a1 1 0 0 1 0-2zm5 0a1 1 0 0 1 0 2h-1a1 1 0 0 1 0-2zm5 0a1 1 0 0 1 0 2h-1a1 1 0 0 1 0-2zm5 0a1 1 0 0 1 0 2h-1a1 1 0 0 1 0-2zm5 0a1 1 0 0 1 0 2h-1a1 1 0 0 1 0-2zm5 0a1 1 0 0 1 0 2h-1a1 1 0 0 1 0-2zm5 0a1 1 0 0 1 0 2h-1a1 1 0 0 1 0-2zm5 0a1 1 0 0 1 0 2h-1a1 1 0 0 1 0-2zm5 0a1 1 0 0 1 0 2h-1a1 1 0 0 1 0-2zm5 0a1 1 0 0 1 0 2h-1a1 1 0 0 1 0-2zm5 0a1 1 0 0 1 0 2h-1a1 1 0 0 1 0-2zm5 0a1 1 0 0 1 0 2h-1a1 1 0 0 1 0-2zm5 0a1 1 0 0 1 0 2h-1a1 1 0 0 1 0-2zm5 0a1 1 0 0 1 0 2h-1a1 1 0 0 1 0-2zm5 0a1 1 0 0 1 0 2h-1a1 1 0 0 1 0-2zm5 0a1 1 0 0 1 0 2h-1a1 1 0 0 1 0-2zm5 0a1 1 0 0 1 0 2h-1a1 1 0 0 1 0-2z" fill="#0b0c0c" fill-rule="nonzero"/><text fill="#1d70b8" font-family="sans-serif" font-size="12" font-weight="bold"><tspan x="483.3" y="350">Candidate wants to </tspan><tspan x="505.2" y="361">apply again</tspan></text><path d="m535 372 16 16-16 16-16-16z" fill="#1d70b8" stroke="#fff" stroke-linecap="round" stroke-linejoin="round" stroke-width="3"/><g fill="#0b0c0c"><path d="m690 587 12 6a1 1 0 0 1 0 2l-12 6a1 1 0 0 1 -1-1v-5h-1a1 1 0 0 1 0-2h1v-5zm-6 6a1 1 0 0 1 1 2h-2a1 1 0 0 1 0-2zm-5 0a1 1 0 0 1 1 2h-2a1 1 0 0 1 0-2zm-5 0a1 1 0 0 1 1 2h-2a1 1 0 0 1 0-2zm-5 0a1 1 0 0 1 1 2h-2a1 1 0 0 1 0-2zm-5 0a1 1 0 0 1 1 2h-2a1 1 0 0 1 0-2zm-5 0a1 1 0 0 1 1 2h-2a1 1 0 0 1 0-2zm-5 0a1 1 0 0 1 1 2h-2a1 1 0 0 1 0-2zm-5 0a1 1 0 0 1 1 2h-2a1 1 0 0 1 0-2zm-5 0a1 1 0 0 1 1 2h-2a1 1 0 0 1 0-2zm-5 0a1 1 0 0 1 1 2h-2a1 1 0 0 1 0-2zm-5 0a1 1 0 0 1 1 2h-2a1 1 0 0 1 0-2zm-5 0a1 1 0 0 1 1 2h-2a1 1 0 0 1 0-2zm-5 0a1 1 0 0 1 1 2h-2a1 1 0 0 1 0-2zm-5 0a1 1 0 0 1 1 2h-2a1 1 0 0 1 0-2zm-5 0a1 1 0 0 1 1 2h-2a1 1 0 0 1 0-2zm-5 0a1 1 0 0 1 1 2h-2a1 1 0 0 1 0-2zm-5 0a1 1 0 0 1 1 2h-2a1 1 0 0 1 0-2zm-5 0a1 1 0 0 1 1 2h-2a1 1 0 0 1 0-2zm-5 0a1 1 0 0 1 1 2h-2a1 1 0 0 1 0-2zm-5 0a1 1 0 0 1 1 2h-2a1 1 0 0 1 0-2zm-5 0a1 1 0 0 1 1 2h-2a1 1 0 0 1 0-2zm-5 0a1 1 0 0 1 1 2h-2a1 1 0 0 1 0-2zm-5 0a1 1 0 0 1 1 2h-2a1 1 0 0 1 0-2zm-5 0a1 1 0 0 1 1 2h-2a1 1 0 0 1 0-2zm-5 0a1 1 0 0 1 1 2h-2a1 1 0 0 1 0-2zm-5 0a1 1 0 0 1 1 2h-2a1 1 0 0 1 0-2zm-5 0a1 1 0 0 1 1 2h-2a1 1 0 0 1 0-2zm-5 0a1 1 0 0 1 1 2h-2a1 1 0 0 1 0-2zm-6 0h1a1 1 0 1 1 0 2h-1a1 1 0 0 1 0-2zm-4-2 1 1a1 1 0 0 1 -1 1h-1a1 1 0 1 1 1-2zm-2-3a1 1 0 0 1 -2 1v-1a1 1 0 1 1 2 0zm-2-6 1 1v2a1 1 0 0 1 -2 0v-2zm0-5 1 1v1a1 1 0 0 1 -2 0v-1zm0-5 1 1v1a1 1 0 0 1 -2 0v-1zm0-5 1 1v1a1 1 0 0 1 -2 0v-1zm0-5 1 1v1a1 1 0 0 1 -2 0v-1zm0-5 1 1v1a1 1 0 0 1 -2 0v-1zm0-5 1 1v1a1 1 0 0 1 -2 0v-1zm0-5 1 1v1a1 1 0 0 1 -2 0v-1zm0-5 1 1v1a1 1 0 0 1 -2 0v-1zm0-5 1 1v1a1 1 0 0 1 -2 0v-1zm0-5 1 1v1a1 1 0 0 1 -2 0v-1zm0-5 1 1v1a1 1 0 0 1 -2 0v-1zm0-5 1 1v1a1 1 0 0 1 -2 0v-1zm0-5 1 1v1a1 1 0 0 1 -2 0v-1zm0-5 1 1v1a1 1 0 0 1 -2 0v-1zm0-5 1 1v1a1 1 0 0 1 -2 0v-1zm0-5 1 1v1a1 1 0 0 1 -2 0v-1zm0-5 1 1v1a1 1 0 0 1 -2 0v-1zm0-5 1 1v1a1 1 0 0 1 -2 0v-1zm0-5 1 1v1a1 1 0 0 1 -2 0v-1zm0-5 1 1v1a1 1 0 0 1 -2 0v-1zm0-5 1 1v1a1 1 0 0 1 -2 0v-1zm0-5 1 1v1a1 1 0 0 1 -2 0v-1zm0-5 1 1v1a1 1 0 0 1 -2 0v-1zm0-5 1 1v1a1 1 0 0 1 -2 0v-1zm0-5 1 1v1a1 1 0 0 1 -2 0v-1zm0-5 1 1v1a1 1 0 0 1 -2 0v-1zm0-5 1 1v1a1 1 0 0 1 -2 0v-1zm0-5 1 1v1a1 1 0 0 1 -2 0v-1zm0-5 1 1v1a1 1 0 0 1 -2 0v-1zm0-5 1 1v1a1 1 0 0 1 -2 0v-1zm0-5 1 1v1a1 1 0 0 1 -2 0v-1zm0-5 1 1v1a1 1 0 0 1 -2 0v-1zm0-5 1 1v1a1 1 0 0 1 -2 0v-1zm0-5 1 1v1a1 1 0 0 1 -2 0v-1zm0-5 1 1v1a1 1 0 0 1 -2 0v-1zm0-5 1 1v1a1 1 0 0 1 -2 0v-1z" fill-rule="nonzero"/><text font-family="sans-serif" font-size="12" font-weight="bold"><tspan x="543" y="415">No</tspan></text><text font-family="sans-serif" font-size="12" font-weight="bold"><tspan x="557" y="505">Chaser email sent 10 working</tspan> <tspan x="557" y="519">days(?) after initial email, </tspan><tspan x="557" y="533">encouraging candidates </tspan><tspan x="557" y="547">to apply again.</tspan></text></g><g stroke="#0b0c0c" stroke-width="2"><path d="m350 120h40v28h-40z" fill="#fff"/><path d="m350 120 20 15 20-15m-40 28 17-14m23 14-17-14"/></g><g stroke="#0b0c0c" stroke-width="2"><path d="m792 532h40v28h-40z" fill="#fff"/><path d="m792 532 20 15 20-15m-40 28 18-14m23 14-18-14"/></g><path d="m246 381 12 6a1 1 0 0 1 0 2l-12 6a1 1 0 0 1 -1-1v-5h-2a1 1 0 0 1 0-2h2v-5zm-97 6a1 1 0 0 1 0 2h-1a1 1 0 0 1 0-2zm5 0a1 1 0 0 1 0 2h-1a1 1 0 0 1 0-2zm5 0a1 1 0 0 1 0 2h-1a1 1 0 0 1 0-2zm5 0a1 1 0 0 1 0 2h-1a1 1 0 0 1 0-2zm5 0a1 1 0 0 1 0 2h-1a1 1 0 0 1 0-2zm5 0a1 1 0 0 1 0 2h-1a1 1 0 0 1 0-2zm5 0a1 1 0 0 1 0 2h-1a1 1 0 0 1 0-2zm5 0a1 1 0 0 1 0 2h-1a1 1 0 0 1 0-2zm5 0a1 1 0 0 1 0 2h-1a1 1 0 0 1 0-2zm5 0a1 1 0 0 1 0 2h-1a1 1 0 0 1 0-2zm5 0a1 1 0 0 1 0 2h-1a1 1 0 0 1 0-2zm5 0a1 1 0 0 1 0 2h-1a1 1 0 0 1 0-2zm5 0a1 1 0 0 1 0 2h-1a1 1 0 0 1 0-2zm5 0a1 1 0 0 1 0 2h-1a1 1 0 0 1 0-2zm5 0a1 1 0 0 1 0 2h-1a1 1 0 0 1 0-2zm5 0a1 1 0 0 1 0 2h-1a1 1 0 0 1 0-2zm5 0a1 1 0 0 1 0 2h-1a1 1 0 0 1 0-2zm5 0a1 1 0 0 1 0 2h-1a1 1 0 0 1 0-2zm5 0a1 1 0 0 1 0 2h-1a1 1 0 0 1 0-2z" fill="#0b0c0c" fill-rule="nonzero"/><circle cx="535" cy="498" fill="#1d70b8" r="14"/><path d="m757 544 1 1v1a1 1 0 0 1 -2 0v-1zm0-5 1 1v1a1 1 0 0 1 -2 0v-1zm0-5 1 1v1a1 1 0 0 1 -2 0v-1zm0-5 1 1v1a1 1 0 0 1 -2 0v-1zm0-5 1 1v1a1 1 0 0 1 -2 0v-1zm0-5 1 1v1a1 1 0 0 1 -2 0v-1zm0-5 1 1v1a1 1 0 0 1 -2 0v-1zm0-5 1 1v1a1 1 0 0 1 -2 0v-1zm0-5 1 1v1a1 1 0 0 1 -2 0v-1zm0-5 1 1v1a1 1 0 0 1 -2 0v-1zm0-5 1 1v1a1 1 0 0 1 -2 0v-1zm0-5 1 1v1a1 1 0 0 1 -2 0v-1zm0-5 1 1v1a1 1 0 0 1 -2 0v-1zm0-5 1 1v1a1 1 0 0 1 -2 0v-1zm0-5 1 1v1a1 1 0 0 1 -2 0v-1zm0-5 1 1v1a1 1 0 0 1 -2 0v-1zm0-5 1 1v1a1 1 0 0 1 -2 0v-1zm0-5 1 1v1a1 1 0 0 1 -2 0v-1zm0-5 1 1v1a1 1 0 0 1 -2 0v-1zm-1-18a1 1 0 0 1 2 0l6 12a1 1 0 0 1 -1 1h-5v2a1 1 0 0 1 -2 0v-1-1h-5a1 1 0 0 1 -1-1z" fill="#0b0c0c" fill-rule="nonzero"/><path d="m930 413h39v12h-39z" stroke="#0b0c0c" stroke-width="2"/><text fill="#0b0c0c" font-family="sans-serif" font-size="6" font-weight="bold"><tspan x="271" y="392">Do you want to apply again?</tspan></text><path d="m910 381 12 6a1 1 0 0 1 0 2l-12 6a1 1 0 0 1 -1-1v-5h-2a1 1 0 0 1 0-2h2v-5zm-97 6a1 1 0 0 1 0 2h-1a1 1 0 0 1 0-2zm5 0a1 1 0 0 1 0 2h-1a1 1 0 0 1 0-2zm5 0a1 1 0 0 1 0 2h-1a1 1 0 0 1 0-2zm5 0a1 1 0 0 1 0 2h-1a1 1 0 0 1 0-2zm5 0a1 1 0 0 1 0 2h-1a1 1 0 0 1 0-2zm5 0a1 1 0 0 1 0 2h-1a1 1 0 0 1 0-2zm5 0a1 1 0 0 1 0 2h-1a1 1 0 0 1 0-2zm5 0a1 1 0 0 1 0 2h-1a1 1 0 0 1 0-2zm5 0a1 1 0 0 1 0 2h-1a1 1 0 0 1 0-2zm5 0a1 1 0 0 1 0 2h-1a1 1 0 0 1 0-2zm5 0a1 1 0 0 1 0 2h-1a1 1 0 0 1 0-2zm5 0a1 1 0 0 1 0 2h-1a1 1 0 0 1 0-2zm5 0a1 1 0 0 1 0 2h-1a1 1 0 0 1 0-2zm5 0a1 1 0 0 1 0 2h-1a1 1 0 0 1 0-2zm5 0a1 1 0 0 1 0 2h-1a1 1 0 0 1 0-2zm5 0a1 1 0 0 1 0 2h-1a1 1 0 0 1 0-2zm5 0a1 1 0 0 1 0 2h-1a1 1 0 0 1 0-2zm5 0a1 1 0 0 1 0 2h-1a1 1 0 0 1 0-2zm5 0a1 1 0 0 1 0 2h-1a1 1 0 0 1 0-2z" fill="#0b0c0c" fill-rule="nonzero"/><path d="m1142 340h110v96h-110z" fill="#fff" stroke="#0b0c0c" stroke-dasharray="1 4" stroke-linecap="square" stroke-width="2"/><text fill="#0b0c0c" font-family="sans-serif" font-size="10" font-weight="bold" transform="translate(1142 340)"><tspan x="34.8" y="44">Choose a</tspan> <tspan x="29.3" y="58">course flow</tspan></text><path d="m1130 381 12 6a1 1 0 0 1 0 2l-12 6a1 1 0 0 1 -1-1v-5h-2a1 1 0 0 1 0-2h2v-5zm-97 6a1 1 0 0 1 0 2h-1a1 1 0 0 1 0-2zm5 0a1 1 0 0 1 0 2h-1a1 1 0 0 1 0-2zm5 0a1 1 0 0 1 0 2h-1a1 1 0 0 1 0-2zm5 0a1 1 0 0 1 0 2h-1a1 1 0 0 1 0-2zm5 0a1 1 0 0 1 0 2h-1a1 1 0 0 1 0-2zm5 0a1 1 0 0 1 0 2h-1a1 1 0 0 1 0-2zm5 0a1 1 0 0 1 0 2h-1a1 1 0 0 1 0-2zm5 0a1 1 0 0 1 0 2h-1a1 1 0 0 1 0-2zm5 0a1 1 0 0 1 0 2h-1a1 1 0 0 1 0-2zm5 0a1 1 0 0 1 0 2h-1a1 1 0 0 1 0-2zm5 0a1 1 0 0 1 0 2h-1a1 1 0 0 1 0-2zm5 0a1 1 0 0 1 0 2h-1a1 1 0 0 1 0-2zm5 0a1 1 0 0 1 0 2h-1a1 1 0 0 1 0-2zm5 0a1 1 0 0 1 0 2h-1a1 1 0 0 1 0-2zm5 0a1 1 0 0 1 0 2h-1a1 1 0 0 1 0-2zm5 0a1 1 0 0 1 0 2h-1a1 1 0 0 1 0-2zm5 0a1 1 0 0 1 0 2h-1a1 1 0 0 1 0-2zm5 0a1 1 0 0 1 0 2h-1a1 1 0 0 1 0-2zm5 0a1 1 0 0 1 0 2h-1a1 1 0 0 1 0-2zm227-6 12 6a1 1 0 0 1 0 2l-12 6a1 1 0 0 1 -1-1v-5h-2a1 1 0 0 1 0-2h2v-5zm-97 6a1 1 0 0 1 0 2h-1a1 1 0 0 1 0-2zm5 0a1 1 0 0 1 0 2h-1a1 1 0 0 1 0-2zm5 0a1 1 0 0 1 0 2h-1a1 1 0 0 1 0-2zm5 0a1 1 0 0 1 0 2h-1a1 1 0 0 1 0-2zm5 0a1 1 0 0 1 0 2h-1a1 1 0 0 1 0-2zm5 0a1 1 0 0 1 0 2h-1a1 1 0 0 1 0-2zm5 0a1 1 0 0 1 0 2h-1a1 1 0 0 1 0-2zm5 0a1 1 0 0 1 0 2h-1a1 1 0 0 1 0-2zm5 0a1 1 0 0 1 0 2h-1a1 1 0 0 1 0-2zm5 0a1 1 0 0 1 0 2h-1a1 1 0 0 1 0-2zm5 0a1 1 0 0 1 0 2h-1a1 1 0 0 1 0-2zm5 0a1 1 0 0 1 0 2h-1a1 1 0 0 1 0-2zm5 0a1 1 0 0 1 0 2h-1a1 1 0 0 1 0-2zm5 0a1 1 0 0 1 0 2h-1a1 1 0 0 1 0-2zm5 0a1 1 0 0 1 0 2h-1a1 1 0 0 1 0-2zm5 0a1 1 0 0 1 0 2h-1a1 1 0 0 1 0-2zm5 0a1 1 0 0 1 0 2h-1a1 1 0 0 1 0-2zm5 0a1 1 0 0 1 0 2h-1a1 1 0 0 1 0-2zm5 0a1 1 0 0 1 0 2h-1a1 1 0 0 1 0-2zm227-6 12 6a1 1 0 0 1 0 2l-12 6a1 1 0 0 1 -1-1v-5h-2a1 1 0 0 1 0-2h2v-5zm-97 6a1 1 0 0 1 0 2h-1a1 1 0 0 1 0-2zm5 0a1 1 0 0 1 0 2h-1a1 1 0 0 1 0-2zm5 0a1 1 0 0 1 0 2h-1a1 1 0 0 1 0-2zm5 0a1 1 0 0 1 0 2h-1a1 1 0 0 1 0-2zm5 0a1 1 0 0 1 0 2h-1a1 1 0 0 1 0-2zm5 0a1 1 0 0 1 0 2h-1a1 1 0 0 1 0-2zm5 0a1 1 0 0 1 0 2h-1a1 1 0 0 1 0-2zm5 0a1 1 0 0 1 0 2h-1a1 1 0 0 1 0-2zm5 0a1 1 0 0 1 0 2h-1a1 1 0 0 1 0-2zm5 0a1 1 0 0 1 0 2h-1a1 1 0 0 1 0-2zm5 0a1 1 0 0 1 0 2h-1a1 1 0 0 1 0-2zm5 0a1 1 0 0 1 0 2h-1a1 1 0 0 1 0-2zm5 0a1 1 0 0 1 0 2h-1a1 1 0 0 1 0-2zm5 0a1 1 0 0 1 0 2h-1a1 1 0 0 1 0-2zm5 0a1 1 0 0 1 0 2h-1a1 1 0 0 1 0-2zm5 0a1 1 0 0 1 0 2h-1a1 1 0 0 1 0-2zm5 0a1 1 0 0 1 0 2h-1a1 1 0 0 1 0-2zm5 0a1 1 0 0 1 0 2h-1a1 1 0 0 1 0-2zm5 0a1 1 0 0 1 0 2h-1a1 1 0 0 1 0-2zm227-6 12 6a1 1 0 0 1 0 2l-12 6a1 1 0 0 1 -1-1v-5h-2a1 1 0 0 1 0-2h2v-5zm-97 6a1 1 0 0 1 0 2h-1a1 1 0 0 1 0-2zm5 0a1 1 0 0 1 0 2h-1a1 1 0 0 1 0-2zm5 0a1 1 0 0 1 0 2h-1a1 1 0 0 1 0-2zm5 0a1 1 0 0 1 0 2h-1a1 1 0 0 1 0-2zm5 0a1 1 0 0 1 0 2h-1a1 1 0 0 1 0-2zm5 0a1 1 0 0 1 0 2h-1a1 1 0 0 1 0-2zm5 0a1 1 0 0 1 0 2h-1a1 1 0 0 1 0-2zm5 0a1 1 0 0 1 0 2h-1a1 1 0 0 1 0-2zm5 0a1 1 0 0 1 0 2h-1a1 1 0 0 1 0-2zm5 0a1 1 0 0 1 0 2h-1a1 1 0 0 1 0-2zm5 0a1 1 0 0 1 0 2h-1a1 1 0 0 1 0-2zm5 0a1 1 0 0 1 0 2h-1a1 1 0 0 1 0-2zm5 0a1 1 0 0 1 0 2h-1a1 1 0 0 1 0-2zm5 0a1 1 0 0 1 0 2h-1a1 1 0 0 1 0-2zm5 0a1 1 0 0 1 0 2h-1a1 1 0 0 1 0-2zm5 0a1 1 0 0 1 0 2h-1a1 1 0 0 1 0-2zm5 0a1 1 0 0 1 0 2h-1a1 1 0 0 1 0-2zm5 0a1 1 0 0 1 0 2h-1a1 1 0 0 1 0-2zm5 0a1 1 0 0 1 0 2h-1a1 1 0 0 1 0-2zm227-6 12 6a1 1 0 0 1 0 2l-12 6a1 1 0 0 1 -1-1v-5h-2a1 1 0 0 1 0-2h2v-5zm-97 6a1 1 0 0 1 0 2h-1a1 1 0 0 1 0-2zm5 0a1 1 0 0 1 0 2h-1a1 1 0 0 1 0-2zm5 0a1 1 0 0 1 0 2h-1a1 1 0 0 1 0-2zm5 0a1 1 0 0 1 0 2h-1a1 1 0 0 1 0-2zm5 0a1 1 0 0 1 0 2h-1a1 1 0 0 1 0-2zm5 0a1 1 0 0 1 0 2h-1a1 1 0 0 1 0-2zm5 0a1 1 0 0 1 0 2h-1a1 1 0 0 1 0-2zm5 0a1 1 0 0 1 0 2h-1a1 1 0 0 1 0-2zm5 0a1 1 0 0 1 0 2h-1a1 1 0 0 1 0-2zm5 0a1 1 0 0 1 0 2h-1a1 1 0 0 1 0-2zm5 0a1 1 0 0 1 0 2h-1a1 1 0 0 1 0-2zm5 0a1 1 0 0 1 0 2h-1a1 1 0 0 1 0-2zm5 0a1 1 0 0 1 0 2h-1a1 1 0 0 1 0-2zm5 0a1 1 0 0 1 0 2h-1a1 1 0 0 1 0-2zm5 0a1 1 0 0 1 0 2h-1a1 1 0 0 1 0-2zm5 0a1 1 0 0 1 0 2h-1a1 1 0 0 1 0-2zm5 0a1 1 0 0 1 0 2h-1a1 1 0 0 1 0-2zm5 0a1 1 0 0 1 0 2h-1a1 1 0 0 1 0-2zm5 0a1 1 0 0 1 0 2h-1a1 1 0 0 1 0-2zm-1054 145 1 1h5a1 1 0 0 1 1 1l-6 12a1 1 0 0 1 -2 0l-6-12a1 1 0 0 1 1-1h5zm0-5 1 1v1a1 1 0 0 1 -2 0v-1zm0-5 1 1v1a1 1 0 0 1 -2 0v-1zm0-5 1 1v1a1 1 0 0 1 -2 0v-1zm0-5 1 1v1a1 1 0 0 1 -2 0v-1zm0-5 1 1v1a1 1 0 0 1 -2 0v-1zm0-5 1 1v1a1 1 0 0 1 -2 0v-1zm0-5 1 1v1a1 1 0 0 1 -2 0v-1zm0-5 1 1v1a1 1 0 0 1 -2 0v-1zm0-5 1 1v1a1 1 0 0 1 -2 0v-1zm0-5 1 1v1a1 1 0 0 1 -2 0v-1zm0-5 1 1v1a1 1 0 0 1 -2 0v-1zm0-5 1 1v1a1 1 0 0 1 -2 0v-1zm0-5 1 1v1a1 1 0 0 1 -2 0v-1zm0-5 1 1v1a1 1 0 0 1 -2 0v-1zm0-5 1 1v1a1 1 0 0 1 -2 0v-1zm0-5 1 1v1a1 1 0 0 1 -2 0v-1zm0-5 1 1v1a1 1 0 0 1 -2 0v-1zm0-5 1 1v1a1 1 0 0 1 -2 0v-1zm0-5 1 1v1a1 1 0 0 1 -2 0v-1zm0-5 1 1v1a1 1 0 0 1 -2 0v-1zm0-5 1 1v1a1 1 0 0 1 -2 0v-1zm1281-46 12 6a1 1 0 0 1 0 2l-12 6a1 1 0 0 1 -1-1v-5h-2a1 1 0 0 1 0-2h2v-5zm-97 6a1 1 0 0 1 0 2h-1a1 1 0 0 1 0-2zm5 0a1 1 0 0 1 0 2h-1a1 1 0 0 1 0-2zm5 0a1 1 0 0 1 0 2h-1a1 1 0 0 1 0-2zm5 0a1 1 0 0 1 0 2h-1a1 1 0 0 1 0-2zm5 0a1 1 0 0 1 0 2h-1a1 1 0 0 1 0-2zm5 0a1 1 0 0 1 0 2h-1a1 1 0 0 1 0-2zm5 0a1 1 0 0 1 0 2h-1a1 1 0 0 1 0-2zm5 0a1 1 0 0 1 0 2h-1a1 1 0 0 1 0-2zm5 0a1 1 0 0 1 0 2h-1a1 1 0 0 1 0-2zm5 0a1 1 0 0 1 0 2h-1a1 1 0 0 1 0-2zm5 0a1 1 0 0 1 0 2h-1a1 1 0 0 1 0-2zm5 0a1 1 0 0 1 0 2h-1a1 1 0 0 1 0-2zm5 0a1 1 0 0 1 0 2h-1a1 1 0 0 1 0-2zm5 0a1 1 0 0 1 0 2h-1a1 1 0 0 1 0-2zm5 0a1 1 0 0 1 0 2h-1a1 1 0 0 1 0-2zm5 0a1 1 0 0 1 0 2h-1a1 1 0 0 1 0-2zm5 0a1 1 0 0 1 0 2h-1a1 1 0 0 1 0-2zm5 0a1 1 0 0 1 0 2h-1a1 1 0 0 1 0-2zm5 0a1 1 0 0 1 0 2h-1a1 1 0 0 1 0-2z" fill="#0b0c0c" fill-rule="nonzero"/><path d="m2463 341h108v94h-108z" fill="#fff" stroke="#0b0c0c" stroke-width="2"/><path d="m2462 340h110v10h-110zm7 43h22v1h-22zm0 6h72v1h-72zm0 8h72v1h-72zm0-4h72v1h-72zm0 8h40v1h-40z" fill="#0b0c0c"/><text fill="#231f20" font-family="sans-serif" font-size="10" font-weight="bold" transform="translate(2469 355)"><tspan x="0" y="10">You have applied </tspan><tspan x="0" y="21">to ACME SCITT</tspan></text><path d="m2683 341h108v94h-108z" fill="#fff" stroke="#0b0c0c" stroke-width="2"/><path d="m2682 340h110v10h-110z" fill="#0b0c0c"/><g transform="translate(2689 414)"><use fill="#00823b" xlink:href="#t"/><use fill="#000" filter="url(#j)" xlink:href="#t"/></g><path d="m2689 399h72v1h-72zm0-8h72v1h-72zm0-8h72v1h-72z" fill="#bfc1c3"/><path d="m2751 387h10v1h-10zm0 16h10v1h-10zm0-8h10v1h-10z" fill="#005ea5"/><path d="m2689 387h12v1h-12zm19 0h33v1h-33zm-19 16h12v1h-12zm19 0h33v1h-33zm-19-8h12v1h-12zm19 0h33v1h-33z" fill="#0b0c0c"/><text fill="#231f20" font-family="sans-serif" font-size="10" font-weight="bold" transform="translate(2689 355)"><tspan x="0" y="10">Application </tspan><tspan x="0" y="21">dashboard</tspan></text><g stroke="#0b0c0c" stroke-width="2"><path d="m2552 326h40v28h-40z" fill="#fff"/><path d="m2552 326 20 15 20-15m-40 28 17-14m23 14-17-14"/></g><path d="m2450 381 12 6a1 1 0 0 1 0 2l-12 6a1 1 0 0 1 -1-1v-5h-2a1 1 0 0 1 0-2h2v-5zm-97 6a1 1 0 0 1 0 2h-1a1 1 0 0 1 0-2zm5 0a1 1 0 0 1 0 2h-1a1 1 0 0 1 0-2zm5 0a1 1 0 0 1 0 2h-1a1 1 0 0 1 0-2zm5 0a1 1 0 0 1 0 2h-1a1 1 0 0 1 0-2zm5 0a1 1 0 0 1 0 2h-1a1 1 0 0 1 0-2zm5 0a1 1 0 0 1 0 2h-1a1 1 0 0 1 0-2zm5 0a1 1 0 0 1 0 2h-1a1 1 0 0 1 0-2zm5 0a1 1 0 0 1 0 2h-1a1 1 0 0 1 0-2zm5 0a1 1 0 0 1 0 2h-1a1 1 0 0 1 0-2zm5 0a1 1 0 0 1 0 2h-1a1 1 0 0 1 0-2zm5 0a1 1 0 0 1 0 2h-1a1 1 0 0 1 0-2zm5 0a1 1 0 0 1 0 2h-1a1 1 0 0 1 0-2zm5 0a1 1 0 0 1 0 2h-1a1 1 0 0 1 0-2zm5 0a1 1 0 0 1 0 2h-1a1 1 0 0 1 0-2zm5 0a1 1 0 0 1 0 2h-1a1 1 0 0 1 0-2zm5 0a1 1 0 0 1 0 2h-1a1 1 0 0 1 0-2zm5 0a1 1 0 0 1 0 2h-1a1 1 0 0 1 0-2zm5 0a1 1 0 0 1 0 2h-1a1 1 0 0 1 0-2zm5 0a1 1 0 0 1 0 2h-1a1 1 0 0 1 0-2zm227-6 12 6a1 1 0 0 1 0 2l-12 6a1 1 0 0 1 -1-1v-5h-2a1 1 0 0 1 0-2h2v-5zm-97 6a1 1 0 0 1 0 2h-1a1 1 0 0 1 0-2zm5 0a1 1 0 0 1 0 2h-1a1 1 0 0 1 0-2zm5 0a1 1 0 0 1 0 2h-1a1 1 0 0 1 0-2zm5 0a1 1 0 0 1 0 2h-1a1 1 0 0 1 0-2zm5 0a1 1 0 0 1 0 2h-1a1 1 0 0 1 0-2zm5 0a1 1 0 0 1 0 2h-1a1 1 0 0 1 0-2zm5 0a1 1 0 0 1 0 2h-1a1 1 0 0 1 0-2zm5 0a1 1 0 0 1 0 2h-1a1 1 0 0 1 0-2zm5 0a1 1 0 0 1 0 2h-1a1 1 0 0 1 0-2zm5 0a1 1 0 0 1 0 2h-1a1 1 0 0 1 0-2zm5 0a1 1 0 0 1 0 2h-1a1 1 0 0 1 0-2zm5 0a1 1 0 0 1 0 2h-1a1 1 0 0 1 0-2zm5 0a1 1 0 0 1 0 2h-1a1 1 0 0 1 0-2zm5 0a1 1 0 0 1 0 2h-1a1 1 0 0 1 0-2zm5 0a1 1 0 0 1 0 2h-1a1 1 0 0 1 0-2zm5 0a1 1 0 0 1 0 2h-1a1 1 0 0 1 0-2zm5 0a1 1 0 0 1 0 2h-1a1 1 0 0 1 0-2zm5 0a1 1 0 0 1 0 2h-1a1 1 0 0 1 0-2zm5 0a1 1 0 0 1 0 2h-1a1 1 0 0 1 0-2z" fill="#0b0c0c" fill-rule="nonzero"/></g></svg>