<svg xmlns="http://www.w3.org/2000/svg" xmlns:xlink="http://www.w3.org/1999/xlink" width="2840" height="768">
  <defs>
    <filter id="b" width="102.2%" height="110%" x="-1.1%" y="-5%" filterUnits="objectBoundingBox">
      <feOffset dy="-1" in="SourceAlpha" result="shadowOffsetInner1"/>
      <feComposite in="shadowOffsetInner1" in2="SourceAlpha" k2="-1" k3="1" operator="arithmetic" result="shadowInnerInner1"/>
      <feColorMatrix in="shadowInnerInner1" values="0 0 0 0 0 0 0 0 0 0.392156863 0 0 0 0 0.207843137 0 0 0 1 0"/>
    </filter>
    <filter id="d" width="102.2%" height="110%" x="-1.1%" y="-5%" filterUnits="objectBoundingBox">
      <feOffset dy="-1" in="SourceAlpha" result="shadowOffsetInner1"/>
      <feComposite in="shadowOffsetInner1" in2="SourceAlpha" k2="-1" k3="1" operator="arithmetic" result="shadowInnerInner1"/>
      <feColorMatrix in="shadowInnerInner1" values="0 0 0 0 0 0 0 0 0 0.392156863 0 0 0 0 0.207843137 0 0 0 1 0"/>
    </filter>
    <filter id="f" width="102.2%" height="110%" x="-1.1%" y="-5%" filterUnits="objectBoundingBox">
      <feOffset dy="-1" in="SourceAlpha" result="shadowOffsetInner1"/>
      <feComposite in="shadowOffsetInner1" in2="SourceAlpha" k2="-1" k3="1" operator="arithmetic" result="shadowInnerInner1"/>
      <feColorMatrix in="shadowInnerInner1" values="0 0 0 0 0 0 0 0 0 0.392156863 0 0 0 0 0.207843137 0 0 0 1 0"/>
    </filter>
    <filter id="h" width="102.2%" height="110%" x="-1.1%" y="-5%" filterUnits="objectBoundingBox">
      <feOffset dy="-1" in="SourceAlpha" result="shadowOffsetInner1"/>
      <feComposite in="shadowOffsetInner1" in2="SourceAlpha" k2="-1" k3="1" operator="arithmetic" result="shadowInnerInner1"/>
      <feColorMatrix in="shadowInnerInner1" values="0 0 0 0 0 0 0 0 0 0.392156863 0 0 0 0 0.207843137 0 0 0 1 0"/>
    </filter>
    <filter id="j" width="102.2%" height="110%" x="-1.1%" y="-5%" filterUnits="objectBoundingBox">
      <feOffset dy="-1" in="SourceAlpha" result="shadowOffsetInner1"/>
      <feComposite in="shadowOffsetInner1" in2="SourceAlpha" k2="-1" k3="1" operator="arithmetic" result="shadowInnerInner1"/>
      <feColorMatrix in="shadowInnerInner1" values="0 0 0 0 0 0 0 0 0 0.392156863 0 0 0 0 0.207843137 0 0 0 1 0"/>
    </filter>
    <filter id="l" width="102.2%" height="110%" x="-1.1%" y="-5%" filterUnits="objectBoundingBox">
      <feOffset dy="-1" in="SourceAlpha" result="shadowOffsetInner1"/>
      <feComposite in="shadowOffsetInner1" in2="SourceAlpha" k2="-1" k3="1" operator="arithmetic" result="shadowInnerInner1"/>
      <feColorMatrix in="shadowInnerInner1" values="0 0 0 0 0 0 0 0 0 0.392156863 0 0 0 0 0.207843137 0 0 0 1 0"/>
    </filter>
    <filter id="n" width="103.8%" height="110%" x="-1.9%" y="-5%" filterUnits="objectBoundingBox">
      <feOffset dy="-1" in="SourceAlpha" result="shadowOffsetInner1"/>
      <feComposite in="shadowOffsetInner1" in2="SourceAlpha" k2="-1" k3="1" operator="arithmetic" result="shadowInnerInner1"/>
      <feColorMatrix in="shadowInnerInner1" values="0 0 0 0 0 0 0 0 0 0.392156863 0 0 0 0 0.207843137 0 0 0 1 0"/>
    </filter>
    <filter id="p" width="102.2%" height="110%" x="-1.1%" y="-5%" filterUnits="objectBoundingBox">
      <feOffset dy="-1" in="SourceAlpha" result="shadowOffsetInner1"/>
      <feComposite in="shadowOffsetInner1" in2="SourceAlpha" k2="-1" k3="1" operator="arithmetic" result="shadowInnerInner1"/>
      <feColorMatrix in="shadowInnerInner1" values="0 0 0 0 0 0 0 0 0 0.392156863 0 0 0 0 0.207843137 0 0 0 1 0"/>
    </filter>
    <filter id="r" width="103.8%" height="110%" x="-1.9%" y="-5%" filterUnits="objectBoundingBox">
      <feOffset dy="-1" in="SourceAlpha" result="shadowOffsetInner1"/>
      <feComposite in="shadowOffsetInner1" in2="SourceAlpha" k2="-1" k3="1" operator="arithmetic" result="shadowInnerInner1"/>
      <feColorMatrix in="shadowInnerInner1" values="0 0 0 0 0 0 0 0 0 0.392156863 0 0 0 0 0.207843137 0 0 0 1 0"/>
    </filter>
    <filter id="t" width="103.8%" height="110%" x="-1.9%" y="-5%" filterUnits="objectBoundingBox">
      <feOffset dy="-1" in="SourceAlpha" result="shadowOffsetInner1"/>
      <feComposite in="shadowOffsetInner1" in2="SourceAlpha" k2="-1" k3="1" operator="arithmetic" result="shadowInnerInner1"/>
      <feColorMatrix in="shadowInnerInner1" values="0 0 0 0 0 0 0 0 0 0.392156863 0 0 0 0 0.207843137 0 0 0 1 0"/>
    </filter>
    <path id="a" d="M0 0h45v10H0z"/>
    <path id="c" d="M0 0h45v10H0z"/>
    <path id="e" d="M0 0h45v10H0z"/>
    <path id="g" d="M0 0h45v10H0z"/>
    <path id="i" d="M0 0h45v10H0z"/>
    <path id="k" d="M0 0h45v10H0z"/>
    <path id="m" d="M0 0h26v10H0z"/>
    <path id="o" d="M0 0h45v10H0z"/>
    <path id="q" d="M0 0h26v10H0z"/>
    <path id="s" d="M0 0h26v10H0z"/>
  </defs>
  <g fill="none" fill-rule="evenodd">
    <path fill="#FFF" stroke="#0B0C0C" stroke-width="2" d="M1393 371h108v94h-108z"/>
    <path fill="#0B0C0C" d="M1392 370h110v10h-110z"/>
    <g transform="translate(1404 444)">
      <use fill="#00823B" xlink:href="#a"/>
      <use fill="#000" filter="url(#b)" xlink:href="#a"/>
    </g>
    <g fill="#BFC1C3">
      <path d="M1404 429h86v1h-86zM1404 421h86v1h-86zM1404 413h86v1h-86z"/>
    </g>
    <g fill="#005EA5">
      <path d="M1473 417h17v1h-17zM1473 433h17v1h-17zM1473 425h17v1h-17z"/>
    </g>
    <g fill="#0B0C0C">
      <path d="M1404 417h14v1h-14zM1426 417h38v1h-38zM1404 433h14v1h-14zM1426 433h38v1h-38zM1404 425h14v1h-14zM1426 425h38v1h-38z"/>
    </g>
    <text fill="#231F20" font-family="sans-serif" font-size="10" font-weight="bold" transform="translate(1404 385)">
      <tspan x="0" y="10">Personal details</tspan>
    </text>
    <path fill="#FFF" stroke="#0B0C0C" stroke-width="2" d="M1383 361h108v94h-108z"/>
    <path fill="#0B0C0C" d="M1382 360h110v10h-110z"/>
    <g transform="translate(1394 434)">
      <use fill="#00823B" xlink:href="#c"/>
      <use fill="#000" filter="url(#d)" xlink:href="#c"/>
    </g>
    <g fill="#BFC1C3">
      <path d="M1394 419h86v1h-86zM1394 411h86v1h-86zM1394 403h86v1h-86z"/>
    </g>
    <g fill="#005EA5">
      <path d="M1463 407h17v1h-17zM1463 423h17v1h-17zM1463 415h17v1h-17z"/>
    </g>
    <g fill="#0B0C0C">
      <path d="M1394 407h14v1h-14zM1416 407h38v1h-38zM1394 423h14v1h-14zM1416 423h38v1h-38zM1394 415h14v1h-14zM1416 415h38v1h-38z"/>
    </g>
    <text fill="#231F20" font-family="sans-serif" font-size="10" font-weight="bold" transform="translate(1394 375)">
      <tspan x="0" y="10">Personal details</tspan>
    </text>
    <path fill="#FFF" stroke="#0B0C0C" stroke-width="2" d="M1373 351h108v94h-108z"/>
    <path fill="#0B0C0C" d="M1372 350h110v10h-110z"/>
    <g transform="translate(1384 424)">
      <use fill="#00823B" xlink:href="#e"/>
      <use fill="#000" filter="url(#f)" xlink:href="#e"/>
    </g>
    <g fill="#BFC1C3">
      <path d="M1384 409h86v1h-86zM1384 401h86v1h-86zM1384 393h86v1h-86z"/>
    </g>
    <g fill="#005EA5">
      <path d="M1453 397h17v1h-17zM1453 413h17v1h-17zM1453 405h17v1h-17z"/>
    </g>
    <g fill="#0B0C0C">
      <path d="M1384 397h14v1h-14zM1406 397h38v1h-38zM1384 413h14v1h-14zM1406 413h38v1h-38zM1384 405h14v1h-14zM1406 405h38v1h-38z"/>
    </g>
    <text fill="#231F20" font-family="sans-serif" font-size="10" font-weight="bold" transform="translate(1384 365)">
      <tspan x="0" y="10">Personal details</tspan>
    </text>
    <path fill="#FD0" fill-opacity=".2" d="M647 240h240v80H647z"/>
    <text fill="#0B0C0C" font-family="sans-serif" font-size="11" font-weight="bold" transform="translate(647 240)">
      <tspan x="10" y="21">Apply 2 interstitial states:</tspan> <tspan x="10" y="40" font-size="10" font-weight="300">• How process differs (1 choice at a time)</tspan> <tspan x="10" y="54" font-size="10" font-weight="300">• That you can review and edit previous answers</tspan> <tspan x="10" y="68" font-size="10" font-weight="300">• That you can request new references</tspan>
    </text>
    <path fill="#FD0" fill-opacity=".2" d="M1527 456h240v110h-240z"/>
    <text fill="#0B0C0C" font-family="sans-serif" font-size="11" font-weight="bold" transform="translate(1527 456)">
      <tspan x="10" y="21">Review references</tspan> <tspan x="10" y="40" font-size="10" font-weight="300">• Suggest can replace references, but choosing </tspan> <tspan x="10" y="54" font-size="10" font-weight="300">a new referee will delay your application.</tspan> <tspan x="10" y="68" font-size="10" font-weight="300">• Show existing reference status to highlight </tspan> <tspan x="10" y="82" font-size="10" font-weight="300">those references are already there</tspan> <tspan x="10" y="96" font-size="10" font-weight="300">• Omit any references who declined</tspan>
    </text>
    <path fill="#FD0" fill-opacity=".2" d="M1307 240h240v80h-240z"/>
    <text fill="#0B0C0C" font-family="sans-serif" font-size="11" font-weight="bold" transform="translate(1307 240)">
      <tspan x="10" y="21">Review application answers</tspan> <tspan x="10" y="40" font-size="10" font-weight="300">Candidates have to explicitly mark each section </tspan> <tspan x="10" y="54" font-size="10" font-weight="300">as having been reviewed. Doing so updates </tspan> <tspan x="10" y="68" font-size="10" font-weight="300">status tag on application page.</tspan>
    </text>
    <path fill="#FD0" fill-opacity=".2" d="M1087 456h240v65h-240z"/>
    <text fill="#0B0C0C" font-family="sans-serif" font-size="11" font-weight="bold" transform="translate(1087 456)">
      <tspan x="10" y="21">Choosing a course</tspan> <tspan x="10" y="40" font-size="10" font-weight="300">• References to 3 choices replaced with 1 choice</tspan> <tspan x="10" y="54" font-size="10" font-weight="300">• ‘Add another course’ references removed</tspan>
    </text>
    <path fill="#FD0" fill-opacity=".2" d="M867 662h240v64H867z"/>
    <text fill="#0B0C0C" font-family="sans-serif" font-size="11" font-weight="bold" transform="translate(867 662)">
      <tspan x="10" y="21">Your previous applications</tspan> <tspan x="10" y="40" font-size="10" font-weight="300">We should provide a page that shows all </tspan> <tspan x="10" y="54" font-size="10" font-weight="300">previous applications, and their resolution.</tspan>
    </text>
    <path fill="#FD0" fill-opacity=".2" d="M1967 255h240v65h-240z"/>
    <text fill="#0B0C0C" font-family="sans-serif" font-size="11" font-weight="bold" transform="translate(1967 255)">
      <tspan x="10" y="21">Equality monitoring</tspan> <tspan x="10" y="40" font-size="10" font-weight="300">Do candidates need to confirm their answers from</tspan> <tspan x="10" y="54" font-size="10" font-weight="300"> Apply 1? If skipped in Apply 1, skip again?</tspan>
    </text>
    <path fill="#FD0" fill-opacity=".2" d="M2187 456h240v50h-240z"/>
    <text fill="#0B0C0C" font-family="sans-serif" font-size="11" transform="translate(2187 456)">
      <tspan x="10" y="21">There is no 5-day edit window after </tspan> <tspan x="10" y="36">submitting an Apply 2 application.</tspan>
    </text>
    <path fill="#FD0" fill-opacity=".2" d="M205 40h240v50H205z"/>
    <text fill="#0B0C0C" font-family="sans-serif" font-size="11" transform="translate(205 40)">
      <tspan x="10" y="21">Apply 2 email sent on same day candidate </tspan> <tspan x="10" y="36">becomes eligible for Apply 2.</tspan>
    </text>
    <path fill="#FFF" stroke="#0B0C0C" stroke-width="2" d="M261 341h108v94H261z"/>
    <path fill="#0B0C0C" d="M260 340h110v10H260zM267 409h22v1h-22z"/>
    <path fill="#FFF" stroke="#00703C" stroke-width="2" d="M267 382h96v16h-96z"/>
    <path fill="#0B0C0C" d="M267 415h72v1h-72zM267 423h72v1h-72zM267 419h72v1h-72zM267 427h40v1h-40z"/>
    <text fill="#231F20" font-family="sans-serif" font-size="10" font-weight="bold" transform="translate(267 355)">
      <tspan x="0" y="10">Application </tspan> <tspan x="0" y="21">dashboard</tspan>
    </text>
    <g>
      <path fill="#FFF" stroke="#0B0C0C" stroke-width="2" d="M923 341h108v94H923z"/>
      <path fill="#0B0C0C" d="M922 340h110v10H922z"/>
      <g fill="#BFC1C3">
        <path d="M934 399h86v1h-86zM934 391h86v1h-86zM934 383h86v1h-86z"/>
      </g>
      <g fill="#005EA5">
        <path d="M1003 387h17v1h-17zM1003 403h17v1h-17zM1003 395h17v1h-17z"/>
      </g>
      <g fill="#0B0C0C">
        <path d="M934 387h14v1h-14zM956 387h38v1h-38zM934 403h14v1h-14zM956 403h38v1h-38zM934 395h14v1h-14zM956 395h38v1h-38z"/>
      </g>
      <text fill="#231F20" font-family="sans-serif" font-size="10" font-weight="bold" transform="translate(934 355)">
        <tspan x="0" y="10">Your application</tspan>
      </text>
    </g>
    <path fill="#1D70B8" d="M934 418h30v2h-30z"/>
    <g>
      <path fill="#FFF" stroke="#0B0C0C" stroke-width="2" d="M1363 341h108v94h-108z"/>
      <path fill="#0B0C0C" d="M1362 340h110v10h-110z"/>
      <g transform="translate(1374 414)">
        <use fill="#00823B" xlink:href="#g"/>
        <use fill="#000" filter="url(#h)" xlink:href="#g"/>
      </g>
      <g fill="#BFC1C3">
        <path d="M1374 399h86v1h-86zM1374 391h86v1h-86zM1374 383h86v1h-86z"/>
      </g>
      <g fill="#005EA5">
        <path d="M1443 387h17v1h-17zM1443 403h17v1h-17zM1443 395h17v1h-17z"/>
      </g>
      <g fill="#0B0C0C">
        <path d="M1374 387h14v1h-14zM1396 387h38v1h-38zM1374 403h14v1h-14zM1396 403h38v1h-38zM1374 395h14v1h-14zM1396 395h38v1h-38z"/>
      </g>
      <text fill="#231F20" font-family="sans-serif" font-size="10" font-weight="bold" transform="translate(1374 355)">
        <tspan x="0" y="10">Personal details</tspan>
      </text>
    </g>
    <g>
      <path fill="#FFF" stroke="#0B0C0C" stroke-width="2" d="M1583 341h108v94h-108z"/>
      <path fill="#0B0C0C" d="M1582 340h110v10h-110z"/>
      <g transform="translate(1594 414)">
        <use fill="#00823B" xlink:href="#i"/>
        <use fill="#000" filter="url(#j)" xlink:href="#i"/>
      </g>
      <g fill="#BFC1C3">
        <path d="M1594 399h86v1h-86zM1594 391h86v1h-86zM1594 383h86v1h-86z"/>
      </g>
      <g fill="#005EA5">
        <path d="M1663 387h17v1h-17zM1663 403h17v1h-17zM1663 395h17v1h-17z"/>
      </g>
      <g fill="#0B0C0C">
        <path d="M1594 387h14v1h-14zM1616 387h38v1h-38zM1594 403h14v1h-14zM1616 403h38v1h-38zM1594 395h14v1h-14zM1616 395h38v1h-38z"/>
      </g>
      <text fill="#231F20" font-family="sans-serif" font-size="10" font-weight="bold" transform="translate(1594 355)">
        <tspan x="0" y="10">References</tspan>
      </text>
    </g>
    <g>
      <path fill="#FFF" stroke="#0B0C0C" stroke-width="2" d="M1803 341h108v94h-108z"/>
      <path fill="#0B0C0C" d="M1802 340h110v10h-110z"/>
      <g transform="translate(1814 414)">
        <use fill="#00823B" xlink:href="#k"/>
        <use fill="#000" filter="url(#l)" xlink:href="#k"/>
      </g>
      <g fill="#BFC1C3">
        <path d="M1814 399h86v1h-86zM1814 391h86v1h-86zM1814 383h86v1h-86z"/>
      </g>
      <g fill="#005EA5">
        <path d="M1883 387h17v1h-17zM1883 403h17v1h-17zM1883 395h17v1h-17z"/>
      </g>
      <g fill="#0B0C0C">
        <path d="M1814 387h14v1h-14zM1836 387h38v1h-38zM1814 403h14v1h-14zM1836 403h38v1h-38zM1814 395h14v1h-14zM1836 395h38v1h-38z"/>
      </g>
      <text fill="#231F20" font-family="sans-serif" font-size="10" font-weight="bold" transform="translate(1814 355)">
        <tspan x="0" y="10">Review your </tspan> <tspan x="0" y="21">application</tspan>
      </text>
    </g>
    <g>
      <path fill="#FFF" stroke="#0B0C0C" stroke-width="2" d="M2023 341h108v94h-108z"/>
      <path fill="#0B0C0C" d="M2022 340h110v10h-110z"/>
      <g fill="#0B0C0C">
        <path d="M2029 383h22v1h-22zM2029 389h72v1h-72zM2029 397h72v1h-72zM2029 393h72v1h-72zM2029 401h40v1h-40z"/>
      </g>
      <text fill="#231F20" font-family="sans-serif" font-size="10" font-weight="bold" transform="translate(2029 355)">
        <tspan x="0" y="10">Submit</tspan>
      </text>
      <g transform="translate(2029 414)">
        <use fill="#00823B" xlink:href="#m"/>
        <use fill="#000" filter="url(#n)" xlink:href="#m"/>
      </g>
    </g>
    <g>
      <path fill="#FFF" stroke="#0B0C0C" stroke-width="2" d="M2243 341h108v94h-108z"/>
      <path fill="#0B0C0C" d="M2242 340h110v10h-110zM2249 383h22v1h-22zM2249 389h72v1h-72zM2249 397h72v1h-72zM2249 393h72v1h-72zM2249 401h40v1h-40z"/>
      <path fill="#00823B" d="M2249 355h72v23h-72z"/>
      <text fill="#FFF" font-family="sans-serif" font-size="7" font-weight="bold" transform="translate(2249 355)">
        <tspan x="14.6" y="10.6">Confirmation</tspan>
      </text>
    </g>
    <g>
      <path fill="#FFF" stroke="#0B0C0C" stroke-width="2" d="M923 547h108v94H923z"/>
      <path fill="#0B0C0C" d="M922 546h110v10H922z"/>
      <g transform="translate(934 620)">
        <use fill="#00823B" xlink:href="#o"/>
        <use fill="#000" filter="url(#p)" xlink:href="#o"/>
      </g>
      <g fill="#BFC1C3">
        <path d="M934 605h86v1h-86zM934 597h86v1h-86zM934 589h86v1h-86z"/>
      </g>
      <g fill="#005EA5">
        <path d="M1003 593h17v1h-17zM1003 609h17v1h-17zM1003 601h17v1h-17z"/>
      </g>
      <g fill="#0B0C0C">
        <path d="M934 593h14v1h-14zM956 593h38v1h-38zM934 609h14v1h-14zM956 609h38v1h-38zM934 601h14v1h-14zM956 601h38v1h-38z"/>
      </g>
      <text fill="#231F20" font-family="sans-serif" font-size="10" font-weight="bold" transform="translate(934 561)">
        <tspan x="0" y="10">Your previous </tspan> <tspan x="0" y="21">applications</tspan>
      </text>
    </g>
    <g>
      <path fill="#FFF" stroke="#0B0C0C" stroke-width="2" d="M703 341h108v94H703z"/>
      <path fill="#0B0C0C" d="M702 340h110v10H702z"/>
      <g fill="#0B0C0C">
        <path d="M709 383h22v1h-22zM709 389h72v1h-72zM709 397h72v1h-72zM709 393h72v1h-72zM709 401h40v1h-40z"/>
      </g>
      <text fill="#231F20" font-family="sans-serif" font-size="10" font-weight="bold" transform="translate(709 355)">
        <tspan x="0" y="10">Apply again</tspan>
      </text>
      <g transform="translate(709 414)">
        <use fill="#00823B" xlink:href="#q"/>
        <use fill="#000" filter="url(#r)" xlink:href="#q"/>
      </g>
    </g>
    <g>
      <path fill="#FFF" stroke="#0B0C0C" stroke-width="2" d="M261 135h108v94H261z"/>
      <path fill="#0B0C0C" d="M260 134h110v10H260zM267 177h22v1h-22zM267 183h72v1h-72zM267 191h72v1h-72zM267 187h72v1h-72zM267 195h40v1h-40z"/>
      <text fill="#231F20" font-family="sans-serif" font-size="10" font-weight="bold" transform="translate(267 149)">
        <tspan x="0" y="10">Do you want to </tspan> <tspan x="0" y="21">apply again?</tspan>
      </text>
    </g>
    <g>
      <path fill="#FFF" stroke="#0B0C0C" stroke-width="2" d="M703 547h108v94H703z"/>
      <path fill="#0B0C0C" d="M702 546h110v10H702zM709 589h22v1h-22zM709 595h72v1h-72zM709 603h72v1h-72zM709 599h72v1h-72zM709 607h40v1h-40z"/>
      <text fill="#231F20" font-family="sans-serif" font-size="10" font-weight="bold" transform="translate(709 561)">
        <tspan x="0" y="10">You can still apply </tspan> <tspan x="0" y="21">again</tspan>
      </text>
    </g>
    <path fill="#0B0C0C" fill-rule="nonzero" d="M197 387a1 1 0 010 2h-2a1 1 0 010-2h2zm5-1l-1 2h-1a1 1 0 110-2h2zm3-4v3a1 1 0 11-2-1l1-1 1-1zm1-4l1 1v1a1 1 0 01-2-1l1-1zm0-5h1v2a1 1 0 01-2 0v-1l1-1zm0-5h1v2a1 1 0 01-2 0v-1l1-1zm0-5h1v2a1 1 0 01-2 0v-1l1-1zm0-5h1v2a1 1 0 01-2 0v-1l1-1zm0-5h1v2a1 1 0 01-2 0v-1l1-1zm0-5h1v2a1 1 0 01-2 0v-1l1-1zm0-5h1v2a1 1 0 01-2 0v-1l1-1zm0-5h1v2a1 1 0 01-2 0v-1l1-1zm0-5h1v2a1 1 0 01-2 0v-1l1-1zm0-5h1v2a1 1 0 01-2 0v-1l1-1zm0-5h1v2a1 1 0 01-2 0v-1l1-1zm0-5h1v2a1 1 0 01-2 0v-1l1-1zm0-5h1v2a1 1 0 01-2 0v-1l1-1zm0-5h1v2a1 1 0 01-2 0v-1l1-1zm0-5h1v2a1 1 0 01-2 0v-1l1-1zm0-5h1v2a1 1 0 01-2 0v-1l1-1zm0-5h1v2a1 1 0 01-2 0v-1l1-1zm0-5h1v2a1 1 0 01-2 0v-1l1-1zm0-5h1v2a1 1 0 01-2 0v-1l1-1zm0-5h1v2a1 1 0 01-2 0v-1l1-1zm0-5h1v2a1 1 0 01-2 0v-1l1-1zm0-5h1v2a1 1 0 01-2 0v-1l1-1zm0-5h1v2a1 1 0 01-2 0v-1l1-1zm0-5h1v2a1 1 0 01-2 0v-1l1-1zm0-5h1v2a1 1 0 01-2 0v-1l1-1zm0-5h1v2a1 1 0 01-2 0v-1l1-1zm0-5h1v2a1 1 0 01-2 0v-1l1-1zm0-5h1v2a1 1 0 01-2 0v-1l1-1zm0-5h1v2a1 1 0 01-2 0v-1l1-1zm0-5h1v2a1 1 0 01-2 0v-1l1-1zm0-5h1v2a1 1 0 01-2 0v-1l1-1zm0-5h1v2a1 1 0 01-2 0v-1l1-1zm0-5h1v2a1 1 0 01-2 0v-1l1-1zm0-5h1v2a1 1 0 01-2 0v-1l1-1zm0-5h1v2a1 1 0 01-2 0v-1l1-1zm0-5h1v2a1 1 0 01-2 0v-1l1-1zm0-5l1 1v1a1 1 0 01-2 0v-1l1-1zm42-16l12 6a1 1 0 010 2l-12 6a1 1 0 01-1-1v-12l1-1zm-41 11l1 1v1a1 1 0 11-2-1v-1h1zm4-3v1h-1a1 1 0 01-1-1l1-1 1 1zm4-2a1 1 0 010 2h-1a1 1 0 110-2h1zm5 0a1 1 0 010 2h-1a1 1 0 010-2h1zm5 0a1 1 0 010 2h-1a1 1 0 010-2h1zm5 0a1 1 0 010 2h-1a1 1 0 010-2h1zm5 0a1 1 0 010 2h-1a1 1 0 010-2h1zm5 0a1 1 0 010 2h-1a1 1 0 010-2h1zm5 0a1 1 0 010 2h-1a1 1 0 010-2h1z"/>
    <path stroke="#0B0C0C" stroke-dasharray="1 4" stroke-linecap="round" stroke-linejoin="round" stroke-width="2" d="M435 388c-6 0-10-4-10-10V194c0-7-3-10-10-10h-45"/>
    <g>
      <path fill="#6F777B" d="M40 340h110v96H40z"/>
      <text fill="#FFF" font-family="sans-serif" font-size="10" font-weight="bold" transform="translate(40 340)">
        <tspan x="32.7" y="37">Candidate </tspan> <tspan x="17.9" y="51">becomes eligible </tspan> <tspan x="31.9" y="65">for Apply 2</tspan>
      </text>
    </g>
    <path fill="#0B0C0C" fill-rule="nonzero" d="M690 381l12 6a1 1 0 010 2l-12 6a1 1 0 01-1-1v-12l1-1zm-319 6a1 1 0 010 2h-1a1 1 0 010-2h1zm5 0a1 1 0 010 2h-1a1 1 0 010-2h1zm5 0a1 1 0 010 2h-1a1 1 0 010-2h1zm5 0a1 1 0 010 2h-1a1 1 0 010-2h1zm5 0a1 1 0 010 2h-1a1 1 0 010-2h1zm5 0a1 1 0 010 2h-1a1 1 0 010-2h1zm5 0a1 1 0 010 2h-1a1 1 0 010-2h1zm5 0a1 1 0 010 2h-1a1 1 0 010-2h1zm5 0a1 1 0 010 2h-1a1 1 0 010-2h1zm5 0a1 1 0 010 2h-1a1 1 0 010-2h1zm5 0a1 1 0 010 2h-1a1 1 0 010-2h1zm5 0a1 1 0 010 2h-1a1 1 0 010-2h1zm5 0a1 1 0 010 2h-1a1 1 0 010-2h1zm5 0a1 1 0 010 2h-1a1 1 0 010-2h1zm5 0a1 1 0 010 2h-1a1 1 0 010-2h1zm5 0a1 1 0 010 2h-1a1 1 0 010-2h1zm5 0a1 1 0 010 2h-1a1 1 0 010-2h1zm5 0a1 1 0 010 2h-1a1 1 0 010-2h1zm5 0a1 1 0 010 2h-1a1 1 0 010-2h1zm5 0a1 1 0 010 2h-1a1 1 0 010-2h1zm5 0a1 1 0 010 2h-1a1 1 0 010-2h1zm5 0a1 1 0 010 2h-1a1 1 0 010-2h1zm5 0a1 1 0 010 2h-1a1 1 0 010-2h1zm5 0a1 1 0 010 2h-1a1 1 0 010-2h1zm5 0a1 1 0 010 2h-1a1 1 0 010-2h1zm5 0a1 1 0 010 2h-1a1 1 0 010-2h1zm5 0a1 1 0 010 2h-1a1 1 0 010-2h1zm5 0a1 1 0 010 2h-1a1 1 0 010-2h1zm5 0a1 1 0 010 2h-1a1 1 0 010-2h1zm5 0a1 1 0 010 2h-1a1 1 0 010-2h1zm5 0a1 1 0 010 2h-1a1 1 0 010-2h1zm5 0a1 1 0 010 2h-1a1 1 0 010-2h1zm5 0a1 1 0 010 2h-1a1 1 0 010-2h1zm5 0a1 1 0 010 2h-1a1 1 0 010-2h1zm5 0a1 1 0 010 2h-1a1 1 0 010-2h1zm5 0a1 1 0 010 2h-1a1 1 0 010-2h1zm5 0a1 1 0 010 2h-1a1 1 0 010-2h1zm5 0a1 1 0 010 2h-1a1 1 0 010-2h1zm5 0a1 1 0 010 2h-1a1 1 0 010-2h1zm5 0a1 1 0 010 2h-1a1 1 0 010-2h1zm5 0a1 1 0 010 2h-1a1 1 0 010-2h1zm5 0a1 1 0 010 2h-1a1 1 0 010-2h1zm5 0a1 1 0 010 2h-1a1 1 0 010-2h1zm5 0a1 1 0 010 2h-1a1 1 0 010-2h1zm5 0a1 1 0 010 2h-1a1 1 0 010-2h1zm5 0a1 1 0 010 2h-1a1 1 0 010-2h1zm5 0a1 1 0 010 2h-1a1 1 0 010-2h1zm5 0a1 1 0 010 2h-1a1 1 0 010-2h1zm5 0a1 1 0 010 2h-1a1 1 0 010-2h1zm5 0a1 1 0 010 2h-1a1 1 0 010-2h1zm5 0a1 1 0 010 2h-1a1 1 0 010-2h1zm5 0a1 1 0 010 2h-1a1 1 0 010-2h1zm5 0a1 1 0 010 2h-1a1 1 0 010-2h1zm5 0a1 1 0 010 2h-1a1 1 0 010-2h1zm5 0a1 1 0 010 2h-1a1 1 0 010-2h1zm5 0a1 1 0 010 2h-1a1 1 0 010-2h1zm5 0a1 1 0 010 2h-1a1 1 0 010-2h1zm5 0a1 1 0 010 2h-1a1 1 0 010-2h1zm5 0a1 1 0 010 2h-1a1 1 0 010-2h1zm5 0a1 1 0 010 2h-1a1 1 0 010-2h1zm5 0a1 1 0 010 2h-1a1 1 0 010-2h1zm5 0a1 1 0 010 2h-1a1 1 0 010-2h1zm5 0a1 1 0 010 2h-1a1 1 0 010-2h1zm5 0a1 1 0 010 2h-1a1 1 0 010-2h1z"/>
    <text fill="#1D70B8" font-family="sans-serif" font-size="12" font-weight="bold">
      <tspan x="483.3" y="350">Candidate wants to </tspan> <tspan x="505.2" y="361">apply again</tspan>
    </text>
    <path fill="#1D70B8" stroke="#FFF" stroke-linecap="round" stroke-linejoin="round" stroke-width="3" d="M535 372l16 16-16 16-16-16z"/>
    <path fill="#0B0C0C" fill-rule="nonzero" d="M690 587l12 6a1 1 0 010 2l-12 6a1 1 0 01-1-1v-5h-1a1 1 0 010-2h1v-5l1-1zm-6 6a1 1 0 011 2h-2a1 1 0 010-2h1zm-5 0a1 1 0 011 2h-2a1 1 0 010-2h1zm-5 0a1 1 0 011 2h-2a1 1 0 010-2h1zm-5 0a1 1 0 011 2h-2a1 1 0 010-2h1zm-5 0a1 1 0 011 2h-2a1 1 0 010-2h1zm-5 0a1 1 0 011 2h-2a1 1 0 010-2h1zm-5 0a1 1 0 011 2h-2a1 1 0 010-2h1zm-5 0a1 1 0 011 2h-2a1 1 0 010-2h1zm-5 0a1 1 0 011 2h-2a1 1 0 010-2h1zm-5 0a1 1 0 011 2h-2a1 1 0 010-2h1zm-5 0a1 1 0 011 2h-2a1 1 0 010-2h1zm-5 0a1 1 0 011 2h-2a1 1 0 010-2h1zm-5 0a1 1 0 011 2h-2a1 1 0 010-2h1zm-5 0a1 1 0 011 2h-2a1 1 0 010-2h1zm-5 0a1 1 0 011 2h-2a1 1 0 010-2h1zm-5 0a1 1 0 011 2h-2a1 1 0 010-2h1zm-5 0a1 1 0 011 2h-2a1 1 0 010-2h1zm-5 0a1 1 0 011 2h-2a1 1 0 010-2h1zm-5 0a1 1 0 011 2h-2a1 1 0 010-2h1zm-5 0a1 1 0 011 2h-2a1 1 0 010-2h1zm-5 0a1 1 0 011 2h-2a1 1 0 010-2h1zm-5 0a1 1 0 011 2h-2a1 1 0 010-2h1zm-5 0a1 1 0 011 2h-2a1 1 0 010-2h1zm-5 0a1 1 0 011 2h-2a1 1 0 010-2h1zm-5 0a1 1 0 011 2h-2a1 1 0 010-2h1zm-5 0a1 1 0 011 2h-2a1 1 0 010-2h1zm-5 0a1 1 0 011 2h-2a1 1 0 010-2h1zm-5 0a1 1 0 011 2h-2a1 1 0 010-2h1zm-6 0h1a1 1 0 110 2h-1a1 1 0 010-2zm-4-2l1 1a1 1 0 01-1 1h-1a1 1 0 111-2zm-2-3a1 1 0 01-2 1v-1a1 1 0 112 0zm-2-6l1 1v2a1 1 0 01-2 0v-2l1-1zm0-5l1 1v1a1 1 0 01-2 0v-1l1-1zm0-5l1 1v1a1 1 0 01-2 0v-1l1-1zm0-5l1 1v1a1 1 0 01-2 0v-1l1-1zm0-5l1 1v1a1 1 0 01-2 0v-1l1-1zm0-5l1 1v1a1 1 0 01-2 0v-1l1-1zm0-5l1 1v1a1 1 0 01-2 0v-1l1-1zm0-5l1 1v1a1 1 0 01-2 0v-1l1-1zm0-5l1 1v1a1 1 0 01-2 0v-1l1-1zm0-5l1 1v1a1 1 0 01-2 0v-1l1-1zm0-5l1 1v1a1 1 0 01-2 0v-1l1-1zm0-5l1 1v1a1 1 0 01-2 0v-1l1-1zm0-5l1 1v1a1 1 0 01-2 0v-1l1-1zm0-5l1 1v1a1 1 0 01-2 0v-1l1-1zm0-5l1 1v1a1 1 0 01-2 0v-1l1-1zm0-5l1 1v1a1 1 0 01-2 0v-1l1-1zm0-5l1 1v1a1 1 0 01-2 0v-1l1-1zm0-5l1 1v1a1 1 0 01-2 0v-1l1-1zm0-5l1 1v1a1 1 0 01-2 0v-1l1-1zm0-5l1 1v1a1 1 0 01-2 0v-1l1-1zm0-5l1 1v1a1 1 0 01-2 0v-1l1-1zm0-5l1 1v1a1 1 0 01-2 0v-1l1-1zm0-5l1 1v1a1 1 0 01-2 0v-1l1-1zm0-5l1 1v1a1 1 0 01-2 0v-1l1-1zm0-5l1 1v1a1 1 0 01-2 0v-1l1-1zm0-5l1 1v1a1 1 0 01-2 0v-1l1-1zm0-5l1 1v1a1 1 0 01-2 0v-1l1-1zm0-5l1 1v1a1 1 0 01-2 0v-1l1-1zm0-5l1 1v1a1 1 0 01-2 0v-1l1-1zm0-5l1 1v1a1 1 0 01-2 0v-1l1-1zm0-5l1 1v1a1 1 0 01-2 0v-1l1-1zm0-5l1 1v1a1 1 0 01-2 0v-1l1-1zm0-5l1 1v1a1 1 0 01-2 0v-1l1-1zm0-5l1 1v1a1 1 0 01-2 0v-1l1-1zm0-5l1 1v1a1 1 0 01-2 0v-1l1-1zm0-5l1 1v1a1 1 0 01-2 0v-1l1-1zm0-5l1 1v1a1 1 0 01-2 0v-1l1-1z"/>
    <text fill="#0B0C0C" font-family="sans-serif" font-size="12" font-weight="bold">
      <tspan x="543" y="415">No</tspan>
    </text>
    <text fill="#0B0C0C" font-family="sans-serif" font-size="12" font-weight="bold">
      <tspan x="557" y="505">Chaser email sent 10 working</tspan> <tspan x="557" y="519">days(?) after initial email, </tspan> <tspan x="557" y="533">encouraging candidates </tspan> <tspan x="557" y="547">to apply again.</tspan>
    </text>
    <g stroke="#0B0C0C" stroke-width="2">
      <path fill="#FFF" d="M350 120h40v28h-40z"/>
      <path d="M350 120l20 15 20-15M350 148l17-14M390 148l-17-14"/>
    </g>
    <g stroke="#0B0C0C" stroke-width="2">
      <path fill="#FFF" d="M792 532h40v28h-40z"/>
      <path d="M792 532l20 15 20-15M792 560l18-14M833 560l-18-14"/>
    </g>
    <path fill="#0B0C0C" fill-rule="nonzero" d="M246 381l12 6a1 1 0 010 2l-12 6a1 1 0 01-1-1v-5h-2a1 1 0 010-2h2v-5l1-1zm-97 6a1 1 0 010 2h-1a1 1 0 010-2h1zm5 0a1 1 0 010 2h-1a1 1 0 010-2h1zm5 0a1 1 0 010 2h-1a1 1 0 010-2h1zm5 0a1 1 0 010 2h-1a1 1 0 010-2h1zm5 0a1 1 0 010 2h-1a1 1 0 010-2h1zm5 0a1 1 0 010 2h-1a1 1 0 010-2h1zm5 0a1 1 0 010 2h-1a1 1 0 010-2h1zm5 0a1 1 0 010 2h-1a1 1 0 010-2h1zm5 0a1 1 0 010 2h-1a1 1 0 010-2h1zm5 0a1 1 0 010 2h-1a1 1 0 010-2h1zm5 0a1 1 0 010 2h-1a1 1 0 010-2h1zm5 0a1 1 0 010 2h-1a1 1 0 010-2h1zm5 0a1 1 0 010 2h-1a1 1 0 010-2h1zm5 0a1 1 0 010 2h-1a1 1 0 010-2h1zm5 0a1 1 0 010 2h-1a1 1 0 010-2h1zm5 0a1 1 0 010 2h-1a1 1 0 010-2h1zm5 0a1 1 0 010 2h-1a1 1 0 010-2h1zm5 0a1 1 0 010 2h-1a1 1 0 010-2h1zm5 0a1 1 0 010 2h-1a1 1 0 010-2h1z"/>
    <circle cx="535" cy="498" r="14" fill="#1D70B8"/>
    <path fill="#0B0C0C" fill-rule="nonzero" d="M757 544l1 1v1a1 1 0 01-2 0v-1l1-1zm0-5l1 1v1a1 1 0 01-2 0v-1l1-1zm0-5l1 1v1a1 1 0 01-2 0v-1l1-1zm0-5l1 1v1a1 1 0 01-2 0v-1l1-1zm0-5l1 1v1a1 1 0 01-2 0v-1l1-1zm0-5l1 1v1a1 1 0 01-2 0v-1l1-1zm0-5l1 1v1a1 1 0 01-2 0v-1l1-1zm0-5l1 1v1a1 1 0 01-2 0v-1l1-1zm0-5l1 1v1a1 1 0 01-2 0v-1l1-1zm0-5l1 1v1a1 1 0 01-2 0v-1l1-1zm0-5l1 1v1a1 1 0 01-2 0v-1l1-1zm0-5l1 1v1a1 1 0 01-2 0v-1l1-1zm0-5l1 1v1a1 1 0 01-2 0v-1l1-1zm0-5l1 1v1a1 1 0 01-2 0v-1l1-1zm0-5l1 1v1a1 1 0 01-2 0v-1l1-1zm0-5l1 1v1a1 1 0 01-2 0v-1l1-1zm0-5l1 1v1a1 1 0 01-2 0v-1l1-1zm0-5l1 1v1a1 1 0 01-2 0v-1l1-1zm0-5l1 1v1a1 1 0 01-2 0v-1l1-1zm-1-18a1 1 0 012 0l6 12a1 1 0 01-1 1h-5v2a1 1 0 01-2 0v-1-1h-5a1 1 0 01-1-1z"/>
    <path stroke="#0B0C0C" stroke-width="2" d="M930 413h39v12h-39z"/>
    <text fill="#0B0C0C" font-family="sans-serif" font-size="6" font-weight="bold">
      <tspan x="271" y="392">Do you want to apply again?</tspan>
    </text>
    <path fill="#0B0C0C" fill-rule="nonzero" d="M910 381l12 6a1 1 0 010 2l-12 6a1 1 0 01-1-1v-5h-2a1 1 0 010-2h2v-5l1-1zm-97 6a1 1 0 010 2h-1a1 1 0 010-2h1zm5 0a1 1 0 010 2h-1a1 1 0 010-2h1zm5 0a1 1 0 010 2h-1a1 1 0 010-2h1zm5 0a1 1 0 010 2h-1a1 1 0 010-2h1zm5 0a1 1 0 010 2h-1a1 1 0 010-2h1zm5 0a1 1 0 010 2h-1a1 1 0 010-2h1zm5 0a1 1 0 010 2h-1a1 1 0 010-2h1zm5 0a1 1 0 010 2h-1a1 1 0 010-2h1zm5 0a1 1 0 010 2h-1a1 1 0 010-2h1zm5 0a1 1 0 010 2h-1a1 1 0 010-2h1zm5 0a1 1 0 010 2h-1a1 1 0 010-2h1zm5 0a1 1 0 010 2h-1a1 1 0 010-2h1zm5 0a1 1 0 010 2h-1a1 1 0 010-2h1zm5 0a1 1 0 010 2h-1a1 1 0 010-2h1zm5 0a1 1 0 010 2h-1a1 1 0 010-2h1zm5 0a1 1 0 010 2h-1a1 1 0 010-2h1zm5 0a1 1 0 010 2h-1a1 1 0 010-2h1zm5 0a1 1 0 010 2h-1a1 1 0 010-2h1zm5 0a1 1 0 010 2h-1a1 1 0 010-2h1z"/>
    <g>
      <path fill="#FFF" stroke="#0B0C0C" stroke-dasharray="1 4" stroke-linecap="square" stroke-width="2" d="M1142 340h110v96h-110v-96z"/>
      <text fill="#0B0C0C" font-family="sans-serif" font-size="10" font-weight="bold" transform="translate(1142 340)">
        <tspan x="34.8" y="44">Choose a</tspan> <tspan x="29.3" y="58">course flow</tspan>
      </text>
    </g>
    <path fill="#0B0C0C" fill-rule="nonzero" d="M1130 381l12 6a1 1 0 010 2l-12 6a1 1 0 01-1-1v-5h-2a1 1 0 010-2h2v-5l1-1zm-97 6a1 1 0 010 2h-1a1 1 0 010-2h1zm5 0a1 1 0 010 2h-1a1 1 0 010-2h1zm5 0a1 1 0 010 2h-1a1 1 0 010-2h1zm5 0a1 1 0 010 2h-1a1 1 0 010-2h1zm5 0a1 1 0 010 2h-1a1 1 0 010-2h1zm5 0a1 1 0 010 2h-1a1 1 0 010-2h1zm5 0a1 1 0 010 2h-1a1 1 0 010-2h1zm5 0a1 1 0 010 2h-1a1 1 0 010-2h1zm5 0a1 1 0 010 2h-1a1 1 0 010-2h1zm5 0a1 1 0 010 2h-1a1 1 0 010-2h1zm5 0a1 1 0 010 2h-1a1 1 0 010-2h1zm5 0a1 1 0 010 2h-1a1 1 0 010-2h1zm5 0a1 1 0 010 2h-1a1 1 0 010-2h1zm5 0a1 1 0 010 2h-1a1 1 0 010-2h1zm5 0a1 1 0 010 2h-1a1 1 0 010-2h1zm5 0a1 1 0 010 2h-1a1 1 0 010-2h1zm5 0a1 1 0 010 2h-1a1 1 0 010-2h1zm5 0a1 1 0 010 2h-1a1 1 0 010-2h1zm5 0a1 1 0 010 2h-1a1 1 0 010-2h1zm227-6l12 6a1 1 0 010 2l-12 6a1 1 0 01-1-1v-5h-2a1 1 0 010-2h2v-5l1-1zm-97 6a1 1 0 010 2h-1a1 1 0 010-2h1zm5 0a1 1 0 010 2h-1a1 1 0 010-2h1zm5 0a1 1 0 010 2h-1a1 1 0 010-2h1zm5 0a1 1 0 010 2h-1a1 1 0 010-2h1zm5 0a1 1 0 010 2h-1a1 1 0 010-2h1zm5 0a1 1 0 010 2h-1a1 1 0 010-2h1zm5 0a1 1 0 010 2h-1a1 1 0 010-2h1zm5 0a1 1 0 010 2h-1a1 1 0 010-2h1zm5 0a1 1 0 010 2h-1a1 1 0 010-2h1zm5 0a1 1 0 010 2h-1a1 1 0 010-2h1zm5 0a1 1 0 010 2h-1a1 1 0 010-2h1zm5 0a1 1 0 010 2h-1a1 1 0 010-2h1zm5 0a1 1 0 010 2h-1a1 1 0 010-2h1zm5 0a1 1 0 010 2h-1a1 1 0 010-2h1zm5 0a1 1 0 010 2h-1a1 1 0 010-2h1zm5 0a1 1 0 010 2h-1a1 1 0 010-2h1zm5 0a1 1 0 010 2h-1a1 1 0 010-2h1zm5 0a1 1 0 010 2h-1a1 1 0 010-2h1zm5 0a1 1 0 010 2h-1a1 1 0 010-2h1zm227-6l12 6a1 1 0 010 2l-12 6a1 1 0 01-1-1v-5h-2a1 1 0 010-2h2v-5l1-1zm-97 6a1 1 0 010 2h-1a1 1 0 010-2h1zm5 0a1 1 0 010 2h-1a1 1 0 010-2h1zm5 0a1 1 0 010 2h-1a1 1 0 010-2h1zm5 0a1 1 0 010 2h-1a1 1 0 010-2h1zm5 0a1 1 0 010 2h-1a1 1 0 010-2h1zm5 0a1 1 0 010 2h-1a1 1 0 010-2h1zm5 0a1 1 0 010 2h-1a1 1 0 010-2h1zm5 0a1 1 0 010 2h-1a1 1 0 010-2h1zm5 0a1 1 0 010 2h-1a1 1 0 010-2h1zm5 0a1 1 0 010 2h-1a1 1 0 010-2h1zm5 0a1 1 0 010 2h-1a1 1 0 010-2h1zm5 0a1 1 0 010 2h-1a1 1 0 010-2h1zm5 0a1 1 0 010 2h-1a1 1 0 010-2h1zm5 0a1 1 0 010 2h-1a1 1 0 010-2h1zm5 0a1 1 0 010 2h-1a1 1 0 010-2h1zm5 0a1 1 0 010 2h-1a1 1 0 010-2h1zm5 0a1 1 0 010 2h-1a1 1 0 010-2h1zm5 0a1 1 0 010 2h-1a1 1 0 010-2h1zm5 0a1 1 0 010 2h-1a1 1 0 010-2h1zm227-6l12 6a1 1 0 010 2l-12 6a1 1 0 01-1-1v-5h-2a1 1 0 010-2h2v-5l1-1zm-97 6a1 1 0 010 2h-1a1 1 0 010-2h1zm5 0a1 1 0 010 2h-1a1 1 0 010-2h1zm5 0a1 1 0 010 2h-1a1 1 0 010-2h1zm5 0a1 1 0 010 2h-1a1 1 0 010-2h1zm5 0a1 1 0 010 2h-1a1 1 0 010-2h1zm5 0a1 1 0 010 2h-1a1 1 0 010-2h1zm5 0a1 1 0 010 2h-1a1 1 0 010-2h1zm5 0a1 1 0 010 2h-1a1 1 0 010-2h1zm5 0a1 1 0 010 2h-1a1 1 0 010-2h1zm5 0a1 1 0 010 2h-1a1 1 0 010-2h1zm5 0a1 1 0 010 2h-1a1 1 0 010-2h1zm5 0a1 1 0 010 2h-1a1 1 0 010-2h1zm5 0a1 1 0 010 2h-1a1 1 0 010-2h1zm5 0a1 1 0 010 2h-1a1 1 0 010-2h1zm5 0a1 1 0 010 2h-1a1 1 0 010-2h1zm5 0a1 1 0 010 2h-1a1 1 0 010-2h1zm5 0a1 1 0 010 2h-1a1 1 0 010-2h1zm5 0a1 1 0 010 2h-1a1 1 0 010-2h1zm5 0a1 1 0 010 2h-1a1 1 0 010-2h1zm227-6l12 6a1 1 0 010 2l-12 6a1 1 0 01-1-1v-5h-2a1 1 0 010-2h2v-5l1-1zm-97 6a1 1 0 010 2h-1a1 1 0 010-2h1zm5 0a1 1 0 010 2h-1a1 1 0 010-2h1zm5 0a1 1 0 010 2h-1a1 1 0 010-2h1zm5 0a1 1 0 010 2h-1a1 1 0 010-2h1zm5 0a1 1 0 010 2h-1a1 1 0 010-2h1zm5 0a1 1 0 010 2h-1a1 1 0 010-2h1zm5 0a1 1 0 010 2h-1a1 1 0 010-2h1zm5 0a1 1 0 010 2h-1a1 1 0 010-2h1zm5 0a1 1 0 010 2h-1a1 1 0 010-2h1zm5 0a1 1 0 010 2h-1a1 1 0 010-2h1zm5 0a1 1 0 010 2h-1a1 1 0 010-2h1zm5 0a1 1 0 010 2h-1a1 1 0 010-2h1zm5 0a1 1 0 010 2h-1a1 1 0 010-2h1zm5 0a1 1 0 010 2h-1a1 1 0 010-2h1zm5 0a1 1 0 010 2h-1a1 1 0 010-2h1zm5 0a1 1 0 010 2h-1a1 1 0 010-2h1zm5 0a1 1 0 010 2h-1a1 1 0 010-2h1zm5 0a1 1 0 010 2h-1a1 1 0 010-2h1zm5 0a1 1 0 010 2h-1a1 1 0 010-2h1zM949 532l1 1h5a1 1 0 011 1l-6 12a1 1 0 01-2 0l-6-12a1 1 0 011-1h5l1-1zm0-5l1 1v1a1 1 0 01-2 0v-1l1-1zm0-5l1 1v1a1 1 0 01-2 0v-1l1-1zm0-5l1 1v1a1 1 0 01-2 0v-1l1-1zm0-5l1 1v1a1 1 0 01-2 0v-1l1-1zm0-5l1 1v1a1 1 0 01-2 0v-1l1-1zm0-5l1 1v1a1 1 0 01-2 0v-1l1-1zm0-5l1 1v1a1 1 0 01-2 0v-1l1-1zm0-5l1 1v1a1 1 0 01-2 0v-1l1-1zm0-5l1 1v1a1 1 0 01-2 0v-1l1-1zm0-5l1 1v1a1 1 0 01-2 0v-1l1-1zm0-5l1 1v1a1 1 0 01-2 0v-1l1-1zm0-5l1 1v1a1 1 0 01-2 0v-1l1-1zm0-5l1 1v1a1 1 0 01-2 0v-1l1-1zm0-5l1 1v1a1 1 0 01-2 0v-1l1-1zm0-5l1 1v1a1 1 0 01-2 0v-1l1-1zm0-5l1 1v1a1 1 0 01-2 0v-1l1-1zm0-5l1 1v1a1 1 0 01-2 0v-1l1-1zm0-5l1 1v1a1 1 0 01-2 0v-1l1-1zm0-5l1 1v1a1 1 0 01-2 0v-1l1-1zm0-5l1 1v1a1 1 0 01-2 0v-1l1-1zm0-5l1 1v1a1 1 0 01-2 0v-1l1-1zm1281-46l12 6a1 1 0 010 2l-12 6a1 1 0 01-1-1v-5h-2a1 1 0 010-2h2v-5l1-1zm-97 6a1 1 0 010 2h-1a1 1 0 010-2h1zm5 0a1 1 0 010 2h-1a1 1 0 010-2h1zm5 0a1 1 0 010 2h-1a1 1 0 010-2h1zm5 0a1 1 0 010 2h-1a1 1 0 010-2h1zm5 0a1 1 0 010 2h-1a1 1 0 010-2h1zm5 0a1 1 0 010 2h-1a1 1 0 010-2h1zm5 0a1 1 0 010 2h-1a1 1 0 010-2h1zm5 0a1 1 0 010 2h-1a1 1 0 010-2h1zm5 0a1 1 0 010 2h-1a1 1 0 010-2h1zm5 0a1 1 0 010 2h-1a1 1 0 010-2h1zm5 0a1 1 0 010 2h-1a1 1 0 010-2h1zm5 0a1 1 0 010 2h-1a1 1 0 010-2h1zm5 0a1 1 0 010 2h-1a1 1 0 010-2h1zm5 0a1 1 0 010 2h-1a1 1 0 010-2h1zm5 0a1 1 0 010 2h-1a1 1 0 010-2h1zm5 0a1 1 0 010 2h-1a1 1 0 010-2h1zm5 0a1 1 0 010 2h-1a1 1 0 010-2h1zm5 0a1 1 0 010 2h-1a1 1 0 010-2h1zm5 0a1 1 0 010 2h-1a1 1 0 010-2h1z"/>
    <g>
      <path fill="#FFF" stroke="#0B0C0C" stroke-width="2" d="M2463 341h108v94h-108z"/>
      <path fill="#0B0C0C" d="M2462 340h110v10h-110zM2469 383h22v1h-22zM2469 389h72v1h-72zM2469 397h72v1h-72zM2469 393h72v1h-72zM2469 401h40v1h-40z"/>
      <text fill="#231F20" font-family="sans-serif" font-size="10" font-weight="bold" transform="translate(2469 355)">
        <tspan x="0" y="10">You have applied </tspan> <tspan x="0" y="21">to ACME SCITT</tspan>
      </text>
    </g>
    <g>
      <path fill="#FFF" stroke="#0B0C0C" stroke-width="2" d="M2683 341h108v94h-108z"/>
      <path fill="#0B0C0C" d="M2682 340h110v10h-110z"/>
      <g transform="translate(2689 414)">
        <use fill="#00823B" xlink:href="#s"/>
        <use fill="#000" filter="url(#t)" xlink:href="#s"/>
      </g>
      <g fill="#BFC1C3">
        <path d="M2689 399h72v1h-72zM2689 391h72v1h-72zM2689 383h72v1h-72z"/>
      </g>
      <g fill="#005EA5">
        <path d="M2751 387h10v1h-10zM2751 403h10v1h-10zM2751 395h10v1h-10z"/>
      </g>
      <g fill="#0B0C0C">
        <path d="M2689 387h12v1h-12zM2708 387h33v1h-33zM2689 403h12v1h-12zM2708 403h33v1h-33zM2689 395h12v1h-12zM2708 395h33v1h-33z"/>
      </g>
      <text fill="#231F20" font-family="sans-serif" font-size="10" font-weight="bold" transform="translate(2689 355)">
        <tspan x="0" y="10">Application </tspan> <tspan x="0" y="21">dashboard</tspan>
      </text>
    </g>
    <g stroke="#0B0C0C" stroke-width="2">
      <path fill="#FFF" d="M2552 326h40v28h-40z"/>
      <path d="M2552 326l20 15 20-15M2552 354l17-14M2592 354l-17-14"/>
    </g>
    <path fill="#0B0C0C" fill-rule="nonzero" d="M2450 381l12 6a1 1 0 010 2l-12 6a1 1 0 01-1-1v-5h-2a1 1 0 010-2h2v-5l1-1zm-97 6a1 1 0 010 2h-1a1 1 0 010-2h1zm5 0a1 1 0 010 2h-1a1 1 0 010-2h1zm5 0a1 1 0 010 2h-1a1 1 0 010-2h1zm5 0a1 1 0 010 2h-1a1 1 0 010-2h1zm5 0a1 1 0 010 2h-1a1 1 0 010-2h1zm5 0a1 1 0 010 2h-1a1 1 0 010-2h1zm5 0a1 1 0 010 2h-1a1 1 0 010-2h1zm5 0a1 1 0 010 2h-1a1 1 0 010-2h1zm5 0a1 1 0 010 2h-1a1 1 0 010-2h1zm5 0a1 1 0 010 2h-1a1 1 0 010-2h1zm5 0a1 1 0 010 2h-1a1 1 0 010-2h1zm5 0a1 1 0 010 2h-1a1 1 0 010-2h1zm5 0a1 1 0 010 2h-1a1 1 0 010-2h1zm5 0a1 1 0 010 2h-1a1 1 0 010-2h1zm5 0a1 1 0 010 2h-1a1 1 0 010-2h1zm5 0a1 1 0 010 2h-1a1 1 0 010-2h1zm5 0a1 1 0 010 2h-1a1 1 0 010-2h1zm5 0a1 1 0 010 2h-1a1 1 0 010-2h1zm5 0a1 1 0 010 2h-1a1 1 0 010-2h1zm227-6l12 6a1 1 0 010 2l-12 6a1 1 0 01-1-1v-5h-2a1 1 0 010-2h2v-5l1-1zm-97 6a1 1 0 010 2h-1a1 1 0 010-2h1zm5 0a1 1 0 010 2h-1a1 1 0 010-2h1zm5 0a1 1 0 010 2h-1a1 1 0 010-2h1zm5 0a1 1 0 010 2h-1a1 1 0 010-2h1zm5 0a1 1 0 010 2h-1a1 1 0 010-2h1zm5 0a1 1 0 010 2h-1a1 1 0 010-2h1zm5 0a1 1 0 010 2h-1a1 1 0 010-2h1zm5 0a1 1 0 010 2h-1a1 1 0 010-2h1zm5 0a1 1 0 010 2h-1a1 1 0 010-2h1zm5 0a1 1 0 010 2h-1a1 1 0 010-2h1zm5 0a1 1 0 010 2h-1a1 1 0 010-2h1zm5 0a1 1 0 010 2h-1a1 1 0 010-2h1zm5 0a1 1 0 010 2h-1a1 1 0 010-2h1zm5 0a1 1 0 010 2h-1a1 1 0 010-2h1zm5 0a1 1 0 010 2h-1a1 1 0 010-2h1zm5 0a1 1 0 010 2h-1a1 1 0 010-2h1zm5 0a1 1 0 010 2h-1a1 1 0 010-2h1zm5 0a1 1 0 010 2h-1a1 1 0 010-2h1zm5 0a1 1 0 010 2h-1a1 1 0 010-2h1z"/>
  </g>
</svg>
