<svg xmlns="http://www.w3.org/2000/svg" xmlns:xlink="http://www.w3.org/1999/xlink" width="2940" height="1080" viewBox="0 0 2940 1080">
  <defs>
    <path id="reuse-0" fill="#0B0C0C" d="M13 5h25v1H13z"/>
    <path id="a" d="M0 0h26v10H0z"/>
  </defs>
  <defs>
    <filter id="b" width="103.8%" height="110%" x="-2%" y="-5%" filterUnits="objectBoundingBox">
      <feOffset dy="-1" in="SourceAlpha" result="shadowOffsetInner1"/>
      <feComposite in="shadowOffsetInner1" in2="SourceAlpha" k2="-1" k3="1" operator="arithmetic" result="shadowInnerInner1"/>
      <feColorMatrix in="shadowInnerInner1" values="0 0 0 0 0 0 0 0 0 0.392156863 0 0 0 0 0.207843137 0 0 0 1 0"/>
    </filter>
    <filter id="d" width="103.8%" height="110%" x="-2%" y="-5%" filterUnits="objectBoundingBox">
      <feOffset dy="-1" in="SourceAlpha" result="shadowOffsetInner1"/>
      <feComposite in="shadowOffsetInner1" in2="SourceAlpha" k2="-1" k3="1" operator="arithmetic" result="shadowInnerInner1"/>
      <feColorMatrix in="shadowInnerInner1" values="0 0 0 0 0 0 0 0 0 0.392156863 0 0 0 0 0.207843137 0 0 0 1 0"/>
    </filter>
    <filter id="f" width="103.8%" height="110%" x="-2%" y="-5%" filterUnits="objectBoundingBox">
      <feOffset dy="-1" in="SourceAlpha" result="shadowOffsetInner1"/>
      <feComposite in="shadowOffsetInner1" in2="SourceAlpha" k2="-1" k3="1" operator="arithmetic" result="shadowInnerInner1"/>
      <feColorMatrix in="shadowInnerInner1" values="0 0 0 0 0 0 0 0 0 0.392156863 0 0 0 0 0.207843137 0 0 0 1 0"/>
    </filter>
    <filter id="h" width="103.8%" height="110%" x="-2%" y="-5%" filterUnits="objectBoundingBox">
      <feOffset dy="-1" in="SourceAlpha" result="shadowOffsetInner1"/>
      <feComposite in="shadowOffsetInner1" in2="SourceAlpha" k2="-1" k3="1" operator="arithmetic" result="shadowInnerInner1"/>
      <feColorMatrix in="shadowInnerInner1" values="0 0 0 0 0 0 0 0 0 0.392156863 0 0 0 0 0.207843137 0 0 0 1 0"/>
    </filter>
    <filter id="j" width="103.8%" height="110%" x="-2%" y="-5%" filterUnits="objectBoundingBox">
      <feOffset dy="-1" in="SourceAlpha" result="shadowOffsetInner1"/>
      <feComposite in="shadowOffsetInner1" in2="SourceAlpha" k2="-1" k3="1" operator="arithmetic" result="shadowInnerInner1"/>
      <feColorMatrix in="shadowInnerInner1" values="0 0 0 0 0 0 0 0 0 0.392156863 0 0 0 0 0.207843137 0 0 0 1 0"/>
    </filter>
    <filter id="l" width="103.8%" height="110%" x="-2%" y="-5%" filterUnits="objectBoundingBox">
      <feOffset dy="-1" in="SourceAlpha" result="shadowOffsetInner1"/>
      <feComposite in="shadowOffsetInner1" in2="SourceAlpha" k2="-1" k3="1" operator="arithmetic" result="shadowInnerInner1"/>
      <feColorMatrix in="shadowInnerInner1" values="0 0 0 0 0 0 0 0 0 0.392156863 0 0 0 0 0.207843137 0 0 0 1 0"/>
    </filter>
    <filter id="n" width="103.8%" height="110%" x="-2%" y="-5%" filterUnits="objectBoundingBox">
      <feOffset dy="-1" in="SourceAlpha" result="shadowOffsetInner1"/>
      <feComposite in="shadowOffsetInner1" in2="SourceAlpha" k2="-1" k3="1" operator="arithmetic" result="shadowInnerInner1"/>
      <feColorMatrix in="shadowInnerInner1" values="0 0 0 0 0 0 0 0 0 0.392156863 0 0 0 0 0.207843137 0 0 0 1 0"/>
    </filter>
    <filter id="p" width="103.8%" height="110%" x="-2%" y="-5%" filterUnits="objectBoundingBox">
      <feOffset dy="-1" in="SourceAlpha" result="shadowOffsetInner1"/>
      <feComposite in="shadowOffsetInner1" in2="SourceAlpha" k2="-1" k3="1" operator="arithmetic" result="shadowInnerInner1"/>
      <feColorMatrix in="shadowInnerInner1" values="0 0 0 0 0 0 0 0 0 0.392156863 0 0 0 0 0.207843137 0 0 0 1 0"/>
    </filter>
    <filter id="r" width="103.8%" height="110%" x="-2%" y="-5%" filterUnits="objectBoundingBox">
      <feOffset dy="-1" in="SourceAlpha" result="shadowOffsetInner1"/>
      <feComposite in="shadowOffsetInner1" in2="SourceAlpha" k2="-1" k3="1" operator="arithmetic" result="shadowInnerInner1"/>
      <feColorMatrix in="shadowInnerInner1" values="0 0 0 0 0 0 0 0 0 0.392156863 0 0 0 0 0.207843137 0 0 0 1 0"/>
    </filter>
    <filter id="t" width="103.8%" height="110%" x="-2%" y="-5%" filterUnits="objectBoundingBox">
      <feOffset dy="-1" in="SourceAlpha" result="shadowOffsetInner1"/>
      <feComposite in="shadowOffsetInner1" in2="SourceAlpha" k2="-1" k3="1" operator="arithmetic" result="shadowInnerInner1"/>
      <feColorMatrix in="shadowInnerInner1" values="0 0 0 0 0 0 0 0 0 0.392156863 0 0 0 0 0.207843137 0 0 0 1 0"/>
    </filter>
    <filter id="v" width="103.8%" height="110%" x="-2%" y="-5%" filterUnits="objectBoundingBox">
      <feOffset dy="-1" in="SourceAlpha" result="shadowOffsetInner1"/>
      <feComposite in="shadowOffsetInner1" in2="SourceAlpha" k2="-1" k3="1" operator="arithmetic" result="shadowInnerInner1"/>
      <feColorMatrix in="shadowInnerInner1" values="0 0 0 0 0 0 0 0 0 0.392156863 0 0 0 0 0.207843137 0 0 0 1 0"/>
    </filter>
    <filter id="x" width="103.8%" height="110%" x="-2%" y="-5%" filterUnits="objectBoundingBox">
      <feOffset dy="-1" in="SourceAlpha" result="shadowOffsetInner1"/>
      <feComposite in="shadowOffsetInner1" in2="SourceAlpha" k2="-1" k3="1" operator="arithmetic" result="shadowInnerInner1"/>
      <feColorMatrix in="shadowInnerInner1" values="0 0 0 0 0 0 0 0 0 0.392156863 0 0 0 0 0.207843137 0 0 0 1 0"/>
    </filter>
    <use xlink:href="#a"/>
    <use id="c" xlink:href="#a"/>
    <use id="e" xlink:href="#a"/>
    <use id="g" xlink:href="#a"/>
    <use id="i" xlink:href="#a"/>
    <use id="k" xlink:href="#a"/>
    <use id="m" xlink:href="#a"/>
    <use id="o" xlink:href="#a"/>
    <use id="q" xlink:href="#a"/>
    <use id="s" xlink:href="#a"/>
    <use id="u" xlink:href="#a"/>
    <use id="w" xlink:href="#a"/>
  </defs>
  <g fill="none" fill-rule="evenodd">
    <path stroke="#0B0C0C" stroke-dasharray="1 4" stroke-linecap="round" stroke-linejoin="round" stroke-width="2" d="M2394 164v87c0 5 4 10 10 10h420c7 0 10 3 10 10"/>
    <path fill="#0B0C0C" fill-rule="nonzero" d="M2834 509l1 1v2h5a1 1 0 011 1l-6 12a1 1 0 01-2 0l-6-12a1 1 0 011-1h5v-2l1-1zm0-5l1 1v1a1 1 0 01-2 1v-2l1-1zm0-5l1 1v1a1 1 0 01-2 1v-2l1-1zm0-5l1 1v1a1 1 0 01-2 1v-2l1-1zm0-5l1 1v1a1 1 0 01-2 1v-2l1-1zm0-5l1 1v1a1 1 0 01-2 1v-2l1-1zm0-5l1 1v1a1 1 0 01-2 1v-2l1-1zm0-5l1 1v1a1 1 0 01-2 1v-2l1-1zm0-5l1 1v1a1 1 0 01-2 1v-2l1-1zm0-5l1 1v1a1 1 0 01-2 1v-2l1-1zm0-5l1 1v1a1 1 0 01-2 1v-2l1-1zm0-5l1 1v1a1 1 0 01-2 1v-2l1-1zm0-5l1 1v1a1 1 0 01-2 1v-2l1-1zm0-5l1 1v1a1 1 0 01-2 1v-2l1-1zm0-5l1 1v1a1 1 0 01-2 1v-2l1-1zm0-5l1 1v1a1 1 0 01-2 1v-2l1-1zm0-5l1 1v1a1 1 0 01-2 1v-2l1-1zm0-5l1 1v1a1 1 0 01-2 1v-2l1-1zm0-5l1 1v1a1 1 0 01-2 1v-2l1-1zm0-5l1 1v1a1 1 0 01-2 1v-2l1-1zm0-5l1 1v1a1 1 0 01-2 1v-2l1-1zm0-5l1 1v1a1 1 0 01-2 1v-2l1-1zm0-5l1 1v1a1 1 0 01-2 1v-2l1-1zm0-5l1 1v1a1 1 0 01-2 1v-2l1-1zm0-5l1 1v1a1 1 0 01-2 1v-2l1-1zm0-5l1 1v1a1 1 0 01-2 1v-2l1-1zm0-5l1 1v1a1 1 0 01-2 1v-2l1-1zm0-5l1 1v1a1 1 0 01-2 1v-2l1-1zm0-5l1 1v1a1 1 0 01-2 1v-2l1-1zm0-5l1 1v1a1 1 0 01-2 1v-2l1-1zm0-5l1 1v1a1 1 0 01-2 1v-2l1-1zm0-5l1 1v1a1 1 0 01-2 1v-2l1-1zm0-5l1 1v1a1 1 0 01-2 1v-2l1-1zm0-5l1 1v1a1 1 0 01-2 1v-2l1-1zm0-5l1 1v1a1 1 0 01-2 1v-2l1-1zm0-5l1 1v1a1 1 0 01-2 1v-2l1-1zm0-5l1 1v1a1 1 0 01-2 1v-2l1-1zm0-5l1 1v1a1 1 0 01-2 1v-2l1-1zm0-5l1 1v1a1 1 0 01-2 1v-2l1-1zm0-5l1 1v1a1 1 0 01-2 1v-2l1-1zm0-5l1 1v1a1 1 0 01-2 1v-2l1-1zm0-5l1 1v1a1 1 0 01-2 1v-2l1-1zm0-5l1 1v1a1 1 0 01-2 1v-2l1-1zm0-5l1 1v1a1 1 0 01-2 1v-2l1-1zm0-5l1 1v1a1 1 0 01-2 1v-2l1-1zm0-5l1 1v1a1 1 0 01-2 1v-2l1-1zm0-5l1 1v1a1 1 0 01-2 1v-2l1-1zm0-5l1 1v1a1 1 0 01-2 1v-2l1-1zm0-5l1 1v1a1 1 0 01-2 1v-2l1-1zm0-5l1 1v1a1 1 0 01-2 1v-2l1-1zm0-5l1 1v1a1 1 0 01-2 1v-2l1-1zm0-5l1 1v1a1 1 0 01-2 1v-2l1-1zm0-5l1 1v1a1 1 0 01-2 1v-2l1-1zm0-5l1 1v1a1 1 0 01-2 1v-2l1-1zm0-5l1 1v1a1 1 0 01-2 1v-2l1-1zm0-5l1 1v1a1 1 0 01-2 1v-2l1-1zm0-5l1 1v1a1 1 0 01-2 1v-2l1-1zm0-5l1 1v1a1 1 0 01-2 1v-2l1-1zm0-5l1 1v1a1 1 0 01-2 1v-2l1-1zm0-5l1 1v1a1 1 0 01-2 1v-2l1-1zm0-5l1 1v1a1 1 0 01-2 1v-2l1-1zm0-5l1 1v1a1 1 0 01-2 1v-2l1-1zm0-5l1 1v1a1 1 0 01-2 1v-2l1-1zm0-5l1 1v1a1 1 0 01-2 1v-2l1-1zm0-5l1 1v1a1 1 0 01-2 1v-2l1-1zm0-5l1 1v1a1 1 0 01-2 1v-2l1-1zm0-5l1 1v1a1 1 0 01-2 1v-2l1-1zm0-5l1 1v1a1 1 0 01-2 1v-2l1-1zm0-4v1a1 1 0 01-2 1v-1a1 1 0 012-1zm-4-4l1 1a1 1 0 11-1 1h-1a1 1 0 011-2zm-5-2h1a1 1 0 010 2h-1a1 1 0 010-2zm-1659 0a1 1 0 010 2h-1a1 1 0 010-2h1zm5 0a1 1 0 010 2h-1a1 1 0 010-2h1zm5 0a1 1 0 010 2h-1a1 1 0 010-2h1zm5 0a1 1 0 010 2h-1a1 1 0 010-2h1zm5 0a1 1 0 010 2h-1a1 1 0 010-2h1zm5 0a1 1 0 010 2h-1a1 1 0 010-2h1zm5 0a1 1 0 010 2h-1a1 1 0 010-2h1zm5 0a1 1 0 010 2h-1a1 1 0 010-2h1zm5 0a1 1 0 010 2h-1a1 1 0 010-2h1zm5 0a1 1 0 010 2h-1a1 1 0 010-2h1zm5 0a1 1 0 010 2h-1a1 1 0 010-2h1zm5 0a1 1 0 010 2h-1a1 1 0 010-2h1zm5 0a1 1 0 010 2h-1a1 1 0 010-2h1zm5 0a1 1 0 010 2h-1a1 1 0 010-2h1zm5 0a1 1 0 010 2h-1a1 1 0 010-2h1zm5 0a1 1 0 010 2h-1a1 1 0 010-2h1zm5 0a1 1 0 010 2h-1a1 1 0 010-2h1zm5 0a1 1 0 010 2h-1a1 1 0 010-2h1zm5 0a1 1 0 010 2h-1a1 1 0 010-2h1zm5 0a1 1 0 010 2h-1a1 1 0 010-2h1zm5 0a1 1 0 010 2h-1a1 1 0 010-2h1zm5 0a1 1 0 010 2h-1a1 1 0 010-2h1zm5 0a1 1 0 010 2h-1a1 1 0 010-2h1zm5 0a1 1 0 010 2h-1a1 1 0 010-2h1zm5 0a1 1 0 010 2h-1a1 1 0 010-2h1zm5 0a1 1 0 010 2h-1a1 1 0 010-2h1zm5 0a1 1 0 010 2h-1a1 1 0 010-2h1zm5 0a1 1 0 010 2h-1a1 1 0 010-2h1zm5 0a1 1 0 010 2h-1a1 1 0 010-2h1zm5 0a1 1 0 010 2h-1a1 1 0 010-2h1zm5 0a1 1 0 010 2h-1a1 1 0 010-2h1zm5 0a1 1 0 010 2h-1a1 1 0 010-2h1zm5 0a1 1 0 010 2h-1a1 1 0 010-2h1zm5 0a1 1 0 010 2h-1a1 1 0 010-2h1zm5 0a1 1 0 010 2h-1a1 1 0 010-2h1zm5 0a1 1 0 010 2h-1a1 1 0 010-2h1zm5 0a1 1 0 010 2h-1a1 1 0 010-2h1zm5 0a1 1 0 010 2h-1a1 1 0 010-2h1zm5 0a1 1 0 010 2h-1a1 1 0 010-2h1zm5 0a1 1 0 010 2h-1a1 1 0 010-2h1zm5 0a1 1 0 010 2h-1a1 1 0 010-2h1zm5 0a1 1 0 010 2h-1a1 1 0 010-2h1zm5 0a1 1 0 010 2h-1a1 1 0 010-2h1zm5 0a1 1 0 010 2h-1a1 1 0 010-2h1zm5 0a1 1 0 010 2h-1a1 1 0 010-2h1zm5 0a1 1 0 010 2h-1a1 1 0 010-2h1zm5 0a1 1 0 010 2h-1a1 1 0 010-2h1zm5 0a1 1 0 010 2h-1a1 1 0 010-2h1zm5 0a1 1 0 010 2h-1a1 1 0 010-2h1zm5 0a1 1 0 010 2h-1a1 1 0 010-2h1zm5 0a1 1 0 010 2h-1a1 1 0 010-2h1zm5 0a1 1 0 010 2h-1a1 1 0 010-2h1zm5 0a1 1 0 010 2h-1a1 1 0 010-2h1zm5 0a1 1 0 010 2h-1a1 1 0 010-2h1zm5 0a1 1 0 010 2h-1a1 1 0 010-2h1zm5 0a1 1 0 010 2h-1a1 1 0 010-2h1zm5 0a1 1 0 010 2h-1a1 1 0 010-2h1zm5 0a1 1 0 010 2h-1a1 1 0 010-2h1zm5 0a1 1 0 010 2h-1a1 1 0 010-2h1zm5 0a1 1 0 010 2h-1a1 1 0 010-2h1zm5 0a1 1 0 010 2h-1a1 1 0 010-2h1zm5 0a1 1 0 010 2h-1a1 1 0 010-2h1zm5 0a1 1 0 010 2h-1a1 1 0 010-2h1zm5 0a1 1 0 010 2h-1a1 1 0 010-2h1zm5 0a1 1 0 010 2h-1a1 1 0 010-2h1zm5 0a1 1 0 010 2h-1a1 1 0 010-2h1zm5 0a1 1 0 010 2h-1a1 1 0 010-2h1zm5 0a1 1 0 010 2h-1a1 1 0 010-2h1zm5 0a1 1 0 010 2h-1a1 1 0 010-2h1zm5 0a1 1 0 010 2h-1a1 1 0 010-2h1zm5 0a1 1 0 010 2h-1a1 1 0 010-2h1zm5 0a1 1 0 010 2h-1a1 1 0 010-2h1zm5 0a1 1 0 010 2h-1a1 1 0 010-2h1zm5 0a1 1 0 010 2h-1a1 1 0 010-2h1zm5 0a1 1 0 010 2h-1a1 1 0 010-2h1zm5 0a1 1 0 010 2h-1a1 1 0 010-2h1zm5 0a1 1 0 010 2h-1a1 1 0 010-2h1zm5 0a1 1 0 010 2h-1a1 1 0 010-2h1zm5 0a1 1 0 010 2h-1a1 1 0 010-2h1zm5 0a1 1 0 010 2h-1a1 1 0 010-2h1zm5 0a1 1 0 010 2h-1a1 1 0 010-2h1zm5 0a1 1 0 010 2h-1a1 1 0 010-2h1zm5 0a1 1 0 010 2h-1a1 1 0 010-2h1zm5 0a1 1 0 010 2h-1a1 1 0 010-2h1zm5 0a1 1 0 010 2h-1a1 1 0 010-2h1zm5 0a1 1 0 010 2h-1a1 1 0 010-2h1zm5 0a1 1 0 010 2h-1a1 1 0 010-2h1zm5 0a1 1 0 010 2h-1a1 1 0 010-2h1zm5 0a1 1 0 010 2h-1a1 1 0 010-2h1zm5 0a1 1 0 010 2h-1a1 1 0 010-2h1zm5 0a1 1 0 010 2h-1a1 1 0 010-2h1zm5 0a1 1 0 010 2h-1a1 1 0 010-2h1zm5 0a1 1 0 010 2h-1a1 1 0 010-2h1zm5 0a1 1 0 010 2h-1a1 1 0 010-2h1zm5 0a1 1 0 010 2h-1a1 1 0 010-2h1zm5 0a1 1 0 010 2h-1a1 1 0 010-2h1zm5 0a1 1 0 010 2h-1a1 1 0 010-2h1zm5 0a1 1 0 010 2h-1a1 1 0 010-2h1zm5 0a1 1 0 010 2h-1a1 1 0 010-2h1zm5 0a1 1 0 010 2h-1a1 1 0 010-2h1zm5 0a1 1 0 010 2h-1a1 1 0 010-2h1zm5 0a1 1 0 010 2h-1a1 1 0 010-2h1zm5 0a1 1 0 010 2h-1a1 1 0 010-2h1zm5 0a1 1 0 010 2h-1a1 1 0 010-2h1zm5 0a1 1 0 010 2h-1a1 1 0 010-2h1zm5 0a1 1 0 010 2h-1a1 1 0 010-2h1zm5 0a1 1 0 010 2h-1a1 1 0 010-2h1zm5 0a1 1 0 010 2h-1a1 1 0 010-2h1zm5 0a1 1 0 010 2h-1a1 1 0 010-2h1zm5 0a1 1 0 010 2h-1a1 1 0 010-2h1zm5 0a1 1 0 010 2h-1a1 1 0 010-2h1zm5 0a1 1 0 010 2h-1a1 1 0 010-2h1zm5 0a1 1 0 010 2h-1a1 1 0 010-2h1zm5 0a1 1 0 010 2h-1a1 1 0 010-2h1zm5 0a1 1 0 010 2h-1a1 1 0 010-2h1zm5 0a1 1 0 010 2h-1a1 1 0 010-2h1zm5 0a1 1 0 010 2h-1a1 1 0 010-2h1zm5 0a1 1 0 010 2h-1a1 1 0 010-2h1zm5 0a1 1 0 010 2h-1a1 1 0 010-2h1zm5 0a1 1 0 010 2h-1a1 1 0 010-2h1zm5 0a1 1 0 010 2h-1a1 1 0 010-2h1zm5 0a1 1 0 010 2h-1a1 1 0 010-2h1zm5 0a1 1 0 010 2h-1a1 1 0 010-2h1zm5 0a1 1 0 010 2h-1a1 1 0 010-2h1zm5 0a1 1 0 010 2h-1a1 1 0 010-2h1zm5 0a1 1 0 010 2h-1a1 1 0 010-2h1zm5 0a1 1 0 010 2h-1a1 1 0 010-2h1zm5 0a1 1 0 010 2h-1a1 1 0 010-2h1zm5 0a1 1 0 010 2h-1a1 1 0 010-2h1zm5 0a1 1 0 010 2h-1a1 1 0 010-2h1zm5 0a1 1 0 010 2h-1a1 1 0 010-2h1zm5 0a1 1 0 010 2h-1a1 1 0 010-2h1zm5 0a1 1 0 010 2h-1a1 1 0 010-2h1zm5 0a1 1 0 010 2h-1a1 1 0 010-2h1zm5 0a1 1 0 010 2h-1a1 1 0 010-2h1zm5 0a1 1 0 010 2h-1a1 1 0 010-2h1zm5 0a1 1 0 010 2h-1a1 1 0 010-2h1zm5 0a1 1 0 010 2h-1a1 1 0 010-2h1zm5 0a1 1 0 010 2h-1a1 1 0 010-2h1zm5 0a1 1 0 010 2h-1a1 1 0 010-2h1zm5 0a1 1 0 010 2h-1a1 1 0 010-2h1zm5 0a1 1 0 010 2h-1a1 1 0 010-2h1zm5 0a1 1 0 010 2h-1a1 1 0 010-2h1zm5 0a1 1 0 010 2h-1a1 1 0 010-2h1zm5 0a1 1 0 010 2h-1a1 1 0 010-2h1zm5 0a1 1 0 010 2h-1a1 1 0 010-2h1zm5 0a1 1 0 010 2h-1a1 1 0 010-2h1zm5 0a1 1 0 010 2h-1a1 1 0 010-2h1zm5 0a1 1 0 010 2h-1a1 1 0 010-2h1zm5 0a1 1 0 010 2h-1a1 1 0 010-2h1zm5 0a1 1 0 010 2h-1a1 1 0 010-2h1zm5 0a1 1 0 010 2h-1a1 1 0 010-2h1zm5 0a1 1 0 010 2h-1a1 1 0 010-2h1zm5 0a1 1 0 010 2h-1a1 1 0 010-2h1zm5 0a1 1 0 010 2h-1a1 1 0 010-2h1zm5 0a1 1 0 010 2h-1a1 1 0 010-2h1zm5 0a1 1 0 010 2h-1a1 1 0 010-2h1zm5 0a1 1 0 010 2h-1a1 1 0 010-2h1zm5 0a1 1 0 010 2h-1a1 1 0 010-2h1zm5 0a1 1 0 010 2h-1a1 1 0 010-2h1zm5 0a1 1 0 010 2h-1a1 1 0 010-2h1zm5 0a1 1 0 010 2h-1a1 1 0 010-2h1zm5 0a1 1 0 010 2h-1a1 1 0 010-2h1zm5 0a1 1 0 010 2h-1a1 1 0 010-2h1zm5 0a1 1 0 010 2h-1a1 1 0 010-2h1zm5 0a1 1 0 010 2h-1a1 1 0 010-2h1zm-1180 0a1 1 0 010 2h-1a1 1 0 010-2h1zm1190 0a1 1 0 010 2h-1a1 1 0 010-2h1zm5 0a1 1 0 010 2h-1a1 1 0 010-2h1zm5 0a1 1 0 010 2h-1a1 1 0 010-2h1zm5 0a1 1 0 010 2h-1a1 1 0 010-2h1zm5 0a1 1 0 010 2h-1a1 1 0 010-2h1zm5 0a1 1 0 010 2h-1a1 1 0 010-2h1zm5 0a1 1 0 010 2h-1a1 1 0 010-2h1zm5 0a1 1 0 010 2h-1a1 1 0 010-2h1zm5 0a1 1 0 010 2h-1a1 1 0 010-2h1zm5 0a1 1 0 010 2h-1a1 1 0 010-2h1zm5 0a1 1 0 010 2h-1a1 1 0 010-2h1zm5 0a1 1 0 010 2h-1a1 1 0 010-2h1zm5 0a1 1 0 010 2h-1a1 1 0 010-2h1zm5 0a1 1 0 010 2h-1a1 1 0 010-2h1zm5 0a1 1 0 010 2h-1a1 1 0 010-2h1zm5 0a1 1 0 010 2h-1a1 1 0 010-2h1zm5 0a1 1 0 010 2h-1a1 1 0 010-2h1zm5 0a1 1 0 010 2h-1a1 1 0 010-2h1zm5 0a1 1 0 010 2h-1a1 1 0 010-2h1zm5 0a1 1 0 010 2h-1a1 1 0 010-2h1zm5 0a1 1 0 010 2h-1a1 1 0 010-2h1zm5 0a1 1 0 010 2h-1a1 1 0 010-2h1zm5 0a1 1 0 010 2h-1a1 1 0 010-2h1zm5 0a1 1 0 010 2h-1a1 1 0 010-2h1zm5 0a1 1 0 010 2h-1a1 1 0 010-2h1zm5 0a1 1 0 010 2h-1a1 1 0 010-2h1zm5 0a1 1 0 010 2h-1a1 1 0 010-2h1zm5 0a1 1 0 010 2h-1a1 1 0 010-2h1zm5 0a1 1 0 010 2h-1a1 1 0 010-2h1zm5 0a1 1 0 010 2h-1a1 1 0 010-2h1zm5 0a1 1 0 010 2h-1a1 1 0 010-2h1zm5 0a1 1 0 010 2h-1a1 1 0 010-2h1zm5 0a1 1 0 010 2h-1a1 1 0 010-2h1zm5 0a1 1 0 010 2h-1a1 1 0 010-2h1zm5 0a1 1 0 010 2h-1a1 1 0 010-2h1zm5 0a1 1 0 010 2h-1a1 1 0 010-2h1zm5 0a1 1 0 010 2h-1a1 1 0 010-2h1zm5 0a1 1 0 010 2h-1a1 1 0 010-2h1zm5 0a1 1 0 010 2h-1a1 1 0 010-2h1zm5 0a1 1 0 010 2h-1a1 1 0 010-2h1zm5 0a1 1 0 010 2h-1a1 1 0 010-2h1zm5 0a1 1 0 010 2h-1a1 1 0 010-2h1zm5 0a1 1 0 010 2h-1a1 1 0 010-2h1zm5 0a1 1 0 010 2h-1a1 1 0 010-2h1zm5 0a1 1 0 010 2h-1a1 1 0 010-2h1zm5 0a1 1 0 010 2h-1a1 1 0 010-2h1zm5 0a1 1 0 010 2h-1a1 1 0 010-2h1zm5 0a1 1 0 010 2h-1a1 1 0 010-2h1zm5 0a1 1 0 010 2h-1a1 1 0 010-2h1zm5 0a1 1 0 010 2h-1a1 1 0 010-2h1zm5 0a1 1 0 010 2h-1a1 1 0 010-2h1zm5 0a1 1 0 010 2h-1a1 1 0 010-2h1zm5 0a1 1 0 010 2h-1a1 1 0 010-2h1zm5 0a1 1 0 010 2h-1a1 1 0 010-2h1zm5 0a1 1 0 010 2h-1a1 1 0 010-2h1zm5 0a1 1 0 010 2h-1a1 1 0 010-2h1zm5 0a1 1 0 010 2h-1a1 1 0 010-2h1zm5 0a1 1 0 010 2h-1a1 1 0 010-2h1zm5 0a1 1 0 010 2h-1a1 1 0 010-2h1zm5 0a1 1 0 010 2h-1a1 1 0 010-2h1zm5 0a1 1 0 010 2h-1a1 1 0 010-2h1zm5 0a1 1 0 010 2h-1a1 1 0 010-2h1zm5 0a1 1 0 010 2h-1a1 1 0 010-2h1zm5 0a1 1 0 010 2h-1a1 1 0 010-2h1zm5 0a1 1 0 010 2h-1a1 1 0 010-2h1zm5 0a1 1 0 010 2h-1a1 1 0 010-2h1zm5 0a1 1 0 010 2h-1a1 1 0 010-2h1zm5 0a1 1 0 010 2h-1a1 1 0 010-2h1zm5 0a1 1 0 010 2h-1a1 1 0 010-2h1zm5 0a1 1 0 010 2h-1a1 1 0 010-2h1zm5 0a1 1 0 010 2h-1a1 1 0 010-2h1zm5 0a1 1 0 010 2h-1a1 1 0 010-2h1zm5 0a1 1 0 010 2h-1a1 1 0 010-2h1zm5 0a1 1 0 010 2h-1a1 1 0 010-2h1zm5 0a1 1 0 010 2h-1a1 1 0 010-2h1zm5 0a1 1 0 010 2h-1a1 1 0 010-2h1zm5 0a1 1 0 010 2h-1a1 1 0 010-2h1zm5 0a1 1 0 010 2h-1a1 1 0 010-2h1zm5 0a1 1 0 010 2h-1a1 1 0 010-2h1zm5 0a1 1 0 010 2h-1a1 1 0 010-2h1zm5 0a1 1 0 010 2h-1a1 1 0 010-2h1zm5 0a1 1 0 010 2h-1a1 1 0 010-2h1zm5 0a1 1 0 010 2h-1a1 1 0 010-2h1zm5 0a1 1 0 010 2h-1a1 1 0 010-2h1zm5 0a1 1 0 010 2h-1a1 1 0 010-2h1zm5 0a1 1 0 010 2h-1a1 1 0 010-2h1zm5 0a1 1 0 010 2h-1a1 1 0 010-2h1zm5 0a1 1 0 010 2h-1a1 1 0 010-2h1zm5 0a1 1 0 010 2h-1a1 1 0 010-2h1zm5 0a1 1 0 010 2h-1a1 1 0 010-2h1zm5 0a1 1 0 010 2h-1a1 1 0 010-2h1zm5 0a1 1 0 010 2h-1a1 1 0 010-2h1zm5 0a1 1 0 010 2h-1a1 1 0 010-2h1zm5 0a1 1 0 010 2h-1a1 1 0 010-2h1zm5 0a1 1 0 010 2h-1a1 1 0 010-2h1zm5 0a1 1 0 010 2h-1a1 1 0 010-2h1zm5 0a1 1 0 010 2h-1a1 1 0 010-2h1zm5 0a1 1 0 010 2h-1a1 1 0 010-2h1zm5 0a1 1 0 010 2h-1a1 1 0 010-2h1zm5 0a1 1 0 010 2h-1a1 1 0 010-2h1zm5 0a1 1 0 010 2h-1a1 1 0 010-2h1zm5 0a1 1 0 010 2h-1a1 1 0 010-2h1zm5 0a1 1 0 010 2h-1a1 1 0 010-2h1zm5 0a1 1 0 010 2h-1a1 1 0 010-2h1zm5 0a1 1 0 010 2h-1a1 1 0 010-2h1zm5 0a1 1 0 010 2h-1a1 1 0 010-2h1zm5 0a1 1 0 010 2h-1a1 1 0 010-2h1zm5 0a1 1 0 010 2h-1a1 1 0 010-2h1zm5 0a1 1 0 010 2h-1a1 1 0 010-2h1zm5 0a1 1 0 010 2h-1a1 1 0 010-2h1zm5 0a1 1 0 010 2h-1a1 1 0 010-2h1zm5 0a1 1 0 010 2h-1a1 1 0 010-2h1zm5 0a1 1 0 010 2h-1a1 1 0 010-2h1zm5 0a1 1 0 010 2h-1a1 1 0 010-2h1zm5 0a1 1 0 010 2h-1a1 1 0 010-2h1zm5 0a1 1 0 010 2h-1a1 1 0 010-2h1zm5 0a1 1 0 010 2h-1a1 1 0 010-2h1zm5 0a1 1 0 010 2h-1a1 1 0 010-2h1zm5 0a1 1 0 010 2h-1a1 1 0 010-2h1zm5 0a1 1 0 010 2h-1a1 1 0 010-2h1zm5 0a1 1 0 010 2h-1a1 1 0 010-2h1zm5 0a1 1 0 010 2h-1a1 1 0 010-2h1zm5 0a1 1 0 010 2h-1a1 1 0 010-2h1zm5 0a1 1 0 010 2h-1a1 1 0 010-2h1zm5 0a1 1 0 010 2h-1a1 1 0 010-2h1zm5 0a1 1 0 010 2h-1a1 1 0 010-2h1zm5 0a1 1 0 010 2h-1a1 1 0 010-2h1zm5 0a1 1 0 010 2h-1a1 1 0 010-2h1zm5 0a1 1 0 010 2h-1a1 1 0 010-2h1zm5 0a1 1 0 010 2h-1a1 1 0 010-2h1zm5 0a1 1 0 010 2h-1a1 1 0 010-2h1zm5 0a1 1 0 010 2h-1a1 1 0 010-2h1zm5 0a1 1 0 010 2h-1a1 1 0 010-2h1zm5 0a1 1 0 010 2h-1a1 1 0 010-2h1zm5 0a1 1 0 010 2h-1a1 1 0 010-2h1zm5 0a1 1 0 010 2h-1a1 1 0 010-2h1zm5 0a1 1 0 010 2h-1a1 1 0 010-2h1zm5 0a1 1 0 010 2h-1a1 1 0 010-2h1zm5 0a1 1 0 010 2h-1a1 1 0 010-2h1zm5 0a1 1 0 010 2h-1a1 1 0 010-2h1zm5 0a1 1 0 010 2h-1a1 1 0 010-2h1zm5 0a1 1 0 010 2h-1a1 1 0 010-2h1zm5 0a1 1 0 010 2h-1a1 1 0 010-2h1zm5 0a1 1 0 010 2h-1a1 1 0 010-2h1zm5 0a1 1 0 010 2h-1a1 1 0 010-2h1zm5 0a1 1 0 010 2h-1a1 1 0 010-2h1zm5 0a1 1 0 010 2h-1a1 1 0 010-2h1zm5 0a1 1 0 010 2h-1a1 1 0 010-2h1zm5 0a1 1 0 010 2h-1a1 1 0 010-2h1zm5 0a1 1 0 010 2h-1a1 1 0 010-2h1zm5 0a1 1 0 010 2h-1a1 1 0 010-2h1zm5 0a1 1 0 010 2h-1a1 1 0 010-2h1zm5 0a1 1 0 010 2h-1a1 1 0 010-2h1zm5 0a1 1 0 010 2h-1a1 1 0 010-2h1zm5 0a1 1 0 010 2h-1a1 1 0 010-2h1zm5 0a1 1 0 010 2h-1a1 1 0 010-2h1zm5 0a1 1 0 010 2h-1a1 1 0 010-2h1zm5 0a1 1 0 010 2h-1a1 1 0 010-2h1zm5 0a1 1 0 010 2h-1a1 1 0 010-2h1zm5 0a1 1 0 010 2h-1a1 1 0 010-2h1zm5 0a1 1 0 010 2h-1a1 1 0 010-2h1zm5 0a1 1 0 010 2h-1a1 1 0 010-2h1zm5 0a1 1 0 010 2h-1a1 1 0 010-2h1zm5 0a1 1 0 010 2h-1a1 1 0 010-2h1zm5 0a1 1 0 010 2h-1a1 1 0 010-2h1zm-1660 0a1 1 0 010 2h-1a1 1 0 010-2h1zm-5 0a1 1 0 010 2h-1a1 1 0 010-2h1zm-5 0a1 1 0 010 2h-1a1 1 0 010-2h1zm-5 0a1 1 0 010 2h-1a1 1 0 010-2h1zm-5 0a1 1 0 010 2h-1a1 1 0 010-2h1zm-5 0a1 1 0 010 2h-1a1 1 0 010-2h1zm-5 0a1 1 0 010 2h-1a1 1 0 010-2h1zm-5 0a1 1 0 010 2h-1a1 1 0 010-2h1zm-5 0a1 1 0 010 2h-1a1 1 0 010-2h1zm-5 0a1 1 0 010 2h-1a1 1 0 010-2h1zm-5 0a1 1 0 010 2h-1a1 1 0 010-2h1zm-5 0a1 1 0 010 2h-1a1 1 0 010-2h1zm-5 0a1 1 0 010 2h-1a1 1 0 010-2h1zm-5 0a1 1 0 010 2h-1a1 1 0 010-2h1zm-5 0a1 1 0 010 2h-1a1 1 0 010-2h1zm-5 0a1 1 0 010 2h-1a1 1 0 010-2h1zm-5 0a1 1 0 010 2h-1a1 1 0 010-2h1zm-5 0a1 1 0 010 2h-1a1 1 0 010-2h1zm-5 0a1 1 0 010 2h-1a1 1 0 010-2h1zm-5 0a1 1 0 010 2h-1a1 1 0 010-2h1zm-5 0a1 1 0 010 2h-1a1 1 0 010-2h1zm-5 0a1 1 0 010 2h-1a1 1 0 010-2h1zm-5 0a1 1 0 010 2h-1a1 1 0 010-2h1zm-5 0a1 1 0 010 2h-1a1 1 0 010-2h1zm-5 0a1 1 0 010 2h-1a1 1 0 010-2h1zm-5 0a1 1 0 010 2h-1a1 1 0 010-2h1zm-5 0a1 1 0 010 2h-1a1 1 0 010-2h1zm-5 0a1 1 0 010 2h-1a1 1 0 010-2h1zm-5 0a1 1 0 010 2h-1a1 1 0 010-2h1zm-5 0a1 1 0 010 2h-1a1 1 0 010-2h1zm-5 0a1 1 0 010 2h-1a1 1 0 010-2h1zm-5 0a1 1 0 010 2h-1a1 1 0 010-2h1zm-5 0a1 1 0 010 2h-1a1 1 0 010-2h1zm-5 0a1 1 0 010 2h-1a1 1 0 010-2h1zm-5 0a1 1 0 010 2h-1a1 1 0 010-2h1zm-5 0a1 1 0 010 2h-1a1 1 0 010-2h1zm-5 0a1 1 0 010 2h-1a1 1 0 010-2h1zm-5 0a1 1 0 010 2h-1a1 1 0 010-2h1zm-5 0a1 1 0 010 2h-1a1 1 0 010-2h1zm-5 0a1 1 0 010 2h-1a1 1 0 010-2h1zm-5 0a1 1 0 010 2h-1a1 1 0 010-2h1zm-5 0a1 1 0 010 2h-1a1 1 0 010-2h1zm-5 0a1 1 0 010 2h-1a1 1 0 010-2h1zm-5 0a1 1 0 010 2h-1a1 1 0 010-2h1zm-5 0a1 1 0 010 2h-1a1 1 0 010-2h1zm-5 0a1 1 0 010 2h-1a1 1 0 010-2h1zm-5 0a1 1 0 010 2h-1a1 1 0 010-2h1zm-5 0a1 1 0 010 2h-1a1 1 0 010-2h1zm-5 0a1 1 0 010 2h-1a1 1 0 010-2h1zm-5 0a1 1 0 010 2h-1a1 1 0 010-2h1zm-5 0a1 1 0 010 2h-1a1 1 0 010-2h1zm-5 0a1 1 0 010 2h-1a1 1 0 010-2h1zm-5 0a1 1 0 010 2h-1a1 1 0 010-2h1zm-5 0a1 1 0 010 2h-1a1 1 0 010-2h1zm-5 0a1 1 0 010 2h-1a1 1 0 010-2h1zm-5 0a1 1 0 010 2h-1a1 1 0 010-2h1zm-5 0a1 1 0 010 2h-1a1 1 0 010-2h1zm-5 0a1 1 0 010 2h-1a1 1 0 010-2h1zm-5 0a1 1 0 010 2h-1a1 1 0 010-2h1zm-5 0a1 1 0 010 2h-1a1 1 0 010-2h1zm-5 0a1 1 0 010 2h-1a1 1 0 010-2h1zm-5 0a1 1 0 010 2h-1a1 1 0 010-2h1zm-5 0a1 1 0 010 2h-1a1 1 0 010-2h1zm-5 0a1 1 0 010 2h-1a1 1 0 010-2h1zm-5 0a1 1 0 010 2h-1a1 1 0 010-2h1zm-5 0a1 1 0 010 2h-1a1 1 0 010-2h1zm-5 0a1 1 0 010 2h-1a1 1 0 010-2h1zm-5 0a1 1 0 010 2h-1a1 1 0 010-2h1zm-5 0a1 1 0 010 2h-1a1 1 0 010-2h1zm-5 0a1 1 0 010 2h-1a1 1 0 010-2h1zm1180 0a1 1 0 010 2h-1a1 1 0 010-2h1z"/>
    <path stroke="#0B0C0C" stroke-dasharray="1 4" stroke-linecap="round" stroke-linejoin="round" stroke-width="2" d="M883 589v422c0 5 4 10 10 10h1840c6 0 10-5 10-10V584h0c0-7 6-10 18-10"/>
    <path stroke="#0B0C0C" stroke-dasharray="1 4" stroke-linecap="round" stroke-linejoin="round" stroke-width="2" d="M1001 589v374c0 5 4 10 10 10h1557c6 0 10-5 10-10V664h0"/>
    <path fill="#0B0C0C" fill-rule="nonzero" d="M248 775l12 6a1 1 0 010 2l-12 6a1 1 0 01-1-1v-12l1-1zm-3 6a1 1 0 011 2h-2a1 1 0 010-2h1zm-5 0a1 1 0 011 2h-2a1 1 0 010-2h1zm-5 0a1 1 0 011 2h-2a1 1 0 010-2h1zm-5 0a1 1 0 011 2h-2a1 1 0 010-2h1zm-5 0a1 1 0 011 2h-2a1 1 0 010-2h1zm-5 0a1 1 0 011 2h-2a1 1 0 010-2h1zm-6 0h1a1 1 0 011 2h-1-1a1 1 0 010-2zm-4-1h1a1 1 0 11-1 2l-1-1a1 1 0 011-1zm-3-4l1 1a1 1 0 01-2 1l-1-1a1 1 0 112-1zm-2-5l1 1v1a1 1 0 11-2 0v-1l1-1zm0-5l1 1v1a1 1 0 01-2 0v-1l1-1zm0-5l1 1v1a1 1 0 01-2 0v-1l1-1zm0-5l1 1v1a1 1 0 01-2 0v-1l1-1zm0-5l1 1v1a1 1 0 01-2 0v-1l1-1zm0-5l1 1v1a1 1 0 01-2 0v-1l1-1zm0-5l1 1v1a1 1 0 01-2 0v-1l1-1zm0-5l1 1v1a1 1 0 01-2 0v-1l1-1zm0-5l1 1v1a1 1 0 01-2 0v-1l1-1zm0-5l1 1v1a1 1 0 01-2 0v-1l1-1zm0-5l1 1v1a1 1 0 01-2 0v-1l1-1zm0-5l1 1v1a1 1 0 01-2 0v-1l1-1zm0-5l1 1v1a1 1 0 01-2 0v-1l1-1zm0-5l1 1v1a1 1 0 01-2 0v-1l1-1zm0-5l1 1v1a1 1 0 01-2 0v-1l1-1zm0-5l1 1v1a1 1 0 01-2 0v-1l1-1zm0-5l1 1v1a1 1 0 01-2 0v-1l1-1zm0-5l1 1v1a1 1 0 01-2 0v-1l1-1zm0-5l1 1v1a1 1 0 01-2 0v-1l1-1zm0-5l1 1v1a1 1 0 01-2 0v-1l1-1zm0-5l1 1v1a1 1 0 01-2 0v-1l1-1zm0-5l1 1v1a1 1 0 01-2 0v-1l1-1zm0-5l1 1v1a1 1 0 01-2 0v-1l1-1zm0-5l1 1v1a1 1 0 01-2 0v-1l1-1zm0-5l1 1v1a1 1 0 01-2 0v-1l1-1zm0-5l1 1v1a1 1 0 01-2 0v-1l1-1zm0-5l1 1v1a1 1 0 01-2 0v-1l1-1zm0-5l1 1v1a1 1 0 01-2 0v-1l1-1zm0-5l1 1v1a1 1 0 01-2 0v-1l1-1zm0-5l1 1v1a1 1 0 01-2 0v-1l1-1zm0-5l1 1v1a1 1 0 01-2 0v-1l1-1zm0-5l1 1v1a1 1 0 01-2 0v-1l1-1zm0-5l1 1v1a1 1 0 01-2 0v-1l1-1zm0-5l1 1v1a1 1 0 01-2 0v-1l1-1zm0-5l1 1v1a1 1 0 01-2 0v-1l1-1zm0-5l1 1v1a1 1 0 01-2 0v-1l1-1zm0-5l1 1v1a1 1 0 01-2 0v-1l1-1zm0-5l1 1v1a1 1 0 01-2 0v-1l1-1zm0-5l1 1v1a1 1 0 01-2 0v-1l1-1zm0-5l1 1v1a1 1 0 01-2 0v-1l1-1z"/>
    <path fill="#FFF" stroke="#0B0C0C" stroke-width="2" d="M481 322h108v94H481z"/>
    <path fill="#0B0C0C" d="M480 321h110v10H480z"/>
    <g fill="#0B0C0C">
      <path d="M487 364h22v1h-22zM487 370h72v1h-72zM487 378h72v1h-72zM487 374h72v1h-72zM487 382h40v1h-40z"/>
    </g>
    <text fill="#231F20" font-family="sans-serif" font-size="10" font-weight="bold" letter-spacing="-.1" transform="translate(487 336)">
      <tspan x="0" y="10">Apply for teacher </tspan> <tspan x="0" y="21">training</tspan>
    </text>
    <g transform="translate(487 395)">
      <use fill="#00823B" xlink:href="#a"/>
      <use fill="#000" filter="url(#b)" xlink:href="#a"/>
    </g>
    <path fill="#FFF" stroke="#0B0C0C" stroke-width="2" d="M1190 528h108v94h-108z"/>
    <path fill="#0B0C0C" d="M1189 527h110v10h-110z"/>
    <g transform="translate(1196 602)">
      <use fill="#00823B" xlink:href="#c"/>
      <use fill="#000" filter="url(#d)" xlink:href="#c"/>
    </g>
    <g transform="translate(1196 571)">
      <g transform="translate(0 13)">
        <use xlink:href="#reuse-0"/>
        <circle cx="5" cy="5" r="4.5" fill="#FFF" stroke="#0B0C0C"/>
      </g>
      <use xlink:href="#reuse-0"/>
      <circle cx="5" cy="5" r="4.5" fill="#FFF" stroke="#0B0C0C"/>
    </g>
    <text fill="#231F20" font-family="sans-serif" font-size="10" font-weight="bold" transform="translate(1196 542)">
      <tspan x="0" y="10">Apply to this </tspan> <tspan x="0" y="21">course?</tspan>
    </text>
    <path fill="#FFF" stroke="#0B0C0C" stroke-width="2" d="M1430 528h108v94h-108z"/>
    <path fill="#0B0C0C" d="M1429 527h110v10h-110z"/>
    <g transform="translate(1436 602)">
      <use fill="#00823B" xlink:href="#e"/>
      <use fill="#000" filter="url(#f)" xlink:href="#e"/>
    </g>
    <g transform="translate(1436 571)">
      <g transform="translate(0 13)">
        <use xlink:href="#reuse-0"/>
        <circle cx="5" cy="5" r="4.5" fill="#FFF" stroke="#0B0C0C"/>
      </g>
      <use xlink:href="#reuse-0"/>
      <circle cx="5" cy="5" r="4.5" fill="#FFF" stroke="#0B0C0C"/>
    </g>
    <text fill="#231F20" font-family="sans-serif" font-size="10" font-weight="bold" transform="translate(1436 542)">
      <tspan x="0" y="10">Have you already </tspan> <tspan x="0" y="21">chosen a course?</tspan>
    </text>
    <path fill="#FFF" stroke="#0B0C0C" stroke-width="2" d="M1650 528h108v94h-108z"/>
    <path fill="#0B0C0C" d="M1649 527h110v10h-110z"/>
    <g transform="translate(1656 590)">
      <use fill="#00823B" xlink:href="#g"/>
      <use fill="#000" filter="url(#h)" xlink:href="#g"/>
    </g>
    <path fill="#FFF" stroke="#0B0C0C" d="M1657 571h71v9h-71z"/>
    <text fill="#231F20" font-family="sans-serif" font-size="10" font-weight="bold" transform="translate(1656 542)">
      <tspan x="0" y="10">Which training </tspan> <tspan x="0" y="21">provider?</tspan>
    </text>
    <path fill="#FFF" stroke="#0B0C0C" stroke-width="2" d="M1870 528h108v94h-108z"/>
    <path fill="#0B0C0C" d="M1869 527h110v10h-110z"/>
    <g transform="translate(1876 590)">
      <use fill="#00823B" xlink:href="#i"/>
      <use fill="#000" filter="url(#j)" xlink:href="#i"/>
    </g>
    <path fill="#FFF" stroke="#0B0C0C" d="M1877 571h71v9h-71z"/>
    <text fill="#231F20" font-family="sans-serif" font-size="10" font-weight="bold" transform="translate(1876 542)">
      <tspan x="0" y="10">Which course?</tspan>
    </text>
    <path fill="#FFF" stroke="#0B0C0C" stroke-width="2" d="M2450 528h108v94h-108z"/>
    <path fill="#0B0C0C" d="M2449 527h110v10h-110z"/>
    <g transform="translate(2456 590)">
      <use fill="#00823B" xlink:href="#k"/>
      <use fill="#000" filter="url(#l)" xlink:href="#k"/>
    </g>
    <path fill="#FFF" stroke="#0B0C0C" d="M2457 571h71v9h-71z"/>
    <text fill="#231F20" font-family="sans-serif" font-size="10" font-weight="bold" transform="translate(2456 542)">
      <tspan x="0" y="10">Which location?</tspan>
    </text>
    <path fill="#FFF" stroke="#0B0C0C" stroke-width="2" d="M2615 528h108v94h-108z"/>
    <path fill="#0B0C0C" d="M2614 527h110v10h-110z"/>
    <g transform="translate(2621 601)">
      <use fill="#00823B" xlink:href="#m"/>
      <use fill="#000" filter="url(#n)" xlink:href="#m"/>
    </g>
    <g fill="#BFC1C3">
      <path d="M2621 586h72v1h-72zM2621 578h72v1h-72zM2621 570h72v1h-72z"/>
    </g>
    <g fill="#005EA5">
      <path d="M2683 574h10v1h-10zM2683 590h10v1h-10zM2683 582h10v1h-10z"/>
    </g>
    <g fill="#0B0C0C">
      <path d="M2621 574h12v1h-12zM2640 574h33v1h-33zM2621 590h12v1h-12zM2640 590h33v1h-33zM2621 582h12v1h-12zM2640 582h33v1h-33z"/>
    </g>
    <text fill="#231F20" font-family="sans-serif" font-size="10" font-weight="bold" letter-spacing="-.1" transform="translate(2621 542)">
      <tspan x="0" y="10">Course choices</tspan>
    </text>
    <path fill="#FFF" stroke="#0B0C0C" stroke-width="2" d="M2780 528h108v94h-108z"/>
    <path fill="#0B0C0C" d="M2779 527h110v10h-110zM2786 570h22v1h-22zM2786 576h72v1h-72zM2786 584h72v1h-72zM2786 580h72v1h-72zM2786 588h40v1h-40z"/>
    <text fill="#231F20" font-family="sans-serif" font-size="10" font-weight="bold" letter-spacing="-.1" transform="translate(2786 542)">
      <tspan x="0" y="10">Your application</tspan>
    </text>
    <path fill="#FFF" stroke="#0B0C0C" stroke-width="2" d="M2230 528h108v94h-108z"/>
    <path fill="#0B0C0C" d="M2229 527h110v10h-110z"/>
    <g transform="translate(2236 602)">
      <use fill="#00823B" xlink:href="#o"/>
      <use fill="#000" filter="url(#p)" xlink:href="#o"/>
    </g>
    <g transform="translate(2236 571)">
      <g transform="translate(0 13)">
        <use xlink:href="#reuse-0"/>
        <circle cx="5" cy="5" r="4.5" fill="#FFF" stroke="#0B0C0C"/>
      </g>
      <use xlink:href="#reuse-0"/>
      <circle cx="5" cy="5" r="4.5" fill="#FFF" stroke="#0B0C0C"/>
    </g>
    <text fill="#231F20" font-family="sans-serif" font-size="10" font-weight="bold" transform="translate(2236 542)">
      <tspan x="0" y="10">Full time or part </tspan> <tspan x="0" y="21">time?</tspan>
    </text>
    <path fill="#FFF" stroke="#0B0C0C" stroke-width="2" d="M261 734h108v94H261z"/>
    <path fill="#0B0C0C" d="M260 733h110v10H260z"/>
    <g fill="#0B0C0C">
      <path d="M267 776h22v1h-22zM267 782h72v1h-72zM267 790h72v1h-72zM267 786h72v1h-72zM267 794h40v1h-40z"/>
    </g>
    <text fill="#231F20" font-family="sans-serif" font-size="10" font-weight="bold" letter-spacing="-.1" transform="translate(267 748)">
      <tspan x="0" y="10">Apply for this </tspan> <tspan x="0" y="21">course on UCAS</tspan>
    </text>
    <g transform="translate(267 807)">
      <use fill="#00823B" xlink:href="#q"/>
      <use fill="#000" filter="url(#r)" xlink:href="#q"/>
    </g>
    <path fill="#FFF" stroke="#0B0C0C" stroke-width="2" d="M1430 734h108v94h-108z"/>
    <path fill="#0B0C0C" d="M1429 733h110v10h-110z"/>
    <g fill="#0B0C0C">
      <path d="M1436 776h22v1h-22zM1436 782h72v1h-72zM1436 790h72v1h-72zM1436 786h72v1h-72zM1436 794h40v1h-40z"/>
    </g>
    <text fill="#231F20" font-family="sans-serif" font-size="10" font-weight="bold" letter-spacing="-.1" transform="translate(1436 748)">
      <tspan x="0" y="10">You can find </tspan> <tspan x="0" y="21">courses on Find</tspan>
    </text>
    <g transform="translate(1436 807)">
      <use fill="#00823B" xlink:href="#s"/>
      <use fill="#000" filter="url(#t)" xlink:href="#s"/>
    </g>
    <path fill="#FFF" stroke="#0B0C0C" stroke-width="2" d="M481 528h108v110H481z"/>
    <path fill="#0B0C0C" d="M480 527h110v12H480z"/>
    <g transform="translate(487 618)">
      <use fill="#00823B" xlink:href="#u"/>
      <use fill="#000" filter="url(#v)" xlink:href="#u"/>
    </g>
    <g transform="translate(487 587)">
      <g transform="translate(0 13)">
        <use xlink:href="#reuse-0"/>
        <circle cx="5" cy="5" r="4.5" fill="#FFF" stroke="#0B0C0C"/>
      </g>
      <use xlink:href="#reuse-0"/>
      <circle cx="5" cy="5" r="4.5" fill="#FFF" stroke="#0B0C0C"/>
    </g>
    <text fill="#231F20" font-family="sans-serif" font-size="10" font-weight="bold" transform="translate(487 543)">
      <tspan x="0" y="10">Do you want to </tspan> <tspan x="0" y="21">use DfE Apply </tspan> <tspan x="0" y="32">account?</tspan>
    </text>
    <path fill="#C00" d="M480 735h110v96H480z"/>
    <text fill="#FFF" font-family="sans-serif" font-size="10" font-weight="bold" letter-spacing="-.1" transform="translate(480 735)">
      <tspan x="42" y="51">UCAS</tspan>
    </text>
    <path fill="#1D70B8" d="M1189 735h110v96h-110z"/>
    <text fill="#FFF" font-family="sans-serif" font-size="10" font-weight="bold" letter-spacing="-.1" transform="translate(1189 735)">
      <tspan x="14" y="44">Find postgraduate </tspan> <tspan x="20" y="58">teacher training</tspan>
    </text>
    <path fill="#1D70B8" d="M40 527h110v96H40z"/>
    <text fill="#FFF" font-family="sans-serif" font-size="10" font-weight="bold" letter-spacing="-.1" transform="translate(40 527)">
      <tspan x="23" y="44">Course details</tspan> <tspan x="27" y="58">page on Find</tspan>
    </text>
    <path fill="#6F777B" d="M40 115h110v96H40z"/>
    <text fill="#FFF" font-family="sans-serif" font-size="10" font-weight="bold" letter-spacing="-.1" transform="translate(40 115)">
      <tspan x="29" y="51">Web search</tspan>
    </text>
    <path fill="#4C2C92" d="M40 321h110v96H40z"/>
    <text fill="#FFF" font-family="sans-serif" font-size="10" font-weight="bold" letter-spacing="-.1" transform="translate(40 321)">
      <tspan x="17" y="51">Provider website</tspan>
    </text>
    <path fill="#4C2C92" d="M260 321h110v96H260z"/>
    <text fill="#FFF" font-family="sans-serif" font-size="10" font-weight="bold" letter-spacing="-.1" transform="translate(260 321)">
      <tspan x="36" y="44">Provider</tspan> <tspan x="29" y="58">interstitial?</tspan>
    </text>
    <path fill="#0B0C0C" fill-rule="nonzero" d="M602 775a1 1 0 011 1v5a1 1 0 010 2v5a1 1 0 01-1 1l-12-6a1 1 0 010-2zm6 6a1 1 0 010 2h-1a1 1 0 01-1-2h2zm5 0a1 1 0 010 2h-1a1 1 0 01-1-2h2zm5 0a1 1 0 010 2h-1a1 1 0 01-1-2h2zm5 0a1 1 0 010 2h-1a1 1 0 01-1-2h2zm5 0a1 1 0 010 2h-1a1 1 0 01-1-2h2zm5 0a1 1 0 010 2h-1a1 1 0 01-1-2h2zm6 0l-1 2h-1a1 1 0 11-1-2h3zm4-2v1l-1 1a1 1 0 11-1-2v-1l2 1zm2-5l1 1-1 1a1 1 0 11-2 0l1-1 1-1zm0-5l1 1v1a1 1 0 01-2 0v-1l1-1zm0-5l1 1v1a1 1 0 01-2 0v-1l1-1zm0-5l1 1v1a1 1 0 01-2 0v-1l1-1zm0-5l1 1v1a1 1 0 01-2 0v-1l1-1zm0-5l1 1v1a1 1 0 01-2 0v-1l1-1zm0-5l1 1v1a1 1 0 01-2 0v-1l1-1zm0-5l1 1v1a1 1 0 01-2 0v-1l1-1zm0-5l1 1v1a1 1 0 01-2 0v-1l1-1zm0-5l1 1v1a1 1 0 01-2 0v-1l1-1zm0-5l1 1v1a1 1 0 01-2 0v-1l1-1zm0-5l1 1v1a1 1 0 01-2 0v-1l1-1zm0-5l1 1v1a1 1 0 01-2 0v-1l1-1zm0-5l1 1v1a1 1 0 01-2 0v-1l1-1zm0-5l1 1v1a1 1 0 01-2 0v-1l1-1zm0-5l1 1v1a1 1 0 01-2 0v-1l1-1zm0-5l1 1v1a1 1 0 01-2 0v-1l1-1zm0-5l1 1v1a1 1 0 01-2 0v-1l1-1zm0-5l1 1v1a1 1 0 01-2 0v-1l1-1zm0-5l1 1v1a1 1 0 01-2 0v-1l1-1zm0-5l1 1v1a1 1 0 01-2 0v-1l1-1zm0-5l1 1v1a1 1 0 01-2 0v-1l1-1zm0-5l1 1v1a1 1 0 01-2 0v-1l1-1zm0-5l1 1v1a1 1 0 01-2 0v-1l1-1zm0-5l1 1v1a1 1 0 01-2 0v-1l1-1zm0-5l1 1v1a1 1 0 01-2 0v-1l1-1zm0-5l1 1v1a1 1 0 01-2 0v-1l1-1zm0-5l1 1v1a1 1 0 01-2 0v-1l1-1zm0-5l1 1v1a1 1 0 01-2 0v-1l1-1zm0-5l1 1v1a1 1 0 01-2 0v-1l1-1zm0-5l1 1v1a1 1 0 01-2 0v-1l1-1zm0-5l1 1v1a1 1 0 01-2 0v-1l1-1zm0-5l1 1v1a1 1 0 01-2 0v-1l1-1zm0-5l1 1v1a1 1 0 01-2 0v-1l1-1zm0-5l1 1v1a1 1 0 01-2 0v-1l1-1zm0-5l1 1v1a1 1 0 01-2 0v-1l1-1zm0-5l1 1v1a1 1 0 01-2 0v-1l1-1zm0-5l1 1v1a1 1 0 01-2 0v-1l1-1zm0-5l1 1v1a1 1 0 01-2 0v-1l1-1zm0-5l1 1v1a1 1 0 01-2 0v-1l1-1zm0-5l1 1v1a1 1 0 01-2 0v-1l1-1z"/>
    <text fill="#1D70B8" font-family="sans-serif" font-size="12" font-weight="bold">
      <tspan x="160" y="539">Course available</tspan> <tspan x="167" y="550">on DfE Apply?</tspan>
    </text>
    <text fill="#1D70B8" font-family="sans-serif" font-size="12" font-weight="bold">
      <tspan x="617" y="538">Candidate </tspan> <tspan x="611" y="549">wants to use </tspan> <tspan x="618" y="560">DfE Apply</tspan>
    </text>
    <text fill="#0B0C0C" font-family="sans-serif" font-size="12" font-weight="bold">
      <tspan x="921" y="1009">Redirect to dashboard and show an error message</tspan>
    </text>
    <text fill="#0B0C0C" font-family="sans-serif" font-size="12" font-weight="bold">
      <tspan x="1031" y="963">Redirect to course choices and show an error message</tspan>
    </text>
    <text fill="#0B0C0C" font-family="sans-serif" font-size="12" font-weight="bold">
      <tspan x="1342" y="801">Opens in a </tspan> <tspan x="1337" y="812">new window</tspan>
    </text>
    <text fill="#0B0C0C" font-family="sans-serif" font-size="12" font-weight="bold">
      <tspan x="657" y="745">Candidate wants to </tspan> <tspan x="668" y="756">Apply via UCAS</tspan>
    </text>
    <text fill="#0B0C0C" font-family="sans-serif" font-size="12" font-weight="bold">
      <tspan x="40" y="645">User clicks ‘Apply</tspan> <tspan x="40" y="656">for this course’</tspan>
    </text>
    <text fill="#0B0C0C" font-family="sans-serif" font-size="12" font-weight="bold">
      <tspan x="892" y="601">Yes</tspan>
    </text>
    <text fill="#0B0C0C" font-family="sans-serif" font-size="12" font-weight="bold">
      <tspan x="1011" y="601">Yes</tspan>
    </text>
    <text fill="#0B0C0C" font-family="sans-serif" font-size="12" font-weight="bold">
      <tspan x="1128" y="601">No</tspan>
    </text>
    <text fill="#0B0C0C" font-family="sans-serif" font-size="12" font-weight="bold">
      <tspan x="1362" y="601">Yes</tspan>
    </text>
    <text fill="#0B0C0C" font-family="sans-serif" font-size="12" font-weight="bold">
      <tspan x="1822" y="601">No</tspan>
    </text>
    <text fill="#0B0C0C" font-family="sans-serif" font-size="12" font-weight="bold">
      <tspan x="2042" y="601">No</tspan>
    </text>
    <text fill="#0B0C0C" font-family="sans-serif" font-size="12" font-weight="bold">
      <tspan x="2181" y="601">No</tspan>
    </text>
    <text fill="#0B0C0C" font-family="sans-serif" font-size="12" font-weight="bold">
      <tspan x="2402" y="601">No</tspan>
    </text>
    <text fill="#0B0C0C" font-family="sans-serif" font-size="12" font-weight="bold">
      <tspan x="2402" y="192">Already has</tspan> <tspan x="2402" y="203">course choice(s)</tspan>
    </text>
    <text fill="#0B0C0C" font-family="sans-serif" font-size="12" font-weight="bold">
      <tspan x="213" y="606">No</tspan>
    </text>
    <text fill="#1D70B8" font-family="sans-serif" font-size="12" font-weight="bold">
      <tspan x="833" y="536">Already submitted </tspan> <tspan x="850" y="547">application?</tspan>
    </text>
    <text fill="#1D70B8" font-family="sans-serif" font-size="12" font-weight="bold">
      <tspan x="965" y="536">Already has 3 </tspan> <tspan x="958" y="547">course choices?</tspan>
    </text>
    <text fill="#1D70B8" font-family="sans-serif" font-size="12" font-weight="bold">
      <tspan x="1075" y="536">Course has been </tspan> <tspan x="1082" y="547">pre-selected?</tspan>
    </text>
    <text fill="#1D70B8" font-family="sans-serif" font-size="12" font-weight="bold">
      <tspan x="1320" y="536">Apply to this </tspan> <tspan x="1332" y="547">course?</tspan>
    </text>
    <text fill="#1D70B8" font-family="sans-serif" font-size="12" font-weight="bold">
      <tspan x="1777" y="536">Provider is on </tspan> <tspan x="1784" y="547">DfE Apply?</tspan>
    </text>
    <text fill="#1D70B8" font-family="sans-serif" font-size="12" font-weight="bold">
      <tspan x="1569" y="536">Chosen a </tspan> <tspan x="1572" y="547">course?</tspan>
    </text>
    <text fill="#1D70B8" font-family="sans-serif" font-size="12" font-weight="bold">
      <tspan x="2001" y="536">Course is on</tspan> <tspan x="2004" y="547">DfE Apply?</tspan>
    </text>
    <text fill="#1D70B8" font-family="sans-serif" font-size="12" font-weight="bold">
      <tspan x="2364" y="532">Course has </tspan> <tspan x="2371" y="543">multiple </tspan> <tspan x="2365" y="554">locations?</tspan>
    </text>
    <text fill="#1D70B8" font-family="sans-serif" font-size="12" font-weight="bold">
      <tspan x="2337" y="125">Candidate hasn’t any </tspan> <tspan x="2353" y="136">course choices</tspan>
    </text>
    <text fill="#1D70B8" font-family="sans-serif" font-size="12" font-weight="bold">
      <tspan x="2133" y="532">Course has full </tspan> <tspan x="2137" y="543">and part time </tspan> <tspan x="2149" y="554">options?</tspan>
    </text>
    <path stroke="#0B0C0C" stroke-dasharray="1 4" stroke-linecap="round" stroke-linejoin="round" stroke-width="2" d="M2173 589v72c0 5 4 10 10 10h165c6 0 10-5 10-10v-77h0c0-7 6-10 18-10m-1022 15v72c0 5 4 10 10 10h730c6 0 10-5 10-10v-77h0c0-7 6-10 18-10"/>
    <path stroke="#0B0C0C" stroke-dasharray="1 4" stroke-linecap="round" stroke-linejoin="round" stroke-width="2" d="M1120 589v102c0 5 4 10 10 10h250c6 0 10-5 10-10V584h0c0-7 6-10 18-10"/>
    <path fill="#0B0C0C" fill-rule="nonzero" d="M510 924a1 1 0 010 2h-1a1 1 0 01-1-2h2zm690 0a1 1 0 010 2h-1a1 1 0 01-1-2h2zm-685 0a1 1 0 010 2h-1a1 1 0 01-1-2h2zm5 0a1 1 0 010 2h-1a1 1 0 01-1-2h2zm5 0a1 1 0 010 2h-1a1 1 0 01-1-2h2zm5 0a1 1 0 010 2h-1a1 1 0 01-1-2h2zm5 0a1 1 0 010 2h-1a1 1 0 01-1-2h2zm5 0a1 1 0 010 2h-1a1 1 0 01-1-2h2zm5 0a1 1 0 010 2h-1a1 1 0 01-1-2h2zm5 0a1 1 0 010 2h-1a1 1 0 01-1-2h2zm5 0a1 1 0 010 2h-1a1 1 0 01-1-2h2zm5 0a1 1 0 010 2h-1a1 1 0 01-1-2h2zm5 0a1 1 0 010 2h-1a1 1 0 01-1-2h2zm5 0a1 1 0 010 2h-1a1 1 0 01-1-2h2zm5 0a1 1 0 010 2h-1a1 1 0 01-1-2h2zm5 0a1 1 0 010 2h-1a1 1 0 01-1-2h2zm5 0a1 1 0 010 2h-1a1 1 0 01-1-2h2zm5 0a1 1 0 010 2h-1a1 1 0 01-1-2h2zm5 0a1 1 0 010 2h-1a1 1 0 01-1-2h2zm-265 0a1 1 0 010 2h-1a1 1 0 01-1-2h2zm5 0a1 1 0 010 2h-1a1 1 0 01-1-2h2zm5 0a1 1 0 010 2h-1a1 1 0 01-1-2h2zm5 0a1 1 0 010 2h-1a1 1 0 01-1-2h2zm5 0a1 1 0 010 2h-1a1 1 0 01-1-2h2zm5 0a1 1 0 010 2h-1a1 1 0 01-1-2h2zm5 0a1 1 0 010 2h-1a1 1 0 01-1-2h2zm5 0a1 1 0 010 2h-1a1 1 0 01-1-2h2zm5 0a1 1 0 010 2h-1a1 1 0 01-1-2h2zm5 0a1 1 0 010 2h-1a1 1 0 01-1-2h2zm5 0a1 1 0 010 2h-1a1 1 0 01-1-2h2zm5 0a1 1 0 010 2h-1a1 1 0 01-1-2h2zm5 0a1 1 0 010 2h-1a1 1 0 01-1-2h2zm5 0a1 1 0 010 2h-1a1 1 0 01-1-2h2zm5 0a1 1 0 010 2h-1a1 1 0 01-1-2h2zm5 0a1 1 0 010 2h-1a1 1 0 01-1-2h2zm5 0a1 1 0 010 2h-1a1 1 0 01-1-2h2zm5 0a1 1 0 010 2h-1a1 1 0 01-1-2h2zm5 0a1 1 0 010 2h-1a1 1 0 01-1-2h2zm5 0a1 1 0 010 2h-1a1 1 0 01-1-2h2zm5 0a1 1 0 010 2h-1a1 1 0 01-1-2h2zm5 0a1 1 0 010 2h-1a1 1 0 01-1-2h2zm5 0a1 1 0 010 2h-1a1 1 0 01-1-2h2zm5 0a1 1 0 010 2h-1a1 1 0 01-1-2h2zm5 0a1 1 0 010 2h-1a1 1 0 01-1-2h2zm5 0a1 1 0 010 2h-1a1 1 0 01-1-2h2zm5 0a1 1 0 010 2h-1a1 1 0 01-1-2h2zm5 0a1 1 0 010 2h-1a1 1 0 01-1-2h2zm5 0a1 1 0 010 2h-1a1 1 0 01-1-2h2zm5 0a1 1 0 010 2h-1a1 1 0 01-1-2h2zm5 0a1 1 0 010 2h-1a1 1 0 01-1-2h2zm5 0a1 1 0 010 2h-1a1 1 0 01-1-2h2zm5 0a1 1 0 010 2h-1a1 1 0 01-1-2h2zm5 0a1 1 0 010 2h-1a1 1 0 01-1-2h2zm5 0a1 1 0 010 2h-1a1 1 0 01-1-2h2zm5 0a1 1 0 010 2h-1a1 1 0 01-1-2h2zm95 0a1 1 0 010 2h-1a1 1 0 01-1-2h2zm5 0a1 1 0 010 2h-1a1 1 0 01-1-2h2zm5 0a1 1 0 010 2h-1a1 1 0 01-1-2h2zm5 0a1 1 0 010 2h-1a1 1 0 01-1-2h2zm5 0a1 1 0 010 2h-1a1 1 0 01-1-2h2zm5 0a1 1 0 010 2h-1a1 1 0 01-1-2h2zm5 0a1 1 0 010 2h-1a1 1 0 01-1-2h2zm5 0a1 1 0 010 2h-1a1 1 0 01-1-2h2zm5 0a1 1 0 010 2h-1a1 1 0 01-1-2h2zm5 0a1 1 0 010 2h-1a1 1 0 01-1-2h2zm5 0a1 1 0 010 2h-1a1 1 0 01-1-2h2zm5 0a1 1 0 010 2h-1a1 1 0 01-1-2h2zm5 0a1 1 0 010 2h-1a1 1 0 01-1-2h2zm5 0a1 1 0 010 2h-1a1 1 0 01-1-2h2zm5 0a1 1 0 010 2h-1a1 1 0 01-1-2h2zm5 0a1 1 0 010 2h-1a1 1 0 01-1-2h2zm5 0a1 1 0 010 2h-1a1 1 0 01-1-2h2zm5 0a1 1 0 010 2h-1a1 1 0 01-1-2h2zm1115 0a1 1 0 010 2h-1a1 1 0 01-1-2h2zm-5 0a1 1 0 010 2h-1a1 1 0 01-1-2h2zm-5 0a1 1 0 010 2h-1a1 1 0 01-1-2h2zm-5 0a1 1 0 010 2h-1a1 1 0 01-1-2h2zm-5 0a1 1 0 010 2h-1a1 1 0 01-1-2h2zm-5 0a1 1 0 010 2h-1a1 1 0 01-1-2h2zm-5 0a1 1 0 010 2h-1a1 1 0 01-1-2h2zm-5 0a1 1 0 010 2h-1a1 1 0 01-1-2h2zm-5 0a1 1 0 010 2h-1a1 1 0 01-1-2h2zm-5 0a1 1 0 010 2h-1a1 1 0 01-1-2h2zm-5 0a1 1 0 010 2h-1a1 1 0 01-1-2h2zm-5 0a1 1 0 010 2h-1a1 1 0 01-1-2h2zm-5 0a1 1 0 010 2h-1a1 1 0 01-1-2h2zm-5 0a1 1 0 010 2h-1a1 1 0 01-1-2h2zm-5 0a1 1 0 010 2h-1a1 1 0 01-1-2h2zm-5 0a1 1 0 010 2h-1a1 1 0 01-1-2h2zm-5 0a1 1 0 010 2h-1a1 1 0 01-1-2h2zm-5 0a1 1 0 010 2h-1a1 1 0 01-1-2h2zm-5 0a1 1 0 010 2h-1a1 1 0 01-1-2h2zm-5 0a1 1 0 010 2h-1a1 1 0 01-1-2h2zm-5 0a1 1 0 010 2h-1a1 1 0 01-1-2h2zm-5 0a1 1 0 010 2h-1a1 1 0 01-1-2h2zm-5 0a1 1 0 010 2h-1a1 1 0 01-1-2h2zm-5 0a1 1 0 010 2h-1a1 1 0 01-1-2h2zm-5 0a1 1 0 010 2h-1a1 1 0 01-1-2h2zm-5 0a1 1 0 010 2h-1a1 1 0 01-1-2h2zm-5 0a1 1 0 010 2h-1a1 1 0 01-1-2h2zm-5 0a1 1 0 010 2h-1a1 1 0 01-1-2h2zm-5 0a1 1 0 010 2h-1a1 1 0 01-1-2h2zm-5 0a1 1 0 010 2h-1a1 1 0 01-1-2h2zm-5 0a1 1 0 010 2h-1a1 1 0 01-1-2h2zm-5 0a1 1 0 010 2h-1a1 1 0 01-1-2h2zm-5 0a1 1 0 010 2h-1a1 1 0 01-1-2h2zm-5 0a1 1 0 010 2h-1a1 1 0 01-1-2h2zm-5 0a1 1 0 010 2h-1a1 1 0 01-1-2h2zm-5 0a1 1 0 010 2h-1a1 1 0 01-1-2h2zm-5 0a1 1 0 010 2h-1a1 1 0 01-1-2h2zm-5 0a1 1 0 010 2h-1a1 1 0 01-1-2h2zm-5 0a1 1 0 010 2h-1a1 1 0 01-1-2h2zm-5 0a1 1 0 010 2h-1a1 1 0 01-1-2h2zm-5 0a1 1 0 010 2h-1a1 1 0 01-1-2h2zm-5 0a1 1 0 010 2h-1a1 1 0 01-1-2h2zm-5 0a1 1 0 010 2h-1a1 1 0 01-1-2h2zm-5 0a1 1 0 010 2h-1a1 1 0 01-1-2h2zm-5 0a1 1 0 010 2h-1a1 1 0 01-1-2h2zm-5 0a1 1 0 010 2h-1a1 1 0 01-1-2h2zm-5 0a1 1 0 010 2h-1a1 1 0 01-1-2h2zm-5 0a1 1 0 010 2h-1a1 1 0 01-1-2h2zm-5 0a1 1 0 010 2h-1a1 1 0 01-1-2h2zm-5 0a1 1 0 010 2h-1a1 1 0 01-1-2h2zm-5 0a1 1 0 010 2h-1a1 1 0 01-1-2h2zm-5 0a1 1 0 010 2h-1a1 1 0 01-1-2h2zm-5 0a1 1 0 010 2h-1a1 1 0 01-1-2h2zm-5 0a1 1 0 010 2h-1a1 1 0 01-1-2h2zm-5 0a1 1 0 010 2h-1a1 1 0 01-1-2h2zm-5 0a1 1 0 010 2h-1a1 1 0 01-1-2h2zm-5 0a1 1 0 010 2h-1a1 1 0 01-1-2h2zm-5 0a1 1 0 010 2h-1a1 1 0 01-1-2h2zm-5 0a1 1 0 010 2h-1a1 1 0 01-1-2h2zm-5 0a1 1 0 010 2h-1a1 1 0 01-1-2h2zm-5 0a1 1 0 010 2h-1a1 1 0 01-1-2h2zm-5 0a1 1 0 010 2h-1a1 1 0 01-1-2h2zm-5 0a1 1 0 010 2h-1a1 1 0 01-1-2h2zm-5 0a1 1 0 010 2h-1a1 1 0 01-1-2h2zm-5 0a1 1 0 010 2h-1a1 1 0 01-1-2h2zm-5 0a1 1 0 010 2h-1a1 1 0 01-1-2h2zm-5 0a1 1 0 010 2h-1a1 1 0 01-1-2h2zm-5 0a1 1 0 010 2h-1a1 1 0 01-1-2h2zm-5 0a1 1 0 010 2h-1a1 1 0 01-1-2h2zm-5 0a1 1 0 010 2h-1a1 1 0 01-1-2h2zm-5 0a1 1 0 010 2h-1a1 1 0 01-1-2h2zm-5 0a1 1 0 010 2h-1a1 1 0 01-1-2h2zm-5 0a1 1 0 010 2h-1a1 1 0 01-1-2h2zm-5 0a1 1 0 010 2h-1a1 1 0 01-1-2h2zm-5 0a1 1 0 010 2h-1a1 1 0 01-1-2h2zm-5 0a1 1 0 010 2h-1a1 1 0 01-1-2h2zm-5 0a1 1 0 010 2h-1a1 1 0 01-1-2h2zm-5 0a1 1 0 010 2h-1a1 1 0 01-1-2h2zm-5 0a1 1 0 010 2h-1a1 1 0 01-1-2h2zm-5 0a1 1 0 010 2h-1a1 1 0 01-1-2h2zm-5 0a1 1 0 010 2h-1a1 1 0 01-1-2h2zm-5 0a1 1 0 010 2h-1a1 1 0 01-1-2h2zm-5 0a1 1 0 010 2h-1a1 1 0 01-1-2h2zm-5 0a1 1 0 010 2h-1a1 1 0 01-1-2h2zm-5 0a1 1 0 010 2h-1a1 1 0 01-1-2h2zm-5 0a1 1 0 010 2h-1a1 1 0 01-1-2h2zm-5 0a1 1 0 010 2h-1a1 1 0 01-1-2h2zm-5 0a1 1 0 010 2h-1a1 1 0 01-1-2h2zm-5 0a1 1 0 010 2h-1a1 1 0 01-1-2h2zm-5 0a1 1 0 010 2h-1a1 1 0 01-1-2h2zm-5 0a1 1 0 010 2h-1a1 1 0 01-1-2h2zm-5 0a1 1 0 010 2h-1a1 1 0 01-1-2h2zm-5 0a1 1 0 010 2h-1a1 1 0 01-1-2h2zm-5 0a1 1 0 010 2h-1a1 1 0 01-1-2h2zm-5 0a1 1 0 010 2h-1a1 1 0 01-1-2h2zm-5 0a1 1 0 010 2h-1a1 1 0 01-1-2h2zm-5 0a1 1 0 010 2h-1a1 1 0 01-1-2h2zm-5 0a1 1 0 010 2h-1a1 1 0 01-1-2h2zm-5 0a1 1 0 010 2h-1a1 1 0 01-1-2h2zm-5 0a1 1 0 010 2h-1a1 1 0 01-1-2h2zm-5 0a1 1 0 010 2h-1a1 1 0 01-1-2h2zm-5 0a1 1 0 010 2h-1a1 1 0 01-1-2h2zm-5 0a1 1 0 010 2h-1a1 1 0 01-1-2h2zm-5 0a1 1 0 010 2h-1a1 1 0 01-1-2h2zm-5 0a1 1 0 010 2h-1a1 1 0 01-1-2h2zm-5 0a1 1 0 010 2h-1a1 1 0 01-1-2h2zm-5 0a1 1 0 010 2h-1a1 1 0 01-1-2h2zm-5 0a1 1 0 010 2h-1a1 1 0 01-1-2h2zm-5 0a1 1 0 010 2h-1a1 1 0 01-1-2h2zm-5 0a1 1 0 010 2h-1a1 1 0 01-1-2h2zm-5 0a1 1 0 010 2h-1a1 1 0 01-1-2h2zm-5 0a1 1 0 010 2h-1a1 1 0 01-1-2h2zm-5 0a1 1 0 010 2h-1a1 1 0 01-1-2h2zm-5 0a1 1 0 010 2h-1a1 1 0 01-1-2h2zm-5 0a1 1 0 010 2h-1a1 1 0 01-1-2h2zm-5 0a1 1 0 010 2h-1a1 1 0 01-1-2h2zm-5 0a1 1 0 010 2h-1a1 1 0 01-1-2h2zm-5 0a1 1 0 010 2h-1a1 1 0 01-1-2h2zm-5 0a1 1 0 010 2h-1a1 1 0 01-1-2h2zm-5 0a1 1 0 010 2h-1a1 1 0 01-1-2h2zm-515 0a1 1 0 010 2h-1a1 1 0 01-1-2h2zm505 0a1 1 0 010 2h-1a1 1 0 01-1-2h2zm-5 0a1 1 0 010 2h-1a1 1 0 01-1-2h2zm-5 0a1 1 0 010 2h-1a1 1 0 01-1-2h2zm-5 0a1 1 0 010 2h-1a1 1 0 01-1-2h2zm-5 0a1 1 0 010 2h-1a1 1 0 01-1-2h2zm-5 0a1 1 0 010 2h-1a1 1 0 01-1-2h2zm-5 0a1 1 0 010 2h-1a1 1 0 01-1-2h2zm-5 0a1 1 0 010 2h-1a1 1 0 01-1-2h2zm-5 0a1 1 0 010 2h-1a1 1 0 01-1-2h2zm-5 0a1 1 0 010 2h-1a1 1 0 01-1-2h2zm-5 0a1 1 0 010 2h-1a1 1 0 01-1-2h2zm-5 0a1 1 0 010 2h-1a1 1 0 01-1-2h2zm-5 0a1 1 0 010 2h-1a1 1 0 01-1-2h2zm-5 0a1 1 0 010 2h-1a1 1 0 01-1-2h2zm-5 0a1 1 0 010 2h-1a1 1 0 01-1-2h2zm-5 0a1 1 0 010 2h-1a1 1 0 01-1-2h2zm-5 0a1 1 0 010 2h-1a1 1 0 01-1-2h2zm-5 0a1 1 0 010 2h-1a1 1 0 01-1-2h2zm-5 0a1 1 0 010 2h-1a1 1 0 01-1-2h2zm-5 0a1 1 0 010 2h-1a1 1 0 01-1-2h2zm-5 0a1 1 0 010 2h-1a1 1 0 01-1-2h2zm-5 0a1 1 0 010 2h-1a1 1 0 01-1-2h2zm-5 0a1 1 0 010 2h-1a1 1 0 01-1-2h2zm-5 0a1 1 0 010 2h-1a1 1 0 01-1-2h2zm-5 0a1 1 0 010 2h-1a1 1 0 01-1-2h2zm-5 0a1 1 0 010 2h-1a1 1 0 01-1-2h2zm-5 0a1 1 0 010 2h-1a1 1 0 01-1-2h2zm-5 0a1 1 0 010 2h-1a1 1 0 01-1-2h2zm-5 0a1 1 0 010 2h-1a1 1 0 01-1-2h2zm-5 0a1 1 0 010 2h-1a1 1 0 01-1-2h2zm-5 0a1 1 0 010 2h-1a1 1 0 01-1-2h2zm-5 0a1 1 0 010 2h-1a1 1 0 01-1-2h2zm-5 0a1 1 0 010 2h-1a1 1 0 01-1-2h2zm-5 0a1 1 0 010 2h-1a1 1 0 01-1-2h2zm-5 0a1 1 0 010 2h-1a1 1 0 01-1-2h2zm-5 0a1 1 0 010 2h-1a1 1 0 01-1-2h2zm-5 0a1 1 0 010 2h-1a1 1 0 01-1-2h2zm-5 0a1 1 0 010 2h-1a1 1 0 01-1-2h2zm-5 0a1 1 0 010 2h-1a1 1 0 01-1-2h2zm-5 0a1 1 0 010 2h-1a1 1 0 01-1-2h2zm-5 0a1 1 0 010 2h-1a1 1 0 01-1-2h2zm-5 0a1 1 0 010 2h-1a1 1 0 01-1-2h2zm-5 0a1 1 0 010 2h-1a1 1 0 01-1-2h2zm-5 0a1 1 0 010 2h-1a1 1 0 01-1-2h2zm-5 0a1 1 0 010 2h-1a1 1 0 01-1-2h2zm-5 0a1 1 0 010 2h-1a1 1 0 01-1-2h2zm-5 0a1 1 0 010 2h-1a1 1 0 01-1-2h2zm-5 0a1 1 0 010 2h-1a1 1 0 01-1-2h2zm-5 0a1 1 0 010 2h-1a1 1 0 01-1-2h2zm-5 0a1 1 0 010 2h-1a1 1 0 01-1-2h2zm-5 0a1 1 0 010 2h-1a1 1 0 01-1-2h2zm-5 0a1 1 0 010 2h-1a1 1 0 01-1-2h2zm-5 0a1 1 0 010 2h-1a1 1 0 01-1-2h2zm-5 0a1 1 0 010 2h-1a1 1 0 01-1-2h2zm-5 0a1 1 0 010 2h-1a1 1 0 01-1-2h2zm-5 0a1 1 0 010 2h-1a1 1 0 01-1-2h2zm-5 0a1 1 0 010 2h-1a1 1 0 01-1-2h2zm-5 0a1 1 0 010 2h-1a1 1 0 01-1-2h2zm-5 0a1 1 0 010 2h-1a1 1 0 01-1-2h2zm-5 0a1 1 0 010 2h-1a1 1 0 01-1-2h2zm-5 0a1 1 0 010 2h-1a1 1 0 01-1-2h2zm-5 0a1 1 0 010 2h-1a1 1 0 01-1-2h2zm-5 0a1 1 0 010 2h-1a1 1 0 01-1-2h2zm-5 0a1 1 0 010 2h-1a1 1 0 01-1-2h2zm-5 0a1 1 0 010 2h-1a1 1 0 01-1-2h2zm-5 0a1 1 0 010 2h-1a1 1 0 01-1-2h2zm-5 0a1 1 0 010 2h-1a1 1 0 01-1-2h2zm-5 0a1 1 0 010 2h-1a1 1 0 01-1-2h2zm-5 0a1 1 0 010 2h-1a1 1 0 01-1-2h2zm-5 0a1 1 0 010 2h-1a1 1 0 01-1-2h2zm-5 0a1 1 0 010 2h-1a1 1 0 01-1-2h2zm-5 0a1 1 0 010 2h-1a1 1 0 01-1-2h2zm-5 0a1 1 0 010 2h-1a1 1 0 01-1-2h2zm-5 0a1 1 0 010 2h-1a1 1 0 01-1-2h2zm-5 0a1 1 0 010 2h-1a1 1 0 01-1-2h2zm-5 0a1 1 0 010 2h-1a1 1 0 01-1-2h2zm-5 0a1 1 0 010 2h-1a1 1 0 01-1-2h2zm-5 0a1 1 0 010 2h-1a1 1 0 01-1-2h2zm-5 0a1 1 0 010 2h-1a1 1 0 01-1-2h2zm-5 0a1 1 0 010 2h-1a1 1 0 01-1-2h2zm-5 0a1 1 0 010 2h-1a1 1 0 01-1-2h2zm-5 0a1 1 0 010 2h-1a1 1 0 01-1-2h2zm-5 0a1 1 0 010 2h-1a1 1 0 01-1-2h2zm-5 0a1 1 0 010 2h-1a1 1 0 01-1-2h2zm-5 0a1 1 0 010 2h-1a1 1 0 01-1-2h2zm-5 0a1 1 0 010 2h-1a1 1 0 01-1-2h2zm-5 0a1 1 0 010 2h-1a1 1 0 01-1-2h2zm-5 0a1 1 0 010 2h-1a1 1 0 01-1-2h2zm-5 0a1 1 0 010 2h-1a1 1 0 01-1-2h2zm-5 0a1 1 0 010 2h-1a1 1 0 01-1-2h2zm-5 0a1 1 0 010 2h-1a1 1 0 01-1-2h2zm-5 0a1 1 0 010 2h-1a1 1 0 01-1-2h2zm-5 0a1 1 0 010 2h-1a1 1 0 01-1-2h2zm-5 0a1 1 0 010 2h-1a1 1 0 01-1-2h2zm-5 0a1 1 0 010 2h-1a1 1 0 01-1-2h2zm-5 0a1 1 0 010 2h-1a1 1 0 01-1-2h2zm-5 0a1 1 0 010 2h-1a1 1 0 01-1-2h2zm-5 0a1 1 0 010 2h-1a1 1 0 01-1-2h2zm-5 0a1 1 0 010 2h-1a1 1 0 01-1-2h2zm-5 0a1 1 0 010 2h-1a1 1 0 01-1-2h2zm-5 0a1 1 0 010 2h-1a1 1 0 01-1-2h2zm1111 1l-1 1h-1a1 1 0 01-1-2h2l1 1zm-1482-1h1a1 1 0 010 2h-2a1 1 0 011-2zm1486-1v1l-1 1a1 1 0 01-1-2h2zm-1490-1v1a1 1 0 01-1 1h-1a1 1 0 112-2zm1493-3l1 1-1 1a1 1 0 01-2-1l1-1h1zm-1496 0a1 1 0 01-2 1v-1a1 1 0 012 0zm1497-5l1 1v1a1 1 0 01-2 0v-1l1-1zm-1499-1l1 1v1a1 1 0 11-2 0v-1l1-1zm1499-4l1 1v1a1 1 0 01-2 0v-1l1-1zm-1499-1l1 1v1a1 1 0 01-2 0v-1l1-1zm1499-4l1 1v1a1 1 0 01-2 0v-1l1-1zm-1499-1l1 1v1a1 1 0 01-2 0v-1l1-1zm1499-4l1 1v1a1 1 0 01-2 0v-1l1-1zm-1499-1l1 1v1a1 1 0 01-2 0v-1l1-1zm1499-4l1 1v1a1 1 0 01-2 0v-1l1-1zm-1499-1l1 1v1a1 1 0 01-2 0v-1l1-1zm1499-4l1 1v1a1 1 0 01-2 0v-1l1-1zm-1499-1l1 1v1a1 1 0 01-2 0v-1l1-1zm1499-4l1 1v1a1 1 0 01-2 0v-1l1-1zm-1499-1l1 1v1a1 1 0 01-2 0v-1l1-1zm1499-4l1 1v1a1 1 0 01-2 0v-1l1-1zm-1499-1l1 1v1a1 1 0 01-2 0v-1l1-1zm1499-4l1 1v1a1 1 0 01-2 0v-1l1-1zm-1499-1l1 1v1a1 1 0 01-2 0v-1l1-1zm1499-4l1 1v1a1 1 0 01-2 0v-1l1-1zm-1499-1l1 1v1a1 1 0 01-2 0v-1l1-1zm1499-4l1 1v1a1 1 0 01-2 0v-1l1-1zm-1499-1l1 1v1a1 1 0 01-2 0v-1l1-1zm1499-4l1 1v1a1 1 0 01-2 0v-1l1-1zm-1499-1l1 1v1a1 1 0 01-2 0v-1l1-1zm1499-4l1 1v1a1 1 0 01-2 0v-1l1-1zm-1499-1l1 1v1a1 1 0 01-2 0v-1l1-1zm1499-4l1 1v1a1 1 0 01-2 0v-1l1-1zm-1499-1l1 1v1a1 1 0 01-2 0v-1l1-1zm1499-4l1 1v1a1 1 0 01-2 0v-1l1-1zm-1499-1l1 1v1a1 1 0 01-2 0v-1l1-1zm-1-14a1 1 0 012 0l6 12a1 1 0 01-1 1h-12a1 1 0 01-1-1zm1500 10l1 1v1a1 1 0 01-2 0v-1l1-1zm0-5l1 1v1a1 1 0 01-2 0v-1l1-1zm0-5l1 1v1a1 1 0 01-2 0v-1l1-1zm0-5l1 1v1a1 1 0 01-2 0v-1l1-1zm0-5l1 1v1a1 1 0 01-2 0v-1l1-1zm0-5l1 1v1a1 1 0 01-2 0v-1l1-1zm0-5l1 1v1a1 1 0 01-2 0v-1l1-1zm0-5l1 1v1a1 1 0 01-2 0v-1l1-1zm0-5l1 1v1a1 1 0 01-2 0v-1l1-1zm0-5l1 1v1a1 1 0 01-2 0v-1l1-1zm0-5l1 1v1a1 1 0 01-2 0v-1l1-1zm0-5l1 1v1a1 1 0 01-2 0v-1l1-1zm0-5l1 1v1a1 1 0 01-2 0v-1l1-1zm0-5l1 1v1a1 1 0 01-2 0v-1l1-1zm0-5l1 1v1a1 1 0 01-2 0v-1l1-1zm0-5l1 1v1a1 1 0 01-2 0v-1l1-1zm0-5l1 1v1a1 1 0 01-2 0v-1l1-1zm0-5l1 1v1a1 1 0 01-2 0v-1l1-1zm0-5l1 1v1a1 1 0 01-2 0v-1l1-1zm0-5l1 1v1a1 1 0 01-2 0v-1l1-1zm0-5l1 1v1a1 1 0 01-2 0v-1l1-1zm0-5l1 1v1a1 1 0 01-2 0v-1l1-1zm0-5l1 1v1a1 1 0 01-2 0v-1l1-1zm0-5l1 1v1a1 1 0 01-2 0v-1l1-1zm0-5l1 1v1a1 1 0 01-2 0v-1l1-1zm0-5l1 1v1a1 1 0 01-2 0v-1l1-1zm0-5l1 1v1a1 1 0 01-2 0v-1l1-1zm0-5l1 1v1a1 1 0 01-2 0v-1l1-1zm0-5l1 1v1a1 1 0 01-2 0v-1l1-1zm0-5l1 1v1a1 1 0 01-2 0v-1l1-1zm0-5l1 1v1a1 1 0 01-2 0v-1l1-1zm0-5l1 1v1a1 1 0 01-2 0v-1l1-1zm0-5l1 1v1a1 1 0 01-2 0v-1l1-1zm0-5l1 1v1a1 1 0 01-2 0v-1l1-1zm0-5l1 1v1a1 1 0 01-2 0v-1l1-1zm0-5l1 1v1a1 1 0 01-2 0v-1l1-1zm0-5l1 1v1a1 1 0 01-2 0v-1l1-1zm0-5l1 1v1a1 1 0 01-2 0v-1l1-1zm0-5l1 1v1a1 1 0 01-2 0v-1l1-1zm0-5l1 1v1a1 1 0 01-2 0v-1l1-1zm0-5l1 1v1a1 1 0 01-2 0v-1l1-1zm0-5l1 1v1a1 1 0 01-2 0v-1l1-1zm0-5l1 1v1a1 1 0 01-2 0v-1l1-1zm0-5l1 1v1a1 1 0 01-2 0v-1l1-1zm0-5l1 1v1a1 1 0 01-2 0v-1l1-1zm0-5l1 1v1a1 1 0 01-2 0v-1l1-1zm0-5l1 1v1a1 1 0 01-2 0v-1l1-1zm0-5l1 1v1a1 1 0 01-2 0v-1l1-1zm0-5l1 1v1a1 1 0 01-2 0v-1l1-1zm0-5l1 1v1a1 1 0 01-2 0v-1l1-1zm0-5l1 1v1a1 1 0 01-2 0v-1l1-1zm0-5l1 1v1a1 1 0 01-2 0v-1l1-1zm0-5l1 1v1a1 1 0 01-2 0v-1l1-1zm0-5l1 1v1a1 1 0 01-2 0v-1l1-1z"/>
    <path stroke="#0B0C0C" stroke-dasharray="1 4" stroke-linecap="round" stroke-linejoin="round" stroke-width="2" d="M2034 574v341c0 6-4 10-10 10h-225 0M2394 589v72c0 5 4 10 10 10h164c6 0 10-5 10-10v-77h0c0-7 6-10 18-10"/>
    <path fill="#0B0C0C" fill-rule="nonzero" d="M2669 525h1v2a1 1 0 01-2 0v-1l1-1zm-1185-14l1 1v1h5l1 1-6 13a1 1 0 01-2 0l-6-13a1 1 0 011-1h5v-1l1-1zm1185 9h1v2a1 1 0 01-2 0v-1l1-1zm0-5h1v2a1 1 0 01-2 0v-1l1-1zm0-5h1v2a1 1 0 01-2 0v-1l1-1zm-1185-4l1 1v1a1 1 0 01-2 0v-1l1-1zm1185-1h1v2a1 1 0 01-2 0v-1l1-1zm-1185-4l1 1v1a1 1 0 01-2 0v-1l1-1zm1185-1h1v2a1 1 0 01-2 0v-1l1-1zm-1185-4l1 1v1a1 1 0 01-2 0v-1l1-1zm1185-1h1v2a1 1 0 01-2 0v-1l1-1zm-1185-4l1 1v1a1 1 0 01-2 0v-1l1-1zm1185-1h1v2a1 1 0 01-2 0v-1l1-1zm-1185-4l1 1v1a1 1 0 01-2 0v-1l1-1zm1185-1h1v2a1 1 0 01-2 0v-1l1-1zm-1185-4l1 1v1a1 1 0 01-2 0v-1l1-1zm1185-1h1v2a1 1 0 01-2 0v-1l1-1zm-1185-4l1 1v1a1 1 0 01-2 0v-1l1-1zm1185-1h1v2a1 1 0 01-2 0v-1l1-1zm-1185-4l1 1v1a1 1 0 01-2 0v-1l1-1zm1185-1h1v2a1 1 0 01-2 0v-1l1-1zm-1185-4l1 1v1a1 1 0 01-2 0v-1l1-1zm1185-1h1v2a1 1 0 01-2 0v-1l1-1zm-1185-4l1 1v1a1 1 0 01-2 0v-1l1-1zm1185-1h1v2a1 1 0 01-2 0v-1l1-1zm-1185-4l1 1v1a1 1 0 01-2 0v-1l1-1zm1185-1h1v2a1 1 0 01-2 0v-1l1-1zm-1185-4l1 1v1a1 1 0 01-2 0v-1l1-1zm1185-1h1v2a1 1 0 01-2 0v-1l1-1zm-1185-4l1 1v1a1 1 0 01-2 0v-1l1-1zm1185-1h1v2a1 1 0 01-2 0v-1l1-1zm-1185-4l1 1v1a1 1 0 01-2 0v-1l1-1zm1185-1h1v2a1 1 0 01-2 0v-1l1-1zm-1184-4v2a1 1 0 11-2 0v-1l2-1zm1184-1v1a1 1 0 01-2 1v-1a1 1 0 112-1zm-1181-3v2h-1a1 1 0 01-2-1l1-1h2zm1177-1l1 1a1 1 0 11-1 1h-1a1 1 0 011-2zm-1173-1l-1 1v1a1 1 0 01-1-2l1-1 1 1zm1168-1h1a1 1 0 110 2h-1a1 1 0 010-2zm-94 0a1 1 0 010 2h-1a1 1 0 010-2h1zm-5 0a1 1 0 010 2h-1a1 1 0 010-2h1zm-5 0a1 1 0 010 2h-1a1 1 0 010-2h1zm-5 0a1 1 0 010 2h-1a1 1 0 010-2h1zm-5 0a1 1 0 010 2h-1a1 1 0 010-2h1zm-5 0a1 1 0 010 2h-1a1 1 0 010-2h1zm-5 0a1 1 0 010 2h-1a1 1 0 010-2h1zm-5 0a1 1 0 010 2h-1a1 1 0 010-2h1zm-5 0a1 1 0 010 2h-1a1 1 0 010-2h1zm-5 0a1 1 0 010 2h-1a1 1 0 010-2h1zm-5 0a1 1 0 010 2h-1a1 1 0 010-2h1zm-5 0a1 1 0 010 2h-1a1 1 0 010-2h1zm-5 0a1 1 0 010 2h-1a1 1 0 010-2h1zm-5 0a1 1 0 010 2h-1a1 1 0 010-2h1zm-5 0a1 1 0 010 2h-1a1 1 0 010-2h1zm-5 0a1 1 0 010 2h-1a1 1 0 010-2h1zm-5 0a1 1 0 010 2h-1a1 1 0 010-2h1zm-5 0a1 1 0 010 2h-1a1 1 0 010-2h1zm-5 0a1 1 0 010 2h-1a1 1 0 010-2h1zm-5 0a1 1 0 010 2h-1a1 1 0 010-2h1zm-5 0a1 1 0 010 2h-1a1 1 0 010-2h1zm-5 0a1 1 0 010 2h-1a1 1 0 010-2h1zm-5 0a1 1 0 010 2h-1a1 1 0 010-2h1zm-5 0a1 1 0 010 2h-1a1 1 0 010-2h1zm-5 0a1 1 0 010 2h-1a1 1 0 010-2h1zm-5 0a1 1 0 010 2h-1a1 1 0 010-2h1zm-5 0a1 1 0 010 2h-1a1 1 0 010-2h1zm-5 0a1 1 0 010 2h-1a1 1 0 010-2h1zm-5 0a1 1 0 010 2h-1a1 1 0 010-2h1zm-5 0a1 1 0 010 2h-1a1 1 0 010-2h1zm-5 0a1 1 0 010 2h-1a1 1 0 010-2h1zm-5 0a1 1 0 010 2h-1a1 1 0 010-2h1zm-5 0a1 1 0 010 2h-1a1 1 0 010-2h1zm-5 0a1 1 0 010 2h-1a1 1 0 010-2h1zm-5 0a1 1 0 010 2h-1a1 1 0 010-2h1zm-5 0a1 1 0 010 2h-1a1 1 0 010-2h1zm-5 0a1 1 0 010 2h-1a1 1 0 010-2h1zm-5 0a1 1 0 010 2h-1a1 1 0 010-2h1zm-5 0a1 1 0 010 2h-1a1 1 0 010-2h1zm-5 0a1 1 0 010 2h-1a1 1 0 010-2h1zm-5 0a1 1 0 010 2h-1a1 1 0 010-2h1zm-5 0a1 1 0 010 2h-1a1 1 0 010-2h1zm-5 0a1 1 0 010 2h-1a1 1 0 010-2h1zm-5 0a1 1 0 010 2h-1a1 1 0 010-2h1zm-5 0a1 1 0 010 2h-1a1 1 0 010-2h1zm-5 0a1 1 0 010 2h-1a1 1 0 010-2h1zm-5 0a1 1 0 010 2h-1a1 1 0 010-2h1zm-5 0a1 1 0 010 2h-1a1 1 0 010-2h1zm-5 0a1 1 0 010 2h-1a1 1 0 010-2h1zm-5 0a1 1 0 010 2h-1a1 1 0 010-2h1zm-5 0a1 1 0 010 2h-1a1 1 0 010-2h1zm-5 0a1 1 0 010 2h-1a1 1 0 010-2h1zm-5 0a1 1 0 010 2h-1a1 1 0 010-2h1zm-5 0a1 1 0 010 2h-1a1 1 0 010-2h1zm-5 0a1 1 0 010 2h-1a1 1 0 010-2h1zm-5 0a1 1 0 010 2h-1a1 1 0 010-2h1zm-5 0a1 1 0 010 2h-1a1 1 0 010-2h1zm-5 0a1 1 0 010 2h-1a1 1 0 010-2h1zm-5 0a1 1 0 010 2h-1a1 1 0 010-2h1zm-5 0a1 1 0 010 2h-1a1 1 0 010-2h1zm-5 0a1 1 0 010 2h-1a1 1 0 010-2h1zm-5 0a1 1 0 010 2h-1a1 1 0 010-2h1zm-5 0a1 1 0 010 2h-1a1 1 0 010-2h1zm-5 0a1 1 0 010 2h-1a1 1 0 010-2h1zm-5 0a1 1 0 010 2h-1a1 1 0 010-2h1zm-5 0a1 1 0 010 2h-1a1 1 0 010-2h1zm-5 0a1 1 0 010 2h-1a1 1 0 010-2h1zm-5 0a1 1 0 010 2h-1a1 1 0 010-2h1zm-5 0a1 1 0 010 2h-1a1 1 0 010-2h1zm-5 0a1 1 0 010 2h-1a1 1 0 010-2h1zm-5 0a1 1 0 010 2h-1a1 1 0 010-2h1zm-5 0a1 1 0 010 2h-1a1 1 0 010-2h1zm-5 0a1 1 0 010 2h-1a1 1 0 010-2h1zm-5 0a1 1 0 010 2h-1a1 1 0 010-2h1zm-5 0a1 1 0 010 2h-1a1 1 0 010-2h1zm-5 0a1 1 0 010 2h-1a1 1 0 010-2h1zm-5 0a1 1 0 010 2h-1a1 1 0 010-2h1zm-5 0a1 1 0 010 2h-1a1 1 0 010-2h1zm-5 0a1 1 0 010 2h-1a1 1 0 010-2h1zm-5 0a1 1 0 010 2h-1a1 1 0 010-2h1zm-5 0a1 1 0 010 2h-1a1 1 0 010-2h1zm-5 0a1 1 0 010 2h-1a1 1 0 010-2h1zm-5 0a1 1 0 010 2h-1a1 1 0 010-2h1zm-5 0a1 1 0 010 2h-1a1 1 0 010-2h1zm-5 0a1 1 0 010 2h-1a1 1 0 010-2h1zm-5 0a1 1 0 010 2h-1a1 1 0 010-2h1zm-5 0a1 1 0 010 2h-1a1 1 0 010-2h1zm-5 0a1 1 0 010 2h-1a1 1 0 010-2h1zm-5 0a1 1 0 010 2h-1a1 1 0 010-2h1zm-5 0a1 1 0 010 2h-1a1 1 0 010-2h1zm-5 0a1 1 0 010 2h-1a1 1 0 010-2h1zm-5 0a1 1 0 010 2h-1a1 1 0 010-2h1zm-5 0a1 1 0 010 2h-1a1 1 0 010-2h1zm-5 0a1 1 0 010 2h-1a1 1 0 010-2h1zm-5 0a1 1 0 010 2h-1a1 1 0 010-2h1zm-5 0a1 1 0 010 2h-1a1 1 0 010-2h1zm-5 0a1 1 0 010 2h-1a1 1 0 010-2h1zm485 0a1 1 0 010 2h-1a1 1 0 010-2h1zm-495 0a1 1 0 010 2h-1a1 1 0 010-2h1zm-5 0a1 1 0 010 2h-1a1 1 0 010-2h1zm-5 0a1 1 0 010 2h-1a1 1 0 010-2h1zm-5 0a1 1 0 010 2h-1a1 1 0 010-2h1zm-5 0a1 1 0 010 2h-1a1 1 0 010-2h1zm-5 0a1 1 0 010 2h-1a1 1 0 010-2h1zm-5 0a1 1 0 010 2h-1a1 1 0 010-2h1zm-5 0a1 1 0 010 2h-1a1 1 0 010-2h1zm-5 0a1 1 0 010 2h-1a1 1 0 010-2h1zm-5 0a1 1 0 010 2h-1a1 1 0 010-2h1zm-5 0a1 1 0 010 2h-1a1 1 0 010-2h1zm-5 0a1 1 0 010 2h-1a1 1 0 010-2h1zm-5 0a1 1 0 010 2h-1a1 1 0 010-2h1zm-5 0a1 1 0 010 2h-1a1 1 0 010-2h1zm-5 0a1 1 0 010 2h-1a1 1 0 010-2h1zm-5 0a1 1 0 010 2h-1a1 1 0 010-2h1zm-5 0a1 1 0 010 2h-1a1 1 0 010-2h1zm-5 0a1 1 0 010 2h-1a1 1 0 010-2h1zm-5 0a1 1 0 010 2h-1a1 1 0 010-2h1zm-5 0a1 1 0 010 2h-1a1 1 0 010-2h1zm-5 0a1 1 0 010 2h-1a1 1 0 010-2h1zm-5 0a1 1 0 010 2h-1a1 1 0 010-2h1zm-5 0a1 1 0 010 2h-1a1 1 0 010-2h1zm-5 0a1 1 0 010 2h-1a1 1 0 010-2h1zm-5 0a1 1 0 010 2h-1a1 1 0 010-2h1zm-5 0a1 1 0 010 2h-1a1 1 0 010-2h1zm-5 0a1 1 0 010 2h-1a1 1 0 010-2h1zm-5 0a1 1 0 010 2h-1a1 1 0 010-2h1zm-5 0a1 1 0 010 2h-1a1 1 0 010-2h1zm-5 0a1 1 0 010 2h-1a1 1 0 010-2h1zm-5 0a1 1 0 010 2h-1a1 1 0 010-2h1zm-5 0a1 1 0 010 2h-1a1 1 0 010-2h1zm-5 0a1 1 0 010 2h-1a1 1 0 010-2h1zm-5 0a1 1 0 010 2h-1a1 1 0 010-2h1zm-5 0a1 1 0 010 2h-1a1 1 0 010-2h1zm-5 0a1 1 0 010 2h-1a1 1 0 010-2h1zm-5 0a1 1 0 010 2h-1a1 1 0 010-2h1zm-5 0a1 1 0 010 2h-1a1 1 0 010-2h1zm-5 0a1 1 0 010 2h-1a1 1 0 010-2h1zm-5 0a1 1 0 010 2h-1a1 1 0 010-2h1zm-5 0a1 1 0 010 2h-1a1 1 0 010-2h1zm-5 0a1 1 0 010 2h-1a1 1 0 010-2h1zm-5 0a1 1 0 010 2h-1a1 1 0 010-2h1zm-5 0a1 1 0 010 2h-1a1 1 0 010-2h1zm-5 0a1 1 0 010 2h-1a1 1 0 010-2h1zm-5 0a1 1 0 010 2h-1a1 1 0 010-2h1zm-5 0a1 1 0 010 2h-1a1 1 0 010-2h1zm-5 0a1 1 0 010 2h-1a1 1 0 010-2h1zm-5 0a1 1 0 010 2h-1a1 1 0 010-2h1zm-5 0a1 1 0 010 2h-1a1 1 0 010-2h1zm-5 0a1 1 0 010 2h-1a1 1 0 010-2h1zm-5 0a1 1 0 010 2h-1a1 1 0 010-2h1zm-5 0a1 1 0 010 2h-1a1 1 0 010-2h1zm-5 0a1 1 0 010 2h-1a1 1 0 010-2h1zm-5 0a1 1 0 010 2h-1a1 1 0 010-2h1zm-5 0a1 1 0 010 2h-1a1 1 0 010-2h1zm-5 0a1 1 0 010 2h-1a1 1 0 010-2h1zm-5 0a1 1 0 010 2h-1a1 1 0 010-2h1zm-5 0a1 1 0 010 2h-1a1 1 0 010-2h1zm-5 0a1 1 0 010 2h-1a1 1 0 010-2h1zm-5 0a1 1 0 010 2h-1a1 1 0 010-2h1zm-5 0a1 1 0 010 2h-1a1 1 0 010-2h1zm-5 0a1 1 0 010 2h-1a1 1 0 010-2h1zm-5 0a1 1 0 010 2h-1a1 1 0 010-2h1zm-5 0a1 1 0 010 2h-1a1 1 0 010-2h1zm-5 0a1 1 0 010 2h-1a1 1 0 010-2h1zm-5 0a1 1 0 010 2h-1a1 1 0 010-2h1zm-5 0a1 1 0 010 2h-1a1 1 0 010-2h1zm-5 0a1 1 0 010 2h-1a1 1 0 010-2h1zm-5 0a1 1 0 010 2h-1a1 1 0 010-2h1zm-5 0a1 1 0 010 2h-1a1 1 0 010-2h1zm-5 0a1 1 0 010 2h-1a1 1 0 010-2h1zm-5 0a1 1 0 010 2h-1a1 1 0 010-2h1zm-5 0a1 1 0 010 2h-1a1 1 0 010-2h1zm-5 0a1 1 0 010 2h-1a1 1 0 010-2h1zm-5 0a1 1 0 010 2h-1a1 1 0 010-2h1zm-5 0a1 1 0 010 2h-1a1 1 0 010-2h1zm-5 0a1 1 0 010 2h-1a1 1 0 010-2h1zm-5 0a1 1 0 010 2h-1a1 1 0 010-2h1zm-5 0a1 1 0 010 2h-1a1 1 0 010-2h1zm-5 0a1 1 0 010 2h-1a1 1 0 010-2h1zm-5 0a1 1 0 010 2h-1a1 1 0 010-2h1zm-5 0a1 1 0 010 2h-1a1 1 0 010-2h1zm-5 0a1 1 0 010 2h-1a1 1 0 010-2h1zm-5 0a1 1 0 010 2h-1a1 1 0 010-2h1zm-5 0a1 1 0 010 2h-1a1 1 0 010-2h1zm-5 0a1 1 0 010 2h-1a1 1 0 010-2h1zm-5 0a1 1 0 010 2h-1a1 1 0 010-2h1zm-5 0a1 1 0 010 2h-1a1 1 0 010-2h1zm-5 0a1 1 0 010 2h-1a1 1 0 010-2h1zm-5 0a1 1 0 010 2h-1a1 1 0 010-2h1zm-5 0a1 1 0 010 2h-1a1 1 0 010-2h1zm-5 0a1 1 0 010 2h-1a1 1 0 010-2h1zm-5 0a1 1 0 010 2h-1a1 1 0 010-2h1zm-5 0a1 1 0 010 2h-1a1 1 0 010-2h1zm-5 0a1 1 0 010 2h-1a1 1 0 010-2h1zm-5 0a1 1 0 010 2h-1a1 1 0 010-2h1zm-5 0a1 1 0 010 2h-1a1 1 0 010-2h1zm-5 0a1 1 0 010 2h-1a1 1 0 010-2h1zm-5 0a1 1 0 010 2h-1a1 1 0 010-2h1zm-5 0a1 1 0 010 2h-1a1 1 0 010-2h1zm-5 0a1 1 0 010 2h-1a1 1 0 010-2h1zm-5 0a1 1 0 010 2h-1a1 1 0 010-2h1zm-5 0a1 1 0 010 2h-1a1 1 0 010-2h1zm-5 0a1 1 0 010 2h-1a1 1 0 010-2h1zm-5 0a1 1 0 010 2h-1a1 1 0 010-2h1zm-5 0a1 1 0 010 2h-1a1 1 0 010-2h1zm-5 0a1 1 0 010 2h-1a1 1 0 010-2h1zm-5 0a1 1 0 010 2h-1a1 1 0 010-2h1zm-5 0a1 1 0 010 2h-1a1 1 0 010-2h1zm-5 0a1 1 0 010 2h-1a1 1 0 010-2h1zm-5 0a1 1 0 010 2h-1a1 1 0 010-2h1zm-5 0a1 1 0 010 2h-1a1 1 0 010-2h1zm-5 0a1 1 0 010 2h-1a1 1 0 010-2h1zm-5 0a1 1 0 010 2h-1a1 1 0 010-2h1zm-5 0a1 1 0 010 2h-1a1 1 0 010-2h1zm-5 0a1 1 0 010 2h-1a1 1 0 010-2h1zm1080 0a1 1 0 010 2h-1a1 1 0 010-2h1zm5 0a1 1 0 010 2h-1a1 1 0 010-2h1zm5 0a1 1 0 010 2h-1a1 1 0 010-2h1zm5 0a1 1 0 010 2h-1a1 1 0 010-2h1zm5 0a1 1 0 010 2h-1a1 1 0 010-2h1zm5 0a1 1 0 010 2h-1a1 1 0 010-2h1zm5 0a1 1 0 010 2h-1a1 1 0 010-2h1zm5 0a1 1 0 010 2h-1a1 1 0 010-2h1zm5 0a1 1 0 010 2h-1a1 1 0 010-2h1zm5 0a1 1 0 010 2h-1a1 1 0 010-2h1zm5 0a1 1 0 010 2h-1a1 1 0 010-2h1zm5 0a1 1 0 010 2h-1a1 1 0 010-2h1zm5 0a1 1 0 010 2h-1a1 1 0 010-2h1zm5 0a1 1 0 010 2h-1a1 1 0 010-2h1zm5 0a1 1 0 010 2h-1a1 1 0 010-2h1zm5 0a1 1 0 010 2h-1a1 1 0 010-2h1zm5 0a1 1 0 010 2h-1a1 1 0 010-2h1zm-575 0a1 1 0 010 2h-1a1 1 0 010-2h1z"/>
    <text fill="#0B0C0C" font-family="sans-serif" font-size="12" font-weight="bold">
      <tspan x="1987" y="418">User selects ‘Add another course’</tspan>
    </text>
    <g>
      <path fill="#FFF" stroke="#0B0C0C" stroke-dasharray="1 4" stroke-linecap="square" stroke-width="2" d="M700 115h110v96H700v-96z"/>
      <text fill="#0B0C0C" font-family="sans-serif" font-size="10" font-weight="bold" letter-spacing="-.1" transform="translate(700 115)">
        <tspan x="24" y="44">Sign in/create </tspan> <tspan x="26" y="58">account flow</tspan>
      </text>
    </g>
    <g>
      <path fill="#FFF" stroke="#0B0C0C" stroke-dasharray="1 4" stroke-linecap="square" stroke-width="2" d="M700 527h110v96H700v-96z"/>
      <text fill="#0B0C0C" font-family="sans-serif" font-size="10" font-weight="bold" letter-spacing="-.1" transform="translate(700 527)">
        <tspan x="24" y="44">Sign in/create </tspan> <tspan x="26" y="58">account flow</tspan>
      </text>
    </g>
    <path stroke="#0B0C0C" stroke-dasharray="1 4" stroke-linecap="round" stroke-linejoin="round" stroke-width="2" d="M590 369h45c6 0 10-4 10-10V175h0c0-7 3-10 10-10"/>
    <path fill="#0B0C0C" fill-rule="nonzero" d="M1551 776a1 1 0 011 1v12a1 1 0 01-1 1l-12-6a1 1 0 010-2zm4 6a1 1 0 010 2h-1a1 1 0 01-1-2h2zm5 0a1 1 0 010 2h-1a1 1 0 01-1-2h2zm5 0a1 1 0 010 2h-1a1 1 0 01-1-2h2zm5 0a1 1 0 010 2h-1a1 1 0 01-1-2h2zm5 0a1 1 0 010 2h-1a1 1 0 01-1-2h2zm5 0a1 1 0 010 2h-1a1 1 0 01-1-2h2zm6 1l-1 1h-1a1 1 0 01-1-2h2l1 1zm4-2v1l-1 1a1 1 0 01-1-2h2zm3-4l1 1-1 1a1 1 0 01-2-1l1-1h1zm1-5l1 1v1a1 1 0 01-2 0v-1l1-1zm0-5l1 1v1a1 1 0 01-2 0v-1l1-1zm0-5l1 1v1a1 1 0 01-2 0v-1l1-1zm0-5l1 1v1a1 1 0 01-2 0v-1l1-1zm0-5l1 1v1a1 1 0 01-2 0v-1l1-1zm0-5l1 1v1a1 1 0 01-2 0v-1l1-1zm0-5l1 1v1a1 1 0 01-2 0v-1l1-1zm0-5l1 1v1a1 1 0 01-2 0v-1l1-1zm0-5l1 1v1a1 1 0 01-2 0v-1l1-1zm0-5l1 1v1a1 1 0 01-2 0v-1l1-1zm0-5l1 1v1a1 1 0 01-2 0v-1l1-1zm0-5l1 1v1a1 1 0 01-2 0v-1l1-1zm0-5l1 1v1a1 1 0 01-2 0v-1l1-1zm0-5l1 1v1a1 1 0 01-2 0v-1l1-1zm0-5l1 1v1a1 1 0 01-2 0v-1l1-1zm0-5l1 1v1a1 1 0 01-2 0v-1l1-1zm0-5l1 1v1a1 1 0 01-2 0v-1l1-1zm0-5l1 1v1a1 1 0 01-2 0v-1l1-1zm0-5l1 1v1a1 1 0 01-2 0v-1l1-1zm0-5l1 1v1a1 1 0 01-2 0v-1l1-1zm0-5l1 1v1a1 1 0 01-2 0v-1l1-1zm0-5l1 1v1a1 1 0 01-2 0v-1l1-1zm0-5l1 1v1a1 1 0 01-2 0v-1l1-1zm0-5l1 1v1a1 1 0 01-2 0v-1l1-1zm0-5l1 1v1a1 1 0 01-2 0v-1l1-1zm0-5l1 1v1a1 1 0 01-2 0v-1l1-1zm0-5l1 1v1a1 1 0 01-2 0v-1l1-1zm0-5l1 1v1a1 1 0 01-2 0v-1l1-1zm0-5l1 1v1a1 1 0 01-2 0v-1l1-1zm0-5l1 1v1a1 1 0 01-2 0v-1l1-1zm0-5l1 1v1a1 1 0 01-2 0v-1l1-1zm0-5l1 1v1a1 1 0 01-2 0v-1l1-1zm0-5l1 1v1a1 1 0 01-2 0v-1l1-1zm0-5l1 1v1a1 1 0 01-2 0v-1l1-1zm0-5l1 1v1a1 1 0 01-2 0v-1l1-1zm0-5l1 1v1a1 1 0 01-2 0v-1l1-1zm0-5l1 1v1a1 1 0 01-2 0v-1l1-1zm0-5l1 1v1a1 1 0 01-2 0v-1l1-1z"/>
    <path fill="#2B8CC4" stroke="#FFF" stroke-linecap="round" stroke-linejoin="round" stroke-width="3" d="M2394 148l16 17-16 16-16-16z"/>
    <text fill="#1D70B8" font-family="sans-serif" font-size="12" font-weight="bold">
      <tspan x="285" y="537">User is already </tspan> <tspan x="298" y="548">signed in?</tspan>
    </text>
    <path stroke="#0B0C0C" stroke-dasharray="1 4" stroke-linecap="round" stroke-linejoin="round" stroke-width="2" d="M325 590v71c0 6 4 10 10 10h485c6 0 10-4 10-10v-77h0c0-7 3-10 10-10"/>
    <g>
      <path fill="#009964" d="M480 117h110v96H480z"/>
      <text fill="#FFF" font-family="sans-serif" font-size="10" font-weight="bold" letter-spacing="-.1" transform="translate(480 117)">
        <tspan x="17" y="34">Get into teaching</tspan> <tspan x="19" y="53">How to apply for</tspan> <tspan x="20" y="67">teacher training</tspan>
      </text>
    </g>
    <text fill="#6F777B" font-family="sans-serif" font-size="28" font-weight="300">
      <tspan x="40" y="67">Route in</tspan>
    </text>
    <text fill="#6F777B" font-family="sans-serif" font-size="28" font-weight="300">
      <tspan x="480" y="67">Start</tspan>
    </text>
    <text fill="#6F777B" font-family="sans-serif" font-size="28" font-weight="300">
      <tspan x="885" y="67">Course choice validation</tspan>
    </text>
    <text fill="#6F777B" font-family="sans-serif" font-size="28" font-weight="300">
      <tspan x="1429" y="67">Course choice details</tspan>
    </text>
    <text fill="#6F777B" font-family="sans-serif" font-size="28" font-weight="300">
      <tspan x="2779" y="67">Finish</tspan>
    </text>
    <path fill="#0B0C0C" fill-rule="nonzero" d="M688 158l12 6a1 1 0 010 2l-12 6a1 1 0 01-1-1v-5h-2a1 1 0 010-2h2v-5l1-1zm-97 6a1 1 0 010 2h-1a1 1 0 010-2h1zm5 0a1 1 0 010 2h-1a1 1 0 010-2h1zm5 0a1 1 0 010 2h-1a1 1 0 010-2h1zm5 0a1 1 0 010 2h-1a1 1 0 010-2h1zm5 0a1 1 0 010 2h-1a1 1 0 010-2h1zm5 0a1 1 0 010 2h-1a1 1 0 010-2h1zm5 0a1 1 0 010 2h-1a1 1 0 010-2h1zm5 0a1 1 0 010 2h-1a1 1 0 010-2h1zm5 0a1 1 0 010 2h-1a1 1 0 010-2h1zm5 0a1 1 0 010 2h-1a1 1 0 010-2h1zm5 0a1 1 0 010 2h-1a1 1 0 010-2h1zm5 0a1 1 0 010 2h-1a1 1 0 010-2h1zm5 0a1 1 0 010 2h-1a1 1 0 010-2h1zm5 0a1 1 0 010 2h-1a1 1 0 010-2h1zm5 0a1 1 0 010 2h-1a1 1 0 010-2h1zm5 0a1 1 0 010 2h-1a1 1 0 010-2h1zm5 0a1 1 0 010 2h-1a1 1 0 010-2h1zm5 0a1 1 0 010 2h-1a1 1 0 010-2h1zm5 0a1 1 0 010 2h-1a1 1 0 010-2h1zm-213-6l12 6a1 1 0 010 2l-12 6a1 1 0 01-1-1v-5h-2a1 1 0 010-2h2v-5l1-1zm-317 6a1 1 0 010 2h-1a1 1 0 010-2h1zm5 0a1 1 0 010 2h-1a1 1 0 010-2h1zm5 0a1 1 0 010 2h-1a1 1 0 010-2h1zm5 0a1 1 0 010 2h-1a1 1 0 010-2h1zm5 0a1 1 0 010 2h-1a1 1 0 010-2h1zm5 0a1 1 0 010 2h-1a1 1 0 010-2h1zm5 0a1 1 0 010 2h-1a1 1 0 010-2h1zm5 0a1 1 0 010 2h-1a1 1 0 010-2h1zm5 0a1 1 0 010 2h-1a1 1 0 010-2h1zm5 0a1 1 0 010 2h-1a1 1 0 010-2h1zm5 0a1 1 0 010 2h-1a1 1 0 010-2h1zm5 0a1 1 0 010 2h-1a1 1 0 010-2h1zm5 0a1 1 0 010 2h-1a1 1 0 010-2h1zm5 0a1 1 0 010 2h-1a1 1 0 010-2h1zm5 0a1 1 0 010 2h-1a1 1 0 010-2h1zm5 0a1 1 0 010 2h-1a1 1 0 010-2h1zm5 0a1 1 0 010 2h-1a1 1 0 010-2h1zm5 0a1 1 0 010 2h-1a1 1 0 010-2h1zm5 0a1 1 0 010 2h-1a1 1 0 010-2h1zm5 0a1 1 0 010 2h-1a1 1 0 010-2h1zm5 0a1 1 0 010 2h-1a1 1 0 010-2h1zm5 0a1 1 0 010 2h-1a1 1 0 010-2h1zm5 0a1 1 0 010 2h-1a1 1 0 010-2h1zm5 0a1 1 0 010 2h-1a1 1 0 010-2h1zm5 0a1 1 0 010 2h-1a1 1 0 010-2h1zm5 0a1 1 0 010 2h-1a1 1 0 010-2h1zm5 0a1 1 0 010 2h-1a1 1 0 010-2h1zm5 0a1 1 0 010 2h-1a1 1 0 010-2h1zm5 0a1 1 0 010 2h-1a1 1 0 010-2h1zm5 0a1 1 0 010 2h-1a1 1 0 010-2h1zm5 0a1 1 0 010 2h-1a1 1 0 010-2h1zm5 0a1 1 0 010 2h-1a1 1 0 010-2h1zm5 0a1 1 0 010 2h-1a1 1 0 010-2h1zm5 0a1 1 0 010 2h-1a1 1 0 010-2h1zm5 0a1 1 0 010 2h-1a1 1 0 010-2h1zm5 0a1 1 0 010 2h-1a1 1 0 010-2h1zm5 0a1 1 0 010 2h-1a1 1 0 010-2h1zm5 0a1 1 0 010 2h-1a1 1 0 010-2h1zm5 0a1 1 0 010 2h-1a1 1 0 010-2h1zm5 0a1 1 0 010 2h-1a1 1 0 010-2h1zm5 0a1 1 0 010 2h-1a1 1 0 010-2h1zm5 0a1 1 0 010 2h-1a1 1 0 010-2h1zm5 0a1 1 0 010 2h-1a1 1 0 010-2h1zm5 0a1 1 0 010 2h-1a1 1 0 010-2h1zm5 0a1 1 0 010 2h-1a1 1 0 010-2h1zm5 0a1 1 0 010 2h-1a1 1 0 010-2h1zm5 0a1 1 0 010 2h-1a1 1 0 010-2h1zm5 0a1 1 0 010 2h-1a1 1 0 010-2h1zm5 0a1 1 0 010 2h-1a1 1 0 010-2h1zm5 0a1 1 0 010 2h-1a1 1 0 010-2h1zm5 0a1 1 0 010 2h-1a1 1 0 010-2h1zm5 0a1 1 0 010 2h-1a1 1 0 010-2h1zm5 0a1 1 0 010 2h-1a1 1 0 010-2h1zm5 0a1 1 0 010 2h-1a1 1 0 010-2h1zm5 0a1 1 0 010 2h-1a1 1 0 010-2h1zm5 0a1 1 0 010 2h-1a1 1 0 010-2h1zm5 0a1 1 0 010 2h-1a1 1 0 010-2h1zm5 0a1 1 0 010 2h-1a1 1 0 010-2h1zm5 0a1 1 0 010 2h-1a1 1 0 010-2h1zm5 0a1 1 0 010 2h-1a1 1 0 010-2h1zm5 0a1 1 0 010 2h-1a1 1 0 010-2h1zm5 0a1 1 0 010 2h-1a1 1 0 010-2h1zm5 0a1 1 0 010 2h-1a1 1 0 010-2h1zm7 405l12 6a1 1 0 010 2l-12 6a1 1 0 01-1-1v-5h-2a1 1 0 010-2h2v-5l1-1zm-317 6a1 1 0 010 2h-1a1 1 0 010-2h1zm5 0a1 1 0 010 2h-1a1 1 0 010-2h1zm5 0a1 1 0 010 2h-1a1 1 0 010-2h1zm5 0a1 1 0 010 2h-1a1 1 0 010-2h1zm5 0a1 1 0 010 2h-1a1 1 0 010-2h1zm5 0a1 1 0 010 2h-1a1 1 0 010-2h1zm5 0a1 1 0 010 2h-1a1 1 0 010-2h1zm5 0a1 1 0 010 2h-1a1 1 0 010-2h1zm5 0a1 1 0 010 2h-1a1 1 0 010-2h1zm5 0a1 1 0 010 2h-1a1 1 0 010-2h1zm5 0a1 1 0 010 2h-1a1 1 0 010-2h1zm5 0a1 1 0 010 2h-1a1 1 0 010-2h1zm5 0a1 1 0 010 2h-1a1 1 0 010-2h1zm5 0a1 1 0 010 2h-1a1 1 0 010-2h1zm5 0a1 1 0 010 2h-1a1 1 0 010-2h1zm5 0a1 1 0 010 2h-1a1 1 0 010-2h1zm5 0a1 1 0 010 2h-1a1 1 0 010-2h1zm5 0a1 1 0 010 2h-1a1 1 0 010-2h1zm5 0a1 1 0 010 2h-1a1 1 0 010-2h1zm5 0a1 1 0 010 2h-1a1 1 0 010-2h1zm5 0a1 1 0 010 2h-1a1 1 0 010-2h1zm5 0a1 1 0 010 2h-1a1 1 0 010-2h1zm5 0a1 1 0 010 2h-1a1 1 0 010-2h1zm5 0a1 1 0 010 2h-1a1 1 0 010-2h1zm5 0a1 1 0 010 2h-1a1 1 0 010-2h1zm5 0a1 1 0 010 2h-1a1 1 0 010-2h1zm5 0a1 1 0 010 2h-1a1 1 0 010-2h1zm5 0a1 1 0 010 2h-1a1 1 0 010-2h1zm5 0a1 1 0 010 2h-1a1 1 0 010-2h1zm5 0a1 1 0 010 2h-1a1 1 0 010-2h1zm5 0a1 1 0 010 2h-1a1 1 0 010-2h1zm5 0a1 1 0 010 2h-1a1 1 0 010-2h1zm5 0a1 1 0 010 2h-1a1 1 0 010-2h1zm5 0a1 1 0 010 2h-1a1 1 0 010-2h1zm5 0a1 1 0 010 2h-1a1 1 0 010-2h1zm5 0a1 1 0 010 2h-1a1 1 0 010-2h1zm5 0a1 1 0 010 2h-1a1 1 0 010-2h1zm5 0a1 1 0 010 2h-1a1 1 0 010-2h1zm5 0a1 1 0 010 2h-1a1 1 0 010-2h1zm5 0a1 1 0 010 2h-1a1 1 0 010-2h1zm5 0a1 1 0 010 2h-1a1 1 0 010-2h1zm5 0a1 1 0 010 2h-1a1 1 0 010-2h1zm5 0a1 1 0 010 2h-1a1 1 0 010-2h1zm5 0a1 1 0 010 2h-1a1 1 0 010-2h1zm5 0a1 1 0 010 2h-1a1 1 0 010-2h1zm5 0a1 1 0 010 2h-1a1 1 0 010-2h1zm5 0a1 1 0 010 2h-1a1 1 0 010-2h1zm5 0a1 1 0 010 2h-1a1 1 0 010-2h1zm5 0a1 1 0 010 2h-1a1 1 0 010-2h1zm5 0a1 1 0 010 2h-1a1 1 0 010-2h1zm5 0a1 1 0 010 2h-1a1 1 0 010-2h1zm5 0a1 1 0 010 2h-1a1 1 0 010-2h1zm5 0a1 1 0 010 2h-1a1 1 0 010-2h1zm5 0a1 1 0 010 2h-1a1 1 0 010-2h1zm5 0a1 1 0 010 2h-1a1 1 0 010-2h1zm5 0a1 1 0 010 2h-1a1 1 0 010-2h1zm5 0a1 1 0 010 2h-1a1 1 0 010-2h1zm5 0a1 1 0 010 2h-1a1 1 0 010-2h1zm5 0a1 1 0 010 2h-1a1 1 0 010-2h1zm5 0a1 1 0 010 2h-1a1 1 0 010-2h1zm5 0a1 1 0 010 2h-1a1 1 0 010-2h1zm5 0a1 1 0 010 2h-1a1 1 0 010-2h1zm5 0a1 1 0 010 2h-1a1 1 0 010-2h1zm7 200l12 6a1 1 0 010 2l-12 6a1 1 0 01-1-1v-5h-2a1 1 0 010-2h2v-5l1-1zm-97 6a1 1 0 010 2h-1a1 1 0 010-2h1zm5 0a1 1 0 010 2h-1a1 1 0 010-2h1zm5 0a1 1 0 010 2h-1a1 1 0 010-2h1zm5 0a1 1 0 010 2h-1a1 1 0 010-2h1zm5 0a1 1 0 010 2h-1a1 1 0 010-2h1zm5 0a1 1 0 010 2h-1a1 1 0 010-2h1zm5 0a1 1 0 010 2h-1a1 1 0 010-2h1zm5 0a1 1 0 010 2h-1a1 1 0 010-2h1zm5 0a1 1 0 010 2h-1a1 1 0 010-2h1zm5 0a1 1 0 010 2h-1a1 1 0 010-2h1zm5 0a1 1 0 010 2h-1a1 1 0 010-2h1zm5 0a1 1 0 010 2h-1a1 1 0 010-2h1zm5 0a1 1 0 010 2h-1a1 1 0 010-2h1zm5 0a1 1 0 010 2h-1a1 1 0 010-2h1zm5 0a1 1 0 010 2h-1a1 1 0 010-2h1zm5 0a1 1 0 010 2h-1a1 1 0 010-2h1zm5 0a1 1 0 010 2h-1a1 1 0 010-2h1zm5 0a1 1 0 010 2h-1a1 1 0 010-2h1zm5 0a1 1 0 010 2h-1a1 1 0 010-2h1zm227-213l12 6a1 1 0 010 2l-12 6a1 1 0 01-1-1v-5h-2a1 1 0 010-2h2v-5l1-1zm-97 6a1 1 0 010 2h-1a1 1 0 010-2h1zm5 0a1 1 0 010 2h-1a1 1 0 010-2h1zm5 0a1 1 0 010 2h-1a1 1 0 010-2h1zm5 0a1 1 0 010 2h-1a1 1 0 010-2h1zm5 0a1 1 0 010 2h-1a1 1 0 010-2h1zm5 0a1 1 0 010 2h-1a1 1 0 010-2h1zm5 0a1 1 0 010 2h-1a1 1 0 010-2h1zm5 0a1 1 0 010 2h-1a1 1 0 010-2h1zm5 0a1 1 0 010 2h-1a1 1 0 010-2h1zm5 0a1 1 0 010 2h-1a1 1 0 010-2h1zm5 0a1 1 0 010 2h-1a1 1 0 010-2h1zm5 0a1 1 0 010 2h-1a1 1 0 010-2h1zm5 0a1 1 0 010 2h-1a1 1 0 010-2h1zm5 0a1 1 0 010 2h-1a1 1 0 010-2h1zm5 0a1 1 0 010 2h-1a1 1 0 010-2h1zm5 0a1 1 0 010 2h-1a1 1 0 010-2h1zm5 0a1 1 0 010 2h-1a1 1 0 010-2h1zm5 0a1 1 0 010 2h-1a1 1 0 010-2h1zm5 0a1 1 0 010 2h-1a1 1 0 010-2h1zm956-7l12 6a1 1 0 010 2l-12 6a1 1 0 01-1-1v-5h-2a1 1 0 010-2h2v-5l1-1zm-97 6a1 1 0 010 2h-1a1 1 0 010-2h1zm5 0a1 1 0 010 2h-1a1 1 0 010-2h1zm5 0a1 1 0 010 2h-1a1 1 0 010-2h1zm5 0a1 1 0 010 2h-1a1 1 0 010-2h1zm5 0a1 1 0 010 2h-1a1 1 0 010-2h1zm5 0a1 1 0 010 2h-1a1 1 0 010-2h1zm5 0a1 1 0 010 2h-1a1 1 0 010-2h1zm5 0a1 1 0 010 2h-1a1 1 0 010-2h1zm5 0a1 1 0 010 2h-1a1 1 0 010-2h1zm5 0a1 1 0 010 2h-1a1 1 0 010-2h1zm5 0a1 1 0 010 2h-1a1 1 0 010-2h1zm5 0a1 1 0 010 2h-1a1 1 0 010-2h1zm5 0a1 1 0 010 2h-1a1 1 0 010-2h1zm5 0a1 1 0 010 2h-1a1 1 0 010-2h1zm5 0a1 1 0 010 2h-1a1 1 0 010-2h1zm5 0a1 1 0 010 2h-1a1 1 0 010-2h1zm5 0a1 1 0 010 2h-1a1 1 0 010-2h1zm5 0a1 1 0 010 2h-1a1 1 0 010-2h1zm5 0a1 1 0 010 2h-1a1 1 0 010-2h1zm227-6l12 6a1 1 0 010 2l-12 6a1 1 0 01-1-1v-5h-2a1 1 0 010-2h2v-5l1-1zm-97 6a1 1 0 010 2h-1a1 1 0 010-2h1zm5 0a1 1 0 010 2h-1a1 1 0 010-2h1zm5 0a1 1 0 010 2h-1a1 1 0 010-2h1zm5 0a1 1 0 010 2h-1a1 1 0 010-2h1zm5 0a1 1 0 010 2h-1a1 1 0 010-2h1zm5 0a1 1 0 010 2h-1a1 1 0 010-2h1zm5 0a1 1 0 010 2h-1a1 1 0 010-2h1zm5 0a1 1 0 010 2h-1a1 1 0 010-2h1zm5 0a1 1 0 010 2h-1a1 1 0 010-2h1zm5 0a1 1 0 010 2h-1a1 1 0 010-2h1zm5 0a1 1 0 010 2h-1a1 1 0 010-2h1zm5 0a1 1 0 010 2h-1a1 1 0 010-2h1zm5 0a1 1 0 010 2h-1a1 1 0 010-2h1zm5 0a1 1 0 010 2h-1a1 1 0 010-2h1zm5 0a1 1 0 010 2h-1a1 1 0 010-2h1zm5 0a1 1 0 010 2h-1a1 1 0 010-2h1zm5 0a1 1 0 010 2h-1a1 1 0 010-2h1zm5 0a1 1 0 010 2h-1a1 1 0 010-2h1zm5 0a1 1 0 010 2h-1a1 1 0 010-2h1zm367-6l12 6a1 1 0 010 2l-12 6a1 1 0 01-1-1v-5h-2a1 1 0 010-2h2v-5l1-1zm-237 6a1 1 0 010 2h-1a1 1 0 010-2h1zm5 0a1 1 0 010 2h-1a1 1 0 010-2h1zm5 0a1 1 0 010 2h-1a1 1 0 010-2h1zm5 0a1 1 0 010 2h-1a1 1 0 010-2h1zm5 0a1 1 0 010 2h-1a1 1 0 010-2h1zm5 0a1 1 0 010 2h-1a1 1 0 010-2h1zm5 0a1 1 0 010 2h-1a1 1 0 010-2h1zm5 0a1 1 0 010 2h-1a1 1 0 010-2h1zm5 0a1 1 0 010 2h-1a1 1 0 010-2h1zm5 0a1 1 0 010 2h-1a1 1 0 010-2h1zm5 0a1 1 0 010 2h-1a1 1 0 010-2h1zm5 0a1 1 0 010 2h-1a1 1 0 010-2h1zm5 0a1 1 0 010 2h-1a1 1 0 010-2h1zm5 0a1 1 0 010 2h-1a1 1 0 010-2h1zm5 0a1 1 0 010 2h-1a1 1 0 010-2h1zm5 0a1 1 0 010 2h-1a1 1 0 010-2h1zm5 0a1 1 0 010 2h-1a1 1 0 010-2h1zm5 0a1 1 0 010 2h-1a1 1 0 010-2h1zm5 0a1 1 0 010 2h-1a1 1 0 010-2h1zm5 0a1 1 0 010 2h-1a1 1 0 010-2h1zm5 0a1 1 0 010 2h-1a1 1 0 010-2h1zm5 0a1 1 0 010 2h-1a1 1 0 010-2h1zm5 0a1 1 0 010 2h-1a1 1 0 010-2h1zm5 0a1 1 0 010 2h-1a1 1 0 010-2h1zm5 0a1 1 0 010 2h-1a1 1 0 010-2h1zm5 0a1 1 0 010 2h-1a1 1 0 010-2h1zm5 0a1 1 0 010 2h-1a1 1 0 010-2h1zm5 0a1 1 0 010 2h-1a1 1 0 010-2h1zm5 0a1 1 0 010 2h-1a1 1 0 010-2h1zm5 0a1 1 0 010 2h-1a1 1 0 010-2h1zm5 0a1 1 0 010 2h-1a1 1 0 010-2h1zm5 0a1 1 0 010 2h-1a1 1 0 010-2h1zm5 0a1 1 0 010 2h-1a1 1 0 010-2h1zm5 0a1 1 0 010 2h-1a1 1 0 010-2h1zm5 0a1 1 0 010 2h-1a1 1 0 010-2h1zm5 0a1 1 0 010 2h-1a1 1 0 010-2h1zm5 0a1 1 0 010 2h-1a1 1 0 010-2h1zm5 0a1 1 0 010 2h-1a1 1 0 010-2h1zm5 0a1 1 0 010 2h-1a1 1 0 010-2h1zm5 0a1 1 0 010 2h-1a1 1 0 010-2h1zm5 0a1 1 0 010 2h-1a1 1 0 010-2h1zm5 0a1 1 0 010 2h-1a1 1 0 010-2h1zm5 0a1 1 0 010 2h-1a1 1 0 010-2h1zm5 0a1 1 0 010 2h-1a1 1 0 010-2h1zm5 0a1 1 0 010 2h-1a1 1 0 010-2h1zm5 0a1 1 0 010 2h-1a1 1 0 010-2h1zm5 0a1 1 0 010 2h-1a1 1 0 010-2h1zm227-6l12 6a1 1 0 010 2l-12 6a1 1 0 01-1-1v-5h-2a1 1 0 010-2h2v-5l1-1zm-97 6a1 1 0 010 2h-1a1 1 0 010-2h1zm5 0a1 1 0 010 2h-1a1 1 0 010-2h1zm5 0a1 1 0 010 2h-1a1 1 0 010-2h1zm5 0a1 1 0 010 2h-1a1 1 0 010-2h1zm5 0a1 1 0 010 2h-1a1 1 0 010-2h1zm5 0a1 1 0 010 2h-1a1 1 0 010-2h1zm5 0a1 1 0 010 2h-1a1 1 0 010-2h1zm5 0a1 1 0 010 2h-1a1 1 0 010-2h1zm5 0a1 1 0 010 2h-1a1 1 0 010-2h1zm5 0a1 1 0 010 2h-1a1 1 0 010-2h1zm5 0a1 1 0 010 2h-1a1 1 0 010-2h1zm5 0a1 1 0 010 2h-1a1 1 0 010-2h1zm5 0a1 1 0 010 2h-1a1 1 0 010-2h1zm5 0a1 1 0 010 2h-1a1 1 0 010-2h1zm5 0a1 1 0 010 2h-1a1 1 0 010-2h1zm5 0a1 1 0 010 2h-1a1 1 0 010-2h1zm5 0a1 1 0 010 2h-1a1 1 0 010-2h1zm5 0a1 1 0 010 2h-1a1 1 0 010-2h1zm5 0a1 1 0 010 2h-1a1 1 0 010-2h1zm172-6l12 6a1 1 0 010 2l-12 6a1 1 0 01-1-1v-5h-2a1 1 0 010-2h2v-5l1-1zm-42 6a1 1 0 010 2h-1a1 1 0 010-2h1zm5 0a1 1 0 010 2h-1a1 1 0 010-2h1zm5 0a1 1 0 010 2h-1a1 1 0 010-2h1zm5 0a1 1 0 010 2h-1a1 1 0 010-2h1zm5 0a1 1 0 010 2h-1a1 1 0 010-2h1zm5 0a1 1 0 010 2h-1a1 1 0 010-2h1zm5 0a1 1 0 010 2h-1a1 1 0 010-2h1zm5 0a1 1 0 010 2h-1a1 1 0 010-2h1zm172-6l12 6a1 1 0 010 2l-12 6a1 1 0 01-1-1v-5h-2a1 1 0 010-2h2v-5l1-1zm-42 6a1 1 0 010 2h-1a1 1 0 010-2h1zm5 0a1 1 0 010 2h-1a1 1 0 010-2h1zm5 0a1 1 0 010 2h-1a1 1 0 010-2h1zm5 0a1 1 0 010 2h-1a1 1 0 010-2h1zm5 0a1 1 0 010 2h-1a1 1 0 010-2h1zm5 0a1 1 0 010 2h-1a1 1 0 010-2h1zm5 0a1 1 0 010 2h-1a1 1 0 010-2h1zm5 0a1 1 0 010 2h-1a1 1 0 010-2h1zm-1583-6l12 6a1 1 0 010 2l-12 6a1 1 0 01-1-1v-5h-1a1 1 0 010-2h1v-5l1-1zm-366 6a1 1 0 010 2h-1a1 1 0 010-2h1zm5 0a1 1 0 010 2h-1a1 1 0 010-2h1zm5 0a1 1 0 010 2h-1a1 1 0 010-2h1zm5 0a1 1 0 010 2h-1a1 1 0 010-2h1zm5 0a1 1 0 010 2h-1a1 1 0 010-2h1zm5 0a1 1 0 010 2h-1a1 1 0 010-2h1zm5 0a1 1 0 010 2h-1a1 1 0 010-2h1zm5 0a1 1 0 010 2h-1a1 1 0 010-2h1zm5 0a1 1 0 010 2h-1a1 1 0 010-2h1zm5 0a1 1 0 010 2h-1a1 1 0 010-2h1zm5 0a1 1 0 010 2h-1a1 1 0 010-2h1zm5 0a1 1 0 010 2h-1a1 1 0 010-2h1zm5 0a1 1 0 010 2h-1a1 1 0 010-2h1zm5 0a1 1 0 010 2h-1a1 1 0 010-2h1zm5 0a1 1 0 010 2h-1a1 1 0 010-2h1zm5 0a1 1 0 010 2h-1a1 1 0 010-2h1zm5 0a1 1 0 010 2h-1a1 1 0 010-2h1zm5 0a1 1 0 010 2h-1a1 1 0 010-2h1zm5 0a1 1 0 010 2h-1a1 1 0 010-2h1zm5 0a1 1 0 010 2h-1a1 1 0 010-2h1zm5 0a1 1 0 010 2h-1a1 1 0 010-2h1zm5 0a1 1 0 010 2h-1a1 1 0 010-2h1zm5 0a1 1 0 010 2h-1a1 1 0 010-2h1zm5 0a1 1 0 010 2h-1a1 1 0 010-2h1zm5 0a1 1 0 010 2h-1a1 1 0 010-2h1zm5 0a1 1 0 010 2h-1a1 1 0 010-2h1zm5 0a1 1 0 010 2h-1a1 1 0 010-2h1zm5 0a1 1 0 010 2h-1a1 1 0 010-2h1zm5 0a1 1 0 010 2h-1a1 1 0 010-2h1zm5 0a1 1 0 010 2h-1a1 1 0 010-2h1zm5 0a1 1 0 010 2h-1a1 1 0 010-2h1zm5 0a1 1 0 010 2h-1a1 1 0 010-2h1zm5 0a1 1 0 010 2h-1a1 1 0 010-2h1zm5 0a1 1 0 010 2h-1a1 1 0 010-2h1zm5 0a1 1 0 010 2h-1a1 1 0 010-2h1zm5 0a1 1 0 010 2h-1a1 1 0 010-2h1zm5 0a1 1 0 010 2h-1a1 1 0 010-2h1zm5 0a1 1 0 010 2h-1a1 1 0 010-2h1zm5 0a1 1 0 010 2h-1a1 1 0 010-2h1zm5 0a1 1 0 010 2h-1a1 1 0 010-2h1zm5 0a1 1 0 010 2h-1a1 1 0 010-2h1zm5 0a1 1 0 010 2h-1a1 1 0 010-2h1zm5 0a1 1 0 010 2h-1a1 1 0 010-2h1zm5 0a1 1 0 010 2h-1a1 1 0 010-2h1zm5 0a1 1 0 010 2h-1a1 1 0 010-2h1zm5 0a1 1 0 010 2h-1a1 1 0 010-2h1zm5 0a1 1 0 010 2h-1a1 1 0 010-2h1zm5 0a1 1 0 010 2h-1a1 1 0 010-2h1zm5 0a1 1 0 010 2h-1a1 1 0 010-2h1zm5 0a1 1 0 010 2h-1a1 1 0 010-2h1zm5 0a1 1 0 010 2h-1a1 1 0 010-2h1zm5 0a1 1 0 010 2h-1a1 1 0 010-2h1zm5 0a1 1 0 010 2h-1a1 1 0 010-2h1zm5 0a1 1 0 010 2h-1a1 1 0 010-2h1zm5 0a1 1 0 010 2h-1a1 1 0 010-2h1zm5 0a1 1 0 010 2h-1a1 1 0 010-2h1zm5 0a1 1 0 010 2h-1a1 1 0 010-2h1zm5 0a1 1 0 010 2h-1a1 1 0 010-2h1zm5 0a1 1 0 010 2h-1a1 1 0 010-2h1zm5 0a1 1 0 010 2h-1a1 1 0 010-2h1zm5 0a1 1 0 010 2h-1a1 1 0 010-2h1zm5 0a1 1 0 010 2h-1a1 1 0 010-2h1zm5 0a1 1 0 010 2h-1a1 1 0 010-2h1zm5 0a1 1 0 010 2h-1a1 1 0 010-2h1zm5 0a1 1 0 010 2h-1a1 1 0 010-2h1zm5 0a1 1 0 010 2h-1a1 1 0 010-2h1zm5 0a1 1 0 010 2h-1a1 1 0 010-2h1zm5 0a1 1 0 010 2h-1a1 1 0 010-2h1zm5 0a1 1 0 010 2h-1a1 1 0 010-2h1zm5 0a1 1 0 010 2h-1a1 1 0 010-2h1zm5 0a1 1 0 010 2h-1a1 1 0 010-2h1zm5 0a1 1 0 010 2h-1a1 1 0 010-2h1zm5 0a1 1 0 010 2h-1a1 1 0 010-2h1z"/>
    <g>
      <path fill="#FFF" stroke="#0B0C0C" stroke-width="2" d="M2615 116h108v94h-108z"/>
      <path fill="#0B0C0C" d="M2614 115h110v10h-110z"/>
      <g fill="#0B0C0C">
        <path d="M2621 158h22v1h-22zM2621 164h72v1h-72zM2621 172h72v1h-72zM2621 168h72v1h-72zM2621 176h40v1h-40z"/>
      </g>
      <text fill="#231F20" font-family="sans-serif" font-size="10" font-weight="bold" letter-spacing="-.1" transform="translate(2621 130)">
        <tspan x="0" y="10">Before you start </tspan> <tspan x="0" y="21">your application</tspan>
      </text>
      <g transform="translate(2621 189)">
        <use fill="#00823B" xlink:href="#w"/>
        <use fill="#000" filter="url(#x)" xlink:href="#w"/>
      </g>
    </g>
    <path fill="#0B0C0C" fill-rule="nonzero" d="M248 362l12 6a1 1 0 010 2l-12 6a1 1 0 01-1-1v-5h-2a1 1 0 010-2h2v-5l1-1zm-97 6a1 1 0 010 2h-1a1 1 0 010-2h1zm5 0a1 1 0 010 2h-1a1 1 0 010-2h1zm5 0a1 1 0 010 2h-1a1 1 0 010-2h1zm5 0a1 1 0 010 2h-1a1 1 0 010-2h1zm5 0a1 1 0 010 2h-1a1 1 0 010-2h1zm5 0a1 1 0 010 2h-1a1 1 0 010-2h1zm5 0a1 1 0 010 2h-1a1 1 0 010-2h1zm5 0a1 1 0 010 2h-1a1 1 0 010-2h1zm5 0a1 1 0 010 2h-1a1 1 0 010-2h1zm5 0a1 1 0 010 2h-1a1 1 0 010-2h1zm5 0a1 1 0 010 2h-1a1 1 0 010-2h1zm5 0a1 1 0 010 2h-1a1 1 0 010-2h1zm5 0a1 1 0 010 2h-1a1 1 0 010-2h1zm5 0a1 1 0 010 2h-1a1 1 0 010-2h1zm5 0a1 1 0 010 2h-1a1 1 0 010-2h1zm5 0a1 1 0 010 2h-1a1 1 0 010-2h1zm5 0a1 1 0 010 2h-1a1 1 0 010-2h1zm5 0a1 1 0 010 2h-1a1 1 0 010-2h1zm5 0a1 1 0 010 2h-1a1 1 0 010-2h1zm227-6l12 6a1 1 0 010 2l-12 6a1 1 0 01-1-1v-5h-2a1 1 0 010-2h2v-5l1-1zm-97 6a1 1 0 010 2h-1a1 1 0 010-2h1zm5 0a1 1 0 010 2h-1a1 1 0 010-2h1zm5 0a1 1 0 010 2h-1a1 1 0 010-2h1zm5 0a1 1 0 010 2h-1a1 1 0 010-2h1zm5 0a1 1 0 010 2h-1a1 1 0 010-2h1zm5 0a1 1 0 010 2h-1a1 1 0 010-2h1zm5 0a1 1 0 010 2h-1a1 1 0 010-2h1zm5 0a1 1 0 010 2h-1a1 1 0 010-2h1zm5 0a1 1 0 010 2h-1a1 1 0 010-2h1zm5 0a1 1 0 010 2h-1a1 1 0 010-2h1zm5 0a1 1 0 010 2h-1a1 1 0 010-2h1zm5 0a1 1 0 010 2h-1a1 1 0 010-2h1zm5 0a1 1 0 010 2h-1a1 1 0 010-2h1zm5 0a1 1 0 010 2h-1a1 1 0 010-2h1zm5 0a1 1 0 010 2h-1a1 1 0 010-2h1zm5 0a1 1 0 010 2h-1a1 1 0 010-2h1zm5 0a1 1 0 010 2h-1a1 1 0 010-2h1zm5 0a1 1 0 010 2h-1a1 1 0 010-2h1zm5 0a1 1 0 010 2h-1a1 1 0 010-2h1zm956 199l12 6a1 1 0 010 2l-12 6a1 1 0 01-1-1v-5h-2a1 1 0 010-2h2v-5l1-1zm-117 6a1 1 0 010 2h-1a1 1 0 010-2h1zm5 0a1 1 0 010 2h-1a1 1 0 010-2h1zm5 0a1 1 0 010 2h-1a1 1 0 010-2h1zm5 0a1 1 0 010 2h-1a1 1 0 010-2h1zm5 0a1 1 0 010 2h-1a1 1 0 010-2h1zm5 0a1 1 0 010 2h-1a1 1 0 010-2h1zm5 0a1 1 0 010 2h-1a1 1 0 010-2h1zm5 0a1 1 0 010 2h-1a1 1 0 010-2h1zm5 0a1 1 0 010 2h-1a1 1 0 010-2h1zm5 0a1 1 0 010 2h-1a1 1 0 010-2h1zm5 0a1 1 0 010 2h-1a1 1 0 010-2h1zm5 0a1 1 0 010 2h-1a1 1 0 010-2h1zm5 0a1 1 0 010 2h-1a1 1 0 010-2h1zm5 0a1 1 0 010 2h-1a1 1 0 010-2h1zm5 0a1 1 0 010 2h-1a1 1 0 010-2h1zm5 0a1 1 0 010 2h-1a1 1 0 010-2h1zm5 0a1 1 0 010 2h-1a1 1 0 010-2h1zm5 0a1 1 0 010 2h-1a1 1 0 010-2h1zm5 0a1 1 0 010 2h-1a1 1 0 010-2h1zm5 0a1 1 0 010 2h-1a1 1 0 010-2h1zm5 0a1 1 0 010 2h-1a1 1 0 010-2h1zm5 0a1 1 0 010 2h-1a1 1 0 010-2h1zm5 0a1 1 0 010 2h-1a1 1 0 010-2h1zm-99 203l1 1v5a1 1 0 010 2v5a1 1 0 01-1 1l-12-6a1 1 0 010-2l12-6zm6 6a1 1 0 010 2h-1a1 1 0 010-2h1zm5 0a1 1 0 010 2h-1a1 1 0 010-2h1zm5 0a1 1 0 010 2h-1a1 1 0 010-2h1zm5 0a1 1 0 010 2h-1a1 1 0 010-2h1zm5 0a1 1 0 010 2h-1a1 1 0 010-2h1zm5 0a1 1 0 010 2h-1a1 1 0 010-2h1zm5 0a1 1 0 010 2h-1a1 1 0 010-2h1zm5 0a1 1 0 010 2h-1a1 1 0 010-2h1zm5 0a1 1 0 010 2h-1a1 1 0 010-2h1zm5 0a1 1 0 010 2h-1a1 1 0 010-2h1zm5 0a1 1 0 010 2h-1a1 1 0 010-2h1zm5 0a1 1 0 010 2h-1a1 1 0 010-2h1zm5 0a1 1 0 010 2h-1a1 1 0 010-2h1zm5 0a1 1 0 010 2h-1a1 1 0 010-2h1zm5 0a1 1 0 010 2h-1a1 1 0 010-2h1zm5 0a1 1 0 010 2h-1a1 1 0 010-2h1zm5 0a1 1 0 010 2h-1a1 1 0 010-2h1zm5 0a1 1 0 010 2h-1a1 1 0 010-2h1zm5 0a1 1 0 010 2h-1a1 1 0 010-2h1zm5 0a1 1 0 010 2h-1a1 1 0 010-2h1zm5 0a1 1 0 010 2h-1a1 1 0 010-2h1zm5 0a1 1 0 010 2h-1a1 1 0 010-2h1zm5 0a1 1 0 010 2h-1a1 1 0 010-2h1z"/>
    <path fill="#2B8CC4" stroke="#FFF" stroke-linecap="round" stroke-linejoin="round" stroke-width="3" d="M1353 558l16 17-16 16-16-16zM645 560l16 17-16 16-16-16zM325 560l16 17-16 16-16-16zM883 558l16 17-16 16-16-16zM1001 558l16 17-16 16-16-16zM1119 558l16 17-16 16-16-16zM1594 558l16 17-16 16-16-16zM1814 558l16 17-16 16-16-16zM2034 558l16 17-16 16-16-16zM2173 558l16 17-16 16-16-16zM2394 558l16 17-16 16-16-16zM205 560l16 17-16 16-16-16z"/>
  </g>
</svg>
