<svg height="1080" viewBox="0 0 2940 1080" width="2940" xmlns="http://www.w3.org/2000/svg" xmlns:xlink="http://www.w3.org/1999/xlink"><defs><path id="a" d="m13 5h25v1h-25z" fill="#0b0c0c"/><path id="b" d="m0 0h26v10h-26z"/><filter id="c" height="110%" width="103.8%" x="-2%" y="-5%"><feOffset dy="-1" in="SourceAlpha" result="shadowOffsetInner1"/><feComposite in="shadowOffsetInner1" in2="SourceAlpha" k2="-1" k3="1" operator="arithmetic" result="shadowInnerInner1"/><feColorMatrix in="shadowInnerInner1" values="0 0 0 0 0 0 0 0 0 0.392156863 0 0 0 0 0.207843137 0 0 0 1 0"/></filter><filter id="d" height="110%" width="103.8%" x="-2%" y="-5%"><feOffset dy="-1" in="SourceAlpha" result="shadowOffsetInner1"/><feComposite in="shadowOffsetInner1" in2="SourceAlpha" k2="-1" k3="1" operator="arithmetic" result="shadowInnerInner1"/><feColorMatrix in="shadowInnerInner1" values="0 0 0 0 0 0 0 0 0 0.392156863 0 0 0 0 0.207843137 0 0 0 1 0"/></filter><filter id="e" height="110%" width="103.8%" x="-2%" y="-5%"><feOffset dy="-1" in="SourceAlpha" result="shadowOffsetInner1"/><feComposite in="shadowOffsetInner1" in2="SourceAlpha" k2="-1" k3="1" operator="arithmetic" result="shadowInnerInner1"/><feColorMatrix in="shadowInnerInner1" values="0 0 0 0 0 0 0 0 0 0.392156863 0 0 0 0 0.207843137 0 0 0 1 0"/></filter><filter id="f" height="110%" width="103.8%" x="-2%" y="-5%"><feOffset dy="-1" in="SourceAlpha" result="shadowOffsetInner1"/><feComposite in="shadowOffsetInner1" in2="SourceAlpha" k2="-1" k3="1" operator="arithmetic" result="shadowInnerInner1"/><feColorMatrix in="shadowInnerInner1" values="0 0 0 0 0 0 0 0 0 0.392156863 0 0 0 0 0.207843137 0 0 0 1 0"/></filter><filter id="g" height="110%" width="103.8%" x="-2%" y="-5%"><feOffset dy="-1" in="SourceAlpha" result="shadowOffsetInner1"/><feComposite in="shadowOffsetInner1" in2="SourceAlpha" k2="-1" k3="1" operator="arithmetic" result="shadowInnerInner1"/><feColorMatrix in="shadowInnerInner1" values="0 0 0 0 0 0 0 0 0 0.392156863 0 0 0 0 0.207843137 0 0 0 1 0"/></filter><filter id="h" height="110%" width="103.8%" x="-2%" y="-5%"><feOffset dy="-1" in="SourceAlpha" result="shadowOffsetInner1"/><feComposite in="shadowOffsetInner1" in2="SourceAlpha" k2="-1" k3="1" operator="arithmetic" result="shadowInnerInner1"/><feColorMatrix in="shadowInnerInner1" values="0 0 0 0 0 0 0 0 0 0.392156863 0 0 0 0 0.207843137 0 0 0 1 0"/></filter><filter id="i" height="110%" width="103.8%" x="-2%" y="-5%"><feOffset dy="-1" in="SourceAlpha" result="shadowOffsetInner1"/><feComposite in="shadowOffsetInner1" in2="SourceAlpha" k2="-1" k3="1" operator="arithmetic" result="shadowInnerInner1"/><feColorMatrix in="shadowInnerInner1" values="0 0 0 0 0 0 0 0 0 0.392156863 0 0 0 0 0.207843137 0 0 0 1 0"/></filter><filter id="j" height="110%" width="103.8%" x="-2%" y="-5%"><feOffset dy="-1" in="SourceAlpha" result="shadowOffsetInner1"/><feComposite in="shadowOffsetInner1" in2="SourceAlpha" k2="-1" k3="1" operator="arithmetic" result="shadowInnerInner1"/><feColorMatrix in="shadowInnerInner1" values="0 0 0 0 0 0 0 0 0 0.392156863 0 0 0 0 0.207843137 0 0 0 1 0"/></filter><filter id="k" height="110%" width="103.8%" x="-2%" y="-5%"><feOffset dy="-1" in="SourceAlpha" result="shadowOffsetInner1"/><feComposite in="shadowOffsetInner1" in2="SourceAlpha" k2="-1" k3="1" operator="arithmetic" result="shadowInnerInner1"/><feColorMatrix in="shadowInnerInner1" values="0 0 0 0 0 0 0 0 0 0.392156863 0 0 0 0 0.207843137 0 0 0 1 0"/></filter><filter id="l" height="110%" width="103.8%" x="-2%" y="-5%"><feOffset dy="-1" in="SourceAlpha" result="shadowOffsetInner1"/><feComposite in="shadowOffsetInner1" in2="SourceAlpha" k2="-1" k3="1" operator="arithmetic" result="shadowInnerInner1"/><feColorMatrix in="shadowInnerInner1" values="0 0 0 0 0 0 0 0 0 0.392156863 0 0 0 0 0.207843137 0 0 0 1 0"/></filter><filter id="m" height="110%" width="103.8%" x="-2%" y="-5%"><feOffset dy="-1" in="SourceAlpha" result="shadowOffsetInner1"/><feComposite in="shadowOffsetInner1" in2="SourceAlpha" k2="-1" k3="1" operator="arithmetic" result="shadowInnerInner1"/><feColorMatrix in="shadowInnerInner1" values="0 0 0 0 0 0 0 0 0 0.392156863 0 0 0 0 0.207843137 0 0 0 1 0"/></filter><filter id="n" height="110%" width="103.8%" x="-2%" y="-5%"><feOffset dy="-1" in="SourceAlpha" result="shadowOffsetInner1"/><feComposite in="shadowOffsetInner1" in2="SourceAlpha" k2="-1" k3="1" operator="arithmetic" result="shadowInnerInner1"/><feColorMatrix in="shadowInnerInner1" values="0 0 0 0 0 0 0 0 0 0.392156863 0 0 0 0 0.207843137 0 0 0 1 0"/></filter><use id="o" xlink:href="#b"/><use id="p" xlink:href="#b"/><use id="q" xlink:href="#b"/><use id="r" xlink:href="#b"/><use id="s" xlink:href="#b"/><use id="t" xlink:href="#b"/><use id="u" xlink:href="#b"/><use id="v" xlink:href="#b"/><use id="w" xlink:href="#b"/><use id="x" xlink:href="#b"/><use id="y" xlink:href="#b"/></defs><g fill="none" fill-rule="evenodd"><path d="m2394 164v87c0 5 4 10 10 10h420c7 0 10 3 10 10" stroke="#0b0c0c" stroke-dasharray="1 4" stroke-linecap="round" stroke-linejoin="round" stroke-width="2"/><path d="m2834 509 1 1v2h5a1 1 0 0 1 1 1l-6 12a1 1 0 0 1 -2 0l-6-12a1 1 0 0 1 1-1h5v-2zm0-5 1 1v1a1 1 0 0 1 -2 1v-2zm0-5 1 1v1a1 1 0 0 1 -2 1v-2zm0-5 1 1v1a1 1 0 0 1 -2 1v-2zm0-5 1 1v1a1 1 0 0 1 -2 1v-2zm0-5 1 1v1a1 1 0 0 1 -2 1v-2zm0-5 1 1v1a1 1 0 0 1 -2 1v-2zm0-5 1 1v1a1 1 0 0 1 -2 1v-2zm0-5 1 1v1a1 1 0 0 1 -2 1v-2zm0-5 1 1v1a1 1 0 0 1 -2 1v-2zm0-5 1 1v1a1 1 0 0 1 -2 1v-2zm0-5 1 1v1a1 1 0 0 1 -2 1v-2zm0-5 1 1v1a1 1 0 0 1 -2 1v-2zm0-5 1 1v1a1 1 0 0 1 -2 1v-2zm0-5 1 1v1a1 1 0 0 1 -2 1v-2zm0-5 1 1v1a1 1 0 0 1 -2 1v-2zm0-5 1 1v1a1 1 0 0 1 -2 1v-2zm0-5 1 1v1a1 1 0 0 1 -2 1v-2zm0-5 1 1v1a1 1 0 0 1 -2 1v-2zm0-5 1 1v1a1 1 0 0 1 -2 1v-2zm0-5 1 1v1a1 1 0 0 1 -2 1v-2zm0-5 1 1v1a1 1 0 0 1 -2 1v-2zm0-5 1 1v1a1 1 0 0 1 -2 1v-2zm0-5 1 1v1a1 1 0 0 1 -2 1v-2zm0-5 1 1v1a1 1 0 0 1 -2 1v-2zm0-5 1 1v1a1 1 0 0 1 -2 1v-2zm0-5 1 1v1a1 1 0 0 1 -2 1v-2zm0-5 1 1v1a1 1 0 0 1 -2 1v-2zm0-5 1 1v1a1 1 0 0 1 -2 1v-2zm0-5 1 1v1a1 1 0 0 1 -2 1v-2zm0-5 1 1v1a1 1 0 0 1 -2 1v-2zm0-5 1 1v1a1 1 0 0 1 -2 1v-2zm0-5 1 1v1a1 1 0 0 1 -2 1v-2zm0-5 1 1v1a1 1 0 0 1 -2 1v-2zm0-5 1 1v1a1 1 0 0 1 -2 1v-2zm0-5 1 1v1a1 1 0 0 1 -2 1v-2zm0-5 1 1v1a1 1 0 0 1 -2 1v-2zm0-5 1 1v1a1 1 0 0 1 -2 1v-2zm0-5 1 1v1a1 1 0 0 1 -2 1v-2zm0-5 1 1v1a1 1 0 0 1 -2 1v-2zm0-5 1 1v1a1 1 0 0 1 -2 1v-2zm0-5 1 1v1a1 1 0 0 1 -2 1v-2zm0-5 1 1v1a1 1 0 0 1 -2 1v-2zm0-5 1 1v1a1 1 0 0 1 -2 1v-2zm0-5 1 1v1a1 1 0 0 1 -2 1v-2zm0-5 1 1v1a1 1 0 0 1 -2 1v-2zm0-5 1 1v1a1 1 0 0 1 -2 1v-2zm0-5 1 1v1a1 1 0 0 1 -2 1v-2zm0-5 1 1v1a1 1 0 0 1 -2 1v-2zm0-5 1 1v1a1 1 0 0 1 -2 1v-2zm0-5 1 1v1a1 1 0 0 1 -2 1v-2zm0-5 1 1v1a1 1 0 0 1 -2 1v-2zm0-5 1 1v1a1 1 0 0 1 -2 1v-2zm0-5 1 1v1a1 1 0 0 1 -2 1v-2zm0-5 1 1v1a1 1 0 0 1 -2 1v-2zm0-5 1 1v1a1 1 0 0 1 -2 1v-2zm0-5 1 1v1a1 1 0 0 1 -2 1v-2zm0-5 1 1v1a1 1 0 0 1 -2 1v-2zm0-5 1 1v1a1 1 0 0 1 -2 1v-2zm0-5 1 1v1a1 1 0 0 1 -2 1v-2zm0-5 1 1v1a1 1 0 0 1 -2 1v-2zm0-5 1 1v1a1 1 0 0 1 -2 1v-2zm0-5 1 1v1a1 1 0 0 1 -2 1v-2zm0-5 1 1v1a1 1 0 0 1 -2 1v-2zm0-5 1 1v1a1 1 0 0 1 -2 1v-2zm0-5 1 1v1a1 1 0 0 1 -2 1v-2zm0-5 1 1v1a1 1 0 0 1 -2 1v-2zm0-5 1 1v1a1 1 0 0 1 -2 1v-2zm0-4v1a1 1 0 0 1 -2 1v-1a1 1 0 0 1 2-1zm-4-4 1 1a1 1 0 1 1 -1 1h-1a1 1 0 0 1 1-2zm-5-2h1a1 1 0 0 1 0 2h-1a1 1 0 0 1 0-2zm-1659 0a1 1 0 0 1 0 2h-1a1 1 0 0 1 0-2zm5 0a1 1 0 0 1 0 2h-1a1 1 0 0 1 0-2zm5 0a1 1 0 0 1 0 2h-1a1 1 0 0 1 0-2zm5 0a1 1 0 0 1 0 2h-1a1 1 0 0 1 0-2zm5 0a1 1 0 0 1 0 2h-1a1 1 0 0 1 0-2zm5 0a1 1 0 0 1 0 2h-1a1 1 0 0 1 0-2zm5 0a1 1 0 0 1 0 2h-1a1 1 0 0 1 0-2zm5 0a1 1 0 0 1 0 2h-1a1 1 0 0 1 0-2zm5 0a1 1 0 0 1 0 2h-1a1 1 0 0 1 0-2zm5 0a1 1 0 0 1 0 2h-1a1 1 0 0 1 0-2zm5 0a1 1 0 0 1 0 2h-1a1 1 0 0 1 0-2zm5 0a1 1 0 0 1 0 2h-1a1 1 0 0 1 0-2zm5 0a1 1 0 0 1 0 2h-1a1 1 0 0 1 0-2zm5 0a1 1 0 0 1 0 2h-1a1 1 0 0 1 0-2zm5 0a1 1 0 0 1 0 2h-1a1 1 0 0 1 0-2zm5 0a1 1 0 0 1 0 2h-1a1 1 0 0 1 0-2zm5 0a1 1 0 0 1 0 2h-1a1 1 0 0 1 0-2zm5 0a1 1 0 0 1 0 2h-1a1 1 0 0 1 0-2zm5 0a1 1 0 0 1 0 2h-1a1 1 0 0 1 0-2zm5 0a1 1 0 0 1 0 2h-1a1 1 0 0 1 0-2zm5 0a1 1 0 0 1 0 2h-1a1 1 0 0 1 0-2zm5 0a1 1 0 0 1 0 2h-1a1 1 0 0 1 0-2zm5 0a1 1 0 0 1 0 2h-1a1 1 0 0 1 0-2zm5 0a1 1 0 0 1 0 2h-1a1 1 0 0 1 0-2zm5 0a1 1 0 0 1 0 2h-1a1 1 0 0 1 0-2zm5 0a1 1 0 0 1 0 2h-1a1 1 0 0 1 0-2zm5 0a1 1 0 0 1 0 2h-1a1 1 0 0 1 0-2zm5 0a1 1 0 0 1 0 2h-1a1 1 0 0 1 0-2zm5 0a1 1 0 0 1 0 2h-1a1 1 0 0 1 0-2zm5 0a1 1 0 0 1 0 2h-1a1 1 0 0 1 0-2zm5 0a1 1 0 0 1 0 2h-1a1 1 0 0 1 0-2zm5 0a1 1 0 0 1 0 2h-1a1 1 0 0 1 0-2zm5 0a1 1 0 0 1 0 2h-1a1 1 0 0 1 0-2zm5 0a1 1 0 0 1 0 2h-1a1 1 0 0 1 0-2zm5 0a1 1 0 0 1 0 2h-1a1 1 0 0 1 0-2zm5 0a1 1 0 0 1 0 2h-1a1 1 0 0 1 0-2zm5 0a1 1 0 0 1 0 2h-1a1 1 0 0 1 0-2zm5 0a1 1 0 0 1 0 2h-1a1 1 0 0 1 0-2zm5 0a1 1 0 0 1 0 2h-1a1 1 0 0 1 0-2zm5 0a1 1 0 0 1 0 2h-1a1 1 0 0 1 0-2zm5 0a1 1 0 0 1 0 2h-1a1 1 0 0 1 0-2zm5 0a1 1 0 0 1 0 2h-1a1 1 0 0 1 0-2zm5 0a1 1 0 0 1 0 2h-1a1 1 0 0 1 0-2zm5 0a1 1 0 0 1 0 2h-1a1 1 0 0 1 0-2zm5 0a1 1 0 0 1 0 2h-1a1 1 0 0 1 0-2zm5 0a1 1 0 0 1 0 2h-1a1 1 0 0 1 0-2zm5 0a1 1 0 0 1 0 2h-1a1 1 0 0 1 0-2zm5 0a1 1 0 0 1 0 2h-1a1 1 0 0 1 0-2zm5 0a1 1 0 0 1 0 2h-1a1 1 0 0 1 0-2zm5 0a1 1 0 0 1 0 2h-1a1 1 0 0 1 0-2zm5 0a1 1 0 0 1 0 2h-1a1 1 0 0 1 0-2zm5 0a1 1 0 0 1 0 2h-1a1 1 0 0 1 0-2zm5 0a1 1 0 0 1 0 2h-1a1 1 0 0 1 0-2zm5 0a1 1 0 0 1 0 2h-1a1 1 0 0 1 0-2zm5 0a1 1 0 0 1 0 2h-1a1 1 0 0 1 0-2zm5 0a1 1 0 0 1 0 2h-1a1 1 0 0 1 0-2zm5 0a1 1 0 0 1 0 2h-1a1 1 0 0 1 0-2zm5 0a1 1 0 0 1 0 2h-1a1 1 0 0 1 0-2zm5 0a1 1 0 0 1 0 2h-1a1 1 0 0 1 0-2zm5 0a1 1 0 0 1 0 2h-1a1 1 0 0 1 0-2zm5 0a1 1 0 0 1 0 2h-1a1 1 0 0 1 0-2zm5 0a1 1 0 0 1 0 2h-1a1 1 0 0 1 0-2zm5 0a1 1 0 0 1 0 2h-1a1 1 0 0 1 0-2zm5 0a1 1 0 0 1 0 2h-1a1 1 0 0 1 0-2zm5 0a1 1 0 0 1 0 2h-1a1 1 0 0 1 0-2zm5 0a1 1 0 0 1 0 2h-1a1 1 0 0 1 0-2zm5 0a1 1 0 0 1 0 2h-1a1 1 0 0 1 0-2zm5 0a1 1 0 0 1 0 2h-1a1 1 0 0 1 0-2zm5 0a1 1 0 0 1 0 2h-1a1 1 0 0 1 0-2zm5 0a1 1 0 0 1 0 2h-1a1 1 0 0 1 0-2zm5 0a1 1 0 0 1 0 2h-1a1 1 0 0 1 0-2zm5 0a1 1 0 0 1 0 2h-1a1 1 0 0 1 0-2zm5 0a1 1 0 0 1 0 2h-1a1 1 0 0 1 0-2zm5 0a1 1 0 0 1 0 2h-1a1 1 0 0 1 0-2zm5 0a1 1 0 0 1 0 2h-1a1 1 0 0 1 0-2zm5 0a1 1 0 0 1 0 2h-1a1 1 0 0 1 0-2zm5 0a1 1 0 0 1 0 2h-1a1 1 0 0 1 0-2zm5 0a1 1 0 0 1 0 2h-1a1 1 0 0 1 0-2zm5 0a1 1 0 0 1 0 2h-1a1 1 0 0 1 0-2zm5 0a1 1 0 0 1 0 2h-1a1 1 0 0 1 0-2zm5 0a1 1 0 0 1 0 2h-1a1 1 0 0 1 0-2zm5 0a1 1 0 0 1 0 2h-1a1 1 0 0 1 0-2zm5 0a1 1 0 0 1 0 2h-1a1 1 0 0 1 0-2zm5 0a1 1 0 0 1 0 2h-1a1 1 0 0 1 0-2zm5 0a1 1 0 0 1 0 2h-1a1 1 0 0 1 0-2zm5 0a1 1 0 0 1 0 2h-1a1 1 0 0 1 0-2zm5 0a1 1 0 0 1 0 2h-1a1 1 0 0 1 0-2zm5 0a1 1 0 0 1 0 2h-1a1 1 0 0 1 0-2zm5 0a1 1 0 0 1 0 2h-1a1 1 0 0 1 0-2zm5 0a1 1 0 0 1 0 2h-1a1 1 0 0 1 0-2zm5 0a1 1 0 0 1 0 2h-1a1 1 0 0 1 0-2zm5 0a1 1 0 0 1 0 2h-1a1 1 0 0 1 0-2zm5 0a1 1 0 0 1 0 2h-1a1 1 0 0 1 0-2zm5 0a1 1 0 0 1 0 2h-1a1 1 0 0 1 0-2zm5 0a1 1 0 0 1 0 2h-1a1 1 0 0 1 0-2zm5 0a1 1 0 0 1 0 2h-1a1 1 0 0 1 0-2zm5 0a1 1 0 0 1 0 2h-1a1 1 0 0 1 0-2zm5 0a1 1 0 0 1 0 2h-1a1 1 0 0 1 0-2zm5 0a1 1 0 0 1 0 2h-1a1 1 0 0 1 0-2zm5 0a1 1 0 0 1 0 2h-1a1 1 0 0 1 0-2zm5 0a1 1 0 0 1 0 2h-1a1 1 0 0 1 0-2zm5 0a1 1 0 0 1 0 2h-1a1 1 0 0 1 0-2zm5 0a1 1 0 0 1 0 2h-1a1 1 0 0 1 0-2zm5 0a1 1 0 0 1 0 2h-1a1 1 0 0 1 0-2zm5 0a1 1 0 0 1 0 2h-1a1 1 0 0 1 0-2zm5 0a1 1 0 0 1 0 2h-1a1 1 0 0 1 0-2zm5 0a1 1 0 0 1 0 2h-1a1 1 0 0 1 0-2zm5 0a1 1 0 0 1 0 2h-1a1 1 0 0 1 0-2zm5 0a1 1 0 0 1 0 2h-1a1 1 0 0 1 0-2zm5 0a1 1 0 0 1 0 2h-1a1 1 0 0 1 0-2zm5 0a1 1 0 0 1 0 2h-1a1 1 0 0 1 0-2zm5 0a1 1 0 0 1 0 2h-1a1 1 0 0 1 0-2zm5 0a1 1 0 0 1 0 2h-1a1 1 0 0 1 0-2zm5 0a1 1 0 0 1 0 2h-1a1 1 0 0 1 0-2zm5 0a1 1 0 0 1 0 2h-1a1 1 0 0 1 0-2zm5 0a1 1 0 0 1 0 2h-1a1 1 0 0 1 0-2zm5 0a1 1 0 0 1 0 2h-1a1 1 0 0 1 0-2zm5 0a1 1 0 0 1 0 2h-1a1 1 0 0 1 0-2zm5 0a1 1 0 0 1 0 2h-1a1 1 0 0 1 0-2zm5 0a1 1 0 0 1 0 2h-1a1 1 0 0 1 0-2zm5 0a1 1 0 0 1 0 2h-1a1 1 0 0 1 0-2zm5 0a1 1 0 0 1 0 2h-1a1 1 0 0 1 0-2zm5 0a1 1 0 0 1 0 2h-1a1 1 0 0 1 0-2zm5 0a1 1 0 0 1 0 2h-1a1 1 0 0 1 0-2zm5 0a1 1 0 0 1 0 2h-1a1 1 0 0 1 0-2zm5 0a1 1 0 0 1 0 2h-1a1 1 0 0 1 0-2zm5 0a1 1 0 0 1 0 2h-1a1 1 0 0 1 0-2zm5 0a1 1 0 0 1 0 2h-1a1 1 0 0 1 0-2zm5 0a1 1 0 0 1 0 2h-1a1 1 0 0 1 0-2zm5 0a1 1 0 0 1 0 2h-1a1 1 0 0 1 0-2zm5 0a1 1 0 0 1 0 2h-1a1 1 0 0 1 0-2zm5 0a1 1 0 0 1 0 2h-1a1 1 0 0 1 0-2zm5 0a1 1 0 0 1 0 2h-1a1 1 0 0 1 0-2zm5 0a1 1 0 0 1 0 2h-1a1 1 0 0 1 0-2zm5 0a1 1 0 0 1 0 2h-1a1 1 0 0 1 0-2zm5 0a1 1 0 0 1 0 2h-1a1 1 0 0 1 0-2zm5 0a1 1 0 0 1 0 2h-1a1 1 0 0 1 0-2zm5 0a1 1 0 0 1 0 2h-1a1 1 0 0 1 0-2zm5 0a1 1 0 0 1 0 2h-1a1 1 0 0 1 0-2zm5 0a1 1 0 0 1 0 2h-1a1 1 0 0 1 0-2zm5 0a1 1 0 0 1 0 2h-1a1 1 0 0 1 0-2zm5 0a1 1 0 0 1 0 2h-1a1 1 0 0 1 0-2zm5 0a1 1 0 0 1 0 2h-1a1 1 0 0 1 0-2zm5 0a1 1 0 0 1 0 2h-1a1 1 0 0 1 0-2zm5 0a1 1 0 0 1 0 2h-1a1 1 0 0 1 0-2zm5 0a1 1 0 0 1 0 2h-1a1 1 0 0 1 0-2zm5 0a1 1 0 0 1 0 2h-1a1 1 0 0 1 0-2zm5 0a1 1 0 0 1 0 2h-1a1 1 0 0 1 0-2zm5 0a1 1 0 0 1 0 2h-1a1 1 0 0 1 0-2zm5 0a1 1 0 0 1 0 2h-1a1 1 0 0 1 0-2zm5 0a1 1 0 0 1 0 2h-1a1 1 0 0 1 0-2zm5 0a1 1 0 0 1 0 2h-1a1 1 0 0 1 0-2zm5 0a1 1 0 0 1 0 2h-1a1 1 0 0 1 0-2zm5 0a1 1 0 0 1 0 2h-1a1 1 0 0 1 0-2zm5 0a1 1 0 0 1 0 2h-1a1 1 0 0 1 0-2zm5 0a1 1 0 0 1 0 2h-1a1 1 0 0 1 0-2zm5 0a1 1 0 0 1 0 2h-1a1 1 0 0 1 0-2zm5 0a1 1 0 0 1 0 2h-1a1 1 0 0 1 0-2zm5 0a1 1 0 0 1 0 2h-1a1 1 0 0 1 0-2zm5 0a1 1 0 0 1 0 2h-1a1 1 0 0 1 0-2zm5 0a1 1 0 0 1 0 2h-1a1 1 0 0 1 0-2zm5 0a1 1 0 0 1 0 2h-1a1 1 0 0 1 0-2zm5 0a1 1 0 0 1 0 2h-1a1 1 0 0 1 0-2zm5 0a1 1 0 0 1 0 2h-1a1 1 0 0 1 0-2zm5 0a1 1 0 0 1 0 2h-1a1 1 0 0 1 0-2zm5 0a1 1 0 0 1 0 2h-1a1 1 0 0 1 0-2zm-1180 0a1 1 0 0 1 0 2h-1a1 1 0 0 1 0-2zm1190 0a1 1 0 0 1 0 2h-1a1 1 0 0 1 0-2zm5 0a1 1 0 0 1 0 2h-1a1 1 0 0 1 0-2zm5 0a1 1 0 0 1 0 2h-1a1 1 0 0 1 0-2zm5 0a1 1 0 0 1 0 2h-1a1 1 0 0 1 0-2zm5 0a1 1 0 0 1 0 2h-1a1 1 0 0 1 0-2zm5 0a1 1 0 0 1 0 2h-1a1 1 0 0 1 0-2zm5 0a1 1 0 0 1 0 2h-1a1 1 0 0 1 0-2zm5 0a1 1 0 0 1 0 2h-1a1 1 0 0 1 0-2zm5 0a1 1 0 0 1 0 2h-1a1 1 0 0 1 0-2zm5 0a1 1 0 0 1 0 2h-1a1 1 0 0 1 0-2zm5 0a1 1 0 0 1 0 2h-1a1 1 0 0 1 0-2zm5 0a1 1 0 0 1 0 2h-1a1 1 0 0 1 0-2zm5 0a1 1 0 0 1 0 2h-1a1 1 0 0 1 0-2zm5 0a1 1 0 0 1 0 2h-1a1 1 0 0 1 0-2zm5 0a1 1 0 0 1 0 2h-1a1 1 0 0 1 0-2zm5 0a1 1 0 0 1 0 2h-1a1 1 0 0 1 0-2zm5 0a1 1 0 0 1 0 2h-1a1 1 0 0 1 0-2zm5 0a1 1 0 0 1 0 2h-1a1 1 0 0 1 0-2zm5 0a1 1 0 0 1 0 2h-1a1 1 0 0 1 0-2zm5 0a1 1 0 0 1 0 2h-1a1 1 0 0 1 0-2zm5 0a1 1 0 0 1 0 2h-1a1 1 0 0 1 0-2zm5 0a1 1 0 0 1 0 2h-1a1 1 0 0 1 0-2zm5 0a1 1 0 0 1 0 2h-1a1 1 0 0 1 0-2zm5 0a1 1 0 0 1 0 2h-1a1 1 0 0 1 0-2zm5 0a1 1 0 0 1 0 2h-1a1 1 0 0 1 0-2zm5 0a1 1 0 0 1 0 2h-1a1 1 0 0 1 0-2zm5 0a1 1 0 0 1 0 2h-1a1 1 0 0 1 0-2zm5 0a1 1 0 0 1 0 2h-1a1 1 0 0 1 0-2zm5 0a1 1 0 0 1 0 2h-1a1 1 0 0 1 0-2zm5 0a1 1 0 0 1 0 2h-1a1 1 0 0 1 0-2zm5 0a1 1 0 0 1 0 2h-1a1 1 0 0 1 0-2zm5 0a1 1 0 0 1 0 2h-1a1 1 0 0 1 0-2zm5 0a1 1 0 0 1 0 2h-1a1 1 0 0 1 0-2zm5 0a1 1 0 0 1 0 2h-1a1 1 0 0 1 0-2zm5 0a1 1 0 0 1 0 2h-1a1 1 0 0 1 0-2zm5 0a1 1 0 0 1 0 2h-1a1 1 0 0 1 0-2zm5 0a1 1 0 0 1 0 2h-1a1 1 0 0 1 0-2zm5 0a1 1 0 0 1 0 2h-1a1 1 0 0 1 0-2zm5 0a1 1 0 0 1 0 2h-1a1 1 0 0 1 0-2zm5 0a1 1 0 0 1 0 2h-1a1 1 0 0 1 0-2zm5 0a1 1 0 0 1 0 2h-1a1 1 0 0 1 0-2zm5 0a1 1 0 0 1 0 2h-1a1 1 0 0 1 0-2zm5 0a1 1 0 0 1 0 2h-1a1 1 0 0 1 0-2zm5 0a1 1 0 0 1 0 2h-1a1 1 0 0 1 0-2zm5 0a1 1 0 0 1 0 2h-1a1 1 0 0 1 0-2zm5 0a1 1 0 0 1 0 2h-1a1 1 0 0 1 0-2zm5 0a1 1 0 0 1 0 2h-1a1 1 0 0 1 0-2zm5 0a1 1 0 0 1 0 2h-1a1 1 0 0 1 0-2zm5 0a1 1 0 0 1 0 2h-1a1 1 0 0 1 0-2zm5 0a1 1 0 0 1 0 2h-1a1 1 0 0 1 0-2zm5 0a1 1 0 0 1 0 2h-1a1 1 0 0 1 0-2zm5 0a1 1 0 0 1 0 2h-1a1 1 0 0 1 0-2zm5 0a1 1 0 0 1 0 2h-1a1 1 0 0 1 0-2zm5 0a1 1 0 0 1 0 2h-1a1 1 0 0 1 0-2zm5 0a1 1 0 0 1 0 2h-1a1 1 0 0 1 0-2zm5 0a1 1 0 0 1 0 2h-1a1 1 0 0 1 0-2zm5 0a1 1 0 0 1 0 2h-1a1 1 0 0 1 0-2zm5 0a1 1 0 0 1 0 2h-1a1 1 0 0 1 0-2zm5 0a1 1 0 0 1 0 2h-1a1 1 0 0 1 0-2zm5 0a1 1 0 0 1 0 2h-1a1 1 0 0 1 0-2zm5 0a1 1 0 0 1 0 2h-1a1 1 0 0 1 0-2zm5 0a1 1 0 0 1 0 2h-1a1 1 0 0 1 0-2zm5 0a1 1 0 0 1 0 2h-1a1 1 0 0 1 0-2zm5 0a1 1 0 0 1 0 2h-1a1 1 0 0 1 0-2zm5 0a1 1 0 0 1 0 2h-1a1 1 0 0 1 0-2zm5 0a1 1 0 0 1 0 2h-1a1 1 0 0 1 0-2zm5 0a1 1 0 0 1 0 2h-1a1 1 0 0 1 0-2zm5 0a1 1 0 0 1 0 2h-1a1 1 0 0 1 0-2zm5 0a1 1 0 0 1 0 2h-1a1 1 0 0 1 0-2zm5 0a1 1 0 0 1 0 2h-1a1 1 0 0 1 0-2zm5 0a1 1 0 0 1 0 2h-1a1 1 0 0 1 0-2zm5 0a1 1 0 0 1 0 2h-1a1 1 0 0 1 0-2zm5 0a1 1 0 0 1 0 2h-1a1 1 0 0 1 0-2zm5 0a1 1 0 0 1 0 2h-1a1 1 0 0 1 0-2zm5 0a1 1 0 0 1 0 2h-1a1 1 0 0 1 0-2zm5 0a1 1 0 0 1 0 2h-1a1 1 0 0 1 0-2zm5 0a1 1 0 0 1 0 2h-1a1 1 0 0 1 0-2zm5 0a1 1 0 0 1 0 2h-1a1 1 0 0 1 0-2zm5 0a1 1 0 0 1 0 2h-1a1 1 0 0 1 0-2zm5 0a1 1 0 0 1 0 2h-1a1 1 0 0 1 0-2zm5 0a1 1 0 0 1 0 2h-1a1 1 0 0 1 0-2zm5 0a1 1 0 0 1 0 2h-1a1 1 0 0 1 0-2zm5 0a1 1 0 0 1 0 2h-1a1 1 0 0 1 0-2zm5 0a1 1 0 0 1 0 2h-1a1 1 0 0 1 0-2zm5 0a1 1 0 0 1 0 2h-1a1 1 0 0 1 0-2zm5 0a1 1 0 0 1 0 2h-1a1 1 0 0 1 0-2zm5 0a1 1 0 0 1 0 2h-1a1 1 0 0 1 0-2zm5 0a1 1 0 0 1 0 2h-1a1 1 0 0 1 0-2zm5 0a1 1 0 0 1 0 2h-1a1 1 0 0 1 0-2zm5 0a1 1 0 0 1 0 2h-1a1 1 0 0 1 0-2zm5 0a1 1 0 0 1 0 2h-1a1 1 0 0 1 0-2zm5 0a1 1 0 0 1 0 2h-1a1 1 0 0 1 0-2zm5 0a1 1 0 0 1 0 2h-1a1 1 0 0 1 0-2zm5 0a1 1 0 0 1 0 2h-1a1 1 0 0 1 0-2zm5 0a1 1 0 0 1 0 2h-1a1 1 0 0 1 0-2zm5 0a1 1 0 0 1 0 2h-1a1 1 0 0 1 0-2zm5 0a1 1 0 0 1 0 2h-1a1 1 0 0 1 0-2zm5 0a1 1 0 0 1 0 2h-1a1 1 0 0 1 0-2zm5 0a1 1 0 0 1 0 2h-1a1 1 0 0 1 0-2zm5 0a1 1 0 0 1 0 2h-1a1 1 0 0 1 0-2zm5 0a1 1 0 0 1 0 2h-1a1 1 0 0 1 0-2zm5 0a1 1 0 0 1 0 2h-1a1 1 0 0 1 0-2zm5 0a1 1 0 0 1 0 2h-1a1 1 0 0 1 0-2zm5 0a1 1 0 0 1 0 2h-1a1 1 0 0 1 0-2zm5 0a1 1 0 0 1 0 2h-1a1 1 0 0 1 0-2zm5 0a1 1 0 0 1 0 2h-1a1 1 0 0 1 0-2zm5 0a1 1 0 0 1 0 2h-1a1 1 0 0 1 0-2zm5 0a1 1 0 0 1 0 2h-1a1 1 0 0 1 0-2zm5 0a1 1 0 0 1 0 2h-1a1 1 0 0 1 0-2zm5 0a1 1 0 0 1 0 2h-1a1 1 0 0 1 0-2zm5 0a1 1 0 0 1 0 2h-1a1 1 0 0 1 0-2zm5 0a1 1 0 0 1 0 2h-1a1 1 0 0 1 0-2zm5 0a1 1 0 0 1 0 2h-1a1 1 0 0 1 0-2zm5 0a1 1 0 0 1 0 2h-1a1 1 0 0 1 0-2zm5 0a1 1 0 0 1 0 2h-1a1 1 0 0 1 0-2zm5 0a1 1 0 0 1 0 2h-1a1 1 0 0 1 0-2zm5 0a1 1 0 0 1 0 2h-1a1 1 0 0 1 0-2zm5 0a1 1 0 0 1 0 2h-1a1 1 0 0 1 0-2zm5 0a1 1 0 0 1 0 2h-1a1 1 0 0 1 0-2zm5 0a1 1 0 0 1 0 2h-1a1 1 0 0 1 0-2zm5 0a1 1 0 0 1 0 2h-1a1 1 0 0 1 0-2zm5 0a1 1 0 0 1 0 2h-1a1 1 0 0 1 0-2zm5 0a1 1 0 0 1 0 2h-1a1 1 0 0 1 0-2zm5 0a1 1 0 0 1 0 2h-1a1 1 0 0 1 0-2zm5 0a1 1 0 0 1 0 2h-1a1 1 0 0 1 0-2zm5 0a1 1 0 0 1 0 2h-1a1 1 0 0 1 0-2zm5 0a1 1 0 0 1 0 2h-1a1 1 0 0 1 0-2zm5 0a1 1 0 0 1 0 2h-1a1 1 0 0 1 0-2zm5 0a1 1 0 0 1 0 2h-1a1 1 0 0 1 0-2zm5 0a1 1 0 0 1 0 2h-1a1 1 0 0 1 0-2zm5 0a1 1 0 0 1 0 2h-1a1 1 0 0 1 0-2zm5 0a1 1 0 0 1 0 2h-1a1 1 0 0 1 0-2zm5 0a1 1 0 0 1 0 2h-1a1 1 0 0 1 0-2zm5 0a1 1 0 0 1 0 2h-1a1 1 0 0 1 0-2zm5 0a1 1 0 0 1 0 2h-1a1 1 0 0 1 0-2zm5 0a1 1 0 0 1 0 2h-1a1 1 0 0 1 0-2zm5 0a1 1 0 0 1 0 2h-1a1 1 0 0 1 0-2zm5 0a1 1 0 0 1 0 2h-1a1 1 0 0 1 0-2zm5 0a1 1 0 0 1 0 2h-1a1 1 0 0 1 0-2zm5 0a1 1 0 0 1 0 2h-1a1 1 0 0 1 0-2zm5 0a1 1 0 0 1 0 2h-1a1 1 0 0 1 0-2zm5 0a1 1 0 0 1 0 2h-1a1 1 0 0 1 0-2zm5 0a1 1 0 0 1 0 2h-1a1 1 0 0 1 0-2zm5 0a1 1 0 0 1 0 2h-1a1 1 0 0 1 0-2zm5 0a1 1 0 0 1 0 2h-1a1 1 0 0 1 0-2zm5 0a1 1 0 0 1 0 2h-1a1 1 0 0 1 0-2zm5 0a1 1 0 0 1 0 2h-1a1 1 0 0 1 0-2zm5 0a1 1 0 0 1 0 2h-1a1 1 0 0 1 0-2zm5 0a1 1 0 0 1 0 2h-1a1 1 0 0 1 0-2zm5 0a1 1 0 0 1 0 2h-1a1 1 0 0 1 0-2zm5 0a1 1 0 0 1 0 2h-1a1 1 0 0 1 0-2zm5 0a1 1 0 0 1 0 2h-1a1 1 0 0 1 0-2zm5 0a1 1 0 0 1 0 2h-1a1 1 0 0 1 0-2zm5 0a1 1 0 0 1 0 2h-1a1 1 0 0 1 0-2zm5 0a1 1 0 0 1 0 2h-1a1 1 0 0 1 0-2zm5 0a1 1 0 0 1 0 2h-1a1 1 0 0 1 0-2zm5 0a1 1 0 0 1 0 2h-1a1 1 0 0 1 0-2zm5 0a1 1 0 0 1 0 2h-1a1 1 0 0 1 0-2zm5 0a1 1 0 0 1 0 2h-1a1 1 0 0 1 0-2zm5 0a1 1 0 0 1 0 2h-1a1 1 0 0 1 0-2zm5 0a1 1 0 0 1 0 2h-1a1 1 0 0 1 0-2zm5 0a1 1 0 0 1 0 2h-1a1 1 0 0 1 0-2zm5 0a1 1 0 0 1 0 2h-1a1 1 0 0 1 0-2zm5 0a1 1 0 0 1 0 2h-1a1 1 0 0 1 0-2zm5 0a1 1 0 0 1 0 2h-1a1 1 0 0 1 0-2zm-1660 0a1 1 0 0 1 0 2h-1a1 1 0 0 1 0-2zm-5 0a1 1 0 0 1 0 2h-1a1 1 0 0 1 0-2zm-5 0a1 1 0 0 1 0 2h-1a1 1 0 0 1 0-2zm-5 0a1 1 0 0 1 0 2h-1a1 1 0 0 1 0-2zm-5 0a1 1 0 0 1 0 2h-1a1 1 0 0 1 0-2zm-5 0a1 1 0 0 1 0 2h-1a1 1 0 0 1 0-2zm-5 0a1 1 0 0 1 0 2h-1a1 1 0 0 1 0-2zm-5 0a1 1 0 0 1 0 2h-1a1 1 0 0 1 0-2zm-5 0a1 1 0 0 1 0 2h-1a1 1 0 0 1 0-2zm-5 0a1 1 0 0 1 0 2h-1a1 1 0 0 1 0-2zm-5 0a1 1 0 0 1 0 2h-1a1 1 0 0 1 0-2zm-5 0a1 1 0 0 1 0 2h-1a1 1 0 0 1 0-2zm-5 0a1 1 0 0 1 0 2h-1a1 1 0 0 1 0-2zm-5 0a1 1 0 0 1 0 2h-1a1 1 0 0 1 0-2zm-5 0a1 1 0 0 1 0 2h-1a1 1 0 0 1 0-2zm-5 0a1 1 0 0 1 0 2h-1a1 1 0 0 1 0-2zm-5 0a1 1 0 0 1 0 2h-1a1 1 0 0 1 0-2zm-5 0a1 1 0 0 1 0 2h-1a1 1 0 0 1 0-2zm-5 0a1 1 0 0 1 0 2h-1a1 1 0 0 1 0-2zm-5 0a1 1 0 0 1 0 2h-1a1 1 0 0 1 0-2zm-5 0a1 1 0 0 1 0 2h-1a1 1 0 0 1 0-2zm-5 0a1 1 0 0 1 0 2h-1a1 1 0 0 1 0-2zm-5 0a1 1 0 0 1 0 2h-1a1 1 0 0 1 0-2zm-5 0a1 1 0 0 1 0 2h-1a1 1 0 0 1 0-2zm-5 0a1 1 0 0 1 0 2h-1a1 1 0 0 1 0-2zm-5 0a1 1 0 0 1 0 2h-1a1 1 0 0 1 0-2zm-5 0a1 1 0 0 1 0 2h-1a1 1 0 0 1 0-2zm-5 0a1 1 0 0 1 0 2h-1a1 1 0 0 1 0-2zm-5 0a1 1 0 0 1 0 2h-1a1 1 0 0 1 0-2zm-5 0a1 1 0 0 1 0 2h-1a1 1 0 0 1 0-2zm-5 0a1 1 0 0 1 0 2h-1a1 1 0 0 1 0-2zm-5 0a1 1 0 0 1 0 2h-1a1 1 0 0 1 0-2zm-5 0a1 1 0 0 1 0 2h-1a1 1 0 0 1 0-2zm-5 0a1 1 0 0 1 0 2h-1a1 1 0 0 1 0-2zm-5 0a1 1 0 0 1 0 2h-1a1 1 0 0 1 0-2zm-5 0a1 1 0 0 1 0 2h-1a1 1 0 0 1 0-2zm-5 0a1 1 0 0 1 0 2h-1a1 1 0 0 1 0-2zm-5 0a1 1 0 0 1 0 2h-1a1 1 0 0 1 0-2zm-5 0a1 1 0 0 1 0 2h-1a1 1 0 0 1 0-2zm-5 0a1 1 0 0 1 0 2h-1a1 1 0 0 1 0-2zm-5 0a1 1 0 0 1 0 2h-1a1 1 0 0 1 0-2zm-5 0a1 1 0 0 1 0 2h-1a1 1 0 0 1 0-2zm-5 0a1 1 0 0 1 0 2h-1a1 1 0 0 1 0-2zm-5 0a1 1 0 0 1 0 2h-1a1 1 0 0 1 0-2zm-5 0a1 1 0 0 1 0 2h-1a1 1 0 0 1 0-2zm-5 0a1 1 0 0 1 0 2h-1a1 1 0 0 1 0-2zm-5 0a1 1 0 0 1 0 2h-1a1 1 0 0 1 0-2zm-5 0a1 1 0 0 1 0 2h-1a1 1 0 0 1 0-2zm-5 0a1 1 0 0 1 0 2h-1a1 1 0 0 1 0-2zm-5 0a1 1 0 0 1 0 2h-1a1 1 0 0 1 0-2zm-5 0a1 1 0 0 1 0 2h-1a1 1 0 0 1 0-2zm-5 0a1 1 0 0 1 0 2h-1a1 1 0 0 1 0-2zm-5 0a1 1 0 0 1 0 2h-1a1 1 0 0 1 0-2zm-5 0a1 1 0 0 1 0 2h-1a1 1 0 0 1 0-2zm-5 0a1 1 0 0 1 0 2h-1a1 1 0 0 1 0-2zm-5 0a1 1 0 0 1 0 2h-1a1 1 0 0 1 0-2zm-5 0a1 1 0 0 1 0 2h-1a1 1 0 0 1 0-2zm-5 0a1 1 0 0 1 0 2h-1a1 1 0 0 1 0-2zm-5 0a1 1 0 0 1 0 2h-1a1 1 0 0 1 0-2zm-5 0a1 1 0 0 1 0 2h-1a1 1 0 0 1 0-2zm-5 0a1 1 0 0 1 0 2h-1a1 1 0 0 1 0-2zm-5 0a1 1 0 0 1 0 2h-1a1 1 0 0 1 0-2zm-5 0a1 1 0 0 1 0 2h-1a1 1 0 0 1 0-2zm-5 0a1 1 0 0 1 0 2h-1a1 1 0 0 1 0-2zm-5 0a1 1 0 0 1 0 2h-1a1 1 0 0 1 0-2zm-5 0a1 1 0 0 1 0 2h-1a1 1 0 0 1 0-2zm-5 0a1 1 0 0 1 0 2h-1a1 1 0 0 1 0-2zm-5 0a1 1 0 0 1 0 2h-1a1 1 0 0 1 0-2zm-5 0a1 1 0 0 1 0 2h-1a1 1 0 0 1 0-2zm-5 0a1 1 0 0 1 0 2h-1a1 1 0 0 1 0-2zm1180 0a1 1 0 0 1 0 2h-1a1 1 0 0 1 0-2z" fill="#0b0c0c" fill-rule="nonzero"/><path d="m883 589v422c0 5 4 10 10 10h1840c6 0 10-5 10-10v-427c0-7 6-10 18-10" stroke="#0b0c0c" stroke-dasharray="1 4" stroke-linecap="round" stroke-linejoin="round" stroke-width="2"/><path d="m1001 589v374c0 5 4 10 10 10h1557c6 0 10-5 10-10v-299" stroke="#0b0c0c" stroke-dasharray="1 4" stroke-linecap="round" stroke-linejoin="round" stroke-width="2"/><path d="m248 775 12 6a1 1 0 0 1 0 2l-12 6a1 1 0 0 1 -1-1v-12zm-3 6a1 1 0 0 1 1 2h-2a1 1 0 0 1 0-2zm-5 0a1 1 0 0 1 1 2h-2a1 1 0 0 1 0-2zm-5 0a1 1 0 0 1 1 2h-2a1 1 0 0 1 0-2zm-5 0a1 1 0 0 1 1 2h-2a1 1 0 0 1 0-2zm-5 0a1 1 0 0 1 1 2h-2a1 1 0 0 1 0-2zm-5 0a1 1 0 0 1 1 2h-2a1 1 0 0 1 0-2zm-6 0h1a1 1 0 0 1 1 2h-1-1a1 1 0 0 1 0-2zm-4-1h1a1 1 0 1 1 -1 2l-1-1a1 1 0 0 1 1-1zm-3-4 1 1a1 1 0 0 1 -2 1l-1-1a1 1 0 1 1 2-1zm-2-5 1 1v1a1 1 0 1 1 -2 0v-1zm0-5 1 1v1a1 1 0 0 1 -2 0v-1zm0-5 1 1v1a1 1 0 0 1 -2 0v-1zm0-5 1 1v1a1 1 0 0 1 -2 0v-1zm0-5 1 1v1a1 1 0 0 1 -2 0v-1zm0-5 1 1v1a1 1 0 0 1 -2 0v-1zm0-5 1 1v1a1 1 0 0 1 -2 0v-1zm0-5 1 1v1a1 1 0 0 1 -2 0v-1zm0-5 1 1v1a1 1 0 0 1 -2 0v-1zm0-5 1 1v1a1 1 0 0 1 -2 0v-1zm0-5 1 1v1a1 1 0 0 1 -2 0v-1zm0-5 1 1v1a1 1 0 0 1 -2 0v-1zm0-5 1 1v1a1 1 0 0 1 -2 0v-1zm0-5 1 1v1a1 1 0 0 1 -2 0v-1zm0-5 1 1v1a1 1 0 0 1 -2 0v-1zm0-5 1 1v1a1 1 0 0 1 -2 0v-1zm0-5 1 1v1a1 1 0 0 1 -2 0v-1zm0-5 1 1v1a1 1 0 0 1 -2 0v-1zm0-5 1 1v1a1 1 0 0 1 -2 0v-1zm0-5 1 1v1a1 1 0 0 1 -2 0v-1zm0-5 1 1v1a1 1 0 0 1 -2 0v-1zm0-5 1 1v1a1 1 0 0 1 -2 0v-1zm0-5 1 1v1a1 1 0 0 1 -2 0v-1zm0-5 1 1v1a1 1 0 0 1 -2 0v-1zm0-5 1 1v1a1 1 0 0 1 -2 0v-1zm0-5 1 1v1a1 1 0 0 1 -2 0v-1zm0-5 1 1v1a1 1 0 0 1 -2 0v-1zm0-5 1 1v1a1 1 0 0 1 -2 0v-1zm0-5 1 1v1a1 1 0 0 1 -2 0v-1zm0-5 1 1v1a1 1 0 0 1 -2 0v-1zm0-5 1 1v1a1 1 0 0 1 -2 0v-1zm0-5 1 1v1a1 1 0 0 1 -2 0v-1zm0-5 1 1v1a1 1 0 0 1 -2 0v-1zm0-5 1 1v1a1 1 0 0 1 -2 0v-1zm0-5 1 1v1a1 1 0 0 1 -2 0v-1zm0-5 1 1v1a1 1 0 0 1 -2 0v-1zm0-5 1 1v1a1 1 0 0 1 -2 0v-1zm0-5 1 1v1a1 1 0 0 1 -2 0v-1zm0-5 1 1v1a1 1 0 0 1 -2 0v-1zm0-5 1 1v1a1 1 0 0 1 -2 0v-1z" fill="#0b0c0c" fill-rule="nonzero"/><path d="m481 322h108v94h-108z" fill="#fff" stroke="#0b0c0c" stroke-width="2"/><path d="m480 321h110v10h-110z" fill="#0b0c0c"/><path d="m487 364h22v1h-22zm0 6h72v1h-72zm0 8h72v1h-72zm0-4h72v1h-72zm0 8h40v1h-40z" fill="#0b0c0c"/><text fill="#231f20" font-family="sans-serif" font-size="10" font-weight="bold" letter-spacing="-.1" transform="translate(487 336)"><tspan x="0" y="10">Apply for teacher </tspan><tspan x="0" y="21">training</tspan></text><g transform="translate(487 395)"><use fill="#00823b" xlink:href="#b"/><use fill="#000" filter="url(#c)" xlink:href="#b"/></g><path d="m1190 528h108v94h-108z" fill="#fff" stroke="#0b0c0c" stroke-width="2"/><path d="m1189 527h110v10h-110z" fill="#0b0c0c"/><g transform="translate(1196 602)"><use fill="#00823b" xlink:href="#o"/><use fill="#000" filter="url(#d)" xlink:href="#o"/></g><g transform="translate(1196 571)"><g transform="translate(0 13)"><use xlink:href="#a"/><circle cx="5" cy="5" fill="#fff" r="4.5" stroke="#0b0c0c"/></g><use xlink:href="#a"/><circle cx="5" cy="5" fill="#fff" r="4.5" stroke="#0b0c0c"/></g><text fill="#231f20" font-family="sans-serif" font-size="10" font-weight="bold" transform="translate(1196 542)"><tspan x="0" y="10">Apply to this </tspan><tspan x="0" y="21">course?</tspan></text><path d="m1430 528h108v94h-108z" fill="#fff" stroke="#0b0c0c" stroke-width="2"/><path d="m1429 527h110v10h-110z" fill="#0b0c0c"/><g transform="translate(1436 602)"><use fill="#00823b" xlink:href="#p"/><use fill="#000" filter="url(#e)" xlink:href="#p"/></g><g transform="translate(1436 571)"><g transform="translate(0 13)"><use xlink:href="#a"/><circle cx="5" cy="5" fill="#fff" r="4.5" stroke="#0b0c0c"/></g><use xlink:href="#a"/><circle cx="5" cy="5" fill="#fff" r="4.5" stroke="#0b0c0c"/></g><text fill="#231f20" font-family="sans-serif" font-size="10" font-weight="bold" transform="translate(1436 542)"><tspan x="0" y="10">Have you already </tspan><tspan x="0" y="21">chosen a course?</tspan></text><path d="m1650 528h108v94h-108z" fill="#fff" stroke="#0b0c0c" stroke-width="2"/><path d="m1649 527h110v10h-110z" fill="#0b0c0c"/><g transform="translate(1656 590)"><use fill="#00823b" xlink:href="#q"/><use fill="#000" filter="url(#f)" xlink:href="#q"/></g><path d="m1657 571h71v9h-71z" fill="#fff" stroke="#0b0c0c"/><text fill="#231f20" font-family="sans-serif" font-size="10" font-weight="bold" transform="translate(1656 542)"><tspan x="0" y="10">Which training </tspan><tspan x="0" y="21">provider?</tspan></text><path d="m1870 528h108v94h-108z" fill="#fff" stroke="#0b0c0c" stroke-width="2"/><path d="m1869 527h110v10h-110z" fill="#0b0c0c"/><g transform="translate(1876 590)"><use fill="#00823b" xlink:href="#r"/><use fill="#000" filter="url(#g)" xlink:href="#r"/></g><path d="m1877 571h71v9h-71z" fill="#fff" stroke="#0b0c0c"/><text fill="#231f20" font-family="sans-serif" font-size="10" font-weight="bold" transform="translate(1876 542)"><tspan x="0" y="10">Which course?</tspan></text><path d="m2450 528h108v94h-108z" fill="#fff" stroke="#0b0c0c" stroke-width="2"/><path d="m2449 527h110v10h-110z" fill="#0b0c0c"/><g transform="translate(2456 590)"><use fill="#00823b" xlink:href="#s"/><use fill="#000" filter="url(#h)" xlink:href="#s"/></g><path d="m2457 571h71v9h-71z" fill="#fff" stroke="#0b0c0c"/><text fill="#231f20" font-family="sans-serif" font-size="10" font-weight="bold" transform="translate(2456 542)"><tspan x="0" y="10">Which location?</tspan></text><path d="m2615 528h108v94h-108z" fill="#fff" stroke="#0b0c0c" stroke-width="2"/><path d="m2614 527h110v10h-110z" fill="#0b0c0c"/><g transform="translate(2621 601)"><use fill="#00823b" xlink:href="#t"/><use fill="#000" filter="url(#i)" xlink:href="#t"/></g><path d="m2621 586h72v1h-72zm0-8h72v1h-72zm0-8h72v1h-72z" fill="#bfc1c3"/><path d="m2683 574h10v1h-10zm0 16h10v1h-10zm0-8h10v1h-10z" fill="#005ea5"/><path d="m2621 574h12v1h-12zm19 0h33v1h-33zm-19 16h12v1h-12zm19 0h33v1h-33zm-19-8h12v1h-12zm19 0h33v1h-33z" fill="#0b0c0c"/><text fill="#231f20" font-family="sans-serif" font-size="10" font-weight="bold" letter-spacing="-.1" transform="translate(2621 542)"><tspan x="0" y="10">Course choices</tspan></text><path d="m2780 528h108v94h-108z" fill="#fff" stroke="#0b0c0c" stroke-width="2"/><path d="m2779 527h110v10h-110zm7 43h22v1h-22zm0 6h72v1h-72zm0 8h72v1h-72zm0-4h72v1h-72zm0 8h40v1h-40z" fill="#0b0c0c"/><text fill="#231f20" font-family="sans-serif" font-size="10" font-weight="bold" letter-spacing="-.1" transform="translate(2786 542)"><tspan x="0" y="10">Your application</tspan></text><path d="m2230 528h108v94h-108z" fill="#fff" stroke="#0b0c0c" stroke-width="2"/><path d="m2229 527h110v10h-110z" fill="#0b0c0c"/><g transform="translate(2236 602)"><use fill="#00823b" xlink:href="#u"/><use fill="#000" filter="url(#j)" xlink:href="#u"/></g><g transform="translate(2236 571)"><g transform="translate(0 13)"><use xlink:href="#a"/><circle cx="5" cy="5" fill="#fff" r="4.5" stroke="#0b0c0c"/></g><use xlink:href="#a"/><circle cx="5" cy="5" fill="#fff" r="4.5" stroke="#0b0c0c"/></g><text fill="#231f20" font-family="sans-serif" font-size="10" font-weight="bold" transform="translate(2236 542)"><tspan x="0" y="10">Full time or part </tspan><tspan x="0" y="21">time?</tspan></text><path d="m261 734h108v94h-108z" fill="#fff" stroke="#0b0c0c" stroke-width="2"/><path d="m260 733h110v10h-110z" fill="#0b0c0c"/><path d="m267 776h22v1h-22zm0 6h72v1h-72zm0 8h72v1h-72zm0-4h72v1h-72zm0 8h40v1h-40z" fill="#0b0c0c"/><text fill="#231f20" font-family="sans-serif" font-size="10" font-weight="bold" letter-spacing="-.1" transform="translate(267 748)"><tspan x="0" y="10">Apply for this </tspan><tspan x="0" y="21">course on UCAS</tspan></text><g transform="translate(267 807)"><use fill="#00823b" xlink:href="#v"/><use fill="#000" filter="url(#k)" xlink:href="#v"/></g><path d="m1430 734h108v94h-108z" fill="#fff" stroke="#0b0c0c" stroke-width="2"/><path d="m1429 733h110v10h-110z" fill="#0b0c0c"/><path d="m1436 776h22v1h-22zm0 6h72v1h-72zm0 8h72v1h-72zm0-4h72v1h-72zm0 8h40v1h-40z" fill="#0b0c0c"/><text fill="#231f20" font-family="sans-serif" font-size="10" font-weight="bold" letter-spacing="-.1" transform="translate(1436 748)"><tspan x="0" y="10">You can find </tspan><tspan x="0" y="21">courses on Find</tspan></text><g transform="translate(1436 807)"><use fill="#00823b" xlink:href="#w"/><use fill="#000" filter="url(#l)" xlink:href="#w"/></g><path d="m481 528h108v110h-108z" fill="#fff" stroke="#0b0c0c" stroke-width="2"/><path d="m480 527h110v12h-110z" fill="#0b0c0c"/><g transform="translate(487 618)"><use fill="#00823b" xlink:href="#x"/><use fill="#000" filter="url(#m)" xlink:href="#x"/></g><g transform="translate(487 587)"><g transform="translate(0 13)"><use xlink:href="#a"/><circle cx="5" cy="5" fill="#fff" r="4.5" stroke="#0b0c0c"/></g><use xlink:href="#a"/><circle cx="5" cy="5" fill="#fff" r="4.5" stroke="#0b0c0c"/></g><text fill="#231f20" font-family="sans-serif" font-size="10" font-weight="bold" transform="translate(487 543)"><tspan x="0" y="10">Do you want to </tspan><tspan x="0" y="21">use DfE Apply </tspan><tspan x="0" y="32">account?</tspan></text><path d="m480 735h110v96h-110z" fill="#c00"/><text fill="#fff" font-family="sans-serif" font-size="10" font-weight="bold" letter-spacing="-.1" transform="translate(480 735)"><tspan x="42" y="51">UCAS</tspan></text><path d="m1189 735h110v96h-110z" fill="#1d70b8"/><text fill="#fff" font-family="sans-serif" font-size="10" font-weight="bold" letter-spacing="-.1" transform="translate(1189 735)"><tspan x="14" y="44">Find postgraduate </tspan><tspan x="20" y="58">teacher training</tspan></text><path d="m40 527h110v96h-110z" fill="#1d70b8"/><text fill="#fff" font-family="sans-serif" font-size="10" font-weight="bold" letter-spacing="-.1" transform="translate(40 527)"><tspan x="23" y="44">Course details</tspan> <tspan x="27" y="58">page on Find</tspan></text><path d="m40 115h110v96h-110z" fill="#6f777b"/><text fill="#fff" font-family="sans-serif" font-size="10" font-weight="bold" letter-spacing="-.1" transform="translate(40 115)"><tspan x="29" y="51">Web search</tspan></text><path d="m40 321h110v96h-110z" fill="#4c2c92"/><text fill="#fff" font-family="sans-serif" font-size="10" font-weight="bold" letter-spacing="-.1" transform="translate(40 321)"><tspan x="17" y="51">Provider website</tspan></text><path d="m260 321h110v96h-110z" fill="#4c2c92"/><text fill="#fff" font-family="sans-serif" font-size="10" font-weight="bold" letter-spacing="-.1" transform="translate(260 321)"><tspan x="36" y="44">Provider</tspan> <tspan x="29" y="58">interstitial?</tspan></text><path d="m602 775a1 1 0 0 1 1 1v5a1 1 0 0 1 0 2v5a1 1 0 0 1 -1 1l-12-6a1 1 0 0 1 0-2zm6 6a1 1 0 0 1 0 2h-1a1 1 0 0 1 -1-2zm5 0a1 1 0 0 1 0 2h-1a1 1 0 0 1 -1-2zm5 0a1 1 0 0 1 0 2h-1a1 1 0 0 1 -1-2zm5 0a1 1 0 0 1 0 2h-1a1 1 0 0 1 -1-2zm5 0a1 1 0 0 1 0 2h-1a1 1 0 0 1 -1-2zm5 0a1 1 0 0 1 0 2h-1a1 1 0 0 1 -1-2zm6 0-1 2h-1a1 1 0 1 1 -1-2zm4-2v1l-1 1a1 1 0 1 1 -1-2v-1zm2-5 1 1-1 1a1 1 0 1 1 -2 0l1-1zm0-5 1 1v1a1 1 0 0 1 -2 0v-1zm0-5 1 1v1a1 1 0 0 1 -2 0v-1zm0-5 1 1v1a1 1 0 0 1 -2 0v-1zm0-5 1 1v1a1 1 0 0 1 -2 0v-1zm0-5 1 1v1a1 1 0 0 1 -2 0v-1zm0-5 1 1v1a1 1 0 0 1 -2 0v-1zm0-5 1 1v1a1 1 0 0 1 -2 0v-1zm0-5 1 1v1a1 1 0 0 1 -2 0v-1zm0-5 1 1v1a1 1 0 0 1 -2 0v-1zm0-5 1 1v1a1 1 0 0 1 -2 0v-1zm0-5 1 1v1a1 1 0 0 1 -2 0v-1zm0-5 1 1v1a1 1 0 0 1 -2 0v-1zm0-5 1 1v1a1 1 0 0 1 -2 0v-1zm0-5 1 1v1a1 1 0 0 1 -2 0v-1zm0-5 1 1v1a1 1 0 0 1 -2 0v-1zm0-5 1 1v1a1 1 0 0 1 -2 0v-1zm0-5 1 1v1a1 1 0 0 1 -2 0v-1zm0-5 1 1v1a1 1 0 0 1 -2 0v-1zm0-5 1 1v1a1 1 0 0 1 -2 0v-1zm0-5 1 1v1a1 1 0 0 1 -2 0v-1zm0-5 1 1v1a1 1 0 0 1 -2 0v-1zm0-5 1 1v1a1 1 0 0 1 -2 0v-1zm0-5 1 1v1a1 1 0 0 1 -2 0v-1zm0-5 1 1v1a1 1 0 0 1 -2 0v-1zm0-5 1 1v1a1 1 0 0 1 -2 0v-1zm0-5 1 1v1a1 1 0 0 1 -2 0v-1zm0-5 1 1v1a1 1 0 0 1 -2 0v-1zm0-5 1 1v1a1 1 0 0 1 -2 0v-1zm0-5 1 1v1a1 1 0 0 1 -2 0v-1zm0-5 1 1v1a1 1 0 0 1 -2 0v-1zm0-5 1 1v1a1 1 0 0 1 -2 0v-1zm0-5 1 1v1a1 1 0 0 1 -2 0v-1zm0-5 1 1v1a1 1 0 0 1 -2 0v-1zm0-5 1 1v1a1 1 0 0 1 -2 0v-1zm0-5 1 1v1a1 1 0 0 1 -2 0v-1zm0-5 1 1v1a1 1 0 0 1 -2 0v-1zm0-5 1 1v1a1 1 0 0 1 -2 0v-1zm0-5 1 1v1a1 1 0 0 1 -2 0v-1zm0-5 1 1v1a1 1 0 0 1 -2 0v-1zm0-5 1 1v1a1 1 0 0 1 -2 0v-1z" fill="#0b0c0c" fill-rule="nonzero"/><g font-family="sans-serif"><text fill="#1d70b8" font-size="12" font-weight="bold"><tspan x="160" y="539">Course available</tspan> <tspan x="167" y="550">on DfE Apply?</tspan></text><text fill="#1d70b8" font-size="12" font-weight="bold"><tspan x="617" y="538">Candidate </tspan><tspan x="611" y="549">wants to use </tspan><tspan x="618" y="560">DfE Apply</tspan></text><text fill="#0b0c0c" font-size="12" font-weight="bold"><tspan x="921" y="1009">Redirect to dashboard and show an error message</tspan></text><text fill="#0b0c0c" font-size="12" font-weight="bold"><tspan x="1031" y="963">Redirect to course choices and show an error message</tspan></text><text fill="#0b0c0c" font-size="12" font-weight="bold"><tspan x="1342" y="801">Opens in a </tspan><tspan x="1337" y="812">new window</tspan></text><text fill="#0b0c0c" font-size="12" font-weight="bold"><tspan x="657" y="745">Candidate wants to </tspan><tspan x="668" y="756">Apply via UCAS</tspan></text><text fill="#0b0c0c" font-size="12" font-weight="bold"><tspan x="40" y="645">User clicks ‘Apply</tspan> <tspan x="40" y="656">for this course’</tspan></text><text fill="#0b0c0c" font-size="12" font-weight="bold"><tspan x="892" y="601">Yes</tspan></text><text fill="#0b0c0c" font-size="12" font-weight="bold"><tspan x="1011" y="601">Yes</tspan></text><text fill="#0b0c0c" font-size="12" font-weight="bold"><tspan x="1128" y="601">No</tspan></text><text fill="#0b0c0c" font-size="12" font-weight="bold"><tspan x="1362" y="601">Yes</tspan></text><text fill="#0b0c0c" font-size="12" font-weight="bold"><tspan x="1822" y="601">No</tspan></text><text fill="#0b0c0c" font-size="12" font-weight="bold"><tspan x="2042" y="601">No</tspan></text><text fill="#0b0c0c" font-size="12" font-weight="bold"><tspan x="2181" y="601">No</tspan></text><text fill="#0b0c0c" font-size="12" font-weight="bold"><tspan x="2402" y="601">No</tspan></text><text fill="#0b0c0c" font-size="12" font-weight="bold"><tspan x="2402" y="192">Already has</tspan> <tspan x="2402" y="203">course choice(s)</tspan></text><text fill="#0b0c0c" font-size="12" font-weight="bold"><tspan x="213" y="606">No</tspan></text><text fill="#1d70b8" font-size="12" font-weight="bold"><tspan x="833" y="536">Already submitted </tspan><tspan x="850" y="547">application?</tspan></text><text fill="#1d70b8" font-size="12" font-weight="bold"><tspan x="965" y="536">Already has 3 </tspan><tspan x="958" y="547">course choices?</tspan></text><text fill="#1d70b8" font-size="12" font-weight="bold"><tspan x="1075" y="536">Course has been </tspan><tspan x="1082" y="547">pre-selected?</tspan></text><text fill="#1d70b8" font-size="12" font-weight="bold"><tspan x="1320" y="536">Apply to this </tspan><tspan x="1332" y="547">course?</tspan></text><text fill="#1d70b8" font-size="12" font-weight="bold"><tspan x="1777" y="536">Provider is on </tspan><tspan x="1784" y="547">DfE Apply?</tspan></text><text fill="#1d70b8" font-size="12" font-weight="bold"><tspan x="1569" y="536">Chosen a </tspan><tspan x="1572" y="547">course?</tspan></text><text fill="#1d70b8" font-size="12" font-weight="bold"><tspan x="2001" y="536">Course is on</tspan> <tspan x="2004" y="547">DfE Apply?</tspan></text><text fill="#1d70b8" font-size="12" font-weight="bold"><tspan x="2364" y="532">Course has </tspan><tspan x="2371" y="543">multiple </tspan><tspan x="2365" y="554">locations?</tspan></text><text fill="#1d70b8" font-size="12" font-weight="bold"><tspan x="2337" y="125">Candidate hasn’t any </tspan><tspan x="2353" y="136">course choices</tspan></text><text fill="#1d70b8" font-size="12" font-weight="bold"><tspan x="2133" y="532">Course has full </tspan><tspan x="2137" y="543">and part time </tspan><tspan x="2149" y="554">options?</tspan></text></g><path d="m2173 589v72c0 5 4 10 10 10h165c6 0 10-5 10-10v-77c0-7 6-10 18-10m-1022 15v72c0 5 4 10 10 10h730c6 0 10-5 10-10v-77c0-7 6-10 18-10" stroke="#0b0c0c" stroke-dasharray="1 4" stroke-linecap="round" stroke-linejoin="round" stroke-width="2"/><path d="m1120 589v102c0 5 4 10 10 10h250c6 0 10-5 10-10v-107c0-7 6-10 18-10" stroke="#0b0c0c" stroke-dasharray="1 4" stroke-linecap="round" stroke-linejoin="round" stroke-width="2"/><path d="m510 924a1 1 0 0 1 0 2h-1a1 1 0 0 1 -1-2zm690 0a1 1 0 0 1 0 2h-1a1 1 0 0 1 -1-2zm-685 0a1 1 0 0 1 0 2h-1a1 1 0 0 1 -1-2zm5 0a1 1 0 0 1 0 2h-1a1 1 0 0 1 -1-2zm5 0a1 1 0 0 1 0 2h-1a1 1 0 0 1 -1-2zm5 0a1 1 0 0 1 0 2h-1a1 1 0 0 1 -1-2zm5 0a1 1 0 0 1 0 2h-1a1 1 0 0 1 -1-2zm5 0a1 1 0 0 1 0 2h-1a1 1 0 0 1 -1-2zm5 0a1 1 0 0 1 0 2h-1a1 1 0 0 1 -1-2zm5 0a1 1 0 0 1 0 2h-1a1 1 0 0 1 -1-2zm5 0a1 1 0 0 1 0 2h-1a1 1 0 0 1 -1-2zm5 0a1 1 0 0 1 0 2h-1a1 1 0 0 1 -1-2zm5 0a1 1 0 0 1 0 2h-1a1 1 0 0 1 -1-2zm5 0a1 1 0 0 1 0 2h-1a1 1 0 0 1 -1-2zm5 0a1 1 0 0 1 0 2h-1a1 1 0 0 1 -1-2zm5 0a1 1 0 0 1 0 2h-1a1 1 0 0 1 -1-2zm5 0a1 1 0 0 1 0 2h-1a1 1 0 0 1 -1-2zm5 0a1 1 0 0 1 0 2h-1a1 1 0 0 1 -1-2zm5 0a1 1 0 0 1 0 2h-1a1 1 0 0 1 -1-2zm-265 0a1 1 0 0 1 0 2h-1a1 1 0 0 1 -1-2zm5 0a1 1 0 0 1 0 2h-1a1 1 0 0 1 -1-2zm5 0a1 1 0 0 1 0 2h-1a1 1 0 0 1 -1-2zm5 0a1 1 0 0 1 0 2h-1a1 1 0 0 1 -1-2zm5 0a1 1 0 0 1 0 2h-1a1 1 0 0 1 -1-2zm5 0a1 1 0 0 1 0 2h-1a1 1 0 0 1 -1-2zm5 0a1 1 0 0 1 0 2h-1a1 1 0 0 1 -1-2zm5 0a1 1 0 0 1 0 2h-1a1 1 0 0 1 -1-2zm5 0a1 1 0 0 1 0 2h-1a1 1 0 0 1 -1-2zm5 0a1 1 0 0 1 0 2h-1a1 1 0 0 1 -1-2zm5 0a1 1 0 0 1 0 2h-1a1 1 0 0 1 -1-2zm5 0a1 1 0 0 1 0 2h-1a1 1 0 0 1 -1-2zm5 0a1 1 0 0 1 0 2h-1a1 1 0 0 1 -1-2zm5 0a1 1 0 0 1 0 2h-1a1 1 0 0 1 -1-2zm5 0a1 1 0 0 1 0 2h-1a1 1 0 0 1 -1-2zm5 0a1 1 0 0 1 0 2h-1a1 1 0 0 1 -1-2zm5 0a1 1 0 0 1 0 2h-1a1 1 0 0 1 -1-2zm5 0a1 1 0 0 1 0 2h-1a1 1 0 0 1 -1-2zm5 0a1 1 0 0 1 0 2h-1a1 1 0 0 1 -1-2zm5 0a1 1 0 0 1 0 2h-1a1 1 0 0 1 -1-2zm5 0a1 1 0 0 1 0 2h-1a1 1 0 0 1 -1-2zm5 0a1 1 0 0 1 0 2h-1a1 1 0 0 1 -1-2zm5 0a1 1 0 0 1 0 2h-1a1 1 0 0 1 -1-2zm5 0a1 1 0 0 1 0 2h-1a1 1 0 0 1 -1-2zm5 0a1 1 0 0 1 0 2h-1a1 1 0 0 1 -1-2zm5 0a1 1 0 0 1 0 2h-1a1 1 0 0 1 -1-2zm5 0a1 1 0 0 1 0 2h-1a1 1 0 0 1 -1-2zm5 0a1 1 0 0 1 0 2h-1a1 1 0 0 1 -1-2zm5 0a1 1 0 0 1 0 2h-1a1 1 0 0 1 -1-2zm5 0a1 1 0 0 1 0 2h-1a1 1 0 0 1 -1-2zm5 0a1 1 0 0 1 0 2h-1a1 1 0 0 1 -1-2zm5 0a1 1 0 0 1 0 2h-1a1 1 0 0 1 -1-2zm5 0a1 1 0 0 1 0 2h-1a1 1 0 0 1 -1-2zm5 0a1 1 0 0 1 0 2h-1a1 1 0 0 1 -1-2zm5 0a1 1 0 0 1 0 2h-1a1 1 0 0 1 -1-2zm5 0a1 1 0 0 1 0 2h-1a1 1 0 0 1 -1-2zm95 0a1 1 0 0 1 0 2h-1a1 1 0 0 1 -1-2zm5 0a1 1 0 0 1 0 2h-1a1 1 0 0 1 -1-2zm5 0a1 1 0 0 1 0 2h-1a1 1 0 0 1 -1-2zm5 0a1 1 0 0 1 0 2h-1a1 1 0 0 1 -1-2zm5 0a1 1 0 0 1 0 2h-1a1 1 0 0 1 -1-2zm5 0a1 1 0 0 1 0 2h-1a1 1 0 0 1 -1-2zm5 0a1 1 0 0 1 0 2h-1a1 1 0 0 1 -1-2zm5 0a1 1 0 0 1 0 2h-1a1 1 0 0 1 -1-2zm5 0a1 1 0 0 1 0 2h-1a1 1 0 0 1 -1-2zm5 0a1 1 0 0 1 0 2h-1a1 1 0 0 1 -1-2zm5 0a1 1 0 0 1 0 2h-1a1 1 0 0 1 -1-2zm5 0a1 1 0 0 1 0 2h-1a1 1 0 0 1 -1-2zm5 0a1 1 0 0 1 0 2h-1a1 1 0 0 1 -1-2zm5 0a1 1 0 0 1 0 2h-1a1 1 0 0 1 -1-2zm5 0a1 1 0 0 1 0 2h-1a1 1 0 0 1 -1-2zm5 0a1 1 0 0 1 0 2h-1a1 1 0 0 1 -1-2zm5 0a1 1 0 0 1 0 2h-1a1 1 0 0 1 -1-2zm5 0a1 1 0 0 1 0 2h-1a1 1 0 0 1 -1-2zm1115 0a1 1 0 0 1 0 2h-1a1 1 0 0 1 -1-2zm-5 0a1 1 0 0 1 0 2h-1a1 1 0 0 1 -1-2zm-5 0a1 1 0 0 1 0 2h-1a1 1 0 0 1 -1-2zm-5 0a1 1 0 0 1 0 2h-1a1 1 0 0 1 -1-2zm-5 0a1 1 0 0 1 0 2h-1a1 1 0 0 1 -1-2zm-5 0a1 1 0 0 1 0 2h-1a1 1 0 0 1 -1-2zm-5 0a1 1 0 0 1 0 2h-1a1 1 0 0 1 -1-2zm-5 0a1 1 0 0 1 0 2h-1a1 1 0 0 1 -1-2zm-5 0a1 1 0 0 1 0 2h-1a1 1 0 0 1 -1-2zm-5 0a1 1 0 0 1 0 2h-1a1 1 0 0 1 -1-2zm-5 0a1 1 0 0 1 0 2h-1a1 1 0 0 1 -1-2zm-5 0a1 1 0 0 1 0 2h-1a1 1 0 0 1 -1-2zm-5 0a1 1 0 0 1 0 2h-1a1 1 0 0 1 -1-2zm-5 0a1 1 0 0 1 0 2h-1a1 1 0 0 1 -1-2zm-5 0a1 1 0 0 1 0 2h-1a1 1 0 0 1 -1-2zm-5 0a1 1 0 0 1 0 2h-1a1 1 0 0 1 -1-2zm-5 0a1 1 0 0 1 0 2h-1a1 1 0 0 1 -1-2zm-5 0a1 1 0 0 1 0 2h-1a1 1 0 0 1 -1-2zm-5 0a1 1 0 0 1 0 2h-1a1 1 0 0 1 -1-2zm-5 0a1 1 0 0 1 0 2h-1a1 1 0 0 1 -1-2zm-5 0a1 1 0 0 1 0 2h-1a1 1 0 0 1 -1-2zm-5 0a1 1 0 0 1 0 2h-1a1 1 0 0 1 -1-2zm-5 0a1 1 0 0 1 0 2h-1a1 1 0 0 1 -1-2zm-5 0a1 1 0 0 1 0 2h-1a1 1 0 0 1 -1-2zm-5 0a1 1 0 0 1 0 2h-1a1 1 0 0 1 -1-2zm-5 0a1 1 0 0 1 0 2h-1a1 1 0 0 1 -1-2zm-5 0a1 1 0 0 1 0 2h-1a1 1 0 0 1 -1-2zm-5 0a1 1 0 0 1 0 2h-1a1 1 0 0 1 -1-2zm-5 0a1 1 0 0 1 0 2h-1a1 1 0 0 1 -1-2zm-5 0a1 1 0 0 1 0 2h-1a1 1 0 0 1 -1-2zm-5 0a1 1 0 0 1 0 2h-1a1 1 0 0 1 -1-2zm-5 0a1 1 0 0 1 0 2h-1a1 1 0 0 1 -1-2zm-5 0a1 1 0 0 1 0 2h-1a1 1 0 0 1 -1-2zm-5 0a1 1 0 0 1 0 2h-1a1 1 0 0 1 -1-2zm-5 0a1 1 0 0 1 0 2h-1a1 1 0 0 1 -1-2zm-5 0a1 1 0 0 1 0 2h-1a1 1 0 0 1 -1-2zm-5 0a1 1 0 0 1 0 2h-1a1 1 0 0 1 -1-2zm-5 0a1 1 0 0 1 0 2h-1a1 1 0 0 1 -1-2zm-5 0a1 1 0 0 1 0 2h-1a1 1 0 0 1 -1-2zm-5 0a1 1 0 0 1 0 2h-1a1 1 0 0 1 -1-2zm-5 0a1 1 0 0 1 0 2h-1a1 1 0 0 1 -1-2zm-5 0a1 1 0 0 1 0 2h-1a1 1 0 0 1 -1-2zm-5 0a1 1 0 0 1 0 2h-1a1 1 0 0 1 -1-2zm-5 0a1 1 0 0 1 0 2h-1a1 1 0 0 1 -1-2zm-5 0a1 1 0 0 1 0 2h-1a1 1 0 0 1 -1-2zm-5 0a1 1 0 0 1 0 2h-1a1 1 0 0 1 -1-2zm-5 0a1 1 0 0 1 0 2h-1a1 1 0 0 1 -1-2zm-5 0a1 1 0 0 1 0 2h-1a1 1 0 0 1 -1-2zm-5 0a1 1 0 0 1 0 2h-1a1 1 0 0 1 -1-2zm-5 0a1 1 0 0 1 0 2h-1a1 1 0 0 1 -1-2zm-5 0a1 1 0 0 1 0 2h-1a1 1 0 0 1 -1-2zm-5 0a1 1 0 0 1 0 2h-1a1 1 0 0 1 -1-2zm-5 0a1 1 0 0 1 0 2h-1a1 1 0 0 1 -1-2zm-5 0a1 1 0 0 1 0 2h-1a1 1 0 0 1 -1-2zm-5 0a1 1 0 0 1 0 2h-1a1 1 0 0 1 -1-2zm-5 0a1 1 0 0 1 0 2h-1a1 1 0 0 1 -1-2zm-5 0a1 1 0 0 1 0 2h-1a1 1 0 0 1 -1-2zm-5 0a1 1 0 0 1 0 2h-1a1 1 0 0 1 -1-2zm-5 0a1 1 0 0 1 0 2h-1a1 1 0 0 1 -1-2zm-5 0a1 1 0 0 1 0 2h-1a1 1 0 0 1 -1-2zm-5 0a1 1 0 0 1 0 2h-1a1 1 0 0 1 -1-2zm-5 0a1 1 0 0 1 0 2h-1a1 1 0 0 1 -1-2zm-5 0a1 1 0 0 1 0 2h-1a1 1 0 0 1 -1-2zm-5 0a1 1 0 0 1 0 2h-1a1 1 0 0 1 -1-2zm-5 0a1 1 0 0 1 0 2h-1a1 1 0 0 1 -1-2zm-5 0a1 1 0 0 1 0 2h-1a1 1 0 0 1 -1-2zm-5 0a1 1 0 0 1 0 2h-1a1 1 0 0 1 -1-2zm-5 0a1 1 0 0 1 0 2h-1a1 1 0 0 1 -1-2zm-5 0a1 1 0 0 1 0 2h-1a1 1 0 0 1 -1-2zm-5 0a1 1 0 0 1 0 2h-1a1 1 0 0 1 -1-2zm-5 0a1 1 0 0 1 0 2h-1a1 1 0 0 1 -1-2zm-5 0a1 1 0 0 1 0 2h-1a1 1 0 0 1 -1-2zm-5 0a1 1 0 0 1 0 2h-1a1 1 0 0 1 -1-2zm-5 0a1 1 0 0 1 0 2h-1a1 1 0 0 1 -1-2zm-5 0a1 1 0 0 1 0 2h-1a1 1 0 0 1 -1-2zm-5 0a1 1 0 0 1 0 2h-1a1 1 0 0 1 -1-2zm-5 0a1 1 0 0 1 0 2h-1a1 1 0 0 1 -1-2zm-5 0a1 1 0 0 1 0 2h-1a1 1 0 0 1 -1-2zm-5 0a1 1 0 0 1 0 2h-1a1 1 0 0 1 -1-2zm-5 0a1 1 0 0 1 0 2h-1a1 1 0 0 1 -1-2zm-5 0a1 1 0 0 1 0 2h-1a1 1 0 0 1 -1-2zm-5 0a1 1 0 0 1 0 2h-1a1 1 0 0 1 -1-2zm-5 0a1 1 0 0 1 0 2h-1a1 1 0 0 1 -1-2zm-5 0a1 1 0 0 1 0 2h-1a1 1 0 0 1 -1-2zm-5 0a1 1 0 0 1 0 2h-1a1 1 0 0 1 -1-2zm-5 0a1 1 0 0 1 0 2h-1a1 1 0 0 1 -1-2zm-5 0a1 1 0 0 1 0 2h-1a1 1 0 0 1 -1-2zm-5 0a1 1 0 0 1 0 2h-1a1 1 0 0 1 -1-2zm-5 0a1 1 0 0 1 0 2h-1a1 1 0 0 1 -1-2zm-5 0a1 1 0 0 1 0 2h-1a1 1 0 0 1 -1-2zm-5 0a1 1 0 0 1 0 2h-1a1 1 0 0 1 -1-2zm-5 0a1 1 0 0 1 0 2h-1a1 1 0 0 1 -1-2zm-5 0a1 1 0 0 1 0 2h-1a1 1 0 0 1 -1-2zm-5 0a1 1 0 0 1 0 2h-1a1 1 0 0 1 -1-2zm-5 0a1 1 0 0 1 0 2h-1a1 1 0 0 1 -1-2zm-5 0a1 1 0 0 1 0 2h-1a1 1 0 0 1 -1-2zm-5 0a1 1 0 0 1 0 2h-1a1 1 0 0 1 -1-2zm-5 0a1 1 0 0 1 0 2h-1a1 1 0 0 1 -1-2zm-5 0a1 1 0 0 1 0 2h-1a1 1 0 0 1 -1-2zm-5 0a1 1 0 0 1 0 2h-1a1 1 0 0 1 -1-2zm-5 0a1 1 0 0 1 0 2h-1a1 1 0 0 1 -1-2zm-5 0a1 1 0 0 1 0 2h-1a1 1 0 0 1 -1-2zm-5 0a1 1 0 0 1 0 2h-1a1 1 0 0 1 -1-2zm-5 0a1 1 0 0 1 0 2h-1a1 1 0 0 1 -1-2zm-5 0a1 1 0 0 1 0 2h-1a1 1 0 0 1 -1-2zm-5 0a1 1 0 0 1 0 2h-1a1 1 0 0 1 -1-2zm-5 0a1 1 0 0 1 0 2h-1a1 1 0 0 1 -1-2zm-5 0a1 1 0 0 1 0 2h-1a1 1 0 0 1 -1-2zm-5 0a1 1 0 0 1 0 2h-1a1 1 0 0 1 -1-2zm-5 0a1 1 0 0 1 0 2h-1a1 1 0 0 1 -1-2zm-5 0a1 1 0 0 1 0 2h-1a1 1 0 0 1 -1-2zm-5 0a1 1 0 0 1 0 2h-1a1 1 0 0 1 -1-2zm-5 0a1 1 0 0 1 0 2h-1a1 1 0 0 1 -1-2zm-5 0a1 1 0 0 1 0 2h-1a1 1 0 0 1 -1-2zm-5 0a1 1 0 0 1 0 2h-1a1 1 0 0 1 -1-2zm-5 0a1 1 0 0 1 0 2h-1a1 1 0 0 1 -1-2zm-5 0a1 1 0 0 1 0 2h-1a1 1 0 0 1 -1-2zm-5 0a1 1 0 0 1 0 2h-1a1 1 0 0 1 -1-2zm-5 0a1 1 0 0 1 0 2h-1a1 1 0 0 1 -1-2zm-5 0a1 1 0 0 1 0 2h-1a1 1 0 0 1 -1-2zm-515 0a1 1 0 0 1 0 2h-1a1 1 0 0 1 -1-2zm505 0a1 1 0 0 1 0 2h-1a1 1 0 0 1 -1-2zm-5 0a1 1 0 0 1 0 2h-1a1 1 0 0 1 -1-2zm-5 0a1 1 0 0 1 0 2h-1a1 1 0 0 1 -1-2zm-5 0a1 1 0 0 1 0 2h-1a1 1 0 0 1 -1-2zm-5 0a1 1 0 0 1 0 2h-1a1 1 0 0 1 -1-2zm-5 0a1 1 0 0 1 0 2h-1a1 1 0 0 1 -1-2zm-5 0a1 1 0 0 1 0 2h-1a1 1 0 0 1 -1-2zm-5 0a1 1 0 0 1 0 2h-1a1 1 0 0 1 -1-2zm-5 0a1 1 0 0 1 0 2h-1a1 1 0 0 1 -1-2zm-5 0a1 1 0 0 1 0 2h-1a1 1 0 0 1 -1-2zm-5 0a1 1 0 0 1 0 2h-1a1 1 0 0 1 -1-2zm-5 0a1 1 0 0 1 0 2h-1a1 1 0 0 1 -1-2zm-5 0a1 1 0 0 1 0 2h-1a1 1 0 0 1 -1-2zm-5 0a1 1 0 0 1 0 2h-1a1 1 0 0 1 -1-2zm-5 0a1 1 0 0 1 0 2h-1a1 1 0 0 1 -1-2zm-5 0a1 1 0 0 1 0 2h-1a1 1 0 0 1 -1-2zm-5 0a1 1 0 0 1 0 2h-1a1 1 0 0 1 -1-2zm-5 0a1 1 0 0 1 0 2h-1a1 1 0 0 1 -1-2zm-5 0a1 1 0 0 1 0 2h-1a1 1 0 0 1 -1-2zm-5 0a1 1 0 0 1 0 2h-1a1 1 0 0 1 -1-2zm-5 0a1 1 0 0 1 0 2h-1a1 1 0 0 1 -1-2zm-5 0a1 1 0 0 1 0 2h-1a1 1 0 0 1 -1-2zm-5 0a1 1 0 0 1 0 2h-1a1 1 0 0 1 -1-2zm-5 0a1 1 0 0 1 0 2h-1a1 1 0 0 1 -1-2zm-5 0a1 1 0 0 1 0 2h-1a1 1 0 0 1 -1-2zm-5 0a1 1 0 0 1 0 2h-1a1 1 0 0 1 -1-2zm-5 0a1 1 0 0 1 0 2h-1a1 1 0 0 1 -1-2zm-5 0a1 1 0 0 1 0 2h-1a1 1 0 0 1 -1-2zm-5 0a1 1 0 0 1 0 2h-1a1 1 0 0 1 -1-2zm-5 0a1 1 0 0 1 0 2h-1a1 1 0 0 1 -1-2zm-5 0a1 1 0 0 1 0 2h-1a1 1 0 0 1 -1-2zm-5 0a1 1 0 0 1 0 2h-1a1 1 0 0 1 -1-2zm-5 0a1 1 0 0 1 0 2h-1a1 1 0 0 1 -1-2zm-5 0a1 1 0 0 1 0 2h-1a1 1 0 0 1 -1-2zm-5 0a1 1 0 0 1 0 2h-1a1 1 0 0 1 -1-2zm-5 0a1 1 0 0 1 0 2h-1a1 1 0 0 1 -1-2zm-5 0a1 1 0 0 1 0 2h-1a1 1 0 0 1 -1-2zm-5 0a1 1 0 0 1 0 2h-1a1 1 0 0 1 -1-2zm-5 0a1 1 0 0 1 0 2h-1a1 1 0 0 1 -1-2zm-5 0a1 1 0 0 1 0 2h-1a1 1 0 0 1 -1-2zm-5 0a1 1 0 0 1 0 2h-1a1 1 0 0 1 -1-2zm-5 0a1 1 0 0 1 0 2h-1a1 1 0 0 1 -1-2zm-5 0a1 1 0 0 1 0 2h-1a1 1 0 0 1 -1-2zm-5 0a1 1 0 0 1 0 2h-1a1 1 0 0 1 -1-2zm-5 0a1 1 0 0 1 0 2h-1a1 1 0 0 1 -1-2zm-5 0a1 1 0 0 1 0 2h-1a1 1 0 0 1 -1-2zm-5 0a1 1 0 0 1 0 2h-1a1 1 0 0 1 -1-2zm-5 0a1 1 0 0 1 0 2h-1a1 1 0 0 1 -1-2zm-5 0a1 1 0 0 1 0 2h-1a1 1 0 0 1 -1-2zm-5 0a1 1 0 0 1 0 2h-1a1 1 0 0 1 -1-2zm-5 0a1 1 0 0 1 0 2h-1a1 1 0 0 1 -1-2zm-5 0a1 1 0 0 1 0 2h-1a1 1 0 0 1 -1-2zm-5 0a1 1 0 0 1 0 2h-1a1 1 0 0 1 -1-2zm-5 0a1 1 0 0 1 0 2h-1a1 1 0 0 1 -1-2zm-5 0a1 1 0 0 1 0 2h-1a1 1 0 0 1 -1-2zm-5 0a1 1 0 0 1 0 2h-1a1 1 0 0 1 -1-2zm-5 0a1 1 0 0 1 0 2h-1a1 1 0 0 1 -1-2zm-5 0a1 1 0 0 1 0 2h-1a1 1 0 0 1 -1-2zm-5 0a1 1 0 0 1 0 2h-1a1 1 0 0 1 -1-2zm-5 0a1 1 0 0 1 0 2h-1a1 1 0 0 1 -1-2zm-5 0a1 1 0 0 1 0 2h-1a1 1 0 0 1 -1-2zm-5 0a1 1 0 0 1 0 2h-1a1 1 0 0 1 -1-2zm-5 0a1 1 0 0 1 0 2h-1a1 1 0 0 1 -1-2zm-5 0a1 1 0 0 1 0 2h-1a1 1 0 0 1 -1-2zm-5 0a1 1 0 0 1 0 2h-1a1 1 0 0 1 -1-2zm-5 0a1 1 0 0 1 0 2h-1a1 1 0 0 1 -1-2zm-5 0a1 1 0 0 1 0 2h-1a1 1 0 0 1 -1-2zm-5 0a1 1 0 0 1 0 2h-1a1 1 0 0 1 -1-2zm-5 0a1 1 0 0 1 0 2h-1a1 1 0 0 1 -1-2zm-5 0a1 1 0 0 1 0 2h-1a1 1 0 0 1 -1-2zm-5 0a1 1 0 0 1 0 2h-1a1 1 0 0 1 -1-2zm-5 0a1 1 0 0 1 0 2h-1a1 1 0 0 1 -1-2zm-5 0a1 1 0 0 1 0 2h-1a1 1 0 0 1 -1-2zm-5 0a1 1 0 0 1 0 2h-1a1 1 0 0 1 -1-2zm-5 0a1 1 0 0 1 0 2h-1a1 1 0 0 1 -1-2zm-5 0a1 1 0 0 1 0 2h-1a1 1 0 0 1 -1-2zm-5 0a1 1 0 0 1 0 2h-1a1 1 0 0 1 -1-2zm-5 0a1 1 0 0 1 0 2h-1a1 1 0 0 1 -1-2zm-5 0a1 1 0 0 1 0 2h-1a1 1 0 0 1 -1-2zm-5 0a1 1 0 0 1 0 2h-1a1 1 0 0 1 -1-2zm-5 0a1 1 0 0 1 0 2h-1a1 1 0 0 1 -1-2zm-5 0a1 1 0 0 1 0 2h-1a1 1 0 0 1 -1-2zm-5 0a1 1 0 0 1 0 2h-1a1 1 0 0 1 -1-2zm-5 0a1 1 0 0 1 0 2h-1a1 1 0 0 1 -1-2zm-5 0a1 1 0 0 1 0 2h-1a1 1 0 0 1 -1-2zm-5 0a1 1 0 0 1 0 2h-1a1 1 0 0 1 -1-2zm-5 0a1 1 0 0 1 0 2h-1a1 1 0 0 1 -1-2zm-5 0a1 1 0 0 1 0 2h-1a1 1 0 0 1 -1-2zm-5 0a1 1 0 0 1 0 2h-1a1 1 0 0 1 -1-2zm-5 0a1 1 0 0 1 0 2h-1a1 1 0 0 1 -1-2zm-5 0a1 1 0 0 1 0 2h-1a1 1 0 0 1 -1-2zm-5 0a1 1 0 0 1 0 2h-1a1 1 0 0 1 -1-2zm-5 0a1 1 0 0 1 0 2h-1a1 1 0 0 1 -1-2zm-5 0a1 1 0 0 1 0 2h-1a1 1 0 0 1 -1-2zm-5 0a1 1 0 0 1 0 2h-1a1 1 0 0 1 -1-2zm-5 0a1 1 0 0 1 0 2h-1a1 1 0 0 1 -1-2zm-5 0a1 1 0 0 1 0 2h-1a1 1 0 0 1 -1-2zm-5 0a1 1 0 0 1 0 2h-1a1 1 0 0 1 -1-2zm-5 0a1 1 0 0 1 0 2h-1a1 1 0 0 1 -1-2zm-5 0a1 1 0 0 1 0 2h-1a1 1 0 0 1 -1-2zm-5 0a1 1 0 0 1 0 2h-1a1 1 0 0 1 -1-2zm1111 1-1 1h-1a1 1 0 0 1 -1-2h2zm-1482-1h1a1 1 0 0 1 0 2h-2a1 1 0 0 1 1-2zm1486-1v1l-1 1a1 1 0 0 1 -1-2zm-1490-1v1a1 1 0 0 1 -1 1h-1a1 1 0 1 1 2-2zm1493-3 1 1-1 1a1 1 0 0 1 -2-1l1-1zm-1496 0a1 1 0 0 1 -2 1v-1a1 1 0 0 1 2 0zm1497-5 1 1v1a1 1 0 0 1 -2 0v-1zm-1499-1 1 1v1a1 1 0 1 1 -2 0v-1zm1499-4 1 1v1a1 1 0 0 1 -2 0v-1zm-1499-1 1 1v1a1 1 0 0 1 -2 0v-1zm1499-4 1 1v1a1 1 0 0 1 -2 0v-1zm-1499-1 1 1v1a1 1 0 0 1 -2 0v-1zm1499-4 1 1v1a1 1 0 0 1 -2 0v-1zm-1499-1 1 1v1a1 1 0 0 1 -2 0v-1zm1499-4 1 1v1a1 1 0 0 1 -2 0v-1zm-1499-1 1 1v1a1 1 0 0 1 -2 0v-1zm1499-4 1 1v1a1 1 0 0 1 -2 0v-1zm-1499-1 1 1v1a1 1 0 0 1 -2 0v-1zm1499-4 1 1v1a1 1 0 0 1 -2 0v-1zm-1499-1 1 1v1a1 1 0 0 1 -2 0v-1zm1499-4 1 1v1a1 1 0 0 1 -2 0v-1zm-1499-1 1 1v1a1 1 0 0 1 -2 0v-1zm1499-4 1 1v1a1 1 0 0 1 -2 0v-1zm-1499-1 1 1v1a1 1 0 0 1 -2 0v-1zm1499-4 1 1v1a1 1 0 0 1 -2 0v-1zm-1499-1 1 1v1a1 1 0 0 1 -2 0v-1zm1499-4 1 1v1a1 1 0 0 1 -2 0v-1zm-1499-1 1 1v1a1 1 0 0 1 -2 0v-1zm1499-4 1 1v1a1 1 0 0 1 -2 0v-1zm-1499-1 1 1v1a1 1 0 0 1 -2 0v-1zm1499-4 1 1v1a1 1 0 0 1 -2 0v-1zm-1499-1 1 1v1a1 1 0 0 1 -2 0v-1zm1499-4 1 1v1a1 1 0 0 1 -2 0v-1zm-1499-1 1 1v1a1 1 0 0 1 -2 0v-1zm1499-4 1 1v1a1 1 0 0 1 -2 0v-1zm-1499-1 1 1v1a1 1 0 0 1 -2 0v-1zm-1-14a1 1 0 0 1 2 0l6 12a1 1 0 0 1 -1 1h-12a1 1 0 0 1 -1-1zm1500 10 1 1v1a1 1 0 0 1 -2 0v-1zm0-5 1 1v1a1 1 0 0 1 -2 0v-1zm0-5 1 1v1a1 1 0 0 1 -2 0v-1zm0-5 1 1v1a1 1 0 0 1 -2 0v-1zm0-5 1 1v1a1 1 0 0 1 -2 0v-1zm0-5 1 1v1a1 1 0 0 1 -2 0v-1zm0-5 1 1v1a1 1 0 0 1 -2 0v-1zm0-5 1 1v1a1 1 0 0 1 -2 0v-1zm0-5 1 1v1a1 1 0 0 1 -2 0v-1zm0-5 1 1v1a1 1 0 0 1 -2 0v-1zm0-5 1 1v1a1 1 0 0 1 -2 0v-1zm0-5 1 1v1a1 1 0 0 1 -2 0v-1zm0-5 1 1v1a1 1 0 0 1 -2 0v-1zm0-5 1 1v1a1 1 0 0 1 -2 0v-1zm0-5 1 1v1a1 1 0 0 1 -2 0v-1zm0-5 1 1v1a1 1 0 0 1 -2 0v-1zm0-5 1 1v1a1 1 0 0 1 -2 0v-1zm0-5 1 1v1a1 1 0 0 1 -2 0v-1zm0-5 1 1v1a1 1 0 0 1 -2 0v-1zm0-5 1 1v1a1 1 0 0 1 -2 0v-1zm0-5 1 1v1a1 1 0 0 1 -2 0v-1zm0-5 1 1v1a1 1 0 0 1 -2 0v-1zm0-5 1 1v1a1 1 0 0 1 -2 0v-1zm0-5 1 1v1a1 1 0 0 1 -2 0v-1zm0-5 1 1v1a1 1 0 0 1 -2 0v-1zm0-5 1 1v1a1 1 0 0 1 -2 0v-1zm0-5 1 1v1a1 1 0 0 1 -2 0v-1zm0-5 1 1v1a1 1 0 0 1 -2 0v-1zm0-5 1 1v1a1 1 0 0 1 -2 0v-1zm0-5 1 1v1a1 1 0 0 1 -2 0v-1zm0-5 1 1v1a1 1 0 0 1 -2 0v-1zm0-5 1 1v1a1 1 0 0 1 -2 0v-1zm0-5 1 1v1a1 1 0 0 1 -2 0v-1zm0-5 1 1v1a1 1 0 0 1 -2 0v-1zm0-5 1 1v1a1 1 0 0 1 -2 0v-1zm0-5 1 1v1a1 1 0 0 1 -2 0v-1zm0-5 1 1v1a1 1 0 0 1 -2 0v-1zm0-5 1 1v1a1 1 0 0 1 -2 0v-1zm0-5 1 1v1a1 1 0 0 1 -2 0v-1zm0-5 1 1v1a1 1 0 0 1 -2 0v-1zm0-5 1 1v1a1 1 0 0 1 -2 0v-1zm0-5 1 1v1a1 1 0 0 1 -2 0v-1zm0-5 1 1v1a1 1 0 0 1 -2 0v-1zm0-5 1 1v1a1 1 0 0 1 -2 0v-1zm0-5 1 1v1a1 1 0 0 1 -2 0v-1zm0-5 1 1v1a1 1 0 0 1 -2 0v-1zm0-5 1 1v1a1 1 0 0 1 -2 0v-1zm0-5 1 1v1a1 1 0 0 1 -2 0v-1zm0-5 1 1v1a1 1 0 0 1 -2 0v-1zm0-5 1 1v1a1 1 0 0 1 -2 0v-1zm0-5 1 1v1a1 1 0 0 1 -2 0v-1zm0-5 1 1v1a1 1 0 0 1 -2 0v-1zm0-5 1 1v1a1 1 0 0 1 -2 0v-1zm0-5 1 1v1a1 1 0 0 1 -2 0v-1z" fill="#0b0c0c" fill-rule="nonzero"/><path d="m2034 574v341c0 6-4 10-10 10h-225m595-336v72c0 5 4 10 10 10h164c6 0 10-5 10-10v-77c0-7 6-10 18-10" stroke="#0b0c0c" stroke-dasharray="1 4" stroke-linecap="round" stroke-linejoin="round" stroke-width="2"/><path d="m2669 525h1v2a1 1 0 0 1 -2 0v-1zm-1185-14 1 1v1h5l1 1-6 13a1 1 0 0 1 -2 0l-6-13a1 1 0 0 1 1-1h5v-1zm1185 9h1v2a1 1 0 0 1 -2 0v-1zm0-5h1v2a1 1 0 0 1 -2 0v-1zm0-5h1v2a1 1 0 0 1 -2 0v-1zm-1185-4 1 1v1a1 1 0 0 1 -2 0v-1zm1185-1h1v2a1 1 0 0 1 -2 0v-1zm-1185-4 1 1v1a1 1 0 0 1 -2 0v-1zm1185-1h1v2a1 1 0 0 1 -2 0v-1zm-1185-4 1 1v1a1 1 0 0 1 -2 0v-1zm1185-1h1v2a1 1 0 0 1 -2 0v-1zm-1185-4 1 1v1a1 1 0 0 1 -2 0v-1zm1185-1h1v2a1 1 0 0 1 -2 0v-1zm-1185-4 1 1v1a1 1 0 0 1 -2 0v-1zm1185-1h1v2a1 1 0 0 1 -2 0v-1zm-1185-4 1 1v1a1 1 0 0 1 -2 0v-1zm1185-1h1v2a1 1 0 0 1 -2 0v-1zm-1185-4 1 1v1a1 1 0 0 1 -2 0v-1zm1185-1h1v2a1 1 0 0 1 -2 0v-1zm-1185-4 1 1v1a1 1 0 0 1 -2 0v-1zm1185-1h1v2a1 1 0 0 1 -2 0v-1zm-1185-4 1 1v1a1 1 0 0 1 -2 0v-1zm1185-1h1v2a1 1 0 0 1 -2 0v-1zm-1185-4 1 1v1a1 1 0 0 1 -2 0v-1zm1185-1h1v2a1 1 0 0 1 -2 0v-1zm-1185-4 1 1v1a1 1 0 0 1 -2 0v-1zm1185-1h1v2a1 1 0 0 1 -2 0v-1zm-1185-4 1 1v1a1 1 0 0 1 -2 0v-1zm1185-1h1v2a1 1 0 0 1 -2 0v-1zm-1185-4 1 1v1a1 1 0 0 1 -2 0v-1zm1185-1h1v2a1 1 0 0 1 -2 0v-1zm-1185-4 1 1v1a1 1 0 0 1 -2 0v-1zm1185-1h1v2a1 1 0 0 1 -2 0v-1zm-1184-4v2a1 1 0 1 1 -2 0v-1zm1184-1v1a1 1 0 0 1 -2 1v-1a1 1 0 1 1 2-1zm-1181-3v2h-1a1 1 0 0 1 -2-1l1-1zm1177-1 1 1a1 1 0 1 1 -1 1h-1a1 1 0 0 1 1-2zm-1173-1-1 1v1a1 1 0 0 1 -1-2l1-1zm1168-1h1a1 1 0 1 1 0 2h-1a1 1 0 0 1 0-2zm-94 0a1 1 0 0 1 0 2h-1a1 1 0 0 1 0-2zm-5 0a1 1 0 0 1 0 2h-1a1 1 0 0 1 0-2zm-5 0a1 1 0 0 1 0 2h-1a1 1 0 0 1 0-2zm-5 0a1 1 0 0 1 0 2h-1a1 1 0 0 1 0-2zm-5 0a1 1 0 0 1 0 2h-1a1 1 0 0 1 0-2zm-5 0a1 1 0 0 1 0 2h-1a1 1 0 0 1 0-2zm-5 0a1 1 0 0 1 0 2h-1a1 1 0 0 1 0-2zm-5 0a1 1 0 0 1 0 2h-1a1 1 0 0 1 0-2zm-5 0a1 1 0 0 1 0 2h-1a1 1 0 0 1 0-2zm-5 0a1 1 0 0 1 0 2h-1a1 1 0 0 1 0-2zm-5 0a1 1 0 0 1 0 2h-1a1 1 0 0 1 0-2zm-5 0a1 1 0 0 1 0 2h-1a1 1 0 0 1 0-2zm-5 0a1 1 0 0 1 0 2h-1a1 1 0 0 1 0-2zm-5 0a1 1 0 0 1 0 2h-1a1 1 0 0 1 0-2zm-5 0a1 1 0 0 1 0 2h-1a1 1 0 0 1 0-2zm-5 0a1 1 0 0 1 0 2h-1a1 1 0 0 1 0-2zm-5 0a1 1 0 0 1 0 2h-1a1 1 0 0 1 0-2zm-5 0a1 1 0 0 1 0 2h-1a1 1 0 0 1 0-2zm-5 0a1 1 0 0 1 0 2h-1a1 1 0 0 1 0-2zm-5 0a1 1 0 0 1 0 2h-1a1 1 0 0 1 0-2zm-5 0a1 1 0 0 1 0 2h-1a1 1 0 0 1 0-2zm-5 0a1 1 0 0 1 0 2h-1a1 1 0 0 1 0-2zm-5 0a1 1 0 0 1 0 2h-1a1 1 0 0 1 0-2zm-5 0a1 1 0 0 1 0 2h-1a1 1 0 0 1 0-2zm-5 0a1 1 0 0 1 0 2h-1a1 1 0 0 1 0-2zm-5 0a1 1 0 0 1 0 2h-1a1 1 0 0 1 0-2zm-5 0a1 1 0 0 1 0 2h-1a1 1 0 0 1 0-2zm-5 0a1 1 0 0 1 0 2h-1a1 1 0 0 1 0-2zm-5 0a1 1 0 0 1 0 2h-1a1 1 0 0 1 0-2zm-5 0a1 1 0 0 1 0 2h-1a1 1 0 0 1 0-2zm-5 0a1 1 0 0 1 0 2h-1a1 1 0 0 1 0-2zm-5 0a1 1 0 0 1 0 2h-1a1 1 0 0 1 0-2zm-5 0a1 1 0 0 1 0 2h-1a1 1 0 0 1 0-2zm-5 0a1 1 0 0 1 0 2h-1a1 1 0 0 1 0-2zm-5 0a1 1 0 0 1 0 2h-1a1 1 0 0 1 0-2zm-5 0a1 1 0 0 1 0 2h-1a1 1 0 0 1 0-2zm-5 0a1 1 0 0 1 0 2h-1a1 1 0 0 1 0-2zm-5 0a1 1 0 0 1 0 2h-1a1 1 0 0 1 0-2zm-5 0a1 1 0 0 1 0 2h-1a1 1 0 0 1 0-2zm-5 0a1 1 0 0 1 0 2h-1a1 1 0 0 1 0-2zm-5 0a1 1 0 0 1 0 2h-1a1 1 0 0 1 0-2zm-5 0a1 1 0 0 1 0 2h-1a1 1 0 0 1 0-2zm-5 0a1 1 0 0 1 0 2h-1a1 1 0 0 1 0-2zm-5 0a1 1 0 0 1 0 2h-1a1 1 0 0 1 0-2zm-5 0a1 1 0 0 1 0 2h-1a1 1 0 0 1 0-2zm-5 0a1 1 0 0 1 0 2h-1a1 1 0 0 1 0-2zm-5 0a1 1 0 0 1 0 2h-1a1 1 0 0 1 0-2zm-5 0a1 1 0 0 1 0 2h-1a1 1 0 0 1 0-2zm-5 0a1 1 0 0 1 0 2h-1a1 1 0 0 1 0-2zm-5 0a1 1 0 0 1 0 2h-1a1 1 0 0 1 0-2zm-5 0a1 1 0 0 1 0 2h-1a1 1 0 0 1 0-2zm-5 0a1 1 0 0 1 0 2h-1a1 1 0 0 1 0-2zm-5 0a1 1 0 0 1 0 2h-1a1 1 0 0 1 0-2zm-5 0a1 1 0 0 1 0 2h-1a1 1 0 0 1 0-2zm-5 0a1 1 0 0 1 0 2h-1a1 1 0 0 1 0-2zm-5 0a1 1 0 0 1 0 2h-1a1 1 0 0 1 0-2zm-5 0a1 1 0 0 1 0 2h-1a1 1 0 0 1 0-2zm-5 0a1 1 0 0 1 0 2h-1a1 1 0 0 1 0-2zm-5 0a1 1 0 0 1 0 2h-1a1 1 0 0 1 0-2zm-5 0a1 1 0 0 1 0 2h-1a1 1 0 0 1 0-2zm-5 0a1 1 0 0 1 0 2h-1a1 1 0 0 1 0-2zm-5 0a1 1 0 0 1 0 2h-1a1 1 0 0 1 0-2zm-5 0a1 1 0 0 1 0 2h-1a1 1 0 0 1 0-2zm-5 0a1 1 0 0 1 0 2h-1a1 1 0 0 1 0-2zm-5 0a1 1 0 0 1 0 2h-1a1 1 0 0 1 0-2zm-5 0a1 1 0 0 1 0 2h-1a1 1 0 0 1 0-2zm-5 0a1 1 0 0 1 0 2h-1a1 1 0 0 1 0-2zm-5 0a1 1 0 0 1 0 2h-1a1 1 0 0 1 0-2zm-5 0a1 1 0 0 1 0 2h-1a1 1 0 0 1 0-2zm-5 0a1 1 0 0 1 0 2h-1a1 1 0 0 1 0-2zm-5 0a1 1 0 0 1 0 2h-1a1 1 0 0 1 0-2zm-5 0a1 1 0 0 1 0 2h-1a1 1 0 0 1 0-2zm-5 0a1 1 0 0 1 0 2h-1a1 1 0 0 1 0-2zm-5 0a1 1 0 0 1 0 2h-1a1 1 0 0 1 0-2zm-5 0a1 1 0 0 1 0 2h-1a1 1 0 0 1 0-2zm-5 0a1 1 0 0 1 0 2h-1a1 1 0 0 1 0-2zm-5 0a1 1 0 0 1 0 2h-1a1 1 0 0 1 0-2zm-5 0a1 1 0 0 1 0 2h-1a1 1 0 0 1 0-2zm-5 0a1 1 0 0 1 0 2h-1a1 1 0 0 1 0-2zm-5 0a1 1 0 0 1 0 2h-1a1 1 0 0 1 0-2zm-5 0a1 1 0 0 1 0 2h-1a1 1 0 0 1 0-2zm-5 0a1 1 0 0 1 0 2h-1a1 1 0 0 1 0-2zm-5 0a1 1 0 0 1 0 2h-1a1 1 0 0 1 0-2zm-5 0a1 1 0 0 1 0 2h-1a1 1 0 0 1 0-2zm-5 0a1 1 0 0 1 0 2h-1a1 1 0 0 1 0-2zm-5 0a1 1 0 0 1 0 2h-1a1 1 0 0 1 0-2zm-5 0a1 1 0 0 1 0 2h-1a1 1 0 0 1 0-2zm-5 0a1 1 0 0 1 0 2h-1a1 1 0 0 1 0-2zm-5 0a1 1 0 0 1 0 2h-1a1 1 0 0 1 0-2zm-5 0a1 1 0 0 1 0 2h-1a1 1 0 0 1 0-2zm-5 0a1 1 0 0 1 0 2h-1a1 1 0 0 1 0-2zm-5 0a1 1 0 0 1 0 2h-1a1 1 0 0 1 0-2zm-5 0a1 1 0 0 1 0 2h-1a1 1 0 0 1 0-2zm-5 0a1 1 0 0 1 0 2h-1a1 1 0 0 1 0-2zm-5 0a1 1 0 0 1 0 2h-1a1 1 0 0 1 0-2zm-5 0a1 1 0 0 1 0 2h-1a1 1 0 0 1 0-2zm-5 0a1 1 0 0 1 0 2h-1a1 1 0 0 1 0-2zm485 0a1 1 0 0 1 0 2h-1a1 1 0 0 1 0-2zm-495 0a1 1 0 0 1 0 2h-1a1 1 0 0 1 0-2zm-5 0a1 1 0 0 1 0 2h-1a1 1 0 0 1 0-2zm-5 0a1 1 0 0 1 0 2h-1a1 1 0 0 1 0-2zm-5 0a1 1 0 0 1 0 2h-1a1 1 0 0 1 0-2zm-5 0a1 1 0 0 1 0 2h-1a1 1 0 0 1 0-2zm-5 0a1 1 0 0 1 0 2h-1a1 1 0 0 1 0-2zm-5 0a1 1 0 0 1 0 2h-1a1 1 0 0 1 0-2zm-5 0a1 1 0 0 1 0 2h-1a1 1 0 0 1 0-2zm-5 0a1 1 0 0 1 0 2h-1a1 1 0 0 1 0-2zm-5 0a1 1 0 0 1 0 2h-1a1 1 0 0 1 0-2zm-5 0a1 1 0 0 1 0 2h-1a1 1 0 0 1 0-2zm-5 0a1 1 0 0 1 0 2h-1a1 1 0 0 1 0-2zm-5 0a1 1 0 0 1 0 2h-1a1 1 0 0 1 0-2zm-5 0a1 1 0 0 1 0 2h-1a1 1 0 0 1 0-2zm-5 0a1 1 0 0 1 0 2h-1a1 1 0 0 1 0-2zm-5 0a1 1 0 0 1 0 2h-1a1 1 0 0 1 0-2zm-5 0a1 1 0 0 1 0 2h-1a1 1 0 0 1 0-2zm-5 0a1 1 0 0 1 0 2h-1a1 1 0 0 1 0-2zm-5 0a1 1 0 0 1 0 2h-1a1 1 0 0 1 0-2zm-5 0a1 1 0 0 1 0 2h-1a1 1 0 0 1 0-2zm-5 0a1 1 0 0 1 0 2h-1a1 1 0 0 1 0-2zm-5 0a1 1 0 0 1 0 2h-1a1 1 0 0 1 0-2zm-5 0a1 1 0 0 1 0 2h-1a1 1 0 0 1 0-2zm-5 0a1 1 0 0 1 0 2h-1a1 1 0 0 1 0-2zm-5 0a1 1 0 0 1 0 2h-1a1 1 0 0 1 0-2zm-5 0a1 1 0 0 1 0 2h-1a1 1 0 0 1 0-2zm-5 0a1 1 0 0 1 0 2h-1a1 1 0 0 1 0-2zm-5 0a1 1 0 0 1 0 2h-1a1 1 0 0 1 0-2zm-5 0a1 1 0 0 1 0 2h-1a1 1 0 0 1 0-2zm-5 0a1 1 0 0 1 0 2h-1a1 1 0 0 1 0-2zm-5 0a1 1 0 0 1 0 2h-1a1 1 0 0 1 0-2zm-5 0a1 1 0 0 1 0 2h-1a1 1 0 0 1 0-2zm-5 0a1 1 0 0 1 0 2h-1a1 1 0 0 1 0-2zm-5 0a1 1 0 0 1 0 2h-1a1 1 0 0 1 0-2zm-5 0a1 1 0 0 1 0 2h-1a1 1 0 0 1 0-2zm-5 0a1 1 0 0 1 0 2h-1a1 1 0 0 1 0-2zm-5 0a1 1 0 0 1 0 2h-1a1 1 0 0 1 0-2zm-5 0a1 1 0 0 1 0 2h-1a1 1 0 0 1 0-2zm-5 0a1 1 0 0 1 0 2h-1a1 1 0 0 1 0-2zm-5 0a1 1 0 0 1 0 2h-1a1 1 0 0 1 0-2zm-5 0a1 1 0 0 1 0 2h-1a1 1 0 0 1 0-2zm-5 0a1 1 0 0 1 0 2h-1a1 1 0 0 1 0-2zm-5 0a1 1 0 0 1 0 2h-1a1 1 0 0 1 0-2zm-5 0a1 1 0 0 1 0 2h-1a1 1 0 0 1 0-2zm-5 0a1 1 0 0 1 0 2h-1a1 1 0 0 1 0-2zm-5 0a1 1 0 0 1 0 2h-1a1 1 0 0 1 0-2zm-5 0a1 1 0 0 1 0 2h-1a1 1 0 0 1 0-2zm-5 0a1 1 0 0 1 0 2h-1a1 1 0 0 1 0-2zm-5 0a1 1 0 0 1 0 2h-1a1 1 0 0 1 0-2zm-5 0a1 1 0 0 1 0 2h-1a1 1 0 0 1 0-2zm-5 0a1 1 0 0 1 0 2h-1a1 1 0 0 1 0-2zm-5 0a1 1 0 0 1 0 2h-1a1 1 0 0 1 0-2zm-5 0a1 1 0 0 1 0 2h-1a1 1 0 0 1 0-2zm-5 0a1 1 0 0 1 0 2h-1a1 1 0 0 1 0-2zm-5 0a1 1 0 0 1 0 2h-1a1 1 0 0 1 0-2zm-5 0a1 1 0 0 1 0 2h-1a1 1 0 0 1 0-2zm-5 0a1 1 0 0 1 0 2h-1a1 1 0 0 1 0-2zm-5 0a1 1 0 0 1 0 2h-1a1 1 0 0 1 0-2zm-5 0a1 1 0 0 1 0 2h-1a1 1 0 0 1 0-2zm-5 0a1 1 0 0 1 0 2h-1a1 1 0 0 1 0-2zm-5 0a1 1 0 0 1 0 2h-1a1 1 0 0 1 0-2zm-5 0a1 1 0 0 1 0 2h-1a1 1 0 0 1 0-2zm-5 0a1 1 0 0 1 0 2h-1a1 1 0 0 1 0-2zm-5 0a1 1 0 0 1 0 2h-1a1 1 0 0 1 0-2zm-5 0a1 1 0 0 1 0 2h-1a1 1 0 0 1 0-2zm-5 0a1 1 0 0 1 0 2h-1a1 1 0 0 1 0-2zm-5 0a1 1 0 0 1 0 2h-1a1 1 0 0 1 0-2zm-5 0a1 1 0 0 1 0 2h-1a1 1 0 0 1 0-2zm-5 0a1 1 0 0 1 0 2h-1a1 1 0 0 1 0-2zm-5 0a1 1 0 0 1 0 2h-1a1 1 0 0 1 0-2zm-5 0a1 1 0 0 1 0 2h-1a1 1 0 0 1 0-2zm-5 0a1 1 0 0 1 0 2h-1a1 1 0 0 1 0-2zm-5 0a1 1 0 0 1 0 2h-1a1 1 0 0 1 0-2zm-5 0a1 1 0 0 1 0 2h-1a1 1 0 0 1 0-2zm-5 0a1 1 0 0 1 0 2h-1a1 1 0 0 1 0-2zm-5 0a1 1 0 0 1 0 2h-1a1 1 0 0 1 0-2zm-5 0a1 1 0 0 1 0 2h-1a1 1 0 0 1 0-2zm-5 0a1 1 0 0 1 0 2h-1a1 1 0 0 1 0-2zm-5 0a1 1 0 0 1 0 2h-1a1 1 0 0 1 0-2zm-5 0a1 1 0 0 1 0 2h-1a1 1 0 0 1 0-2zm-5 0a1 1 0 0 1 0 2h-1a1 1 0 0 1 0-2zm-5 0a1 1 0 0 1 0 2h-1a1 1 0 0 1 0-2zm-5 0a1 1 0 0 1 0 2h-1a1 1 0 0 1 0-2zm-5 0a1 1 0 0 1 0 2h-1a1 1 0 0 1 0-2zm-5 0a1 1 0 0 1 0 2h-1a1 1 0 0 1 0-2zm-5 0a1 1 0 0 1 0 2h-1a1 1 0 0 1 0-2zm-5 0a1 1 0 0 1 0 2h-1a1 1 0 0 1 0-2zm-5 0a1 1 0 0 1 0 2h-1a1 1 0 0 1 0-2zm-5 0a1 1 0 0 1 0 2h-1a1 1 0 0 1 0-2zm-5 0a1 1 0 0 1 0 2h-1a1 1 0 0 1 0-2zm-5 0a1 1 0 0 1 0 2h-1a1 1 0 0 1 0-2zm-5 0a1 1 0 0 1 0 2h-1a1 1 0 0 1 0-2zm-5 0a1 1 0 0 1 0 2h-1a1 1 0 0 1 0-2zm-5 0a1 1 0 0 1 0 2h-1a1 1 0 0 1 0-2zm-5 0a1 1 0 0 1 0 2h-1a1 1 0 0 1 0-2zm-5 0a1 1 0 0 1 0 2h-1a1 1 0 0 1 0-2zm-5 0a1 1 0 0 1 0 2h-1a1 1 0 0 1 0-2zm-5 0a1 1 0 0 1 0 2h-1a1 1 0 0 1 0-2zm-5 0a1 1 0 0 1 0 2h-1a1 1 0 0 1 0-2zm-5 0a1 1 0 0 1 0 2h-1a1 1 0 0 1 0-2zm-5 0a1 1 0 0 1 0 2h-1a1 1 0 0 1 0-2zm-5 0a1 1 0 0 1 0 2h-1a1 1 0 0 1 0-2zm-5 0a1 1 0 0 1 0 2h-1a1 1 0 0 1 0-2zm-5 0a1 1 0 0 1 0 2h-1a1 1 0 0 1 0-2zm-5 0a1 1 0 0 1 0 2h-1a1 1 0 0 1 0-2zm-5 0a1 1 0 0 1 0 2h-1a1 1 0 0 1 0-2zm-5 0a1 1 0 0 1 0 2h-1a1 1 0 0 1 0-2zm-5 0a1 1 0 0 1 0 2h-1a1 1 0 0 1 0-2zm-5 0a1 1 0 0 1 0 2h-1a1 1 0 0 1 0-2zm-5 0a1 1 0 0 1 0 2h-1a1 1 0 0 1 0-2zm-5 0a1 1 0 0 1 0 2h-1a1 1 0 0 1 0-2zm-5 0a1 1 0 0 1 0 2h-1a1 1 0 0 1 0-2zm-5 0a1 1 0 0 1 0 2h-1a1 1 0 0 1 0-2zm-5 0a1 1 0 0 1 0 2h-1a1 1 0 0 1 0-2zm-5 0a1 1 0 0 1 0 2h-1a1 1 0 0 1 0-2zm-5 0a1 1 0 0 1 0 2h-1a1 1 0 0 1 0-2zm-5 0a1 1 0 0 1 0 2h-1a1 1 0 0 1 0-2zm1080 0a1 1 0 0 1 0 2h-1a1 1 0 0 1 0-2zm5 0a1 1 0 0 1 0 2h-1a1 1 0 0 1 0-2zm5 0a1 1 0 0 1 0 2h-1a1 1 0 0 1 0-2zm5 0a1 1 0 0 1 0 2h-1a1 1 0 0 1 0-2zm5 0a1 1 0 0 1 0 2h-1a1 1 0 0 1 0-2zm5 0a1 1 0 0 1 0 2h-1a1 1 0 0 1 0-2zm5 0a1 1 0 0 1 0 2h-1a1 1 0 0 1 0-2zm5 0a1 1 0 0 1 0 2h-1a1 1 0 0 1 0-2zm5 0a1 1 0 0 1 0 2h-1a1 1 0 0 1 0-2zm5 0a1 1 0 0 1 0 2h-1a1 1 0 0 1 0-2zm5 0a1 1 0 0 1 0 2h-1a1 1 0 0 1 0-2zm5 0a1 1 0 0 1 0 2h-1a1 1 0 0 1 0-2zm5 0a1 1 0 0 1 0 2h-1a1 1 0 0 1 0-2zm5 0a1 1 0 0 1 0 2h-1a1 1 0 0 1 0-2zm5 0a1 1 0 0 1 0 2h-1a1 1 0 0 1 0-2zm5 0a1 1 0 0 1 0 2h-1a1 1 0 0 1 0-2zm5 0a1 1 0 0 1 0 2h-1a1 1 0 0 1 0-2zm-575 0a1 1 0 0 1 0 2h-1a1 1 0 0 1 0-2z" fill="#0b0c0c" fill-rule="nonzero"/><text fill="#0b0c0c" font-family="sans-serif" font-size="12" font-weight="bold"><tspan x="1987" y="418">User selects ‘Add another course’</tspan></text><path d="m700 115h110v96h-110z" fill="#fff" stroke="#0b0c0c" stroke-dasharray="1 4" stroke-linecap="square" stroke-width="2"/><text fill="#0b0c0c" font-family="sans-serif" font-size="10" font-weight="bold" letter-spacing="-.1" transform="translate(700 115)"><tspan x="24" y="44">Sign in/create </tspan><tspan x="26" y="58">account flow</tspan></text><path d="m700 527h110v96h-110z" fill="#fff" stroke="#0b0c0c" stroke-dasharray="1 4" stroke-linecap="square" stroke-width="2"/><text fill="#0b0c0c" font-family="sans-serif" font-size="10" font-weight="bold" letter-spacing="-.1" transform="translate(700 527)"><tspan x="24" y="44">Sign in/create </tspan><tspan x="26" y="58">account flow</tspan></text><path d="m590 369h45c6 0 10-4 10-10v-184c0-7 3-10 10-10" stroke="#0b0c0c" stroke-dasharray="1 4" stroke-linecap="round" stroke-linejoin="round" stroke-width="2"/><path d="m1551 776a1 1 0 0 1 1 1v12a1 1 0 0 1 -1 1l-12-6a1 1 0 0 1 0-2zm4 6a1 1 0 0 1 0 2h-1a1 1 0 0 1 -1-2zm5 0a1 1 0 0 1 0 2h-1a1 1 0 0 1 -1-2zm5 0a1 1 0 0 1 0 2h-1a1 1 0 0 1 -1-2zm5 0a1 1 0 0 1 0 2h-1a1 1 0 0 1 -1-2zm5 0a1 1 0 0 1 0 2h-1a1 1 0 0 1 -1-2zm5 0a1 1 0 0 1 0 2h-1a1 1 0 0 1 -1-2zm6 1-1 1h-1a1 1 0 0 1 -1-2h2zm4-2v1l-1 1a1 1 0 0 1 -1-2zm3-4 1 1-1 1a1 1 0 0 1 -2-1l1-1zm1-5 1 1v1a1 1 0 0 1 -2 0v-1zm0-5 1 1v1a1 1 0 0 1 -2 0v-1zm0-5 1 1v1a1 1 0 0 1 -2 0v-1zm0-5 1 1v1a1 1 0 0 1 -2 0v-1zm0-5 1 1v1a1 1 0 0 1 -2 0v-1zm0-5 1 1v1a1 1 0 0 1 -2 0v-1zm0-5 1 1v1a1 1 0 0 1 -2 0v-1zm0-5 1 1v1a1 1 0 0 1 -2 0v-1zm0-5 1 1v1a1 1 0 0 1 -2 0v-1zm0-5 1 1v1a1 1 0 0 1 -2 0v-1zm0-5 1 1v1a1 1 0 0 1 -2 0v-1zm0-5 1 1v1a1 1 0 0 1 -2 0v-1zm0-5 1 1v1a1 1 0 0 1 -2 0v-1zm0-5 1 1v1a1 1 0 0 1 -2 0v-1zm0-5 1 1v1a1 1 0 0 1 -2 0v-1zm0-5 1 1v1a1 1 0 0 1 -2 0v-1zm0-5 1 1v1a1 1 0 0 1 -2 0v-1zm0-5 1 1v1a1 1 0 0 1 -2 0v-1zm0-5 1 1v1a1 1 0 0 1 -2 0v-1zm0-5 1 1v1a1 1 0 0 1 -2 0v-1zm0-5 1 1v1a1 1 0 0 1 -2 0v-1zm0-5 1 1v1a1 1 0 0 1 -2 0v-1zm0-5 1 1v1a1 1 0 0 1 -2 0v-1zm0-5 1 1v1a1 1 0 0 1 -2 0v-1zm0-5 1 1v1a1 1 0 0 1 -2 0v-1zm0-5 1 1v1a1 1 0 0 1 -2 0v-1zm0-5 1 1v1a1 1 0 0 1 -2 0v-1zm0-5 1 1v1a1 1 0 0 1 -2 0v-1zm0-5 1 1v1a1 1 0 0 1 -2 0v-1zm0-5 1 1v1a1 1 0 0 1 -2 0v-1zm0-5 1 1v1a1 1 0 0 1 -2 0v-1zm0-5 1 1v1a1 1 0 0 1 -2 0v-1zm0-5 1 1v1a1 1 0 0 1 -2 0v-1zm0-5 1 1v1a1 1 0 0 1 -2 0v-1zm0-5 1 1v1a1 1 0 0 1 -2 0v-1zm0-5 1 1v1a1 1 0 0 1 -2 0v-1zm0-5 1 1v1a1 1 0 0 1 -2 0v-1zm0-5 1 1v1a1 1 0 0 1 -2 0v-1z" fill="#0b0c0c" fill-rule="nonzero"/><path d="m2394 148 16 17-16 16-16-16z" fill="#2b8cc4" stroke="#fff" stroke-linecap="round" stroke-linejoin="round" stroke-width="3"/><text fill="#1d70b8" font-family="sans-serif" font-size="12" font-weight="bold"><tspan x="285" y="537">User is already </tspan><tspan x="298" y="548">signed in?</tspan></text><path d="m325 590v71c0 6 4 10 10 10h485c6 0 10-4 10-10v-77c0-7 3-10 10-10" stroke="#0b0c0c" stroke-dasharray="1 4" stroke-linecap="round" stroke-linejoin="round" stroke-width="2"/><path d="m480 117h110v96h-110z" fill="#009964"/><text fill="#fff" font-family="sans-serif" font-size="10" font-weight="bold" letter-spacing="-.1" transform="translate(480 117)"><tspan x="17" y="34">Get into teaching</tspan> <tspan x="19" y="53">How to apply for</tspan> <tspan x="20" y="67">teacher training</tspan></text><text fill="#6f777b" font-family="sans-serif" font-size="28" font-weight="300"><tspan x="40" y="67">Route in</tspan></text><text fill="#6f777b" font-family="sans-serif" font-size="28" font-weight="300"><tspan x="480" y="67">Start</tspan></text><text fill="#6f777b" font-family="sans-serif" font-size="28" font-weight="300"><tspan x="885" y="67">Course choice validation</tspan></text><text fill="#6f777b" font-family="sans-serif" font-size="28" font-weight="300"><tspan x="1429" y="67">Course choice details</tspan></text><text fill="#6f777b" font-family="sans-serif" font-size="28" font-weight="300"><tspan x="2779" y="67">Finish</tspan></text><path d="m688 158 12 6a1 1 0 0 1 0 2l-12 6a1 1 0 0 1 -1-1v-5h-2a1 1 0 0 1 0-2h2v-5zm-97 6a1 1 0 0 1 0 2h-1a1 1 0 0 1 0-2zm5 0a1 1 0 0 1 0 2h-1a1 1 0 0 1 0-2zm5 0a1 1 0 0 1 0 2h-1a1 1 0 0 1 0-2zm5 0a1 1 0 0 1 0 2h-1a1 1 0 0 1 0-2zm5 0a1 1 0 0 1 0 2h-1a1 1 0 0 1 0-2zm5 0a1 1 0 0 1 0 2h-1a1 1 0 0 1 0-2zm5 0a1 1 0 0 1 0 2h-1a1 1 0 0 1 0-2zm5 0a1 1 0 0 1 0 2h-1a1 1 0 0 1 0-2zm5 0a1 1 0 0 1 0 2h-1a1 1 0 0 1 0-2zm5 0a1 1 0 0 1 0 2h-1a1 1 0 0 1 0-2zm5 0a1 1 0 0 1 0 2h-1a1 1 0 0 1 0-2zm5 0a1 1 0 0 1 0 2h-1a1 1 0 0 1 0-2zm5 0a1 1 0 0 1 0 2h-1a1 1 0 0 1 0-2zm5 0a1 1 0 0 1 0 2h-1a1 1 0 0 1 0-2zm5 0a1 1 0 0 1 0 2h-1a1 1 0 0 1 0-2zm5 0a1 1 0 0 1 0 2h-1a1 1 0 0 1 0-2zm5 0a1 1 0 0 1 0 2h-1a1 1 0 0 1 0-2zm5 0a1 1 0 0 1 0 2h-1a1 1 0 0 1 0-2zm5 0a1 1 0 0 1 0 2h-1a1 1 0 0 1 0-2zm-213-6 12 6a1 1 0 0 1 0 2l-12 6a1 1 0 0 1 -1-1v-5h-2a1 1 0 0 1 0-2h2v-5zm-317 6a1 1 0 0 1 0 2h-1a1 1 0 0 1 0-2zm5 0a1 1 0 0 1 0 2h-1a1 1 0 0 1 0-2zm5 0a1 1 0 0 1 0 2h-1a1 1 0 0 1 0-2zm5 0a1 1 0 0 1 0 2h-1a1 1 0 0 1 0-2zm5 0a1 1 0 0 1 0 2h-1a1 1 0 0 1 0-2zm5 0a1 1 0 0 1 0 2h-1a1 1 0 0 1 0-2zm5 0a1 1 0 0 1 0 2h-1a1 1 0 0 1 0-2zm5 0a1 1 0 0 1 0 2h-1a1 1 0 0 1 0-2zm5 0a1 1 0 0 1 0 2h-1a1 1 0 0 1 0-2zm5 0a1 1 0 0 1 0 2h-1a1 1 0 0 1 0-2zm5 0a1 1 0 0 1 0 2h-1a1 1 0 0 1 0-2zm5 0a1 1 0 0 1 0 2h-1a1 1 0 0 1 0-2zm5 0a1 1 0 0 1 0 2h-1a1 1 0 0 1 0-2zm5 0a1 1 0 0 1 0 2h-1a1 1 0 0 1 0-2zm5 0a1 1 0 0 1 0 2h-1a1 1 0 0 1 0-2zm5 0a1 1 0 0 1 0 2h-1a1 1 0 0 1 0-2zm5 0a1 1 0 0 1 0 2h-1a1 1 0 0 1 0-2zm5 0a1 1 0 0 1 0 2h-1a1 1 0 0 1 0-2zm5 0a1 1 0 0 1 0 2h-1a1 1 0 0 1 0-2zm5 0a1 1 0 0 1 0 2h-1a1 1 0 0 1 0-2zm5 0a1 1 0 0 1 0 2h-1a1 1 0 0 1 0-2zm5 0a1 1 0 0 1 0 2h-1a1 1 0 0 1 0-2zm5 0a1 1 0 0 1 0 2h-1a1 1 0 0 1 0-2zm5 0a1 1 0 0 1 0 2h-1a1 1 0 0 1 0-2zm5 0a1 1 0 0 1 0 2h-1a1 1 0 0 1 0-2zm5 0a1 1 0 0 1 0 2h-1a1 1 0 0 1 0-2zm5 0a1 1 0 0 1 0 2h-1a1 1 0 0 1 0-2zm5 0a1 1 0 0 1 0 2h-1a1 1 0 0 1 0-2zm5 0a1 1 0 0 1 0 2h-1a1 1 0 0 1 0-2zm5 0a1 1 0 0 1 0 2h-1a1 1 0 0 1 0-2zm5 0a1 1 0 0 1 0 2h-1a1 1 0 0 1 0-2zm5 0a1 1 0 0 1 0 2h-1a1 1 0 0 1 0-2zm5 0a1 1 0 0 1 0 2h-1a1 1 0 0 1 0-2zm5 0a1 1 0 0 1 0 2h-1a1 1 0 0 1 0-2zm5 0a1 1 0 0 1 0 2h-1a1 1 0 0 1 0-2zm5 0a1 1 0 0 1 0 2h-1a1 1 0 0 1 0-2zm5 0a1 1 0 0 1 0 2h-1a1 1 0 0 1 0-2zm5 0a1 1 0 0 1 0 2h-1a1 1 0 0 1 0-2zm5 0a1 1 0 0 1 0 2h-1a1 1 0 0 1 0-2zm5 0a1 1 0 0 1 0 2h-1a1 1 0 0 1 0-2zm5 0a1 1 0 0 1 0 2h-1a1 1 0 0 1 0-2zm5 0a1 1 0 0 1 0 2h-1a1 1 0 0 1 0-2zm5 0a1 1 0 0 1 0 2h-1a1 1 0 0 1 0-2zm5 0a1 1 0 0 1 0 2h-1a1 1 0 0 1 0-2zm5 0a1 1 0 0 1 0 2h-1a1 1 0 0 1 0-2zm5 0a1 1 0 0 1 0 2h-1a1 1 0 0 1 0-2zm5 0a1 1 0 0 1 0 2h-1a1 1 0 0 1 0-2zm5 0a1 1 0 0 1 0 2h-1a1 1 0 0 1 0-2zm5 0a1 1 0 0 1 0 2h-1a1 1 0 0 1 0-2zm5 0a1 1 0 0 1 0 2h-1a1 1 0 0 1 0-2zm5 0a1 1 0 0 1 0 2h-1a1 1 0 0 1 0-2zm5 0a1 1 0 0 1 0 2h-1a1 1 0 0 1 0-2zm5 0a1 1 0 0 1 0 2h-1a1 1 0 0 1 0-2zm5 0a1 1 0 0 1 0 2h-1a1 1 0 0 1 0-2zm5 0a1 1 0 0 1 0 2h-1a1 1 0 0 1 0-2zm5 0a1 1 0 0 1 0 2h-1a1 1 0 0 1 0-2zm5 0a1 1 0 0 1 0 2h-1a1 1 0 0 1 0-2zm5 0a1 1 0 0 1 0 2h-1a1 1 0 0 1 0-2zm5 0a1 1 0 0 1 0 2h-1a1 1 0 0 1 0-2zm5 0a1 1 0 0 1 0 2h-1a1 1 0 0 1 0-2zm5 0a1 1 0 0 1 0 2h-1a1 1 0 0 1 0-2zm5 0a1 1 0 0 1 0 2h-1a1 1 0 0 1 0-2zm5 0a1 1 0 0 1 0 2h-1a1 1 0 0 1 0-2zm7 405 12 6a1 1 0 0 1 0 2l-12 6a1 1 0 0 1 -1-1v-5h-2a1 1 0 0 1 0-2h2v-5zm-317 6a1 1 0 0 1 0 2h-1a1 1 0 0 1 0-2zm5 0a1 1 0 0 1 0 2h-1a1 1 0 0 1 0-2zm5 0a1 1 0 0 1 0 2h-1a1 1 0 0 1 0-2zm5 0a1 1 0 0 1 0 2h-1a1 1 0 0 1 0-2zm5 0a1 1 0 0 1 0 2h-1a1 1 0 0 1 0-2zm5 0a1 1 0 0 1 0 2h-1a1 1 0 0 1 0-2zm5 0a1 1 0 0 1 0 2h-1a1 1 0 0 1 0-2zm5 0a1 1 0 0 1 0 2h-1a1 1 0 0 1 0-2zm5 0a1 1 0 0 1 0 2h-1a1 1 0 0 1 0-2zm5 0a1 1 0 0 1 0 2h-1a1 1 0 0 1 0-2zm5 0a1 1 0 0 1 0 2h-1a1 1 0 0 1 0-2zm5 0a1 1 0 0 1 0 2h-1a1 1 0 0 1 0-2zm5 0a1 1 0 0 1 0 2h-1a1 1 0 0 1 0-2zm5 0a1 1 0 0 1 0 2h-1a1 1 0 0 1 0-2zm5 0a1 1 0 0 1 0 2h-1a1 1 0 0 1 0-2zm5 0a1 1 0 0 1 0 2h-1a1 1 0 0 1 0-2zm5 0a1 1 0 0 1 0 2h-1a1 1 0 0 1 0-2zm5 0a1 1 0 0 1 0 2h-1a1 1 0 0 1 0-2zm5 0a1 1 0 0 1 0 2h-1a1 1 0 0 1 0-2zm5 0a1 1 0 0 1 0 2h-1a1 1 0 0 1 0-2zm5 0a1 1 0 0 1 0 2h-1a1 1 0 0 1 0-2zm5 0a1 1 0 0 1 0 2h-1a1 1 0 0 1 0-2zm5 0a1 1 0 0 1 0 2h-1a1 1 0 0 1 0-2zm5 0a1 1 0 0 1 0 2h-1a1 1 0 0 1 0-2zm5 0a1 1 0 0 1 0 2h-1a1 1 0 0 1 0-2zm5 0a1 1 0 0 1 0 2h-1a1 1 0 0 1 0-2zm5 0a1 1 0 0 1 0 2h-1a1 1 0 0 1 0-2zm5 0a1 1 0 0 1 0 2h-1a1 1 0 0 1 0-2zm5 0a1 1 0 0 1 0 2h-1a1 1 0 0 1 0-2zm5 0a1 1 0 0 1 0 2h-1a1 1 0 0 1 0-2zm5 0a1 1 0 0 1 0 2h-1a1 1 0 0 1 0-2zm5 0a1 1 0 0 1 0 2h-1a1 1 0 0 1 0-2zm5 0a1 1 0 0 1 0 2h-1a1 1 0 0 1 0-2zm5 0a1 1 0 0 1 0 2h-1a1 1 0 0 1 0-2zm5 0a1 1 0 0 1 0 2h-1a1 1 0 0 1 0-2zm5 0a1 1 0 0 1 0 2h-1a1 1 0 0 1 0-2zm5 0a1 1 0 0 1 0 2h-1a1 1 0 0 1 0-2zm5 0a1 1 0 0 1 0 2h-1a1 1 0 0 1 0-2zm5 0a1 1 0 0 1 0 2h-1a1 1 0 0 1 0-2zm5 0a1 1 0 0 1 0 2h-1a1 1 0 0 1 0-2zm5 0a1 1 0 0 1 0 2h-1a1 1 0 0 1 0-2zm5 0a1 1 0 0 1 0 2h-1a1 1 0 0 1 0-2zm5 0a1 1 0 0 1 0 2h-1a1 1 0 0 1 0-2zm5 0a1 1 0 0 1 0 2h-1a1 1 0 0 1 0-2zm5 0a1 1 0 0 1 0 2h-1a1 1 0 0 1 0-2zm5 0a1 1 0 0 1 0 2h-1a1 1 0 0 1 0-2zm5 0a1 1 0 0 1 0 2h-1a1 1 0 0 1 0-2zm5 0a1 1 0 0 1 0 2h-1a1 1 0 0 1 0-2zm5 0a1 1 0 0 1 0 2h-1a1 1 0 0 1 0-2zm5 0a1 1 0 0 1 0 2h-1a1 1 0 0 1 0-2zm5 0a1 1 0 0 1 0 2h-1a1 1 0 0 1 0-2zm5 0a1 1 0 0 1 0 2h-1a1 1 0 0 1 0-2zm5 0a1 1 0 0 1 0 2h-1a1 1 0 0 1 0-2zm5 0a1 1 0 0 1 0 2h-1a1 1 0 0 1 0-2zm5 0a1 1 0 0 1 0 2h-1a1 1 0 0 1 0-2zm5 0a1 1 0 0 1 0 2h-1a1 1 0 0 1 0-2zm5 0a1 1 0 0 1 0 2h-1a1 1 0 0 1 0-2zm5 0a1 1 0 0 1 0 2h-1a1 1 0 0 1 0-2zm5 0a1 1 0 0 1 0 2h-1a1 1 0 0 1 0-2zm5 0a1 1 0 0 1 0 2h-1a1 1 0 0 1 0-2zm5 0a1 1 0 0 1 0 2h-1a1 1 0 0 1 0-2zm5 0a1 1 0 0 1 0 2h-1a1 1 0 0 1 0-2zm5 0a1 1 0 0 1 0 2h-1a1 1 0 0 1 0-2zm7 200 12 6a1 1 0 0 1 0 2l-12 6a1 1 0 0 1 -1-1v-5h-2a1 1 0 0 1 0-2h2v-5zm-97 6a1 1 0 0 1 0 2h-1a1 1 0 0 1 0-2zm5 0a1 1 0 0 1 0 2h-1a1 1 0 0 1 0-2zm5 0a1 1 0 0 1 0 2h-1a1 1 0 0 1 0-2zm5 0a1 1 0 0 1 0 2h-1a1 1 0 0 1 0-2zm5 0a1 1 0 0 1 0 2h-1a1 1 0 0 1 0-2zm5 0a1 1 0 0 1 0 2h-1a1 1 0 0 1 0-2zm5 0a1 1 0 0 1 0 2h-1a1 1 0 0 1 0-2zm5 0a1 1 0 0 1 0 2h-1a1 1 0 0 1 0-2zm5 0a1 1 0 0 1 0 2h-1a1 1 0 0 1 0-2zm5 0a1 1 0 0 1 0 2h-1a1 1 0 0 1 0-2zm5 0a1 1 0 0 1 0 2h-1a1 1 0 0 1 0-2zm5 0a1 1 0 0 1 0 2h-1a1 1 0 0 1 0-2zm5 0a1 1 0 0 1 0 2h-1a1 1 0 0 1 0-2zm5 0a1 1 0 0 1 0 2h-1a1 1 0 0 1 0-2zm5 0a1 1 0 0 1 0 2h-1a1 1 0 0 1 0-2zm5 0a1 1 0 0 1 0 2h-1a1 1 0 0 1 0-2zm5 0a1 1 0 0 1 0 2h-1a1 1 0 0 1 0-2zm5 0a1 1 0 0 1 0 2h-1a1 1 0 0 1 0-2zm5 0a1 1 0 0 1 0 2h-1a1 1 0 0 1 0-2zm227-213 12 6a1 1 0 0 1 0 2l-12 6a1 1 0 0 1 -1-1v-5h-2a1 1 0 0 1 0-2h2v-5zm-97 6a1 1 0 0 1 0 2h-1a1 1 0 0 1 0-2zm5 0a1 1 0 0 1 0 2h-1a1 1 0 0 1 0-2zm5 0a1 1 0 0 1 0 2h-1a1 1 0 0 1 0-2zm5 0a1 1 0 0 1 0 2h-1a1 1 0 0 1 0-2zm5 0a1 1 0 0 1 0 2h-1a1 1 0 0 1 0-2zm5 0a1 1 0 0 1 0 2h-1a1 1 0 0 1 0-2zm5 0a1 1 0 0 1 0 2h-1a1 1 0 0 1 0-2zm5 0a1 1 0 0 1 0 2h-1a1 1 0 0 1 0-2zm5 0a1 1 0 0 1 0 2h-1a1 1 0 0 1 0-2zm5 0a1 1 0 0 1 0 2h-1a1 1 0 0 1 0-2zm5 0a1 1 0 0 1 0 2h-1a1 1 0 0 1 0-2zm5 0a1 1 0 0 1 0 2h-1a1 1 0 0 1 0-2zm5 0a1 1 0 0 1 0 2h-1a1 1 0 0 1 0-2zm5 0a1 1 0 0 1 0 2h-1a1 1 0 0 1 0-2zm5 0a1 1 0 0 1 0 2h-1a1 1 0 0 1 0-2zm5 0a1 1 0 0 1 0 2h-1a1 1 0 0 1 0-2zm5 0a1 1 0 0 1 0 2h-1a1 1 0 0 1 0-2zm5 0a1 1 0 0 1 0 2h-1a1 1 0 0 1 0-2zm5 0a1 1 0 0 1 0 2h-1a1 1 0 0 1 0-2zm956-7 12 6a1 1 0 0 1 0 2l-12 6a1 1 0 0 1 -1-1v-5h-2a1 1 0 0 1 0-2h2v-5zm-97 6a1 1 0 0 1 0 2h-1a1 1 0 0 1 0-2zm5 0a1 1 0 0 1 0 2h-1a1 1 0 0 1 0-2zm5 0a1 1 0 0 1 0 2h-1a1 1 0 0 1 0-2zm5 0a1 1 0 0 1 0 2h-1a1 1 0 0 1 0-2zm5 0a1 1 0 0 1 0 2h-1a1 1 0 0 1 0-2zm5 0a1 1 0 0 1 0 2h-1a1 1 0 0 1 0-2zm5 0a1 1 0 0 1 0 2h-1a1 1 0 0 1 0-2zm5 0a1 1 0 0 1 0 2h-1a1 1 0 0 1 0-2zm5 0a1 1 0 0 1 0 2h-1a1 1 0 0 1 0-2zm5 0a1 1 0 0 1 0 2h-1a1 1 0 0 1 0-2zm5 0a1 1 0 0 1 0 2h-1a1 1 0 0 1 0-2zm5 0a1 1 0 0 1 0 2h-1a1 1 0 0 1 0-2zm5 0a1 1 0 0 1 0 2h-1a1 1 0 0 1 0-2zm5 0a1 1 0 0 1 0 2h-1a1 1 0 0 1 0-2zm5 0a1 1 0 0 1 0 2h-1a1 1 0 0 1 0-2zm5 0a1 1 0 0 1 0 2h-1a1 1 0 0 1 0-2zm5 0a1 1 0 0 1 0 2h-1a1 1 0 0 1 0-2zm5 0a1 1 0 0 1 0 2h-1a1 1 0 0 1 0-2zm5 0a1 1 0 0 1 0 2h-1a1 1 0 0 1 0-2zm227-6 12 6a1 1 0 0 1 0 2l-12 6a1 1 0 0 1 -1-1v-5h-2a1 1 0 0 1 0-2h2v-5zm-97 6a1 1 0 0 1 0 2h-1a1 1 0 0 1 0-2zm5 0a1 1 0 0 1 0 2h-1a1 1 0 0 1 0-2zm5 0a1 1 0 0 1 0 2h-1a1 1 0 0 1 0-2zm5 0a1 1 0 0 1 0 2h-1a1 1 0 0 1 0-2zm5 0a1 1 0 0 1 0 2h-1a1 1 0 0 1 0-2zm5 0a1 1 0 0 1 0 2h-1a1 1 0 0 1 0-2zm5 0a1 1 0 0 1 0 2h-1a1 1 0 0 1 0-2zm5 0a1 1 0 0 1 0 2h-1a1 1 0 0 1 0-2zm5 0a1 1 0 0 1 0 2h-1a1 1 0 0 1 0-2zm5 0a1 1 0 0 1 0 2h-1a1 1 0 0 1 0-2zm5 0a1 1 0 0 1 0 2h-1a1 1 0 0 1 0-2zm5 0a1 1 0 0 1 0 2h-1a1 1 0 0 1 0-2zm5 0a1 1 0 0 1 0 2h-1a1 1 0 0 1 0-2zm5 0a1 1 0 0 1 0 2h-1a1 1 0 0 1 0-2zm5 0a1 1 0 0 1 0 2h-1a1 1 0 0 1 0-2zm5 0a1 1 0 0 1 0 2h-1a1 1 0 0 1 0-2zm5 0a1 1 0 0 1 0 2h-1a1 1 0 0 1 0-2zm5 0a1 1 0 0 1 0 2h-1a1 1 0 0 1 0-2zm5 0a1 1 0 0 1 0 2h-1a1 1 0 0 1 0-2zm367-6 12 6a1 1 0 0 1 0 2l-12 6a1 1 0 0 1 -1-1v-5h-2a1 1 0 0 1 0-2h2v-5zm-237 6a1 1 0 0 1 0 2h-1a1 1 0 0 1 0-2zm5 0a1 1 0 0 1 0 2h-1a1 1 0 0 1 0-2zm5 0a1 1 0 0 1 0 2h-1a1 1 0 0 1 0-2zm5 0a1 1 0 0 1 0 2h-1a1 1 0 0 1 0-2zm5 0a1 1 0 0 1 0 2h-1a1 1 0 0 1 0-2zm5 0a1 1 0 0 1 0 2h-1a1 1 0 0 1 0-2zm5 0a1 1 0 0 1 0 2h-1a1 1 0 0 1 0-2zm5 0a1 1 0 0 1 0 2h-1a1 1 0 0 1 0-2zm5 0a1 1 0 0 1 0 2h-1a1 1 0 0 1 0-2zm5 0a1 1 0 0 1 0 2h-1a1 1 0 0 1 0-2zm5 0a1 1 0 0 1 0 2h-1a1 1 0 0 1 0-2zm5 0a1 1 0 0 1 0 2h-1a1 1 0 0 1 0-2zm5 0a1 1 0 0 1 0 2h-1a1 1 0 0 1 0-2zm5 0a1 1 0 0 1 0 2h-1a1 1 0 0 1 0-2zm5 0a1 1 0 0 1 0 2h-1a1 1 0 0 1 0-2zm5 0a1 1 0 0 1 0 2h-1a1 1 0 0 1 0-2zm5 0a1 1 0 0 1 0 2h-1a1 1 0 0 1 0-2zm5 0a1 1 0 0 1 0 2h-1a1 1 0 0 1 0-2zm5 0a1 1 0 0 1 0 2h-1a1 1 0 0 1 0-2zm5 0a1 1 0 0 1 0 2h-1a1 1 0 0 1 0-2zm5 0a1 1 0 0 1 0 2h-1a1 1 0 0 1 0-2zm5 0a1 1 0 0 1 0 2h-1a1 1 0 0 1 0-2zm5 0a1 1 0 0 1 0 2h-1a1 1 0 0 1 0-2zm5 0a1 1 0 0 1 0 2h-1a1 1 0 0 1 0-2zm5 0a1 1 0 0 1 0 2h-1a1 1 0 0 1 0-2zm5 0a1 1 0 0 1 0 2h-1a1 1 0 0 1 0-2zm5 0a1 1 0 0 1 0 2h-1a1 1 0 0 1 0-2zm5 0a1 1 0 0 1 0 2h-1a1 1 0 0 1 0-2zm5 0a1 1 0 0 1 0 2h-1a1 1 0 0 1 0-2zm5 0a1 1 0 0 1 0 2h-1a1 1 0 0 1 0-2zm5 0a1 1 0 0 1 0 2h-1a1 1 0 0 1 0-2zm5 0a1 1 0 0 1 0 2h-1a1 1 0 0 1 0-2zm5 0a1 1 0 0 1 0 2h-1a1 1 0 0 1 0-2zm5 0a1 1 0 0 1 0 2h-1a1 1 0 0 1 0-2zm5 0a1 1 0 0 1 0 2h-1a1 1 0 0 1 0-2zm5 0a1 1 0 0 1 0 2h-1a1 1 0 0 1 0-2zm5 0a1 1 0 0 1 0 2h-1a1 1 0 0 1 0-2zm5 0a1 1 0 0 1 0 2h-1a1 1 0 0 1 0-2zm5 0a1 1 0 0 1 0 2h-1a1 1 0 0 1 0-2zm5 0a1 1 0 0 1 0 2h-1a1 1 0 0 1 0-2zm5 0a1 1 0 0 1 0 2h-1a1 1 0 0 1 0-2zm5 0a1 1 0 0 1 0 2h-1a1 1 0 0 1 0-2zm5 0a1 1 0 0 1 0 2h-1a1 1 0 0 1 0-2zm5 0a1 1 0 0 1 0 2h-1a1 1 0 0 1 0-2zm5 0a1 1 0 0 1 0 2h-1a1 1 0 0 1 0-2zm5 0a1 1 0 0 1 0 2h-1a1 1 0 0 1 0-2zm5 0a1 1 0 0 1 0 2h-1a1 1 0 0 1 0-2zm227-6 12 6a1 1 0 0 1 0 2l-12 6a1 1 0 0 1 -1-1v-5h-2a1 1 0 0 1 0-2h2v-5zm-97 6a1 1 0 0 1 0 2h-1a1 1 0 0 1 0-2zm5 0a1 1 0 0 1 0 2h-1a1 1 0 0 1 0-2zm5 0a1 1 0 0 1 0 2h-1a1 1 0 0 1 0-2zm5 0a1 1 0 0 1 0 2h-1a1 1 0 0 1 0-2zm5 0a1 1 0 0 1 0 2h-1a1 1 0 0 1 0-2zm5 0a1 1 0 0 1 0 2h-1a1 1 0 0 1 0-2zm5 0a1 1 0 0 1 0 2h-1a1 1 0 0 1 0-2zm5 0a1 1 0 0 1 0 2h-1a1 1 0 0 1 0-2zm5 0a1 1 0 0 1 0 2h-1a1 1 0 0 1 0-2zm5 0a1 1 0 0 1 0 2h-1a1 1 0 0 1 0-2zm5 0a1 1 0 0 1 0 2h-1a1 1 0 0 1 0-2zm5 0a1 1 0 0 1 0 2h-1a1 1 0 0 1 0-2zm5 0a1 1 0 0 1 0 2h-1a1 1 0 0 1 0-2zm5 0a1 1 0 0 1 0 2h-1a1 1 0 0 1 0-2zm5 0a1 1 0 0 1 0 2h-1a1 1 0 0 1 0-2zm5 0a1 1 0 0 1 0 2h-1a1 1 0 0 1 0-2zm5 0a1 1 0 0 1 0 2h-1a1 1 0 0 1 0-2zm5 0a1 1 0 0 1 0 2h-1a1 1 0 0 1 0-2zm5 0a1 1 0 0 1 0 2h-1a1 1 0 0 1 0-2zm172-6 12 6a1 1 0 0 1 0 2l-12 6a1 1 0 0 1 -1-1v-5h-2a1 1 0 0 1 0-2h2v-5zm-42 6a1 1 0 0 1 0 2h-1a1 1 0 0 1 0-2zm5 0a1 1 0 0 1 0 2h-1a1 1 0 0 1 0-2zm5 0a1 1 0 0 1 0 2h-1a1 1 0 0 1 0-2zm5 0a1 1 0 0 1 0 2h-1a1 1 0 0 1 0-2zm5 0a1 1 0 0 1 0 2h-1a1 1 0 0 1 0-2zm5 0a1 1 0 0 1 0 2h-1a1 1 0 0 1 0-2zm5 0a1 1 0 0 1 0 2h-1a1 1 0 0 1 0-2zm5 0a1 1 0 0 1 0 2h-1a1 1 0 0 1 0-2zm172-6 12 6a1 1 0 0 1 0 2l-12 6a1 1 0 0 1 -1-1v-5h-2a1 1 0 0 1 0-2h2v-5zm-42 6a1 1 0 0 1 0 2h-1a1 1 0 0 1 0-2zm5 0a1 1 0 0 1 0 2h-1a1 1 0 0 1 0-2zm5 0a1 1 0 0 1 0 2h-1a1 1 0 0 1 0-2zm5 0a1 1 0 0 1 0 2h-1a1 1 0 0 1 0-2zm5 0a1 1 0 0 1 0 2h-1a1 1 0 0 1 0-2zm5 0a1 1 0 0 1 0 2h-1a1 1 0 0 1 0-2zm5 0a1 1 0 0 1 0 2h-1a1 1 0 0 1 0-2zm5 0a1 1 0 0 1 0 2h-1a1 1 0 0 1 0-2zm-1583-6 12 6a1 1 0 0 1 0 2l-12 6a1 1 0 0 1 -1-1v-5h-1a1 1 0 0 1 0-2h1v-5zm-366 6a1 1 0 0 1 0 2h-1a1 1 0 0 1 0-2zm5 0a1 1 0 0 1 0 2h-1a1 1 0 0 1 0-2zm5 0a1 1 0 0 1 0 2h-1a1 1 0 0 1 0-2zm5 0a1 1 0 0 1 0 2h-1a1 1 0 0 1 0-2zm5 0a1 1 0 0 1 0 2h-1a1 1 0 0 1 0-2zm5 0a1 1 0 0 1 0 2h-1a1 1 0 0 1 0-2zm5 0a1 1 0 0 1 0 2h-1a1 1 0 0 1 0-2zm5 0a1 1 0 0 1 0 2h-1a1 1 0 0 1 0-2zm5 0a1 1 0 0 1 0 2h-1a1 1 0 0 1 0-2zm5 0a1 1 0 0 1 0 2h-1a1 1 0 0 1 0-2zm5 0a1 1 0 0 1 0 2h-1a1 1 0 0 1 0-2zm5 0a1 1 0 0 1 0 2h-1a1 1 0 0 1 0-2zm5 0a1 1 0 0 1 0 2h-1a1 1 0 0 1 0-2zm5 0a1 1 0 0 1 0 2h-1a1 1 0 0 1 0-2zm5 0a1 1 0 0 1 0 2h-1a1 1 0 0 1 0-2zm5 0a1 1 0 0 1 0 2h-1a1 1 0 0 1 0-2zm5 0a1 1 0 0 1 0 2h-1a1 1 0 0 1 0-2zm5 0a1 1 0 0 1 0 2h-1a1 1 0 0 1 0-2zm5 0a1 1 0 0 1 0 2h-1a1 1 0 0 1 0-2zm5 0a1 1 0 0 1 0 2h-1a1 1 0 0 1 0-2zm5 0a1 1 0 0 1 0 2h-1a1 1 0 0 1 0-2zm5 0a1 1 0 0 1 0 2h-1a1 1 0 0 1 0-2zm5 0a1 1 0 0 1 0 2h-1a1 1 0 0 1 0-2zm5 0a1 1 0 0 1 0 2h-1a1 1 0 0 1 0-2zm5 0a1 1 0 0 1 0 2h-1a1 1 0 0 1 0-2zm5 0a1 1 0 0 1 0 2h-1a1 1 0 0 1 0-2zm5 0a1 1 0 0 1 0 2h-1a1 1 0 0 1 0-2zm5 0a1 1 0 0 1 0 2h-1a1 1 0 0 1 0-2zm5 0a1 1 0 0 1 0 2h-1a1 1 0 0 1 0-2zm5 0a1 1 0 0 1 0 2h-1a1 1 0 0 1 0-2zm5 0a1 1 0 0 1 0 2h-1a1 1 0 0 1 0-2zm5 0a1 1 0 0 1 0 2h-1a1 1 0 0 1 0-2zm5 0a1 1 0 0 1 0 2h-1a1 1 0 0 1 0-2zm5 0a1 1 0 0 1 0 2h-1a1 1 0 0 1 0-2zm5 0a1 1 0 0 1 0 2h-1a1 1 0 0 1 0-2zm5 0a1 1 0 0 1 0 2h-1a1 1 0 0 1 0-2zm5 0a1 1 0 0 1 0 2h-1a1 1 0 0 1 0-2zm5 0a1 1 0 0 1 0 2h-1a1 1 0 0 1 0-2zm5 0a1 1 0 0 1 0 2h-1a1 1 0 0 1 0-2zm5 0a1 1 0 0 1 0 2h-1a1 1 0 0 1 0-2zm5 0a1 1 0 0 1 0 2h-1a1 1 0 0 1 0-2zm5 0a1 1 0 0 1 0 2h-1a1 1 0 0 1 0-2zm5 0a1 1 0 0 1 0 2h-1a1 1 0 0 1 0-2zm5 0a1 1 0 0 1 0 2h-1a1 1 0 0 1 0-2zm5 0a1 1 0 0 1 0 2h-1a1 1 0 0 1 0-2zm5 0a1 1 0 0 1 0 2h-1a1 1 0 0 1 0-2zm5 0a1 1 0 0 1 0 2h-1a1 1 0 0 1 0-2zm5 0a1 1 0 0 1 0 2h-1a1 1 0 0 1 0-2zm5 0a1 1 0 0 1 0 2h-1a1 1 0 0 1 0-2zm5 0a1 1 0 0 1 0 2h-1a1 1 0 0 1 0-2zm5 0a1 1 0 0 1 0 2h-1a1 1 0 0 1 0-2zm5 0a1 1 0 0 1 0 2h-1a1 1 0 0 1 0-2zm5 0a1 1 0 0 1 0 2h-1a1 1 0 0 1 0-2zm5 0a1 1 0 0 1 0 2h-1a1 1 0 0 1 0-2zm5 0a1 1 0 0 1 0 2h-1a1 1 0 0 1 0-2zm5 0a1 1 0 0 1 0 2h-1a1 1 0 0 1 0-2zm5 0a1 1 0 0 1 0 2h-1a1 1 0 0 1 0-2zm5 0a1 1 0 0 1 0 2h-1a1 1 0 0 1 0-2zm5 0a1 1 0 0 1 0 2h-1a1 1 0 0 1 0-2zm5 0a1 1 0 0 1 0 2h-1a1 1 0 0 1 0-2zm5 0a1 1 0 0 1 0 2h-1a1 1 0 0 1 0-2zm5 0a1 1 0 0 1 0 2h-1a1 1 0 0 1 0-2zm5 0a1 1 0 0 1 0 2h-1a1 1 0 0 1 0-2zm5 0a1 1 0 0 1 0 2h-1a1 1 0 0 1 0-2zm5 0a1 1 0 0 1 0 2h-1a1 1 0 0 1 0-2zm5 0a1 1 0 0 1 0 2h-1a1 1 0 0 1 0-2zm5 0a1 1 0 0 1 0 2h-1a1 1 0 0 1 0-2zm5 0a1 1 0 0 1 0 2h-1a1 1 0 0 1 0-2zm5 0a1 1 0 0 1 0 2h-1a1 1 0 0 1 0-2zm5 0a1 1 0 0 1 0 2h-1a1 1 0 0 1 0-2zm5 0a1 1 0 0 1 0 2h-1a1 1 0 0 1 0-2zm5 0a1 1 0 0 1 0 2h-1a1 1 0 0 1 0-2zm5 0a1 1 0 0 1 0 2h-1a1 1 0 0 1 0-2z" fill="#0b0c0c" fill-rule="nonzero"/><path d="m2615 116h108v94h-108z" fill="#fff" stroke="#0b0c0c" stroke-width="2"/><path d="m2614 115h110v10h-110z" fill="#0b0c0c"/><path d="m2621 158h22v1h-22zm0 6h72v1h-72zm0 8h72v1h-72zm0-4h72v1h-72zm0 8h40v1h-40z" fill="#0b0c0c"/><text fill="#231f20" font-family="sans-serif" font-size="10" font-weight="bold" letter-spacing="-.1" transform="translate(2621 130)"><tspan x="0" y="10">Before you start </tspan><tspan x="0" y="21">your application</tspan></text><g transform="translate(2621 189)"><use fill="#00823b" xlink:href="#y"/><use fill="#000" filter="url(#n)" xlink:href="#y"/></g><path d="m248 362 12 6a1 1 0 0 1 0 2l-12 6a1 1 0 0 1 -1-1v-5h-2a1 1 0 0 1 0-2h2v-5zm-97 6a1 1 0 0 1 0 2h-1a1 1 0 0 1 0-2zm5 0a1 1 0 0 1 0 2h-1a1 1 0 0 1 0-2zm5 0a1 1 0 0 1 0 2h-1a1 1 0 0 1 0-2zm5 0a1 1 0 0 1 0 2h-1a1 1 0 0 1 0-2zm5 0a1 1 0 0 1 0 2h-1a1 1 0 0 1 0-2zm5 0a1 1 0 0 1 0 2h-1a1 1 0 0 1 0-2zm5 0a1 1 0 0 1 0 2h-1a1 1 0 0 1 0-2zm5 0a1 1 0 0 1 0 2h-1a1 1 0 0 1 0-2zm5 0a1 1 0 0 1 0 2h-1a1 1 0 0 1 0-2zm5 0a1 1 0 0 1 0 2h-1a1 1 0 0 1 0-2zm5 0a1 1 0 0 1 0 2h-1a1 1 0 0 1 0-2zm5 0a1 1 0 0 1 0 2h-1a1 1 0 0 1 0-2zm5 0a1 1 0 0 1 0 2h-1a1 1 0 0 1 0-2zm5 0a1 1 0 0 1 0 2h-1a1 1 0 0 1 0-2zm5 0a1 1 0 0 1 0 2h-1a1 1 0 0 1 0-2zm5 0a1 1 0 0 1 0 2h-1a1 1 0 0 1 0-2zm5 0a1 1 0 0 1 0 2h-1a1 1 0 0 1 0-2zm5 0a1 1 0 0 1 0 2h-1a1 1 0 0 1 0-2zm5 0a1 1 0 0 1 0 2h-1a1 1 0 0 1 0-2zm227-6 12 6a1 1 0 0 1 0 2l-12 6a1 1 0 0 1 -1-1v-5h-2a1 1 0 0 1 0-2h2v-5zm-97 6a1 1 0 0 1 0 2h-1a1 1 0 0 1 0-2zm5 0a1 1 0 0 1 0 2h-1a1 1 0 0 1 0-2zm5 0a1 1 0 0 1 0 2h-1a1 1 0 0 1 0-2zm5 0a1 1 0 0 1 0 2h-1a1 1 0 0 1 0-2zm5 0a1 1 0 0 1 0 2h-1a1 1 0 0 1 0-2zm5 0a1 1 0 0 1 0 2h-1a1 1 0 0 1 0-2zm5 0a1 1 0 0 1 0 2h-1a1 1 0 0 1 0-2zm5 0a1 1 0 0 1 0 2h-1a1 1 0 0 1 0-2zm5 0a1 1 0 0 1 0 2h-1a1 1 0 0 1 0-2zm5 0a1 1 0 0 1 0 2h-1a1 1 0 0 1 0-2zm5 0a1 1 0 0 1 0 2h-1a1 1 0 0 1 0-2zm5 0a1 1 0 0 1 0 2h-1a1 1 0 0 1 0-2zm5 0a1 1 0 0 1 0 2h-1a1 1 0 0 1 0-2zm5 0a1 1 0 0 1 0 2h-1a1 1 0 0 1 0-2zm5 0a1 1 0 0 1 0 2h-1a1 1 0 0 1 0-2zm5 0a1 1 0 0 1 0 2h-1a1 1 0 0 1 0-2zm5 0a1 1 0 0 1 0 2h-1a1 1 0 0 1 0-2zm5 0a1 1 0 0 1 0 2h-1a1 1 0 0 1 0-2zm5 0a1 1 0 0 1 0 2h-1a1 1 0 0 1 0-2zm956 199 12 6a1 1 0 0 1 0 2l-12 6a1 1 0 0 1 -1-1v-5h-2a1 1 0 0 1 0-2h2v-5zm-117 6a1 1 0 0 1 0 2h-1a1 1 0 0 1 0-2zm5 0a1 1 0 0 1 0 2h-1a1 1 0 0 1 0-2zm5 0a1 1 0 0 1 0 2h-1a1 1 0 0 1 0-2zm5 0a1 1 0 0 1 0 2h-1a1 1 0 0 1 0-2zm5 0a1 1 0 0 1 0 2h-1a1 1 0 0 1 0-2zm5 0a1 1 0 0 1 0 2h-1a1 1 0 0 1 0-2zm5 0a1 1 0 0 1 0 2h-1a1 1 0 0 1 0-2zm5 0a1 1 0 0 1 0 2h-1a1 1 0 0 1 0-2zm5 0a1 1 0 0 1 0 2h-1a1 1 0 0 1 0-2zm5 0a1 1 0 0 1 0 2h-1a1 1 0 0 1 0-2zm5 0a1 1 0 0 1 0 2h-1a1 1 0 0 1 0-2zm5 0a1 1 0 0 1 0 2h-1a1 1 0 0 1 0-2zm5 0a1 1 0 0 1 0 2h-1a1 1 0 0 1 0-2zm5 0a1 1 0 0 1 0 2h-1a1 1 0 0 1 0-2zm5 0a1 1 0 0 1 0 2h-1a1 1 0 0 1 0-2zm5 0a1 1 0 0 1 0 2h-1a1 1 0 0 1 0-2zm5 0a1 1 0 0 1 0 2h-1a1 1 0 0 1 0-2zm5 0a1 1 0 0 1 0 2h-1a1 1 0 0 1 0-2zm5 0a1 1 0 0 1 0 2h-1a1 1 0 0 1 0-2zm5 0a1 1 0 0 1 0 2h-1a1 1 0 0 1 0-2zm5 0a1 1 0 0 1 0 2h-1a1 1 0 0 1 0-2zm5 0a1 1 0 0 1 0 2h-1a1 1 0 0 1 0-2zm5 0a1 1 0 0 1 0 2h-1a1 1 0 0 1 0-2zm-99 203 1 1v5a1 1 0 0 1 0 2v5a1 1 0 0 1 -1 1l-12-6a1 1 0 0 1 0-2zm6 6a1 1 0 0 1 0 2h-1a1 1 0 0 1 0-2zm5 0a1 1 0 0 1 0 2h-1a1 1 0 0 1 0-2zm5 0a1 1 0 0 1 0 2h-1a1 1 0 0 1 0-2zm5 0a1 1 0 0 1 0 2h-1a1 1 0 0 1 0-2zm5 0a1 1 0 0 1 0 2h-1a1 1 0 0 1 0-2zm5 0a1 1 0 0 1 0 2h-1a1 1 0 0 1 0-2zm5 0a1 1 0 0 1 0 2h-1a1 1 0 0 1 0-2zm5 0a1 1 0 0 1 0 2h-1a1 1 0 0 1 0-2zm5 0a1 1 0 0 1 0 2h-1a1 1 0 0 1 0-2zm5 0a1 1 0 0 1 0 2h-1a1 1 0 0 1 0-2zm5 0a1 1 0 0 1 0 2h-1a1 1 0 0 1 0-2zm5 0a1 1 0 0 1 0 2h-1a1 1 0 0 1 0-2zm5 0a1 1 0 0 1 0 2h-1a1 1 0 0 1 0-2zm5 0a1 1 0 0 1 0 2h-1a1 1 0 0 1 0-2zm5 0a1 1 0 0 1 0 2h-1a1 1 0 0 1 0-2zm5 0a1 1 0 0 1 0 2h-1a1 1 0 0 1 0-2zm5 0a1 1 0 0 1 0 2h-1a1 1 0 0 1 0-2zm5 0a1 1 0 0 1 0 2h-1a1 1 0 0 1 0-2zm5 0a1 1 0 0 1 0 2h-1a1 1 0 0 1 0-2zm5 0a1 1 0 0 1 0 2h-1a1 1 0 0 1 0-2zm5 0a1 1 0 0 1 0 2h-1a1 1 0 0 1 0-2zm5 0a1 1 0 0 1 0 2h-1a1 1 0 0 1 0-2zm5 0a1 1 0 0 1 0 2h-1a1 1 0 0 1 0-2z" fill="#0b0c0c" fill-rule="nonzero"/><path d="m1353 558 16 17-16 16-16-16zm-708 2 16 17-16 16-16-16zm-320 0 16 17-16 16-16-16zm558-2 16 17-16 16-16-16zm118 0 16 17-16 16-16-16zm118 0 16 17-16 16-16-16zm475 0 16 17-16 16-16-16zm220 0 16 17-16 16-16-16zm220 0 16 17-16 16-16-16zm139 0 16 17-16 16-16-16zm221 0 16 17-16 16-16-16zm-2189 2 16 17-16 16-16-16z" fill="#2b8cc4" stroke="#fff" stroke-linecap="round" stroke-linejoin="round" stroke-width="3"/></g></svg>