<svg fill="none" stroke-linecap="square" stroke-miterlimit="10" viewBox="0 0 1525.1 492.4" xmlns="http://www.w3.org/2000/svg" xmlns:xlink="http://www.w3.org/1999/xlink"><clipPath id="a"><path d="m0 0h1525v492.4h-1525z"/></clipPath><g clip-path="url(#a)"><path d="m0 0h1525v492.4h-1525z" fill="none"/><path d="m15.2 7.6h480.5v56.1h-480.5z" fill="none"/><path d="m443.3 149.6 106.3-64 106.2 64-106.2 64z" fill="#fff" fill-rule="evenodd"/><path d="m443.3 149.6 106.3-64 106.2 64-106.2 64z" stroke="#000" stroke-linecap="butt" stroke-linejoin="round"/><path d="m517 129.6 2.6.9q-.6 2.1-2 3.2-1.4 1-3.6 1-2.6 0-4.4-1.7-1.7-1.9-1.7-5 0-3.4 1.8-5.2 1.7-1.8 4.5-1.8 2.4 0 4 1.4.9.8 1.3 2.5l-2.6.6q-.3-1-1-1.6-.8-.7-1.9-.7-1.4 0-2.4 1.1-.9 1-.9 3.5t1 3.6q.8 1 2.3 1 1 0 1.8-.6.8-.7 1.2-2.2zm4.3 0q0-1.3.6-2.5t1.8-1.8q1.1-.7 2.6-.7 2.1 0 3.6 1.5 1.4 1.4 1.4 3.6t-1.5 3.6q-1.4 1.4-3.5 1.4-1.4 0-2.6-.5-1.2-.7-1.8-1.8-.6-1.2-.6-2.8zm2.6 0q0 1.5.7 2.3.7.8 1.7.8t1.6-.8q.7-.8.7-2.2 0-1.5-.7-2.2-.6-.8-1.6-.8t-1.7.8q-.7.7-.7 2.2zm15.7 5v-1.6q-.5.8-1.4 1.2-.8.4-1.8.4t-1.7-.4q-.8-.4-1.2-1.2-.3-.8-.3-2.1v-6.1h2.6v4.4l.1 2.5q.1.5.5.7.4.3 1 .3t1.1-.4q.6-.3.7-.9.2-.5.2-2.6v-4h2.6v9.6h-2.4zm7.5 0h-2.6v-9.7h2.4v1.3q.6-1 1.1-1.2.5-.4 1.1-.4.9 0 1.7.5l-.8 2.3q-.6-.5-1.2-.5-.5 0-.9.3t-.6 1.1q-.2.8-.2 3.2v3zm4-2.8 2.5-.4q.1.7.6 1.1.5.4 1.5.4t1.4-.4q.4-.2.4-.6 0-.3-.2-.5t-.9-.4q-3-.7-3.9-1.2-1.1-.8-1.1-2.2 0-1.3 1-2.1 1-.9 3-.9t3 .7q1 .6 1.3 1.9l-2.4.4q-.1-.5-.6-.8-.4-.3-1.2-.3-1 0-1.5.3-.3.2-.3.5 0 .2.3.4.3.3 2.4.8 2 .4 2.8 1.1.8.7.8 1.9 0 1.3-1 2.3-1.2 1-3.3 1-2 0-3.2-.8-1.1-.9-1.5-2.2zm16.8-.3 2.5.4q-.4 1.4-1.5 2.1-1 .7-2.7.7-2.5 0-3.7-1.6-1-1.3-1-3.3 0-2.4 1.3-3.8t3.2-1.4q2.1 0 3.4 1.5 1.2 1.4 1.2 4.3h-6.4q0 1.2.6 1.8.6.6 1.5.6.6 0 1-.3t.6-1zm.1-2.6q0-1.2-.5-1.7-.6-.6-1.4-.6-.8 0-1.4.6-.5.6-.5 1.7zm9.9-5.4v-2.3h2.5v2.3h-2.4zm0 11v-9.5h2.5v9.6h-2.4zm4.2-2.7 2.6-.4q.2.7.7 1.1.5.4 1.4.4 1 0 1.5-.4.3-.2.3-.6 0-.3-.2-.5l-.8-.4q-3.1-.7-4-1.2-1.1-.8-1.1-2.2 0-1.3 1-2.1 1-.9 3-.9t3 .7q1 .6 1.3 1.9l-2.4.4q-.1-.5-.6-.8-.4-.3-1.2-.3-1 0-1.4.3-.3.2-.3.5l.2.4q.4.3 2.4.8 2 .4 2.9 1.1.8.7.8 1.9 0 1.3-1.1 2.3-1.2 1-3.3 1-2 0-3.2-.8-1.1-.9-1.5-2.2zm-68 13.7v-2.3h2.6v2.3h-2.7zm0 11v-9.5h2.6v9.6h-2.7zm14 0h-2.6v-5l-.1-2q-.2-.4-.6-.6-.3-.3-.9-.3-.6 0-1.2.4-.5.3-.7 1-.2.5-.2 2.2v4.3h-2.5v-9.5h2.4v1.4q1.2-1.7 3.1-1.7.9 0 1.6.4.7.2 1 .7.4.5.5 1.1.2.6.2 1.7v6zm19.8 0h-2.9l-1.2-3h-5.3l-1.1 3h-2.9l5.2-13.3h2.9zm-5-5.3-1.8-5-1.8 5h3.7zm6.4-4.3h2.4v1.4q.4-.8 1.2-1.2.8-.5 1.8-.5 1.7 0 2.8 1.4 1.2 1.3 1.2 3.6 0 2.5-1.2 3.8-1.2 1.3-2.8 1.3-.9 0-1.5-.3-.7-.3-1.4-1v4.8h-2.5v-13.2zm2.5 4.6q0 1.7.6 2.4.7.8 1.6.8 1 0 1.5-.7.6-.7.6-2.3 0-1.6-.6-2.3-.6-.7-1.5-.7-1 0-1.6.7-.6.7-.6 2.1zm8.9-4.6h2.4v1.4q.4-.8 1.2-1.2.8-.5 1.8-.5 1.7 0 2.8 1.4 1.2 1.3 1.2 3.6 0 2.5-1.2 3.8-1.2 1.3-2.8 1.3-.9 0-1.5-.3-.7-.3-1.4-1v4.8h-2.5v-13.2zm2.5 4.6q0 1.7.6 2.4.7.8 1.6.8 1 0 1.5-.7.6-.7.6-2.3 0-1.6-.6-2.3-.6-.7-1.5-.7-1 0-1.6.7-.6.7-.6 2.1zm9 5v-13.3h2.5v13.3h-2.6zm3.9-9.6h2.7l2.3 6.8 2.3-6.8h2.7l-3.5 9.3-.6 1.7-.6 1.2q-.3.5-.7.8l-1 .4q-.6.2-1.3.2l-1.5-.2-.2-2 1.1.1q.9 0 1.3-.5.5-.5.7-1.3zm-44.5 31.6v-13.3h2.6v4.8q1.1-1.4 2.8-1.4 1.7 0 2.9 1.3t1.2 3.7q0 2.5-1.2 3.8-1.2 1.3-2.9 1.3-.8 0-1.6-.4t-1.4-1.2v1.4zm2.5-5q0 1.5.5 2.2.7 1 1.8 1 .8 0 1.4-.7.6-.7.6-2.3 0-1.6-.6-2.4-.6-.7-1.5-.7-1 0-1.5.7-.7.7-.7 2.2zm14.6 2 2.6.4q-.5 1.4-1.6 2.1-1 .7-2.6.7-2.6 0-3.8-1.6-1-1.3-1-3.3 0-2.4 1.3-3.8t3.2-1.4q2.2 0 3.4 1.5 1.3 1.4 1.2 4.3h-6.4q0 1.2.6 1.8.6.6 1.5.6.6 0 1-.3t.6-1zm.2-2.6q0-1.2-.6-1.7-.6-.6-1.3-.6-.9 0-1.4.6-.6.6-.6 1.7zm9-4v2h-1.7v5.3q0 .2.2.3l.5.1 1-.2.2 2q-.9.3-2 .3-.7 0-1.2-.2-.6-.2-.9-.6l-.3-1-.1-1.8v-4.1h-1.2v-2h1.2v-2l2.6-1.5v3.5h1.7zm3.7 3-2.3-.5q.4-1.4 1.3-2 1-.8 2.9-.8 1.7 0 2.5.4.9.5 1.2 1 .4.7.4 2.4v4.8l.5 1.3h-2.5l-.3-.7v-.3q-.7.6-1.5 1-.7.2-1.6.2-1.4 0-2.3-.8-.9-.8-.9-2 0-.8.4-1.5.4-.6 1.1-1l2-.6q1.8-.3 2.5-.6v-.2q0-.8-.3-1.1-.4-.3-1.4-.3-.7 0-1 .3-.5.2-.7 1zm3.4 2-1.5.4-1.4.4q-.5.4-.5 1 0 .5.4.9t1 .4q.7 0 1.3-.5.5-.4.6-.9l.1-1.2z" fill="#000"/><path d="m24.5 79.6h127.7v140h-127.7z" fill="#fff" fill-rule="evenodd"/><path d="m24.5 79.6h127.7v140h-127.7z" stroke="#000" stroke-linecap="butt" stroke-linejoin="round" stroke-width="2"/><path d="m43 130.2 2.5-.3q.3 1.3 1 2 .7.6 2 .6t2-.6q.6-.5.6-1.2 0-.5-.3-.9-.3-.3-1-.5l-2.1-.6q-2.2-.6-3-1.3-1.3-1.1-1.3-2.7 0-1 .6-2 .6-.8 1.6-1.3 1.1-.4 2.7-.4 2.5 0 3.8 1 1.2 1.2 1.3 3l-2.7.1q-.2-1-.8-1.5-.5-.4-1.7-.4-1.1 0-1.8.5-.4.3-.4.8t.4.8q.5.4 2.5.9t2.9 1q1 .5 1.4 1.3.6.9.6 2.1 0 1.2-.7 2.2-.6 1-1.8 1.5-1.1.5-2.9.5-2.5 0-3.9-1.2-1.3-1.2-1.6-3.4zm18.6 1.3 2.6.4q-.5 1.4-1.6 2.1-1 .7-2.6.7-2.5 0-3.8-1.6-1-1.3-1-3.3 0-2.4 1.3-3.8t3.2-1.4q2.2 0 3.4 1.5 1.3 1.4 1.2 4.3h-6.3q0 1.2.6 1.8.6.6 1.5.6.6 0 1-.3t.6-1zm.2-2.6q0-1.2-.6-1.7-.5-.6-1.3-.6-.9 0-1.4.6-.6.6-.5 1.7zm6.5-1-2.3-.5q.4-1.4 1.3-2 1-.8 2.9-.8 1.7 0 2.5.4.9.5 1.2 1 .3.7.3 2.4v3l.1 1.8.5 1.3h-2.5l-.3-.7v-.3q-.7.6-1.5 1-.7.2-1.6.2-1.4 0-2.3-.8-.9-.8-.9-2 0-.8.4-1.5.4-.6 1.1-1l2-.6q1.8-.3 2.5-.6v-.2q0-.8-.3-1.1-.4-.3-1.4-.3-.7 0-1 .3-.5.2-.7 1zm3.4 2-1.5.4-1.4.4q-.5.4-.5 1 0 .5.4.9t1 .4q.7 0 1.3-.5.5-.4.6-.9l.1-1.2zm7.5 4.6h-2.5v-9.5h2.3v1.3q.7-1 1.1-1.2.5-.4 1.1-.4 1 0 1.7.5l-.8 2.3q-.6-.5-1.2-.5-.5 0-.9.3-.3.3-.6 1.1-.2.8-.2 3.2v3zm13.3-6.8-2.6.5q0-.8-.5-1.2-.5-.3-1.2-.3-1 0-1.5.6-.6.7-.6 2.2 0 1.7.6 2.5.6.7 1.5.7.8 0 1.2-.5.5-.4.7-1.4l2.5.4q-.4 1.8-1.5 2.7-1.1.8-3 .8-2.1 0-3.4-1.3-1.2-1.3-1.2-3.7 0-2.4 1.2-3.7 1.3-1.4 3.5-1.4 1.7 0 2.8.8 1 .8 1.5 2.3zm4.5-6.5v4.9q1.2-1.5 3-1.5.8 0 1.5.4.7.3 1 .8.4.5.6 1.1l.1 2v5.6h-2.5v-5q0-1.6-.2-2-.1-.4-.5-.7-.4-.2-1-.2t-1 .3q-.6.3-.8 1-.2.6-.2 1.8v4.8h-2.6v-13.3zm12.9 3.7h1.4v-.8q0-1.2.2-1.8.3-.6 1-1 .7-.3 1.8-.3 1 0 2.1.3l-.3 1.8-1.2-.2q-.6 0-.8.3-.2.2-.2 1v.7h1.9v2h-2v7.6h-2.5v-7.5h-1.4v-2zm6.7 4.7q0-1.3.6-2.5.7-1.2 1.8-1.8 1.2-.7 2.6-.7 2.2 0 3.6 1.5 1.4 1.4 1.4 3.6t-1.4 3.6q-1.4 1.4-3.6 1.4-1.3 0-2.5-.5-1.2-.7-1.9-1.8-.6-1.2-.6-2.8zm2.6 0q0 1.5.7 2.3.7.8 1.7.8t1.7-.8q.7-.8.7-2.2 0-1.5-.7-2.2-.7-.8-1.7-.8t-1.7.8q-.7.7-.7 2.2zm11.9 5h-2.6v-9.7h2.4v1.3q.6-1 1-1.2.5-.4 1.2-.4.8 0 1.7.5l-.8 2.3q-.7-.5-1.2-.5-.6 0-1 .3-.3.3-.5 1.1t-.2 3.2v3zm-77.5 15.1-2.5.5q-.2-.8-.6-1.2-.5-.3-1.2-.3-1 0-1.5.6-.6.7-.6 2.2 0 1.7.6 2.5.6.7 1.5.7.8 0 1.2-.5.5-.4.7-1.4l2.5.4q-.4 1.8-1.5 2.7-1.1.8-3 .8-2.1 0-3.4-1.3-1.2-1.3-1.2-3.7 0-2.4 1.3-3.7 1.2-1.4 3.4-1.4 1.7 0 2.8.8 1 .8 1.5 2.3zm1.3 1.9q0-1.3.7-2.5.6-1.2 1.7-1.8 1.2-.7 2.6-.7 2.2 0 3.6 1.5 1.4 1.4 1.4 3.6t-1.4 3.6q-1.4 1.4-3.6 1.4-1.3 0-2.5-.5-1.2-.7-1.8-1.8-.7-1.2-.7-2.8zm2.7 0q0 1.5.6 2.3.7.8 1.7.8t1.7-.8q.7-.8.7-2.2 0-1.5-.7-2.2-.7-.8-1.7-.8t-1.7.8q-.6.7-.6 2.2zm15.7 5v-1.6q-.6.8-1.4 1.2-.9.4-1.8.4-1 0-1.8-.4-.7-.4-1.1-1.2-.3-.8-.3-2.1v-6.1h2.5v4.4q0 2 .2 2.5.1.5.5.7.4.3 1 .3t1.1-.4q.5-.3.7-.9.2-.5.2-2.6v-4h2.6v9.6h-2.4zm7.5 0h-2.6v-9.7h2.4v1.3q.6-1 1-1.2.6-.4 1.2-.4.9 0 1.7.5l-.8 2.3q-.7-.5-1.2-.5-.6 0-1 .3-.3.3-.5 1.1t-.2 3.2v3zm3.9-2.8 2.5-.4q.2.7.7 1.1.5.4 1.4.4 1 0 1.5-.4.3-.2.3-.6l-.1-.5q-.2-.2-1-.4-3-.7-3.8-1.2-1.2-.8-1.2-2.2 0-1.3 1-2.1 1-.9 3-.9t3 .7q1 .6 1.4 1.9l-2.4.4q-.2-.5-.6-.8-.4-.3-1.3-.3-1 0-1.4.3-.3.2-.3.5 0 .2.3.4.3.3 2.3.8 2 .4 2.9 1.1.8.7.8 1.9 0 1.3-1.1 2.3-1.1 1-3.3 1-2 0-3.1-.8-1.2-.9-1.5-2.2zm16.8-.3 2.6.4q-.5 1.4-1.6 2.1-1 .7-2.6.7-2.5 0-3.7-1.6-1-1.3-1-3.3 0-2.4 1.3-3.8 1.2-1.4 3.1-1.4 2.2 0 3.4 1.5 1.3 1.4 1.2 4.3h-6.4q0 1.2.6 1.8.6.6 1.5.6.6 0 1-.3t.6-1zm.2-2.6q0-1.2-.6-1.7-.5-.6-1.3-.6t-1.4.6q-.5.6-.5 1.7zm9.2.7q0-1.3.6-2.5.7-1.2 1.8-1.8 1.2-.7 2.6-.7 2.2 0 3.6 1.5 1.4 1.4 1.4 3.6t-1.4 3.6q-1.4 1.4-3.6 1.4-1.3 0-2.5-.5-1.2-.7-1.9-1.8-.6-1.2-.6-2.8zm2.6 0q0 1.5.7 2.3.7.8 1.7.8t1.7-.8q.7-.8.7-2.2 0-1.5-.7-2.2-.7-.8-1.7-.8t-1.7.8q-.7.7-.7 2.2zm18.2 5h-2.6v-5l-.1-2q-.2-.5-.6-.7-.3-.3-.8-.3-.7 0-1.2.4-.6.3-.8 1-.2.5-.2 2.2v4.3h-2.4v-9.5h2.4v1.4q1.2-1.7 3.2-1.7.8 0 1.5.4.7.2 1 .7.4.5.6 1.1l.1 1.7v6zm-61.7 21.9v-13.3h9.2v2.2h-6.4v3.2h5.5v2.3h-5.5v5.6zm11.4-11v-2.3h2.6v2.3zm0 11v-9.5h2.6v9.6h-2.6zm14 0h-2.4v-5q0-1.5-.2-2-.2-.4-.6-.6-.3-.3-.8-.3-.7 0-1.2.4-.6.3-.8 1-.2.5-.2 2.2v4.3h-2.5v-9.5h2.3v1.4q1.2-1.7 3.2-1.7.8 0 1.5.4.7.2 1 .7.4.5.6 1.1l.1 1.7v6zm11.5 0h-2.4v-1.4q-.6.8-1.4 1.2-.8.4-1.6.4-1.7 0-2.9-1.3t-1.2-3.7q0-2.5 1.2-3.8 1.1-1.3 3-1.3 1.5 0 2.7 1.4v-4.8h2.6zm-6.9-5q0 1.5.5 2.2.6 1 1.7 1 .9 0 1.5-.7.6-.8.6-2.3 0-1.6-.6-2.4-.6-.7-1.5-.7-1 0-1.5.7-.7.7-.7 2.2z" fill="#000"/><path d="m187.8 79.6h127.7v140h-127.7z" fill="#fff" fill-rule="evenodd"/><path d="m187.8 79.6h127.7v140h-127.7z" stroke="#000" stroke-linecap="butt" stroke-linejoin="round" stroke-width="2"/><path d="m229.4 140.6 2.7.9q-.6 2.1-2 3.2-1.4 1-3.6 1-2.6 0-4.4-1.7-1.7-1.9-1.7-5 0-3.4 1.7-5.2 1.8-1.8 4.6-1.8 2.4 0 4 1.4.9.8 1.3 2.5l-2.6.6q-.3-1-1-1.6-.8-.7-1.9-.7-1.4 0-2.4 1.1-1 1-1 3.5t1 3.6q1 1 2.4 1 1 0 1.8-.6.8-.7 1.1-2.2zm4.4 0q0-1.3.6-2.5t1.8-1.8q1.1-.7 2.5-.7 2.2 0 3.6 1.5 1.4 1.4 1.4 3.6t-1.4 3.6q-1.4 1.4-3.5 1.4-1.4 0-2.6-.5-1.2-.7-1.8-1.8-.6-1.2-.6-2.8zm2.6 0q0 1.5.7 2.3.6.8 1.6.8t1.7-.8q.7-.8.7-2.2 0-1.5-.7-2.2-.7-.8-1.7-.8t-1.6.8q-.7.7-.7 2.2zm15.7 5v-1.6q-.5.8-1.4 1.2-.8.4-1.8.4t-1.7-.4q-.8-.4-1.2-1.2-.3-.8-.3-2.1v-6.1h2.6v6.9q.2.5.6.7.4.3 1 .3t1.1-.4q.5-.3.7-.9.2-.5.2-2.6v-4h2.6v9.6h-2.5zm7.5 0h-2.6v-9.7h2.4v1.3q.6-1 1.1-1.2.5-.4 1.1-.4.9 0 1.7.5l-.8 2.3q-.6-.5-1.2-.5-.5 0-.9.3t-.6 1.1q-.2.8-.2 3.2v3zm3.9-2.8 2.6-.4q.1.7.6 1.1.5.4 1.4.4 1 0 1.5-.4.4-.2.4-.6 0-.3-.2-.5t-.9-.4q-3-.7-3.9-1.2-1.1-.8-1.1-2.2 0-1.3 1-2.1 1-.9 3-.9t3 .7q1 .6 1.3 1.9l-2.4.4q-.2-.5-.6-.8-.4-.3-1.2-.3-1 0-1.5.3-.3.2-.3.5 0 .2.3.4.3.3 2.4.8 2 .4 2.8 1.1.8.7.8 1.9 0 1.3-1 2.3-1.2 1-3.4 1-2 0-3.1-.8-1.1-.9-1.5-2.2zm16.9-.3 2.5.4q-.5 1.4-1.5 2.1-1 .7-2.7.7-2.5 0-3.7-1.6-1-1.3-1-3.3 0-2.4 1.3-3.8 1.2-1.4 3.2-1.4 2.1 0 3.4 1.5 1.2 1.4 1.2 4.3h-6.4q0 1.2.6 1.8.6.6 1.5.6.5 0 1-.3.4-.3.6-1zm.1-2.6q0-1.2-.5-1.7-.6-.6-1.4-.6-.8 0-1.4.6-.5.6-.5 1.7zm-49.3 18h2.4v1.4q.4-.8 1.2-1.2.8-.5 1.8-.5 1.7 0 2.8 1.4 1.2 1.3 1.2 3.6 0 2.5-1.2 3.8-1.2 1.3-2.8 1.3-.9 0-1.5-.3t-1.4-1v4.8h-2.5v-13.2zm2.5 4.6q0 1.7.6 2.4.7.8 1.6.8 1 0 1.5-.7.6-.7.6-2.3 0-1.6-.6-2.3-.6-.7-1.5-.7-1 0-1.6.7-.6.7-.6 2.1zm10.9-1.7-2.4-.4q.4-1.4 1.4-2 1-.8 2.8-.8 1.7 0 2.6.4.8.5 1.1 1 .4.7.4 2.4v4.8l.6 1.3h-2.6l-.2-.7-.1-.3-1.4 1-1.6.2q-1.5 0-2.4-.8-.8-.8-.8-2 0-.8.4-1.5.4-.6 1-1l2-.6q1.9-.3 2.6-.6v-.2q0-.8-.4-1.1-.3-.3-1.4-.3-.6 0-1 .3-.4.2-.6 1zm3.4 2-1.6.5-1.4.4q-.5.4-.5 1 0 .5.4.9t1 .4q.7 0 1.4-.5.4-.4.6-.9v-1.6zm4.8 5.4 3 .3q0 .5.2.7.4.3 1.2.3 1 0 1.5-.3.3-.2.5-.7l.1-1.1v-1.4q-1.1 1.5-2.9 1.5-2 0-3-1.6-1-1.3-1-3.3 0-2.4 1.2-3.7 1.2-1.3 3-1.3 1.7 0 2.9 1.6v-1.2h2.4v8.6q0 1.7-.3 2.6-.3.8-.8 1.3t-1.4.8q-.8.3-2.1.3-2.5 0-3.5-.9-1-.8-1-2.1v-.3zm2.3-5.7q0 1.5.6 2.2.6.8 1.4.8 1 0 1.6-.8.7-.7.7-2.1 0-1.6-.7-2.3-.6-.7-1.5-.7-1 0-1.5.7-.6.7-.6 2.2zm15 2 2.5.4q-.5 1.4-1.6 2.1-1 .7-2.6.7-2.6 0-3.8-1.6-1-1.3-1-3.3 0-2.4 1.3-3.8t3.2-1.4q2.2 0 3.4 1.5 1.3 1.4 1.2 4.3h-6.4q0 1.2.6 1.8.6.6 1.5.6.6 0 1-.3t.6-1zm0-2.6q0-1.2-.5-1.7-.6-.6-1.3-.6-.9 0-1.4.6-.6.6-.6 1.7h3.9z" fill="#000"/><path d="m153.6 149.6h34.2" fill="none"/><path d="m153.6 149.6h28.2" stroke="#000" stroke-linecap="butt" stroke-linejoin="round"/><path d="m181.8 151.3 4.6-1.7-4.6-1.6z" fill="#000" fill-rule="evenodd" stroke="#000" stroke-linecap="butt"/><path d="m1009.1 149.6 106.3-64 106.3 64-106.3 64z" fill="#fff" fill-rule="evenodd"/><path d="m1009.1 149.6 106.3-64 106.3 64-106.3 64z" stroke="#000" stroke-linecap="butt" stroke-linejoin="round"/><path d="m1091 129.6 2.7.9q-.6 2.1-2 3.2-1.4 1-3.5 1-2.7 0-4.4-1.7-1.7-1.9-1.7-5 0-3.4 1.7-5.2 1.7-1.8 4.5-1.8 2.5 0 4 1.4 1 .8 1.4 2.5l-2.7.6q-.2-1-1-1.6-.7-.7-1.8-.7-1.5 0-2.4 1.1-1 1-1 3.5t1 3.6q.9 1 2.3 1 1.1 0 1.9-.6.8-.7 1-2.2zm7.6-8.4v4.9q1.2-1.5 2.9-1.5.9 0 1.6.4.7.3 1 .8.4.5.6 1.1l.1 2v5.6h-2.6v-5l-.1-2-.5-.7q-.4-.2-1-.2t-1 .3q-.6.3-.8 1-.2.6-.2 1.8v4.8h-2.6v-13.3zm8.2 8.4q0-1.3.6-2.5.7-1.2 1.8-1.8 1.2-.7 2.6-.7 2.2 0 3.6 1.5 1.4 1.4 1.4 3.6t-1.4 3.6q-1.5 1.4-3.6 1.4-1.3 0-2.5-.5-1.2-.7-1.9-1.8-.6-1.2-.6-2.8zm2.6 0q0 1.5.7 2.3.7.8 1.7.8t1.7-.8q.7-.8.7-2.2 0-1.5-.7-2.2-.7-.8-1.7-.8t-1.7.8q-.7.7-.7 2.2zm8.8 0q0-1.3.6-2.5.7-1.2 1.8-1.8 1.2-.7 2.6-.7 2.2 0 3.6 1.5 1.4 1.4 1.4 3.6t-1.4 3.6q-1.5 1.4-3.6 1.4-1.3 0-2.5-.5-1.2-.7-1.9-1.8-.6-1.2-.6-2.8zm2.6 0q0 1.5.7 2.3.7.8 1.7.8t1.7-.8q.6-.8.6-2.2 0-1.5-.6-2.2-.7-.8-1.7-.8t-1.7.8q-.7.7-.7 2.2zm8.5 2.2 2.5-.4q.2.7.7 1.1.5.4 1.4.4 1 0 1.5-.4.4-.2.4-.6 0-.3-.2-.5t-.9-.4q-3-.7-4-1.2-1-.8-1-2.2 0-1.3 1-2.1 1-.9 3-.9t3 .7q1 .6 1.3 1.9l-2.4.4q-.2-.5-.6-.8-.4-.3-1.2-.3-1 0-1.5.3-.3.2-.3.5 0 .2.3.4.3.3 2.4.8 2 .4 2.8 1.1.8.7.8 1.9 0 1.3-1 2.3-1.2 1-3.4 1-2 0-3.1-.8-1.2-.9-1.5-2.2zm16.9-.3 2.5.4q-.5 1.4-1.5 2.1-1.1.7-2.7.7-2.5 0-3.7-1.6-1-1.3-1-3.3 0-2.4 1.3-3.8 1.2-1.4 3.2-1.4 2.1 0 3.4 1.5 1.2 1.4 1.1 4.3h-6.4q0 1.2.7 1.8.5.6 1.4.6.6 0 1-.3.5-.3.7-1zm.1-2.6q0-1.2-.6-1.7-.5-.6-1.3-.6t-1.4.6q-.5.6-.5 1.7zm-38.9 27.6h-2.6v-5l-.1-2q-.2-.4-.6-.6-.3-.3-.8-.3-.7 0-1.3.4-.5.3-.7 1-.2.5-.2 2.2v4.3h-2.5v-9.5h2.4v1.4q1.2-1.7 3.1-1.7.9 0 1.6.4.7.2 1 .7.4.5.6 1.1v7.7zm8.2-3 2.5.4q-.5 1.4-1.5 2.1-1 .7-2.7.7-2.5 0-3.7-1.6-1-1.3-1-3.3 0-2.4 1.3-3.8t3.2-1.4q2.1 0 3.4 1.5 1.2 1.4 1.2 4.3h-6.4q0 1.2.6 1.8.6.6 1.5.6.6 0 1-.3t.6-1zm.1-2.6q0-1.2-.5-1.7-.6-.6-1.4-.6-.8 0-1.4.6-.5.6-.5 1.7zm6.5 5.6-3.1-9.6h2.5l1.8 6.3 1.7-6.3h2.4l1.6 6.3 2-6.3h2.4l-3 9.6h-2.5l-1.7-6.2-1.7 6.2zm-38.5 19.3 2.5-.4q.2.7.7 1.1.5.4 1.4.4 1 0 1.5-.4.3-.2.3-.6l-.1-.5q-.2-.2-1-.4-3-.7-3.8-1.2-1.2-.8-1.2-2.2 0-1.3 1-2.1 1-.9 3-.9t3 .7q1 .6 1.4 1.9l-2.4.4q-.2-.5-.6-.8-.4-.3-1.3-.3-1 0-1.4.3-.3.2-.3.5 0 .2.3.4.3.3 2.3.8 2 .4 2.9 1.1.8.7.8 1.9 0 1.3-1.1 2.3-1.1 1-3.3 1-2 0-3.1-.8-1.2-.9-1.5-2.2zm16.8-.3 2.6.4q-.5 1.4-1.6 2.1-1 .7-2.6.7-2.5 0-3.7-1.6-1-1.3-1-3.3 0-2.4 1.3-3.8 1.2-1.4 3.1-1.4 2.2 0 3.4 1.5 1.3 1.4 1.2 4.3h-6.4q0 1.2.6 1.8.6.6 1.5.6.6 0 1-.3t.6-1zm.2-2.6q0-1.2-.6-1.7-.5-.6-1.3-.6t-1.4.6q-.5.6-.5 1.7zm7 5.6h-2.5v-9.5h2.4v1.3q.6-1 1-1.2.6-.4 1.2-.4.9 0 1.7.5l-.8 2.3q-.7-.5-1.2-.5t-1 .3q-.3.3-.5 1.1t-.2 3.2v3zm7.5 0-3.9-9.6h2.7l1.9 4.9.5 1.6.3-.8.2-.8 1.9-5h2.6l-3.9 9.7zm7.8-11v-2.3h2.5v2.3zm0 11v-9.5h2.5v9.6h-2.5zm13.6-6.8-2.5.5q-.2-.8-.6-1.2-.5-.3-1.2-.3-1 0-1.5.6-.6.7-.6 2.2 0 1.7.6 2.5.6.7 1.5.7.8 0 1.2-.5.5-.4.7-1.4l2.5.4q-.4 1.8-1.5 2.7-1.1.8-3 .8-2.1 0-3.4-1.3-1.2-1.3-1.2-3.7 0-2.4 1.3-3.7 1.2-1.4 3.4-1.4 1.7 0 2.8.8 1 .8 1.5 2.3zm7.5 3.8 2.6.4q-.5 1.4-1.6 2.1-1 .7-2.6.7-2.6 0-3.8-1.6-1-1.3-1-3.3 0-2.4 1.3-3.8t3.2-1.4q2.2 0 3.4 1.5 1.3 1.4 1.2 4.3h-6.4q0 1.2.6 1.8.6.6 1.5.6.6 0 1-.3t.6-1zm.2-2.6q0-1.2-.6-1.7-.6-.6-1.3-.6-.9 0-1.4.6-.6.6-.6 1.7z" fill="#000"/><path d="m631.8 94.6h75.7v46h-75.7z" fill="none"/><path d="m645.7 121.5v-5.5l-5-7.7h3.2l3.2 5.2 3-5.2h3.2l-5 7.7v5.6h-2.6zm14.5-3 2.5.4q-.5 1.4-1.5 2.1-1 .7-2.7.7-2.5 0-3.7-1.6-1-1.3-1-3.3 0-2.5 1.3-3.8 1.3-1.4 3.2-1.4 2.1 0 3.4 1.5 1.2 1.4 1.2 4.3h-6.4q0 1.2.6 1.8.6.6 1.5.6.6 0 1-.3t.6-1zm.1-2.7q0-1-.5-1.6-.6-.6-1.4-.6-.8 0-1.4.6-.5.6-.5 1.6zm3.8 3 2.5-.4q.2.7.7 1.1.5.4 1.4.4 1 0 1.5-.4.3-.2.3-.7l-.2-.4q-.1-.2-.8-.4-3.1-.7-4-1.2-1-.8-1-2.2 0-1.3.9-2.1 1-.9 3-.9t3 .7q1 .6 1.4 1.9l-2.4.4q-.2-.5-.6-.8-.5-.3-1.3-.3-1 0-1.4.3-.3.2-.3.5l.2.4q.4.3 2.4.8 2 .4 2.9 1.1.8.7.8 1.9 0 1.3-1.1 2.3-1.1 1-3.3 1-2 0-3.1-.9-1.2-.8-1.5-2.1z" fill="#000"/><path d="m457.8 218.6h75.7v46h-75.7z" fill="none"/><path d="m501 245.6v-13.4h2.7l5.4 9v-9h2.5v13.4h-2.6l-5.4-8.8v8.8zm12.9-5q0-1.3.6-2.5t1.8-1.8q1.1-.6 2.6-.6 2.1 0 3.5 1.4 1.5 1.4 1.5 3.6t-1.5 3.6q-1.4 1.5-3.5 1.5-1.4 0-2.6-.6-1.2-.6-1.8-1.8-.6-1.2-.6-2.8zm2.6.1q0 1.5.7 2.2.7.8 1.7.8t1.6-.8q.7-.7.7-2.2 0-1.4-.7-2.2-.6-.8-1.6-.8t-1.7.8q-.7.8-.7 2.2z" fill="#000"/><path d="m318.9 94.6h121v46h-120.9z" fill="none"/><path d="m337.8 116.6 2.6.8q-.6 2.2-2 3.3-1.4 1-3.6 1-2.6 0-4.3-1.8-1.7-1.8-1.7-5 0-3.3 1.7-5.1 1.7-1.9 4.5-1.9 2.4 0 4 1.5.9.8 1.4 2.4l-2.7.7q-.3-1-1-1.7-.8-.6-1.8-.6-1.5 0-2.5 1.1-.9 1-.9 3.5t1 3.6q.9 1 2.3 1 1 0 1.8-.6.8-.7 1.2-2.2zm4.9 5v-13.4h2.5v13.3h-2.5zm5.2-11v-2.4h2.5v2.3h-2.4zm0 11v-9.8h2.5v9.7h-2.4zm13.6-6.9-2.5.5q-.2-.8-.6-1.2-.5-.4-1.2-.4-1 0-1.5.7-.6.7-.6 2.2 0 1.7.6 2.4t1.5.7q.8 0 1.2-.4.5-.4.7-1.4l2.5.4q-.4 1.8-1.5 2.7-1.1.8-3 .8-2.1 0-3.4-1.3-1.2-1.3-1.2-3.7 0-2.4 1.3-3.7 1.2-1.4 3.4-1.4 1.7 0 2.8.8 1 .7 1.5 2.3zm1.8 6.8v-13.3h2.6v7l3-3.4h3.1l-3.3 3.6 3.6 6.1h-2.8l-2.4-4.3-1.2 1.2v3.1zm17.6-6.7-2.3-.4q.4-1.4 1.3-2.1 1-.7 2.9-.7 1.7 0 2.5.4.9.4 1.2 1 .3.7.3 2.3v3l.1 2 .5 1.2h-2.5l-.3-.7v-.3q-.7.6-1.5 1-.7.2-1.6.2-1.5 0-2.3-.8-.9-.8-.9-2 0-.8.4-1.5.4-.6 1.1-1l2-.6q1.8-.3 2.5-.6v-.2q0-.8-.3-1.1-.4-.3-1.4-.3-.7 0-1.1.3-.4.2-.6.9zm3.4 2-1.5.5q-1.1.2-1.4.4-.5.4-.5 1 0 .4.4.9.4.3 1 .3.7 0 1.3-.4.5-.4.6-.9l.1-1.2v-.5zm5-5h2.4v1.5q.4-.8 1.2-1.2.8-.5 1.8-.5 1.7 0 2.8 1.4 1.2 1.3 1.2 3.6 0 2.5-1.2 3.8-1.2 1.3-2.8 1.3-.8 0-1.5-.3-.6-.3-1.4-1v4.8h-2.5zm2.5 4.7q0 1.6.7 2.4.6.8 1.5.8 1 0 1.5-.7.6-.7.6-2.4 0-1.5-.6-2.2-.6-.8-1.5-.8-1 0-1.6.8-.6.7-.6 2.1zm8.9-4.7h2.4v1.5q.4-.8 1.2-1.2.8-.5 1.8-.5 1.7 0 2.8 1.4 1.2 1.3 1.2 3.6 0 2.5-1.2 3.8-1.2 1.3-2.8 1.3-.8 0-1.5-.3-.6-.3-1.4-1v4.8h-2.5zm2.5 4.7q0 1.6.7 2.4.6.8 1.5.8 1 0 1.5-.7.6-.7.6-2.4 0-1.5-.6-2.2-.6-.8-1.5-.8-1 0-1.6.8-.6.7-.6 2.1zm9 5v-13.3h2.5v13.3zm4-9.7h2.6l2.4 7 2.2-7h2.7l-3.5 9.4-.6 1.6q-.3.9-.6 1.3-.3.5-.7.7l-1 .5-1.3.1-1.4-.1-.3-2 1.1.1q1 0 1.3-.5.5-.5.7-1.3l-3.7-9.8z" fill="#000"/><path d="m315.5 149.6h127.8" fill="none"/><path d="m315.5 149.6h121.8" stroke="#000" stroke-linecap="butt" stroke-linejoin="round"/><path d="m437.3 151.3 4.5-1.7-4.5-1.6z" fill="#000" fill-rule="evenodd" stroke="#000" stroke-linecap="butt"/><path d="m774 279h127.6v140.1h-127.6z" fill="#fff" fill-rule="evenodd"/><path d="m774 279h127.6v140.1h-127.6z" stroke="#000" stroke-linecap="butt" stroke-linejoin="round" stroke-width="2"/><path d="m811.3 345h-3l-1.1-3h-5.4l-1 3h-3l5.3-13.4h2.8zm-5-5.3-1.8-5-1.8 5zm6.3-4.4h2.4v1.5q.5-.8 1.2-1.2.8-.5 1.8-.5 1.7 0 2.9 1.3 1.1 1.4 1.1 3.7 0 2.4-1.1 3.8-1.2 1.3-2.9 1.3-.8 0-1.5-.3-.6-.3-1.3-1v4.8h-2.6zm2.5 4.7q0 1.6.7 2.4.6.8 1.6.8.9 0 1.4-.7.6-.7.6-2.4 0-1.5-.6-2.2-.6-.8-1.5-.8-1 0-1.6.8-.6.7-.6 2.1zm8.9-4.7h2.4v1.5q.5-.8 1.2-1.2.8-.5 1.8-.5 1.7 0 2.9 1.3 1.1 1.4 1.1 3.7 0 2.4-1.1 3.8-1.2 1.3-3 1.3-.7 0-1.4-.3-.6-.3-1.3-1v4.8h-2.6zm2.5 4.7q0 1.6.7 2.4.6.8 1.6.8.9 0 1.4-.7.6-.7.6-2.4 0-1.5-.6-2.2-.6-.8-1.5-.8-1 0-1.6.8-.6.7-.6 2.1zm9 5v-13.4h2.5v13.4zm4-9.7h2.7l2.3 6.9 2.2-6.9h2.7l-3.4 9.3-.6 1.7-.7 1.3q-.3.5-.7.7l-1 .5-1.3.1-1.4-.1-.2-2h1q1 0 1.4-.4.4-.6.6-1.4l-3.7-9.7zm16.1 4.7q0-1.2.6-2.4.7-1.2 1.8-1.9 1.2-.6 2.6-.6 2.2 0 3.6 1.4 1.4 1.5 1.4 3.6 0 2.2-1.4 3.7-1.4 1.4-3.6 1.4-1.3 0-2.5-.6t-1.9-1.7q-.6-1.2-.6-2.9zm2.6.2q0 1.4.7 2.2.7.7 1.7.7t1.7-.7q.7-.8.7-2.3 0-1.4-.7-2.1-.7-.8-1.7-.8t-1.7.8q-.7.7-.7 2.2zm18.2 4.8h-2.6v-5l-.1-2q-.2-.4-.6-.7-.3-.2-.8-.2-.7 0-1.2.3-.6.4-.8 1-.2.6-.2 2.2v4.4h-2.5v-9.7h2.4v1.5q1.2-1.7 3.2-1.7.8 0 1.5.3t1 .8l.6 1 .1 1.8zm-88.1 8.6h2.7v7.3l.1 2.2q.2.8.8 1.3.7.5 1.8.5 1.2 0 1.7-.4.6-.5.7-1.2.2-.7.2-2.3v-7.4h2.7v7q0 2.5-.3 3.5-.2 1-.8 1.6-.6.7-1.5 1.1-1 .4-2.6.4-2 0-3-.4-.9-.5-1.5-1.2-.5-.7-.7-1.4-.3-1.2-.3-3.4zm22 8.5 2.7.8q-.6 2.2-2 3.3-1.4 1-3.6 1-2.6 0-4.4-1.8-1.7-1.8-1.7-5 0-3.3 1.8-5.1 1.7-1.9 4.5-1.9 2.4 0 4 1.5.9.8 1.3 2.4l-2.6.7q-.3-1-1-1.7-.8-.6-1.9-.6-1.4 0-2.4 1.1-.9 1-.9 3.4 0 2.6 1 3.6.8 1.1 2.3 1.1 1 0 1.8-.6.8-.7 1.2-2.2zm17 4.9h-3l-1-3h-5.4l-1.1 3h-2.9l5.2-13.4h2.9zm-5-5.3-1.8-5-1.8 5h3.7zm5.8 1 2.6-.3q.2 1.3 1 2 .7.6 2 .6 1.2 0 1.9-.6.6-.5.6-1.3 0-.5-.2-.8-.3-.3-1-.6l-2.2-.5q-2.1-.6-3-1.4-1.3-1-1.3-2.7 0-1 .6-1.9.6-.9 1.7-1.3 1-.5 2.6-.5 2.5 0 3.8 1.1 1.3 1.1 1.3 3h-2.7q-.1-1-.7-1.4-.6-.4-1.7-.4-1.2 0-1.9.4-.4.3-.4.9 0 .4.4.8.5.4 2.5.9 2 .4 3 1 .9.4 1.4 1.3.5.8.5 2.1 0 1.2-.6 2.2-.7 1-1.8 1.5-1.2.4-3 .4-2.5 0-3.8-1.1-1.4-1.2-1.6-3.4zm18.2-5.4h2.4v1.5q.4-.8 1.2-1.2.8-.5 1.8-.5 1.7 0 2.8 1.3 1.2 1.4 1.2 3.7 0 2.4-1.2 3.8-1.2 1.3-2.8 1.3-.8 0-1.5-.3-.6-.3-1.4-1v4.8h-2.5zm2.5 4.7q0 1.6.7 2.4.6.8 1.5.8 1 0 1.5-.7.6-.7.6-2.4 0-1.5-.6-2.2-.6-.8-1.5-.8-1 0-1.6.8-.6.7-.6 2.1zm10.9-1.7-2.4-.4q.4-1.4 1.4-2.1 1-.7 2.8-.7 1.7 0 2.6.4.8.4 1.2 1 .3.7.3 2.3v5l.6 1.2h-2.6l-.2-.7-.1-.4q-.7.7-1.4 1-.8.3-1.6.3-1.5 0-2.4-.8-.8-.8-.8-2 0-.9.4-1.5t1-1l2.1-.6q1.8-.3 2.5-.6v-.3q0-.7-.4-1-.3-.3-1.3-.3-.7 0-1.1.2-.4.3-.6 1zm3.4 2-1.6.5-1.4.4q-.5.4-.5.9t.4 1q.4.3 1 .3.8 0 1.4-.4.5-.4.6-.9v-1.7zm4.8 5.3 3 .4q0 .5.2.7.4.3 1.2.3 1 0 1.5-.3.3-.2.5-.7l.1-1.2v-1.4q-1.1 1.6-2.9 1.6-2 0-3-1.7-1-1.2-1-3.2 0-2.4 1.2-3.7 1.2-1.3 3-1.3 1.7 0 2.9 1.6v-1.4h2.4v8.7q0 1.7-.3 2.6-.3.8-.8 1.3t-1.3.7q-.9.3-2.2.3-2.5 0-3.5-.8-1-.9-1-2.1zm2.3-5.6q0 1.5.6 2.2.6.7 1.4.7 1 0 1.6-.7.7-.7.7-2.2 0-1.5-.6-2.2-.7-.7-1.6-.7-1 0-1.5.7-.6.7-.6 2.2zm15 2 2.5.3q-.5 1.5-1.6 2.2-1 .7-2.6.7-2.5 0-3.8-1.6-1-1.3-1-3.4 0-2.4 1.3-3.7 1.3-1.4 3.2-1.4 2.2 0 3.4 1.4 1.3 1.5 1.2 4.4h-6.4q0 1.2.6 1.8.6.6 1.5.6.6 0 1-.3t.6-1zm0-2.7q0-1-.5-1.7-.5-.5-1.3-.5-.9 0-1.4.6-.6.6-.5 1.6h3.8z" fill="#000"/><path d="m774 79.6h127.6v140h-127.6z" fill="#fff" fill-rule="evenodd"/><path d="m774 79.6h127.6v140h-127.6z" stroke="#000" stroke-linecap="butt" stroke-linejoin="round" stroke-width="2"/><path d="m813.5 129.6 2.6.9q-.6 2.2-2 3.2t-3.6 1q-2.6 0-4.3-1.7-1.7-1.9-1.7-5 0-3.3 1.7-5.2 1.7-1.8 4.5-1.8 2.4 0 4 1.4.9.9 1.3 2.5l-2.6.6q-.3-1-1-1.6-.8-.6-1.8-.6-1.5 0-2.5 1-.9 1.1-.9 3.5 0 2.5 1 3.6.8 1 2.3 1 1 0 1.8-.6.8-.7 1.2-2.2zm7.4-8.4v5q1.3-1.5 3-1.5.9 0 1.6.3.7.3 1 .8.4.5.5 1.2.2.6.2 1.9v5.6h-2.6v-5l-.1-2q-.2-.4-.6-.6-.3-.3-.9-.3-.6 0-1.1.3-.5.3-.7 1-.3.6-.3 1.8v4.8h-2.5v-13.3zm8.3 8.4q0-1.3.6-2.5t1.8-1.8q1.1-.6 2.6-.6 2.2 0 3.6 1.4t1.4 3.6q0 2.2-1.5 3.6-1.4 1.5-3.5 1.5-1.3 0-2.6-.6-1.2-.6-1.8-1.8-.6-1.2-.6-2.8zm2.6.1q0 1.5.7 2.2.7.8 1.7.8t1.6-.8q.7-.7.7-2.2 0-1.4-.7-2.2-.6-.8-1.6-.8t-1.7.8q-.7.8-.7 2.2zm8.8-.1q0-1.3.6-2.5t1.8-1.8q1.1-.6 2.6-.6 2.1 0 3.6 1.4 1.4 1.4 1.4 3.6t-1.5 3.6q-1.4 1.5-3.5 1.5-1.4 0-2.6-.6-1.2-.6-1.8-1.8-.6-1.2-.6-2.8zm2.6.1q0 1.5.7 2.2.7.8 1.7.8t1.6-.8q.7-.7.7-2.2 0-1.4-.7-2.2-.6-.8-1.6-.8t-1.7.8q-.7.8-.7 2.2zm8.5 2 2.5-.3q.2.7.7 1.1.5.4 1.4.4 1 0 1.5-.4.3-.2.3-.6 0-.3-.2-.5-.1-.2-.8-.4-3.1-.6-4-1.2-1-.8-1-2.2 0-1.2.9-2 1-1 3-1t3 .7q1 .7 1.4 2l-2.4.4q-.2-.6-.6-1-.5-.2-1.3-.2-1 0-1.4.3-.3.2-.3.5t.2.5l2.4.7q2 .4 2.9 1.1.8.7.8 2t-1.1 2.2q-1.1 1-3.3 1-2 0-3.1-.8-1.2-.8-1.5-2.2zm16.8-.2 2.6.4q-.5 1.4-1.6 2.1-1 .8-2.6.8-2.5 0-3.8-1.7-1-1.3-1-3.3 0-2.4 1.3-3.8 1.3-1.3 3.2-1.3 2.2 0 3.4 1.4 1.3 1.4 1.2 4.4h-6.4q0 1 .6 1.7t1.5.7q.6 0 1-.4.4-.3.6-1zm.2-2.6q0-1.1-.6-1.7-.5-.6-1.3-.6-.9 0-1.4.6-.6.6-.5 1.7zm-57.1 14.3v5q1.2-1.5 3-1.5.9 0 1.6.3.7.3 1 .8.4.5.5 1.2.2.6.2 1.9v5.6h-2.6v-5q0-1.6-.2-2-.1-.4-.5-.6-.3-.3-.9-.3-.6 0-1.1.3-.5.3-.8 1-.2.6-.2 1.8v4.8h-2.6v-13.3zm8.3 8.4q0-1.3.6-2.5t1.8-1.8q1.1-.6 2.5-.6 2.2 0 3.6 1.4t1.4 3.6q0 2.2-1.4 3.6-1.4 1.5-3.5 1.5-1.4 0-2.6-.6-1.2-.6-1.8-1.8-.6-1.2-.6-2.8zm2.6.1q0 1.5.7 2.2.6.8 1.6.8t1.7-.8q.7-.7.7-2.2 0-1.4-.7-2.2-.7-.8-1.7-.8t-1.6.8q-.7.8-.7 2.2zm11.2 4.8-3.1-9.6h2.5l1.8 6.3 1.7-6.3h2.4l1.6 6.3 1.9-6.3h2.5l-3.1 9.6h-2.5l-1.6-6.2-1.7 6.2zm22.3-9.5v2h-1.8v5.3l.3.3.4.1 1-.2.3 2q-.9.4-2 .4-.7 0-1.3-.3-.5-.2-.8-.6-.3-.3-.3-1l-.1-1.8v-4.2h-1.2v-2h1.2v-2l2.5-1.4v3.4zm1.2 4.7q0-1.3.6-2.5t1.8-1.8q1.1-.6 2.6-.6 2.1 0 3.5 1.4 1.5 1.4 1.5 3.6t-1.5 3.6q-1.4 1.5-3.5 1.5-1.4 0-2.6-.6-1.2-.6-1.8-1.8-.6-1.2-.6-2.8zm2.6.1q0 1.5.7 2.2.7.8 1.7.8t1.6-.8q.7-.7.7-2.2 0-1.4-.7-2.2-.6-.8-1.6-.8t-1.7.8q-.7.8-.7 2.2zm-67.5 20-2.3-.4q.4-1.4 1.3-2 1-.7 2.9-.7 1.7 0 2.5.4.9.4 1.2 1 .3.6.3 2.3v3l.1 1.8q.1.7.5 1.3h-2.5q-.2-.2-.3-.7v-.3q-.7.6-1.5 1-.7.3-1.6.3-1.5 0-2.3-.8-.9-.9-.9-2.1 0-.8.4-1.5.4-.6 1.1-1 .7-.3 2-.5 1.8-.4 2.5-.7v-.2q0-.8-.3-1-.4-.4-1.4-.4-.7 0-1.1.3-.4.3-.6 1zm3.4 2.1-1.6.4q-1 .2-1.3.4-.5.4-.5 1 0 .5.4.9t1 .4q.7 0 1.3-.5.5-.3.6-.8l.1-1.3zm5-5h2.4v1.4q.4-.7 1.2-1.2.8-.4 1.8-.4 1.7 0 2.8 1.3 1.2 1.3 1.2 3.7 0 2.4-1.2 3.7-1.2 1.4-2.8 1.4-.8 0-1.5-.3l-1.4-1.1v4.8h-2.5v-13.2zm2.5 4.6q0 1.7.7 2.5.6.7 1.5.7 1 0 1.5-.7.6-.7.6-2.3 0-1.5-.6-2.3-.6-.7-1.5-.7-1 0-1.6.7-.6.7-.6 2.1zm8.9-4.6h2.4v1.4q.4-.7 1.2-1.2.8-.4 1.8-.4 1.7 0 2.8 1.3 1.2 1.3 1.2 3.7 0 2.4-1.2 3.7-1.2 1.4-2.8 1.4-.8 0-1.5-.3l-1.4-1.1v4.8h-2.5v-13.2zm2.5 4.6q0 1.7.6 2.5.7.7 1.6.7 1 0 1.5-.7.6-.7.6-2.3 0-1.5-.6-2.3-.6-.7-1.5-.7-1 0-1.6.7-.6.7-.6 2.1zm9 5v-13.3h2.5v13.3zm4-9.6h2.6l2.4 6.8 2.2-6.8h2.7l-3.5 9.3-.6 1.7-.6 1.3-.7.7q-.4.3-1 .4-.6.2-1.3.2l-1.4-.2-.3-2 1.1.1q1 0 1.3-.5.5-.5.7-1.3l-3.7-9.7zm16.6 0h2.4v1.4q.5-.7 1.3-1.2.8-.4 1.7-.4 1.7 0 2.9 1.3t1.2 3.7q0 2.4-1.2 3.7-1.2 1.4-2.9 1.4-.8 0-1.5-.3l-1.3-1.1v4.8h-2.6v-13.2zm2.5 4.6q0 1.7.7 2.5.6.7 1.6.7.9 0 1.4-.7.6-.7.6-2.3 0-1.5-.6-2.3-.6-.7-1.5-.7-1 0-1.5.7-.7.7-.7 2.1zm10.9-1.7-2.3-.4q.4-1.4 1.3-2 1-.7 2.9-.7 1.7 0 2.5.4.9.4 1.2 1 .3.6.3 2.3v3l.1 1.8.5 1.3h-2.5l-.3-.7v-.3q-.7.6-1.5 1-.7.3-1.6.3-1.5 0-2.3-.8-.9-.9-.9-2.1 0-.8.4-1.5.4-.6 1.1-1 .7-.3 2-.5 1.8-.4 2.5-.7v-.2q0-.8-.3-1-.4-.4-1.4-.4-.7 0-1 .3-.5.3-.7 1zm3.4 2.1-1.5.4q-1.1.2-1.4.4-.5.4-.5 1 0 .5.4.9t1 .4q.7 0 1.3-.5.5-.3.6-.8l.1-1.3zm4.8 5.3 3 .3q0 .5.3.7.4.3 1.1.3 1 0 1.5-.3.4-.2.6-.6v-2.6q-1 1.5-2.8 1.5-2 0-3.1-1.6-1-1.3-1-3.2 0-2.5 1.3-3.8 1.1-1.2 2.9-1.2 1.8 0 3 1.5v-1.2h2.3v8.6q0 1.8-.3 2.6-.2.9-.8 1.3-.5.5-1.3.8-.9.3-2.2.3-2.4 0-3.5-.9-1-.8-1-2.1v-.3zm2.3-5.7q0 1.5.6 2.3.6.7 1.5.7 1 0 1.6-.8.6-.7.6-2.1 0-1.5-.6-2.3-.6-.7-1.6-.7-.9 0-1.5.7t-.6 2.2zm15 2 2.5.4q-.5 1.4-1.5 2.1-1.1.8-2.7.8-2.5 0-3.7-1.7-1-1.3-1-3.3 0-2.4 1.3-3.8 1.2-1.3 3.1-1.3 2.2 0 3.5 1.4 1.2 1.4 1.1 4.4h-6.4q0 1 .6 1.7t1.5.7q.6 0 1-.4.5-.3.7-1zm.1-2.6q0-1.1-.6-1.7-.5-.6-1.3-.6t-1.4.6q-.5.6-.5 1.7z" fill="#000"/><path d="m655.8 149.6h118.2" fill="none"/><path d="m655.8 149.6h112.2" stroke="#000" stroke-linecap="butt" stroke-linejoin="round"/><path d="m768 151.3 4.5-1.7-4.6-1.6z" fill="#000" fill-rule="evenodd" stroke="#000" stroke-linecap="butt"/><path d="m549.6 213.6v135.4h224.3" fill="none"/><path d="m549.6 213.6v135.4h218.3" stroke="#000" stroke-linecap="butt" stroke-linejoin="round"/><path d="m768 350.7 4.5-1.6-4.6-1.7z" fill="#000" fill-rule="evenodd" stroke="#000" stroke-linecap="butt"/><path d="m901.6 149.6h107.5" fill="none"/><path d="m901.6 149.6h101.5" stroke="#000" stroke-linecap="butt" stroke-linejoin="round"/><path d="m1003.1 151.2 4.6-1.6-4.6-1.7z" fill="#000" fill-rule="evenodd" stroke="#000" stroke-linecap="butt"/><path d="m1051.6 279h127.6v140.1h-127.6z" fill="#fff" fill-rule="evenodd"/><path d="m1051.6 279h127.6v140.1h-127.6z" stroke="#000" stroke-linecap="butt" stroke-linejoin="round" stroke-width="2"/><path d="m1062.3 331.6h2.7v7.3l.1 2.2q.2.8.8 1.3.7.5 1.8.5 1.2 0 1.8-.4.5-.5.7-1.2v-9.7h2.8v7q0 2.5-.2 3.5-.3 1-.9 1.6-.5.7-1.5 1.1-1 .4-2.6.4-2 0-2.9-.4-1-.5-1.6-1.2-.5-.7-.7-1.4-.3-1.2-.3-3.4zm22 8.5 2.7.8q-.6 2.2-2 3.3-1.4 1-3.6 1-2.6 0-4.3-1.8-1.7-1.8-1.7-5 0-3.3 1.7-5.1 1.7-1.9 4.5-1.9 2.4 0 4 1.5.9.8 1.3 2.4l-2.6.7q-.3-1-1-1.7-.8-.6-1.8-.6-1.5 0-2.5 1.1-.9 1-.9 3.4 0 2.6 1 3.6.8 1.1 2.3 1.1 1 0 1.8-.6.8-.7 1.2-2.2zm17 4.9h-2.9l-1.2-3h-5.3l-1.1 3h-2.9l5.2-13.4h2.9zm-5-5.3-1.8-5-1.8 5h3.7zm5.8 1 2.6-.3q.2 1.3 1 2 .7.6 2 .6 1.2 0 1.9-.6.7-.5.7-1.3 0-.5-.3-.8-.3-.3-1-.6l-2.2-.5q-2.1-.6-3-1.4-1.2-1-1.2-2.7 0-1 .5-1.9.6-.9 1.7-1.3 1-.5 2.6-.5 2.6 0 3.8 1.1 1.3 1.1 1.4 3h-2.7q-.2-1-.8-1.4-.6-.4-1.7-.4-1.2 0-1.8.4-.5.3-.5.9 0 .4.4.8.5.4 2.5.9 2 .4 3 1 .9.4 1.4 1.3.5.8.5 2.1 0 1.2-.6 2.2-.6 1-1.8 1.5-1.2.4-3 .4-2.4 0-3.8-1.1-1.4-1.2-1.6-3.4zm18.4 4.3v-13.2h2.7v11h6.7v2.2zm10.7-5q0-1.2.6-2.4t1.8-1.9q1.1-.6 2.6-.6 2.2 0 3.6 1.4 1.4 1.5 1.4 3.6 0 2.2-1.5 3.7-1.4 1.4-3.5 1.4-1.3 0-2.6-.6-1.2-.6-1.8-1.7-.6-1.2-.6-2.9zm2.6.2q0 1.4.7 2.2.7.7 1.7.7t1.6-.7q.7-.8.7-2.3 0-1.4-.7-2.1-.6-.8-1.6-.8t-1.7.8q-.7.7-.7 2.2zm9.1 5.4 3 .4q0 .5.3.7.4.3 1.1.3 1 0 1.5-.3.4-.2.6-.7v-2.6q-1 1.6-2.8 1.6-2 0-3.1-1.7-1-1.2-1-3.2 0-2.4 1.3-3.7 1.1-1.3 2.9-1.3 1.8 0 3 1.6v-1.4h2.3v8.7q0 1.7-.3 2.6-.2.8-.7 1.3-.5.5-1.4.7-.9.3-2.2.3-2.4 0-3.4-.8-1-.9-1-2.1v-.4zm2.3-5.6q0 1.5.6 2.2.6.7 1.5.7 1 0 1.6-.7.6-.7.6-2.2 0-1.5-.6-2.2-.6-.7-1.6-.7-.9 0-1.5.7t-.6 2.2zm9.4-6v-2.4h2.5v2.4zm0 11v-9.7h2.5v9.7zm14 0h-2.6v-5q0-1.5-.2-2-.1-.4-.5-.7-.4-.2-.9-.2-.7 0-1.2.3-.5.4-.7 1-.2.6-.2 2.2v4.4h-2.6v-9.7h2.4v1.5q1.3-1.7 3.2-1.7.8 0 1.5.3t1.1.8q.4.5.5 1l.1 1.8v6zm-73.7 12.3h2.4v1.5q.4-.8 1.2-1.2.8-.5 1.8-.5 1.7 0 2.9 1.3 1.1 1.4 1.1 3.7 0 2.4-1.2 3.8-1.1 1.3-2.8 1.3-.8 0-1.5-.3-.6-.3-1.3-1v4.8h-2.6zm2.5 4.7q0 1.6.7 2.4.6.8 1.5.8 1 0 1.5-.7.6-.7.6-2.4 0-1.5-.6-2.2-.6-.8-1.5-.8-1 0-1.6.8-.6.7-.6 2.1zm10.9-1.7-2.4-.4q.4-1.4 1.4-2.1 1-.7 2.8-.7 1.7 0 2.6.4.8.4 1.2 1 .3.7.3 2.3v3l.1 2 .5 1.2h-2.6l-.2-.7-.1-.4q-.7.7-1.4 1-.7.3-1.6.3-1.5 0-2.4-.8-.8-.8-.8-2 0-.9.4-1.5t1-1l2.1-.6q1.8-.3 2.5-.6v-.3q0-.7-.4-1-.3-.3-1.3-.3-.7 0-1.1.2-.4.3-.6 1zm3.4 2-1.6.5-1.4.4q-.5.4-.5.9t.4 1q.4.3 1 .3.8 0 1.4-.4.5-.4.6-.9v-1.7zm4.8 5.3 3 .4q0 .5.3.7.3.3 1.1.3 1 0 1.5-.3.3-.2.5-.7l.1-1.2v-1.4q-1.1 1.6-2.9 1.6-2 0-3-1.7-1-1.2-1-3.2 0-2.4 1.2-3.7 1.2-1.3 3-1.3 1.7 0 3 1.6v-1.4h2.3v8.7q0 1.7-.3 2.6-.3.8-.8 1.3t-1.3.7q-.9.3-2.2.3-2.4 0-3.5-.8-1-.9-1-2.1zm2.3-5.6q0 1.5.6 2.2.6.7 1.4.7 1 0 1.6-.7.7-.7.7-2.2 0-1.5-.6-2.2-.7-.7-1.6-.7-1 0-1.5.7-.6.7-.6 2.2zm15 2 2.5.3q-.5 1.5-1.6 2.2-1 .7-2.6.7-2.5 0-3.8-1.6-1-1.3-1-3.4 0-2.4 1.3-3.7 1.3-1.4 3.2-1.4 2.2 0 3.4 1.4 1.3 1.5 1.2 4.4h-6.4q0 1.2.6 1.8.6.6 1.5.6.6 0 1-.3t.6-1zm0-2.7q0-1-.5-1.7-.5-.5-1.3-.5-.9 0-1.4.6-.6.6-.5 1.6h3.8z" fill="#000"/><path d="m901.6 349h150" fill="none"/><path d="m901.6 349h144" stroke="#000" stroke-linecap="butt" stroke-linejoin="round"/><path d="m1045.6 350.7 4.5-1.6-4.5-1.7z" fill="#000" fill-rule="evenodd" stroke="#000" stroke-linecap="butt"/><path d="m1115.4 213.6v65.4" fill="none"/><path d="m1115.4 213.6v59.4" stroke="#000" stroke-linecap="butt" stroke-linejoin="round"/><path d="m1113.7 273 1.7 4.6 1.6-4.6z" fill="#000" fill-rule="evenodd" stroke="#000" stroke-linecap="butt"/><path d="m1318.8 79.6h127.7v140h-127.7z" fill="#fff" fill-rule="evenodd"/><path d="m1318.8 79.6h127.7v140h-127.7z" stroke="#000" stroke-linecap="butt" stroke-linejoin="round" stroke-width="2"/><path d="m1347.3 145.5h-3l-1-3h-5.4l-1.1 3h-2.9l5.2-13.3h2.9zm-5-5.2-1.8-5-1.8 5h3.7zm6.4-4.4h2.3v1.4q.5-.7 1.3-1.2.8-.4 1.8-.4 1.7 0 2.8 1.3 1.2 1.3 1.2 3.7 0 2.4-1.2 3.7-1.2 1.4-2.9 1.4-.8 0-1.4-.3-.7-.4-1.4-1.1v4.8h-2.5v-13.2zm2.5 4.6q0 1.7.6 2.5.7.7 1.6.7 1 0 1.5-.7.6-.7.6-2.3 0-1.5-.6-2.3-.6-.7-1.5-.7-1 0-1.6.7-.6.7-.6 2.1zm8.9-4.6h2.3v1.4q.5-.7 1.3-1.2.8-.4 1.8-.4 1.6 0 2.8 1.3 1.2 1.3 1.2 3.7 0 2.4-1.2 3.7-1.2 1.4-2.9 1.4-.8 0-1.4-.3-.7-.4-1.4-1.1v4.8h-2.5v-13.2zm2.5 4.6q0 1.7.6 2.5.7.7 1.6.7 1 0 1.5-.7.6-.7.6-2.3 0-1.5-.6-2.3-.6-.7-1.5-.7-1 0-1.6.7-.6.7-.6 2.1zm9 5v-13.3h2.5v13.3h-2.6zm3.9-9.6h2.7l2.3 6.8 2.3-6.8h2.6l-3.4 9.3-.6 1.7-.6 1.3-.7.7q-.4.3-1 .4-.6.2-1.3.2l-1.5-.2-.2-2 1 .1q1 0 1.4-.5.4-.5.7-1.3zm15.9 6.9 2.5-.4q.2.7.7 1.1.5.4 1.4.4 1 0 1.5-.4.3-.2.3-.6 0-.3-.2-.5-.1-.2-.8-.4-3.1-.6-4-1.2-1-.8-1-2.2 0-1.2 1-2 1-1 3-1t3 .7q1 .7 1.3 2l-2.4.4q-.2-.6-.6-1-.5-.2-1.3-.2-1 0-1.4.3-.3.2-.3.5t.2.5l2.4.7q2 .4 2.9 1.1.8.7.8 2t-1.1 2.2q-1.1 1-3.3 1-2 0-3.1-.8-1.2-.8-1.5-2.2zm15.7-7v2.1h-1.8v5.3l.3.3.4.1 1-.2.3 2q-.9.4-2 .4-.7 0-1.3-.3-.5-.2-.8-.6-.3-.3-.4-1v-6h-1.2v-2h1.2v-2l2.5-1.4v3.4h1.8zm3.7 3-2.4-.4q.4-1.4 1.4-2 1-.7 2.8-.7 1.7 0 2.6.4.8.4 1.2 1 .3.6.3 2.3v3l.1 1.8q.1.7.5 1.3h-2.6l-.2-.7-.1-.3-1.4 1q-.8.3-1.6.3-1.5 0-2.4-.8-.8-.9-.8-2.1 0-.8.4-1.5.4-.6 1-1 .8-.3 2.1-.5 1.8-.4 2.5-.7v-.2q0-.8-.4-1-.3-.4-1.3-.4-.7 0-1.1.3-.4.3-.6 1zm3.4 2.1-1.6.4-1.4.4q-.5.4-.5 1 0 .5.4.9t1 .4q.8 0 1.4-.5.5-.3.6-.8v-1.8zm7.5 4.6h-2.6v-9.5h2.4v1.3q.6-1 1-1.2.6-.3 1.2-.3.9 0 1.7.4l-.8 2.3q-.6-.4-1.2-.4l-1 .2q-.3.3-.5 1.1t-.2 3.3v3zm9.2-9.6v2h-1.7v5.3q0 .2.2.3l.5.1 1-.2.2 2q-.9.4-2 .4-.7 0-1.2-.3-.6-.2-.9-.6-.2-.3-.3-1l-.1-1.8v-4.1h-1.2v-2h1.2v-2l2.6-1.4v3.4h1.7zm-68.8 22h2.4v1.4q.5-.7 1.3-1.2.8-.4 1.7-.4 1.7 0 2.9 1.3t1.2 3.7q0 2.4-1.2 3.7-1.2 1.4-2.9 1.4-.8 0-1.4-.3-.7-.4-1.4-1.1v4.8h-2.6v-13.2zm2.6 4.6q0 1.7.6 2.5.7.7 1.6.7.9 0 1.5-.7t.6-2.3q0-1.5-.6-2.3-.7-.7-1.6-.7-.9 0-1.5.7t-.6 2.1zm10.8-1.7-2.3-.4q.4-1.4 1.3-2 1-.7 2.9-.7 1.7 0 2.5.4.9.4 1.2 1 .4.6.4 2.3v4.8l.5 1.3h-2.5l-.3-.7v-.3q-.7.6-1.5 1-.7.3-1.6.3-1.4 0-2.3-.8-.9-.9-.9-2.1 0-.8.4-1.5.4-.6 1.1-1 .7-.3 2-.5 1.8-.4 2.5-.7v-.2q0-.8-.3-1-.4-.4-1.4-.4-.7 0-1 .3-.5.3-.7 1zm3.4 2.1-1.5.4-1.4.4q-.5.4-.5 1 0 .5.4.9t1 .4q.7 0 1.3-.5.5-.3.6-.8l.1-1.3zm4.8 5.3 3 .3q0 .5.3.7.4.3 1.2.3 1 0 1.5-.3.3-.2.5-.6v-2.6q-1 1.5-2.8 1.5-2 0-3.1-1.6-.9-1.3-.9-3.2 0-2.5 1.2-3.8 1.1-1.2 2.9-1.2 1.8 0 3 1.5v-1.2h2.3v8.6q0 1.8-.2 2.6-.3.9-.8 1.3-.5.5-1.4.8-.8.3-2.2.3-2.4 0-3.4-.9-1-.8-1-2.1v-.3zm2.3-5.7q0 1.5.6 2.3.6.7 1.5.7 1 0 1.6-.8.6-.7.6-2.1 0-1.5-.6-2.3-.6-.7-1.6-.7-.9 0-1.5.7t-.6 2.2zm15 2 2.5.4q-.5 1.4-1.5 2.1-1 .8-2.7.8-2.5 0-3.7-1.7-1-1.3-1-3.3 0-2.4 1.3-3.8 1.2-1.3 3.2-1.3 2.1 0 3.4 1.4 1.2 1.4 1.2 4.4h-6.4q0 1 .6 1.7t1.4.7q.6 0 1-.4.5-.3.7-1zm.1-2.6q0-1.1-.5-1.7-.6-.6-1.4-.6-.8 0-1.4.6-.5.6-.5 1.7z" fill="#000"/><path d="m1221.7 149.6h97.1" fill="none"/><path d="m1221.7 149.6h91.1" stroke="#000" stroke-linecap="butt" stroke-linejoin="round"/><path d="m1312.8 151.3 4.5-1.7-4.5-1.6z" fill="#000" fill-rule="evenodd" stroke="#000" stroke-linecap="butt"/><path d="m1197.1 89h75.7v45.9h-75.7z" fill="none"/><path d="m1211 115.8v-5.6l-5-7.7h3.3l3.1 5.3 3-5.3h3.2l-5 7.7v5.6zm14.5-3 2.5.4q-.4 1.4-1.5 2.1-1 .8-2.7.8-2.5 0-3.7-1.7-1-1.3-1-3.3 0-2.4 1.3-3.8t3.2-1.4q2.1 0 3.4 1.5 1.2 1.4 1.2 4.3h-6.4q0 1.2.6 1.8.6.6 1.5.6.6 0 1-.3t.6-1zm.2-2.6q0-1.1-.6-1.7-.6-.6-1.4-.6-.8 0-1.3.6-.6.6-.6 1.7zm3.7 2.9 2.5-.4q.2.7.7 1.1.5.4 1.4.4 1 0 1.5-.4.3-.2.3-.6l-.1-.5q-.2-.2-1-.4-3-.7-3.8-1.2-1.2-.8-1.2-2.2 0-1.3 1-2.1 1-.9 3-.9t3 .7q1 .6 1.4 1.9l-2.4.4q-.2-.5-.6-.8-.4-.3-1.3-.3-1 0-1.4.3-.3.2-.3.5 0 .2.3.5.3.2 2.3.7 2 .4 3 1.1.7.7.7 1.9 0 1.3-1.1 2.3-1.1 1-3.3 1-2 0-3.1-.8-1.2-.9-1.5-2.2z" fill="#000"/><path d="m1023.1 213h75.7v46h-75.7z" fill="none"/><path d="m1066.3 239.9v-13.4h2.7l5.4 9v-9h2.5v13.4h-2.7l-5.4-8.7v8.7zm12.9-5q0-1.3.6-2.5t1.8-1.8q1.1-.6 2.6-.6 2.1 0 3.6 1.4 1.4 1.4 1.4 3.6t-1.5 3.6q-1.4 1.5-3.5 1.5-1.4 0-2.6-.6-1.2-.6-1.8-1.8-.6-1.1-.6-2.8zm2.6.1q0 1.5.7 2.2.7.8 1.7.8t1.6-.8q.7-.7.7-2.2 0-1.4-.7-2.2-.6-.7-1.6-.7t-1.7.7q-.7.8-.7 2.2z" fill="#000"/></g></svg>